<svg xmlns="http://www.w3.org/2000/svg" width="825.279" height="273.56" viewBox="0 0 825.279 273.56"><g transform="translate(-406.11 -15252.103)"><path d="M31.6,0,23.03-11.922c5.123-1.389,8.044-5.075,8.044-10.486,0-6.99-4.979-11.108-13.311-11.108H6.129V0H7.757V-11.252H17.763a21.57,21.57,0,0,0,3.639-.287L29.685,0ZM7.757-12.736v-19.3h10.1c7.517,0,11.635,3.5,11.635,9.624,0,6.176-4.118,9.672-11.635,9.672Zm52.428.1c0-7.278-5.027-12.4-11.635-12.4-6.7,0-11.683,5.219-11.683,12.592A12.119,12.119,0,0,0,49.46.144,11.841,11.841,0,0,0,58.7-3.926L57.7-4.979A10.149,10.149,0,0,1,49.46-1.293,10.654,10.654,0,0,1,38.4-12.209H60.185ZM48.55-23.6c5.6,0,9.767,4.261,10.15,10.1H38.447C38.783-19.343,42.9-23.6,48.55-23.6Zm26.861-1.436A14.432,14.432,0,0,0,65.643-21.4l.862,1.149A12.844,12.844,0,0,1,75.363-23.6c5.027,0,7.661,2.586,7.661,7.517v2.442H73.974c-6.751,0-9.049,3.16-9.049,6.8,0,4.166,3.3,6.99,8.906,6.99,4.549,0,7.709-2.011,9.241-5.123V0H84.6V-16.088C84.6-21.929,81.348-25.041,75.411-25.041ZM73.926-1.2C69.282-1.2,66.5-3.4,66.5-6.943c0-3.112,2.059-5.41,7.469-5.41h9.049v5.171C81.491-3.352,78.523-1.2,73.926-1.2Zm41.081-34.33v17.332a11.353,11.353,0,0,0-10.677-6.847c-6.895,0-12.161,5.171-12.161,12.592S97.435.144,104.33.144A11.335,11.335,0,0,0,115.055-6.8V0h1.532V-35.527ZM104.378-1.293c-6.081,0-10.629-4.549-10.629-11.156S98.3-23.557,104.378-23.557s10.629,4.5,10.629,11.108S110.458-1.293,104.378-1.293Z" transform="translate(406.002 15516.373)" fill="#fff"/><path d="M31.6,0,23.03-11.922c5.123-1.389,8.044-5.075,8.044-10.486,0-6.99-4.979-11.108-13.311-11.108H6.129V0H7.757V-11.252H17.763a21.57,21.57,0,0,0,3.639-.287L29.685,0ZM7.757-12.736v-19.3h10.1c7.517,0,11.635,3.5,11.635,9.624,0,6.176-4.118,9.672-11.635,9.672Zm52.428.1c0-7.278-5.027-12.4-11.635-12.4-6.7,0-11.683,5.219-11.683,12.592A12.119,12.119,0,0,0,49.46.144,11.841,11.841,0,0,0,58.7-3.926L57.7-4.979A10.149,10.149,0,0,1,49.46-1.293,10.654,10.654,0,0,1,38.4-12.209H60.185ZM48.55-23.6c5.6,0,9.767,4.261,10.15,10.1H38.447C38.783-19.343,42.9-23.6,48.55-23.6ZM77.517.144A11.143,11.143,0,0,0,86.71-4.118l-1.2-.958a9.506,9.506,0,0,1-8,3.782c-6.176,0-10.773-4.5-10.773-11.156,0-6.607,4.6-11.108,10.773-11.108a9.506,9.506,0,0,1,8,3.782l1.2-1.005a11.143,11.143,0,0,0-9.193-4.261c-7.134,0-12.353,5.171-12.353,12.592S70.383.144,77.517.144Zm17.524-31.5a1.594,1.594,0,0,0,1.58-1.58,1.585,1.585,0,0,0-1.58-1.532,1.594,1.594,0,0,0-1.58,1.58A1.585,1.585,0,0,0,95.041-31.361ZM94.275,0h1.58V-24.85h-1.58ZM117.4-2.729a5.954,5.954,0,0,1-4.022,1.484c-3.208,0-4.884-1.867-4.884-5.219v-17h8.187V-24.85H108.5v-5.458h-1.58v5.458h-4.692v1.389h4.692V-6.224c0,3.878,2.2,6.368,6.32,6.368a7.413,7.413,0,0,0,4.979-1.724Zm27.387-9.911c0-7.278-5.027-12.4-11.635-12.4-6.7,0-11.683,5.219-11.683,12.592A12.119,12.119,0,0,0,134.063.144a11.841,11.841,0,0,0,9.241-4.07L142.3-4.979a10.149,10.149,0,0,1-8.235,3.687A10.654,10.654,0,0,1,123-12.209h21.785ZM133.153-23.6c5.6,0,9.767,4.261,10.15,10.1H123.051C123.386-19.343,127.5-23.6,133.153-23.6Z" transform="translate(541.654 15516.373)" fill="#fff"/><path d="M31.6,0,23.03-11.922c5.123-1.389,8.044-5.075,8.044-10.486,0-6.99-4.979-11.108-13.311-11.108H6.129V0H7.757V-11.252H17.763a21.57,21.57,0,0,0,3.639-.287L29.685,0ZM7.757-12.736v-19.3h10.1c7.517,0,11.635,3.5,11.635,9.624,0,6.176-4.118,9.672-11.635,9.672Zm52.428.1c0-7.278-5.027-12.4-11.635-12.4-6.7,0-11.683,5.219-11.683,12.592A12.119,12.119,0,0,0,49.46.144,11.841,11.841,0,0,0,58.7-3.926L57.7-4.979A10.149,10.149,0,0,1,49.46-1.293,10.654,10.654,0,0,1,38.4-12.209H60.185ZM48.55-23.6c5.6,0,9.767,4.261,10.15,10.1H38.447C38.783-19.343,42.9-23.6,48.55-23.6Zm31.7-1.436a11.306,11.306,0,0,0-10.725,6.99v-6.8H67.989V9.289h1.58V-6.655A11.385,11.385,0,0,0,80.246.144c6.895,0,12.161-5.171,12.161-12.544C92.408-19.822,87.141-25.041,80.246-25.041ZM80.2-1.293c-6.081,0-10.629-4.5-10.629-11.108S74.118-23.557,80.2-23.557,90.828-19.008,90.828-12.4,86.279-1.293,80.2-1.293ZM120.7-12.64c0-7.278-5.027-12.4-11.635-12.4-6.7,0-11.683,5.219-11.683,12.592A12.119,12.119,0,0,0,109.98.144a11.841,11.841,0,0,0,9.241-4.07l-1.005-1.053a10.149,10.149,0,0,1-8.235,3.687,10.654,10.654,0,0,1-11.06-10.917H120.7ZM109.07-23.6c5.6,0,9.767,4.261,10.15,10.1H98.967C99.3-19.343,103.42-23.6,109.07-23.6Zm26.861-1.436a14.432,14.432,0,0,0-9.767,3.639l.862,1.149a12.844,12.844,0,0,1,8.858-3.352c5.027,0,7.661,2.586,7.661,7.517v2.442h-9.049c-6.751,0-9.049,3.16-9.049,6.8,0,4.166,3.3,6.99,8.906,6.99,4.549,0,7.709-2.011,9.241-5.123V0h1.532V-16.088C145.123-21.929,141.868-25.041,135.93-25.041ZM134.446-1.2c-4.644,0-7.421-2.2-7.421-5.746,0-3.112,2.059-5.41,7.469-5.41h9.049v5.171C142.011-3.352,139.043-1.2,134.446-1.2Zm31.936-1.532a5.954,5.954,0,0,1-4.022,1.484c-3.208,0-4.884-1.867-4.884-5.219v-17h8.187V-24.85h-8.187v-5.458H155.9v5.458H151.2v1.389H155.9V-6.224c0,3.878,2.2,6.368,6.32,6.368A7.413,7.413,0,0,0,167.2-1.58Z" transform="translate(705.23 15516.373)" fill="#fff"/><path d="M2.4,0A2.4,2.4,0,1,1,0,2.4,2.4,2.4,0,0,1,2.4,0Z" transform="translate(533.758 15497.946)" fill="#fff"/><path d="M2.4,0A2.4,2.4,0,1,1,0,2.4,2.4,2.4,0,0,1,2.4,0Z" transform="translate(696.021 15497.946)" fill="#fff"/><path d="M28.955,0h32.7V-71.625h28.4V-96.978H.554v25.353h28.4ZM161.4-96.978V-62.62H131.2V-96.978H98.5V0h32.7V-35.743h30.2V0h32.7V-96.978ZM260.731,2.217c31.587,0,54.723-21.335,54.723-50.705s-23.136-50.705-54.723-50.705-54.723,21.335-54.723,50.705S229.144,2.217,260.731,2.217Zm0-26.461c-12.053,0-21.751-9.144-21.751-24.244s9.7-24.244,21.751-24.244,21.751,9.144,21.751,24.244S272.784-24.244,260.731-24.244ZM373.779,2.217c29.786,0,47.242-16.763,47.242-45.857V-96.978H388.88V-44.61c0,14.824-5.68,20.365-14.824,20.365s-14.824-5.542-14.824-20.365V-96.978h-32.7V-43.64C326.537-14.547,343.993,2.217,373.779,2.217ZM500.127-26.6a30.441,30.441,0,0,1-11.914,2.355c-13.992,0-23.136-9.7-23.136-24.244,0-14.962,9.144-24.244,23.552-24.244,8.589,0,15.655,3.6,21.751,10.668L531.3-80.491c-9.836-12.053-25.214-18.7-44.333-18.7-32,0-54.862,20.919-54.862,50.705S454.964,2.217,486.273,2.217c14.27,0,30.479-4.295,42.255-12.33V-51.121h-28.4Zm105.29-70.378V-62.62h-30.2V-96.978h-32.7V0h32.7V-35.743h30.2V0h32.7V-96.978ZM674.964,0h32.7V-71.625h28.4V-96.978h-89.5v25.353h28.4ZM780.67,2.217c30.063,0,45.164-14.962,45.164-32.7,0-35.743-53.615-26.045-53.615-37.683,0-3.325,3.048-6.1,12.607-6.1,8.451,0,17.456,2.355,27.015,7.2l9.836-23.69c-10.113-5.68-23.552-8.451-36.574-8.451-30.063,0-45.164,14.685-45.164,32.7,0,36.159,53.615,26.322,53.615,38.514,0,3.325-3.325,5.264-12.607,5.264a66.533,66.533,0,0,1-32-8.867L738.415-7.758C748.113-1.8,764.461,2.217,780.67,2.217Z" transform="translate(405.556 15456.469)" fill="#fff"/><path d="M44.056,2.217c30.063,0,45.164-14.962,45.164-32.7,0-35.743-53.615-26.045-53.615-37.683,0-3.325,3.048-6.1,12.607-6.1,8.451,0,17.456,2.355,27.015,7.2l9.836-23.69c-10.113-5.68-23.552-8.451-36.574-8.451-30.063,0-45.164,14.685-45.164,32.7,0,36.159,53.615,26.322,53.615,38.514,0,3.325-3.325,5.264-12.607,5.264a66.533,66.533,0,0,1-32-8.867L1.8-7.758C11.5-1.8,27.846,2.217,44.056,2.217ZM161.814-96.978V-62.62h-30.2V-96.978h-32.7V0h32.7V-35.743h30.2V0h32.7V-96.978ZM282.9,0h33.8L274.308-96.978H242.167L199.774,0h33.249l6.511-16.9h36.851ZM248.54-40.454l9.421-24.383,9.421,24.383ZM380.014,0h34.912L394.56-29.925C406.2-35.882,412.848-46.411,412.848-60.4c0-22.443-17.179-36.574-44.194-36.574H321.966V0h32.7V-24.383h8.867Zm-.139-60.4c0,7.066-4.295,11.36-13.3,11.36H354.661v-22.72h11.914C375.58-71.763,379.875-67.469,379.875-60.4ZM425.178,0h32.7V-96.978h-32.7ZM537.394-96.978v44.056L500.543-96.978H473.666V0H505.53V-44.056L542.382,0h26.877V-96.978ZM649.2-26.6a30.441,30.441,0,0,1-11.914,2.355c-13.992,0-23.136-9.7-23.136-24.244,0-14.962,9.144-24.244,23.552-24.244,8.589,0,15.655,3.6,21.751,10.668l20.919-18.426c-9.836-12.053-25.214-18.7-44.333-18.7-32,0-54.862,20.919-54.862,50.705S604.032,2.217,635.342,2.217c14.27,0,30.479-4.295,42.255-12.33V-51.121H649.2Z" transform="translate(406.12 15351.297)" fill="#fff"/></g></svg>