<svg xmlns="http://www.w3.org/2000/svg" xmlns:xlink="http://www.w3.org/1999/xlink" width="1080" height="1929" viewBox="0 0 1080 1929"><defs><clipPath id="b"><rect width="1080" height="1929"/></clipPath></defs><g id="a" clip-path="url(#b)"><rect width="1080" height="1929" fill="#f9f9f9"/><g transform="translate(217.664 159.222)"><text transform="translate(0 16)" fill="#494949" font-size="20" font-family="CircularStd-Medium, Circular Std Medium" font-weight="500" opacity="0.74"><tspan x="0" y="0">Trigger</tspan></text><g transform="translate(0 31.411)"><rect width="290.178" height="155.559" transform="translate(0 0)" fill="#00acff"/><text transform="translate(137.318 123.208)" fill="#fff" font-size="25" font-family="CircularStd-Book, Circular Std Book"><tspan x="-73.3" y="0">Event Search</tspan></text><g transform="translate(118.187 25.115)"><path d="M51.424,45.649a10.3,10.3,0,0,0-4.039-4.679,18.513,18.513,0,0,0-4.758-2.47,3.665,3.665,0,0,0-4.237-5.253,14.786,14.786,0,0,0-2.5-11.124V14.633a.757.757,0,0,0-1.514,0v5.678a14.926,14.926,0,0,0-2-1.707,14.824,14.824,0,0,0-23.316,13.8,14.917,14.917,0,0,0,.43,2.2H4.085a2.573,2.573,0,0,1-2.571-2.571V4.319A2.573,2.573,0,0,1,4.085,1.748H31.808a2.573,2.573,0,0,1,2.571,2.571V11.6c0,.418.09,6.607.508,6.607s1.006-1.726,1.006-2.145V4.319A4.09,4.09,0,0,0,31.808.234H4.085A4.09,4.09,0,0,0,0,4.319V32.041a4.09,4.09,0,0,0,4.085,4.085H10a14.761,14.761,0,0,0,3.949,5.645,24.894,24.894,0,0,0,2.484,1.757c.209,0,1.111.381,1.261.212.277-.313-2.427-2.825-2.74-3.1a13.31,13.31,0,1,1,21.6-6.178c-.049.061-.1.123-.144.187L31.669,41.3c-.046.065-.089.131-.131.2a13.32,13.32,0,0,1-14.256.794.757.757,0,1,0-.742,1.32A14.838,14.838,0,0,0,31,43.636,3.665,3.665,0,0,0,34.649,47.1a3.708,3.708,0,0,0,.618-.052,3.639,3.639,0,0,0,2.082-1.126A18.5,18.5,0,0,0,41.243,49.6c2.391,1.7,4.269,2.278,5.717,2.278A4.6,4.6,0,0,0,50.8,49.9a4.533,4.533,0,0,0,.624-4.252Zm-16.409-.1a2.153,2.153,0,0,1-2.112-3.37l4.735-6.657a2.138,2.138,0,0,1,1.4-.875,2.181,2.181,0,0,1,.363-.03,2.153,2.153,0,0,1,1.75,3.4l-4.735,6.657a2.138,2.138,0,0,1-1.4.875Zm14.551,3.471a3.021,3.021,0,0,1-2.591,1.341,9.408,9.408,0,0,1-4.855-1.994,16.535,16.535,0,0,1-3.83-3.723l3.443-4.84a16.541,16.541,0,0,1,4.773,2.4c1.962,1.4,4.968,4.137,3.059,6.82Z" transform="translate(0 -0.234)" fill="#fff"/><path d="M46.96,52.032v0a10.453,10.453,0,0,1-5.8-2.305,18.728,18.728,0,0,1-3.819-3.579,3.772,3.772,0,0,1-2.045,1.046,3.869,3.869,0,0,1-.643.054,3.815,3.815,0,0,1-3.781-3.37,14.988,14.988,0,0,1-14.4-.13.913.913,0,0,1-.136-.093,28.544,28.544,0,0,1-2.486-1.771,14.991,14.991,0,0,1-3.951-5.607H4.085A4.24,4.24,0,0,1-.15,32.041V4.319A4.24,4.24,0,0,1,4.085.084H31.808a4.24,4.24,0,0,1,4.235,4.235V22.074a14.936,14.936,0,0,1,2.533,10.971q.092-.02.182-.035a3.875,3.875,0,0,1,.643-.054,3.784,3.784,0,0,1,2.2.708,3.825,3.825,0,0,1,1.233,4.75,18.739,18.739,0,0,1,4.634,2.434A10.443,10.443,0,0,1,51.566,45.6a4.677,4.677,0,0,1-.643,4.388A4.76,4.76,0,0,1,46.96,52.032Zm-9.6-6.345.109.141a18.3,18.3,0,0,0,3.862,3.654,10.173,10.173,0,0,0,5.63,2.25,4.466,4.466,0,0,0,3.719-1.918,4.388,4.388,0,0,0,.6-4.116A10.163,10.163,0,0,0,47.3,41.091a18.308,18.308,0,0,0-4.719-2.45l-.169-.056.084-.157a3.523,3.523,0,0,0-1.063-4.522,3.486,3.486,0,0,0-2.031-.652,3.537,3.537,0,0,0-.97.135l-.23.065.042-.236A14.731,14.731,0,0,0,35.77,22.208l-.028-.039V17.207c-.019.049-.038.1-.058.145-.415,1.008-.7,1.008-.8,1.008-.159,0-.265-.127-.358-.743v3.06l-.257-.262a14.822,14.822,0,0,0-1.98-1.69,14.55,14.55,0,0,0-8.475-2.72,14.909,14.909,0,0,0-2.472.208A14.675,14.675,0,0,0,9.211,32.391a14.819,14.819,0,0,0,.425,2.182l.052.19h-5.6a2.724,2.724,0,0,1-2.721-2.721V4.319A2.724,2.724,0,0,1,4.085,1.6H31.808a2.724,2.724,0,0,1,2.721,2.721V11.6c0,.174.014,1.171.052,2.312a.9.9,0,0,1,1.163.045V4.319A3.94,3.94,0,0,0,31.808.384H4.085A3.94,3.94,0,0,0,.15,4.319V32.041a3.94,3.94,0,0,0,3.935,3.935H10.1l.037.1a14.689,14.689,0,0,0,3.908,5.587c.131.116,1.308,1,1.975,1.454a.906.906,0,0,1,.359-.89c-.695-.712-1.417-1.374-1.528-1.473a13.461,13.461,0,0,1,6.7-23.338,13.671,13.671,0,0,1,2.267-.191A13.452,13.452,0,0,1,36.691,34.5l-.008.029-.019.023c-.055.068-.1.125-.138.18l-4.735,6.657c-.039.055-.079.116-.125.19l-.016.025-.024.017a13.469,13.469,0,0,1-14.417.8.607.607,0,0,0-.295-.078c1.043,1.113,1.013,1.348.887,1.49a.377.377,0,0,1-.333.09A14.692,14.692,0,0,0,30.925,43.5l.209-.116.014.239a3.515,3.515,0,0,0,3.5,3.32,3.569,3.569,0,0,0,.593-.05,3.477,3.477,0,0,0,2-1.08ZM16.912,42.049a.908.908,0,0,1,.444.116A13.169,13.169,0,0,0,31.427,41.4c.043-.069.082-.127.12-.181l4.735-6.657c.038-.054.08-.109.13-.172a13.165,13.165,0,0,0-12.6-16.868,13.371,13.371,0,0,0-2.217.186,13.161,13.161,0,0,0-6.548,22.818c.117.1.892.814,1.613,1.56A.9.9,0,0,1,16.912,42.049Zm-.436,1.331a2.869,2.869,0,0,1,.407.1,3.078,3.078,0,0,0,.659.149h.006a4.863,4.863,0,0,0-.959-1.191.6.6,0,0,0-.207.217A.611.611,0,0,0,16.476,43.381ZM4.085,1.9A2.423,2.423,0,0,0,1.665,4.319V32.042a2.423,2.423,0,0,0,2.421,2.421H9.3a15.11,15.11,0,0,1-.383-2.036A14.975,14.975,0,0,1,21.294,15.918a15.209,15.209,0,0,1,2.522-.212,14.849,14.849,0,0,1,8.649,2.776,15.137,15.137,0,0,1,1.764,1.468V14.633a.9.9,0,0,1,.065-.338c-.048-1.292-.065-2.5-.065-2.692V4.319A2.423,2.423,0,0,0,31.808,1.9ZM34.6,14.355a16.153,16.153,0,0,0,.333,3.686,1.978,1.978,0,0,0,.479-.8,4.446,4.446,0,0,0,.335-1.172V14.622a.607.607,0,0,0-1.147-.267ZM46.976,50.514a9.512,9.512,0,0,1-4.942-2.022,16.8,16.8,0,0,1-3.865-3.758l-.062-.087,3.567-5.015.1.03a16.8,16.8,0,0,1,4.817,2.418c2.007,1.428,5.078,4.24,3.095,7.029A3.17,3.17,0,0,1,46.976,50.514Zm-8.5-5.867a16.6,16.6,0,0,0,3.732,3.6,9.235,9.235,0,0,0,4.768,1.966,2.885,2.885,0,0,0,2.469-1.278c1.832-2.576-1.108-5.248-3.024-6.611a16.6,16.6,0,0,0-4.626-2.344Zm-3.823,1.086a2.3,2.3,0,0,1-1.872-3.638l4.735-6.657a2.287,2.287,0,0,1,1.493-.936,2.339,2.339,0,0,1,.388-.033,2.3,2.3,0,0,1,1.872,3.638l-4.735,6.657a2.287,2.287,0,0,1-1.493.936A2.333,2.333,0,0,1,34.652,45.733ZM39.4,34.77a2.039,2.039,0,0,0-.338.028,1.989,1.989,0,0,0-1.3.814l-4.735,6.657a2,2,0,0,0,1.627,3.164,2.033,2.033,0,0,0,.338-.028,1.989,1.989,0,0,0,1.3-.814l4.735-6.657A2,2,0,0,0,39.4,34.77Z" transform="translate(0 -0.234)" fill="#fff"/><path d="M140.1,217.09a10.859,10.859,0,0,0,1.806-.152,10.675,10.675,0,1,0-1.806.152Zm-7.481-16.063a9.209,9.209,0,1,1,2.166,12.841A9.2,9.2,0,0,1,132.618,201.027Z" transform="translate(-116.337 -175.915)" fill="#fff"/><path d="M140.1,217.24a10.877,10.877,0,0,1-8.837-17.178,10.9,10.9,0,0,1,8.875-4.567,10.871,10.871,0,0,1,1.794,21.591A11.045,11.045,0,0,1,140.1,217.24Zm.038-21.445a10.57,10.57,0,0,0-6.143,19.185,10.481,10.481,0,0,0,6.106,1.96,10.745,10.745,0,0,0,1.781-.15,10.571,10.571,0,0,0-1.744-20.995Zm-.035,19.93A9.362,9.362,0,0,1,132.5,200.94a9.386,9.386,0,0,1,7.639-3.931,9.357,9.357,0,0,1,1.544,18.583A9.5,9.5,0,0,1,140.1,215.725Zm.032-18.416a9.056,9.056,0,0,0-5.263,16.437,8.98,8.98,0,0,0,5.231,1.679,9.2,9.2,0,0,0,1.526-.128,9.056,9.056,0,0,0-1.494-17.988Z" transform="translate(-116.337 -175.915)" fill="#fff"/></g></g></g><g transform="translate(217.664 785.323)"><text transform="translate(0 16)" fill="#494949" font-size="20" font-family="CircularStd-Medium, Circular Std Medium" font-weight="500" opacity="0.74"><tspan x="0" y="0">Trigger</tspan></text><g transform="translate(0 31.411)"><rect width="288.682" height="155.559" transform="translate(0 0)" fill="#00acff"/><text transform="translate(136.839 123.208)" fill="#fff" font-size="25" font-family="CircularStd-Book, Circular Std Book"><tspan x="-80.125" y="0">Desire to Host</tspan></text><g transform="translate(115.174 30.289)"><g transform="translate(0 0)"><path d="M58.811,16.269H57.66V12.982a2.172,2.172,0,1,0-4.344,0v3.287H40.949V12.982a2.172,2.172,0,0,0-4.344,0v3.287H24.238V12.982a2.172,2.172,0,0,0-4.344,0v3.287H18.743A9.413,9.413,0,0,0,9.33,25.682V58.148a9.413,9.413,0,0,0,9.413,9.413H58.811a9.412,9.412,0,0,0,9.413-9.412V25.682a9.413,9.413,0,0,0-9.413-9.413ZM18.75,20.613H19.9V23.9a2.172,2.172,0,0,0,4.344,0V20.613H36.6V23.9a2.172,2.172,0,0,0,4.344,0V20.613H53.315V23.9a2.172,2.172,0,0,0,4.344,0V20.613h1.151a5.068,5.068,0,0,1,5.068,5.068v3.693h-50.2V25.682a5.068,5.068,0,0,1,5.068-5.068Zm40.061,42.6H18.743a5.068,5.068,0,0,1-5.068-5.068V33.719h50.2V58.148a5.068,5.068,0,0,1-5.068,5.068Z" transform="translate(-9.33 -10.81)" fill="#fff"/><path d="M54.867,56.493h-7.03v-7.03a2.172,2.172,0,0,0-4.344,0v7.03h-7.03a2.172,2.172,0,0,0,0,4.344h7.03v7.03a2.172,2.172,0,0,0,4.344,0v-7.03h7.03a2.172,2.172,0,1,0,0-4.344Z" transform="translate(-16.218 -20.877)" fill="#fff"/></g></g></g></g><g transform="translate(573.654 156.231)"><text transform="translate(0.001 16)" fill="#494949" font-size="20" font-family="CircularStd-Medium, Circular Std Medium" font-weight="500" opacity="0.74"><tspan x="0" y="0">Action</tspan></text><g transform="translate(0.002 34.402)"><rect width="288.682" height="155.559" transform="translate(0 0)" fill="#00acff"/><text transform="translate(140.822 124.208)" fill="#fff" font-size="26" font-family="CircularStd-Book, Circular Std Book"><tspan x="-78.169" y="0">Browse/Book</tspan></text><g transform="translate(110.336 40.436)"><path d="M65.406,6.651a1.109,1.109,0,0,0,1.109-1.109V1.109A1.109,1.109,0,0,0,65.406,0H1.109A1.109,1.109,0,0,0,0,1.109V5.543A1.109,1.109,0,0,0,1.109,6.651a2.217,2.217,0,0,1,0,4.434A1.109,1.109,0,0,0,0,12.194v8.869a1.109,1.109,0,0,0,1.109,1.109,2.217,2.217,0,1,1,0,4.434A1.109,1.109,0,0,0,0,27.714v4.434a1.109,1.109,0,0,0,1.109,1.109h64.3a1.109,1.109,0,0,0,1.109-1.109V27.714a1.109,1.109,0,0,0-1.109-1.109,2.217,2.217,0,0,1,0-4.434,1.109,1.109,0,0,0,1.109-1.109V12.194a1.109,1.109,0,0,0-1.109-1.109,2.217,2.217,0,0,1,0-4.434ZM64.3,13.163v6.931a4.434,4.434,0,0,0,0,8.589V31.04H15.52V27.714H13.3V31.04H2.217V28.683a4.434,4.434,0,0,0,0-8.589V13.163a4.434,4.434,0,0,0,0-8.589V2.217H13.3V5.543H15.52V2.217H64.3V4.574a4.434,4.434,0,0,0,0,8.589Zm0,0" fill="#fff"/><path d="M96,64h2.217v2.217H96Zm0,0" transform="translate(-82.697 -55.131)" fill="#fff"/><path d="M96,96h2.217v2.217H96Zm0,0" transform="translate(-82.697 -82.697)" fill="#fff"/><path d="M96,128h2.217v2.217H96Zm0,0" transform="translate(-82.697 -110.263)" fill="#fff"/><path d="M96,168h2.217v2.217H96Zm0,0" transform="translate(-82.697 -144.72)" fill="#fff"/></g></g></g><g transform="translate(570.664 782.332)"><text transform="translate(0 16)" fill="#494949" font-size="20" font-family="CircularStd-Medium, Circular Std Medium" font-weight="500" opacity="0.74"><tspan x="0" y="0">Action</tspan></text><g transform="translate(0 34.402)"><rect width="290.178" height="155.559" transform="translate(0 0)" fill="#00acff"/><text transform="translate(140.318 124.208)" fill="#fff" font-size="26" font-family="CircularStd-Book, Circular Std Book"><tspan x="-75.608" y="0">Create Event</tspan></text><g transform="translate(119.661 31.901)"><path d="M9.347,0A9.349,9.349,0,0,0,.012,9.335V42.812a9.349,9.349,0,0,0,9.335,9.335H42.816a9.346,9.346,0,0,0,9.332-9.335V9.335A9.345,9.345,0,0,0,42.816,0Zm0,3.259H42.816A6.032,6.032,0,0,1,48.9,9.335V42.812a6.032,6.032,0,0,1-6.085,6.076H9.347a6.035,6.035,0,0,1-6.089-6.076V9.335A6.036,6.036,0,0,1,9.347,3.259Zm10.106,6.28a1.628,1.628,0,0,0-1.155.481l-3.9,3.9L12.26,11.776a1.628,1.628,0,1,0-2.3,2.308l3.282,3.286h0a1.635,1.635,0,0,0,2.312,0l5.054-5.052a1.63,1.63,0,0,0-1.155-2.778Zm6.881,2.528v0a1.63,1.63,0,1,0,0,3.259H41.058a1.63,1.63,0,0,0,0-3.259Zm-6.881,9.851v0A1.628,1.628,0,0,0,18.3,22.4l-3.9,3.9L12.26,24.153v0a1.625,1.625,0,0,0-2.3,2.3l3.282,3.294h0a1.63,1.63,0,0,0,2.312,0L20.608,24.7a1.63,1.63,0,0,0-1.155-2.778Zm6.881,2.528v0a1.63,1.63,0,1,0,0,3.259H41.058a1.63,1.63,0,0,0,0-3.259ZM19.453,34.3v0a1.628,1.628,0,0,0-1.155.481l-3.9,3.9L12.26,36.532a1.625,1.625,0,0,0-2.3,2.3l3.282,3.3,0,0a1.63,1.63,0,0,0,2.312,0l5.054-5.054A1.63,1.63,0,0,0,19.453,34.3Zm6.881,2.528v0a1.63,1.63,0,1,0,0,3.259H41.058a1.63,1.63,0,0,0,0-3.259Z" transform="translate(-0.012 0)" fill="#fff"/></g></g></g><g transform="translate(573.654 375.031)"><text transform="translate(0.001 16)" fill="#494949" font-size="20" font-family="CircularStd-Medium, Circular Std Medium" font-weight="500" opacity="0.74"><tspan x="0" y="0">Investment</tspan></text><g transform="translate(0.002 34.402)"><rect width="288.682" height="180.987" transform="translate(0 0)" fill="#00acff"/><text transform="translate(135.873 123.207)" fill="#fff" font-size="25" font-family="CircularStd-Book, Circular Std Book"><tspan x="-49.525" y="0">Reviews,</tspan><tspan x="-90.85" y="29">Future Bookings</tspan></text><g transform="translate(113.643 24.306)"><g transform="translate(0)"><path d="M32.07,50.152H25.559a.933.933,0,0,0-.657.272l-7.715,7.715V51.084a.93.93,0,0,0-.931-.931H8.815a2.794,2.794,0,0,1-2.791-2.791V21.315a2.794,2.794,0,0,1,2.791-2.791h6.512a.931.931,0,0,0,0-1.863H8.815a4.658,4.658,0,0,0-4.651,4.651V47.358A4.658,4.658,0,0,0,8.815,52.01h6.512v8.372a.927.927,0,0,0,.573.858.938.938,0,0,0,.356.071.925.925,0,0,0,.657-.272L25.94,52.01h6.127a.931.931,0,1,0,0-1.863Z" transform="translate(-4.164 -12.014)" fill="#fff"/><path d="M50.933,18.528H68.608A2.794,2.794,0,0,1,71.4,21.319V40.854a.931.931,0,1,0,1.863,0V21.319a4.658,4.658,0,0,0-4.651-4.651H50.936a.931.931,0,0,0,0,1.863Z" transform="translate(-19.304 -12.016)" fill="#fff"/><path d="M25.472,19.023h-.931a.931.931,0,0,0,0,1.863h.931a5.587,5.587,0,0,0,5.58-5.58V10.654a.93.93,0,0,0-.931-.931h-5.58a.932.932,0,0,0-.931.931v2.791a.931.931,0,1,0,1.863,0v-1.86h3.72v3.72a3.725,3.725,0,0,1-3.72,3.72Z" transform="translate(-10.586 -9.722)" fill="#fff"/><path d="M39.358,19.023h-.931a.931.931,0,0,0,0,1.863h.931a5.587,5.587,0,0,0,5.58-5.58V10.654a.93.93,0,0,0-.931-.931h-5.58a.932.932,0,0,0-.931.931v2.791a.931.931,0,1,0,1.863,0v-1.86h3.72v3.72a3.725,3.725,0,0,1-3.72,3.72Z" transform="translate(-15.173 -9.722)" fill="#fff"/><path d="M77.451,51.194a.935.935,0,0,0-.827-.672l-12.431-.889-4.44-11.539a.931.931,0,0,0-1.737,0l-4.44,11.539-12.431.889a.93.93,0,0,0-.479,1.68l9.706,7.058-3.542,12.4a.93.93,0,0,0,1.41,1.031l10.645-7.1,10.645,7.1a.924.924,0,0,0,.515.157.942.942,0,0,0,.549-.178.932.932,0,0,0,.345-1.007L67.4,59.262,77.1,52.2a.93.93,0,0,0,.348-1.007ZM65.775,58.14a.93.93,0,0,0-.348,1.007l3.024,10.59L59.4,63.7a.924.924,0,0,0-1.031,0l-9.057,6.038,3.024-10.59a.93.93,0,0,0-.348-1.007L43.811,52.2l10.48-.748a.931.931,0,0,0,.8-.594l3.783-9.834,3.783,9.834a.936.936,0,0,0,.8.594l10.48.748L65.77,58.14Z" transform="translate(-16.093 -18.895)" fill="#fff"/></g></g></g></g><g transform="translate(570.663 1001.132)"><text transform="translate(0 16)" fill="#494949" font-size="20" font-family="CircularStd-Medium, Circular Std Medium" font-weight="500" opacity="0.74"><tspan x="0" y="0">Investment</tspan></text><g transform="translate(0 34.402)"><rect width="290.178" height="180.987" transform="translate(0 0)" fill="#00acff"/><text transform="translate(136.369 123.207)" fill="#fff" font-size="25" font-family="CircularStd-Book, Circular Std Book"><tspan x="-90.1" y="0">Repeat Hosting,</tspan><tspan x="-75.725" y="29">Analytics Use</tspan></text><g transform="translate(118.165 27.298)"><path d="M46,15.385h9.823a.664.664,0,0,1,.665.665V55.822a.666.666,0,0,1-.665.665H46a.666.666,0,0,1-.665-.665V16.05A.664.664,0,0,1,46,15.385ZM7.53,18.369A3.463,3.463,0,1,0,10.638,20.3L19.7,13.418a3.464,3.464,0,0,0,5.394-1.013L33,14.655a3.463,3.463,0,1,0,6.557-1.239l11.976-9.1L50.378,8.632a.664.664,0,1,0,1.284.344l1.658-6.187h0a.661.661,0,0,0-.689-.834H46.272a.662.662,0,1,0,0,1.323H50.71L38.757,12.364a3.466,3.466,0,0,0-5.4,1.013l-7.91-2.25h0a3.464,3.464,0,1,0-6.56,1.239L9.836,19.249a3.455,3.455,0,0,0-2.306-.88Zm0,1.33a2.134,2.134,0,1,1-1.51.625A2.132,2.132,0,0,1,7.53,19.7ZM22,8.7a2.134,2.134,0,1,1-1.507.625A2.132,2.132,0,0,1,22,8.7Zm14.449,4.11h0a2.134,2.134,0,1,1-1.507.625,2.13,2.13,0,0,1,1.507-.625ZM26.238,23.773V55.154l-8.5,0V23.773Zm-9.158-1.33H26.9a.664.664,0,0,1,.665.665V55.822a.666.666,0,0,1-.665.665H17.078a.666.666,0,0,1-.665-.665V23.108a.664.664,0,0,1,.665-.665Zm-3.975,17.91V55.822a.666.666,0,0,1-.665.665H2.617a.666.666,0,0,1-.665-.665V40.353a.664.664,0,0,1,.665-.665H12.44a.664.664,0,0,1,.665.665Zm-1.33,14.8V41.018H3.283V55.157ZM40.7,30.834H32.2V55.157H40.7ZM31.538,29.5h9.823a.664.664,0,0,1,.665.665V55.822a.666.666,0,0,1-.665.665H31.538a.666.666,0,0,1-.665-.665V30.169a.664.664,0,0,1,.665-.665ZM55.156,16.715H46.663V55.157h8.493Z" transform="translate(-1.952 -1.953)" fill="#fff" fill-rule="evenodd"/><path d="M52.682,1.453a1.161,1.161,0,0,1,1.112.836h.175l-.166.629L52.144,9.105a1.164,1.164,0,1,1-2.249-.6l.777-2.9-10.5,7.98a3.963,3.963,0,1,1-7.682,1.452l-7.162-2.037A3.958,3.958,0,0,1,22,14.8a3.956,3.956,0,0,1-2.315-.745l-8.437,6.411a3.969,3.969,0,0,1-3.721,5.33H7.505a3.936,3.936,0,0,1-2.79-1.152,3.987,3.987,0,0,1-1.167-2.811,3.959,3.959,0,0,1,3.966-3.963h0l.129,0a3.951,3.951,0,0,1,2.2.744L18.281,12.2a3.964,3.964,0,1,1,7.684-1.451l7.159,2.036a3.94,3.94,0,0,1,2.595-1.737,3.969,3.969,0,0,1,3.047.678L49.226,3.779H46.264a1.162,1.162,0,1,1,0-2.324H52.61Zm-.014,1.836h-.005l.173-.633a.161.161,0,0,0-.166-.2l-.041,0H46.266a.165.165,0,0,0-.118.047.162.162,0,0,0,.116.276h5.931L38.732,13.011l-.307-.274a2.966,2.966,0,0,0-4.617.867l-.187.367-8.306-2.363.068-.487-.427-.035A2.965,2.965,0,0,0,22,7.873a2.967,2.967,0,0,0-2.66,4.271l.182.37L9.81,19.9,9.5,19.622a2.952,2.952,0,0,0-1.972-.753H7.468a2.959,2.959,0,0,0-2.92,2.962,2.98,2.98,0,0,0,.872,2.1,2.942,2.942,0,0,0,2.085.861h.021a2.967,2.967,0,0,0,2.663-4.271l-.182-.37,9.715-7.382.307.275A2.955,2.955,0,0,0,22,13.8a2.96,2.96,0,0,0,2.641-1.619l.187-.367,8.7,2.475L33.5,14.7a2.961,2.961,0,0,0,2.951,3.211,2.967,2.967,0,0,0,2.66-4.271l-.182-.37L52.393,3.034,50.861,8.762a.162.162,0,0,0,.157.206.167.167,0,0,0,.161-.123ZM22,8.2a2.634,2.634,0,1,1-1.86.771A2.625,2.625,0,0,1,22,8.2Zm0,4.266a1.633,1.633,0,1,0-1.153-2.788A1.633,1.633,0,0,0,22,12.469Zm14.447-.156h0a2.634,2.634,0,1,1-1.863.772A2.625,2.625,0,0,1,36.451,12.313Zm0,4.266a1.633,1.633,0,0,0,0-3.266,1.633,1.633,0,0,0,0,3.266ZM46,14.885h9.823a1.166,1.166,0,0,1,1.165,1.165V55.822a1.166,1.166,0,0,1-1.165,1.165H46a1.166,1.166,0,0,1-1.165-1.165V16.05A1.166,1.166,0,0,1,46,14.885Zm9.823,41.1a.165.165,0,0,0,.165-.165V16.05a.163.163,0,0,0-.165-.165H46a.163.163,0,0,0-.165.165V55.822a.165.165,0,0,0,.165.165ZM46.163,16.215h9.493V55.657H46.163Zm8.493,1H47.163V54.657h7.493ZM7.53,19.2a2.634,2.634,0,1,1-1.863.772A2.625,2.625,0,0,1,7.53,19.2Zm0,4.266a1.633,1.633,0,1,0-1.156-2.787A1.633,1.633,0,0,0,7.53,23.465Zm9.548-1.522H26.9a1.166,1.166,0,0,1,1.163,1.165V55.822A1.166,1.166,0,0,1,26.9,56.987H17.078a1.166,1.166,0,0,1-1.165-1.165V23.108A1.166,1.166,0,0,1,17.078,21.943ZM26.9,55.987a.165.165,0,0,0,.165-.165V23.108a.163.163,0,0,0-.165-.165H17.078a.163.163,0,0,0-.165.165V55.822a.165.165,0,0,0,.165.165ZM17.243,23.273h9.5V55.654l-9.5,0Zm8.5,1h-7.5V54.657l7.5,0ZM31.538,29h9.823a1.166,1.166,0,0,1,1.165,1.165V55.822a1.166,1.166,0,0,1-1.165,1.165H31.538a1.166,1.166,0,0,1-1.165-1.165V30.169A1.166,1.166,0,0,1,31.538,29Zm9.823,26.983a.165.165,0,0,0,.165-.165V30.169A.163.163,0,0,0,41.361,30H31.538a.163.163,0,0,0-.165.165V55.822a.165.165,0,0,0,.165.165ZM31.7,30.334H41.2V55.657H31.7Zm8.493,1H32.7V54.657H40.2ZM2.617,39.188H12.44a1.166,1.166,0,0,1,1.165,1.165V55.822a1.166,1.166,0,0,1-1.165,1.165H2.617a1.166,1.166,0,0,1-1.165-1.165V40.353A1.166,1.166,0,0,1,2.617,39.188Zm9.823,16.8a.165.165,0,0,0,.165-.165V40.353a.163.163,0,0,0-.165-.165H2.617a.163.163,0,0,0-.165.165V55.822a.165.165,0,0,0,.165.165ZM2.783,40.518h9.493V55.657H2.783Zm8.493,1H3.783V54.657h7.493Z" transform="translate(-1.952 -1.953)" fill="#fff"/></g></g></g><g transform="translate(217.664 375.031)"><text transform="translate(0 16)" fill="#494949" font-size="20" font-family="CircularStd-Medium, Circular Std Medium" font-weight="500" opacity="0.74"><tspan x="0" y="0">Reward</tspan></text><g transform="translate(0 34.402)"><rect width="290.178" height="180.987" transform="translate(0 0)" fill="#00acff"/><text transform="translate(138.352 123.207)" fill="#fff" font-size="25" font-family="CircularStd-Book, Circular Std Book"><tspan x="-85.8" y="0">Confirmation &amp;</tspan><tspan x="-59.525" y="29">Reminders</tspan></text><g transform="translate(118.187 29.376)"><g transform="translate(0)"><path d="M49.369,5.132q-.145-.006-.29,0H45.43V2a2.215,2.215,0,0,0-2.451-2H39.616A1.963,1.963,0,0,0,37.45,2V5.13H23.768V2A1.963,1.963,0,0,0,21.6,0H18.239a2.216,2.216,0,0,0-2.451,2V5.13H12.14a4.218,4.218,0,0,0-4.334,4.1q0,.145,0,.29V42.468c0,2.508,1.824,4.845,4.332,4.845H49.078c2.508,0,4.332-2.337,4.332-4.845V9.52A4.218,4.218,0,0,0,49.369,5.132ZM39.616,2.28H43.15v6.27H39.616Zm-21.376,0h3.249v6.27H18.239ZM51.131,42.468c0,1.254-.8,2.565-2.052,2.565H12.14c-1.254,0-2.052-1.311-2.052-2.565V18.241H51.131Zm0-32.948v6.441H10.087V9.52A1.938,1.938,0,0,1,12.14,7.411h3.648V8.665a2.346,2.346,0,0,0,2.451,2.166H21.6A2.109,2.109,0,0,0,23.768,8.78q0-.058,0-.116V7.41H37.45V8.665A2.109,2.109,0,0,0,39.5,10.831q.058,0,.116,0h3.363A2.346,2.346,0,0,0,45.43,8.665V7.41h3.648A1.938,1.938,0,0,1,51.131,9.52Z" transform="translate(-7.804 0)" fill="#fff"/><path d="M122.123,206.815l-1.026,5.7a1.14,1.14,0,0,0,1.653,1.2l5.13-2.679,5.13,2.679.513.114a1.083,1.083,0,0,0,.684-.228,1.14,1.14,0,0,0,.456-1.083l-1.026-5.7,4.161-3.99a1.254,1.254,0,0,0,.285-1.2,1.2,1.2,0,0,0-.912-.741l-5.7-.855-2.565-5.187a1.14,1.14,0,0,0-2.052,0l-2.565,5.187-5.7.855a1.2,1.2,0,0,0-.912.741,1.254,1.254,0,0,0,.285,1.2Zm3.135-4.617a1.026,1.026,0,0,0,.8-.627l1.824-3.648,1.824,3.648a1.026,1.026,0,0,0,.8.627l4.047.57-2.907,2.793a1.2,1.2,0,0,0-.342,1.026l.684,4.047-3.591-1.938-.513-.114-.513.114-3.591,1.938.684-4.047a1.2,1.2,0,0,0-.342-1.026l-2.907-2.793Z" transform="translate(-105.645 -173.012)" fill="#fff"/></g></g></g></g><g transform="translate(217.664 1001.132)"><text transform="translate(0 16)" fill="#494949" font-size="20" font-family="CircularStd-Medium, Circular Std Medium" font-weight="500" opacity="0.74"><tspan x="0" y="0">Reward</tspan></text><g transform="translate(0 34.402)"><rect width="288.682" height="154.063" transform="translate(0 0)" fill="#00acff"/><text transform="translate(137.318 123.207)" fill="#fff" font-size="25" font-family="CircularStd-Book, Circular Std Book"><tspan x="-73.163" y="0">Registrations</tspan></text><g transform="translate(108.465 24.884)"><g transform="translate(0 0)"><path d="M5.789,2.931a5,5,0,0,0-5,4.976V50.1a5,5,0,0,0,5,4.978h62.3a5,5,0,0,0,5-4.978V7.907a5,5,0,0,0-5-4.976Zm0,2.493h62.3a2.459,2.459,0,0,1,2.5,2.483V50.1a2.461,2.461,0,0,1-2.5,2.485H5.789a2.461,2.461,0,0,1-2.5-2.485V7.907a2.459,2.459,0,0,1,2.5-2.483ZM36.94,8.718A12.08,12.08,0,1,0,49.078,20.8,12.135,12.135,0,0,0,36.94,8.718Zm0,2.493A9.59,9.59,0,0,1,45.49,25.246a10.294,10.294,0,0,0-4.572-3.754,5.527,5.527,0,1,0-7.958,0,10.3,10.3,0,0,0-4.572,3.761A9.588,9.588,0,0,1,36.94,11.21Zm0,3.442A3.022,3.022,0,1,1,33.9,17.678a3.007,3.007,0,0,1,3.036-3.026Zm0,8.537a7.753,7.753,0,0,1,6.952,4.262,9.711,9.711,0,0,1-13.91,0A7.762,7.762,0,0,1,36.94,23.19ZM17.05,34.8a4.449,4.449,0,1,0,0,8.9H56.824a4.449,4.449,0,1,0,0-8.9Zm0,2.493H56.824a1.956,1.956,0,1,1,0,3.912H17.05a1.956,1.956,0,1,1,0-3.912Zm12.7,9.506a1.246,1.246,0,0,0,0,2.493H44.973a1.246,1.246,0,0,0,0-2.493Z" transform="translate(-0.794 -2.931)" fill="#fff"/></g></g></g></g><g transform="translate(217.664 77.25)"><path d="M643.925.5H0v-1H643.925Z" transform="translate(0.748 38.142)" fill="#4e4e4e"/><text transform="translate(0 21)" fill="#4e4e4e" font-size="26" font-family="CircularStd-Book, Circular Std Book"><tspan x="0" y="0">Attendees</tspan></text></g><g transform="translate(217.664 703.351)"><path d="M642.429.5H0v-1H642.429Z" transform="translate(0.748 38.142)" fill="#4e4e4e"/><text transform="translate(0 21)" fill="#4e4e4e" font-size="26" font-family="CircularStd-Book, Circular Std Book"><tspan x="0" y="0">Event Organizers</tspan></text></g><g transform="translate(217.663 1411.424)"><text transform="translate(0.001 16)" fill="#494949" font-size="20" font-family="CircularStd-Medium, Circular Std Medium" font-weight="500" opacity="0.74"><tspan x="0" y="0">Trigger</tspan></text><g transform="translate(0 31.411)"><rect width="290.178" height="155.559" transform="translate(0 0)" fill="#00acff"/><text transform="translate(137.404 123.208)" fill="#fff" font-size="25" font-family="CircularStd-Book, Circular Std Book"><tspan x="-102.5" y="0">New events/Users</tspan></text><g transform="translate(109.192 30.868)"><g transform="translate(0 0)"><path d="M5.789,2.931a5,5,0,0,0-5,4.976V50.1a5,5,0,0,0,5,4.978h62.3a5,5,0,0,0,5-4.978V7.907a5,5,0,0,0-5-4.976Zm0,2.493h62.3a2.459,2.459,0,0,1,2.5,2.483V50.1a2.461,2.461,0,0,1-2.5,2.485H5.789a2.461,2.461,0,0,1-2.5-2.485V7.907a2.459,2.459,0,0,1,2.5-2.483ZM36.94,8.718A12.08,12.08,0,1,0,49.078,20.8,12.135,12.135,0,0,0,36.94,8.718Zm0,2.493A9.59,9.59,0,0,1,45.49,25.246a10.294,10.294,0,0,0-4.572-3.754,5.527,5.527,0,1,0-7.958,0,10.3,10.3,0,0,0-4.572,3.761A9.588,9.588,0,0,1,36.94,11.21Zm0,3.442A3.022,3.022,0,1,1,33.9,17.678a3.007,3.007,0,0,1,3.036-3.026Zm0,8.537a7.753,7.753,0,0,1,6.952,4.262,9.711,9.711,0,0,1-13.91,0A7.762,7.762,0,0,1,36.94,23.19ZM17.05,34.8a4.449,4.449,0,1,0,0,8.9H56.824a4.449,4.449,0,1,0,0-8.9Zm0,2.493H56.824a1.956,1.956,0,1,1,0,3.912H17.05a1.956,1.956,0,1,1,0-3.912Zm12.7,9.506a1.246,1.246,0,0,0,0,2.493H44.973a1.246,1.246,0,0,0,0-2.493Z" transform="translate(-0.794 -2.931)" fill="#fff"/></g></g></g></g><g transform="translate(572.159 1408.433)"><text transform="translate(0 16)" fill="#494949" font-size="20" font-family="CircularStd-Medium, Circular Std Medium" font-weight="500" opacity="0.74"><tspan x="0" y="0">Action</tspan></text><g transform="translate(0 34.402)"><rect width="288.682" height="155.559" transform="translate(0 0)" fill="#00acff"/><text transform="translate(136.873 123.208)" fill="#fff" font-size="25" font-family="CircularStd-Book, Circular Std Book"><tspan x="-92.325" y="0">Review/Approve</tspan></text><g transform="translate(116.447 25.802)"><path d="M23.789,20.395A1.395,1.395,0,1,1,22.395,19,1.394,1.394,0,0,1,23.789,20.395Z" transform="translate(-13.329 -12.724)" fill="#fff"/><path d="M29.395,21.789A1.395,1.395,0,1,0,28,20.395,1.394,1.394,0,0,0,29.395,21.789Z" transform="translate(-15.448 -12.724)" fill="#fff"/><path d="M37.789,20.395A1.395,1.395,0,1,1,36.395,19,1.394,1.394,0,0,1,37.789,20.395Z" transform="translate(-17.566 -12.724)" fill="#fff"/><path d="M63.449,68.222a1.4,1.4,0,1,0-2.108,1.831l1.5,1.719a3.483,3.483,0,0,0,5.366-.125l5.05-6.388a1.395,1.395,0,1,0-2.19-1.727l-5.048,6.385a.7.7,0,0,1-1.073.027Z" transform="translate(-25.435 -26.041)" fill="#fff"/><path d="M10,18.368A8.367,8.367,0,0,1,18.368,10H53.235A8.367,8.367,0,0,1,61.6,18.368V41.882A13.948,13.948,0,1,1,38.531,56.025H18.368A8.367,8.367,0,0,1,10,47.657Zm48.814,6.276V39.76a13.95,13.95,0,0,0-20.92,12.081c0,.471.025.937.068,1.395H18.368a5.579,5.579,0,0,1-5.579-5.579V24.644Zm0-2.789H12.789V18.368a5.579,5.579,0,0,1,5.579-5.579H53.235a5.579,5.579,0,0,1,5.579,5.579ZM51.841,40.683A11.158,11.158,0,1,0,63,51.841,11.158,11.158,0,0,0,51.841,40.683Z" transform="translate(-10 -10)" fill="#fff" fill-rule="evenodd"/></g></g></g><g transform="translate(217.664 1329.452)"><path d="M642.429.5H0v-1H642.429Z" transform="translate(0.748 38.142)" fill="#4e4e4e"/><text transform="translate(0 21)" fill="#4e4e4e" font-size="26" font-family="CircularStd-Book, Circular Std Book"><tspan x="0" y="0">Admins</tspan></text></g><g transform="translate(572.16 1627.233)"><text transform="translate(0 16)" fill="#494949" font-size="20" font-family="CircularStd-Medium, Circular Std Medium" font-weight="500" opacity="0.74"><tspan x="0" y="0">Investment</tspan></text><g transform="translate(0 34.402)"><rect width="288.682" height="180.987" transform="translate(0 0)" fill="#00acff"/><text transform="translate(133.966 123.207)" fill="#fff" font-size="25" font-family="CircularStd-Book, Circular Std Book"><tspan x="-110.625" y="0">Policy Refinements,</tspan><tspan x="-122.413" y="29">Automated Approvals</tspan></text><g transform="translate(121.158 27.298)"><path d="M18.188,17.042a.705.705,0,0,1,.7-.7H40.952a.7.7,0,0,1,0,1.4H18.892a.709.709,0,0,1-.7-.7Zm12.548-4.575H40.957a.7.7,0,0,0,0-1.4l-10.221,0a.7.7,0,0,0,0,1.406ZM18.892,23.016H40.954a.7.7,0,1,0,0-1.4H18.892a.7.7,0,1,0,0,1.4Zm0,5.272H40.954a.705.705,0,0,0,.7-.7.7.7,0,0,0-.7-.7H18.892a.705.705,0,0,0-.7.7.7.7,0,0,0,.7.7Zm0,5.277H40.954a.7.7,0,1,0,0-1.4H18.892a.7.7,0,1,0,0,1.4Zm0,5.272H40.954a.7.7,0,1,0,0-1.4H18.892a.7.7,0,1,0,0,1.4Zm15.044,3.873H18.892a.7.7,0,1,0,0,1.4H33.936a.7.7,0,0,0,0-1.4Zm25.226,1.86v5.117a10.958,10.958,0,0,1-2.562,7.28,14.677,14.677,0,0,1-6.4,4.177,2.092,2.092,0,0,1-1.418,0,14.649,14.649,0,0,1-6.4-4.177A11.751,11.751,0,0,1,41.59,55.9H20.116A3.117,3.117,0,0,1,17,52.789V51.477H15.47a3.121,3.121,0,0,1-3.116-3.116l0-36.384a.714.714,0,0,1,.2-.5l7.567-7.572a.7.7,0,0,1,.5-.2h23.76A3.117,3.117,0,0,1,47.5,6.819V8.126h1.53a3.121,3.121,0,0,1,3.116,3.116V40.186l6.664,3.774a.708.708,0,0,1,.352.612ZM47.493,9.532V39.814l1.646-.932a.687.687,0,0,1,.69,0l.908.515,0-28.147a1.72,1.72,0,0,0-1.717-1.717Zm-32.75,1.741H18.2a1.72,1.72,0,0,0,1.717-1.717V6.1Zm.721,38.8H39.829c-.007-.131-.012-.255-.012-.386V44.568a.7.7,0,0,1,.355-.61l5.918-3.351V6.821A1.72,1.72,0,0,0,44.373,5.1l-23.05,0V9.558a3.121,3.121,0,0,1-3.116,3.116H13.755V48.356a1.713,1.713,0,0,0,1.71,1.714ZM40.811,54.5a10.885,10.885,0,0,1-.864-3.021H18.407v1.311a1.72,1.72,0,0,0,1.717,1.717H40.811Zm16.948-9.517L49.49,40.3l-8.269,4.682v4.706c0,6.013,4.371,8.827,8.033,10.134a.628.628,0,0,0,.478,0c3.662-1.307,8.033-4.128,8.033-10.134l0-4.706ZM45.09,49.549a.7.7,0,1,0-1.037.94l2.8,3.108a.69.69,0,0,0,.522.231.7.7,0,0,0,.466-.175l7.037-6.2a.7.7,0,0,0-.925-1.051l-6.515,5.743Z" transform="translate(-12.355 -3.703)" fill="#fff"/><path d="M20.626,3.4h23.76A3.419,3.419,0,0,1,47.8,6.819V7.826h1.23a3.419,3.419,0,0,1,3.416,3.416V40.011L58.958,43.7a1.014,1.014,0,0,1,.5.873h0v5.116a11.247,11.247,0,0,1-2.633,7.474A14.981,14.981,0,0,1,50.3,61.427a2.391,2.391,0,0,1-1.616,0,14.948,14.948,0,0,1-6.536-4.267,11.519,11.519,0,0,1-.715-.957H20.116A3.419,3.419,0,0,1,16.7,52.789V51.777H15.47a3.419,3.419,0,0,1-3.416-3.416l0-36.384a1.019,1.019,0,0,1,.29-.708L19.916,3.7A1.01,1.01,0,0,1,20.626,3.4ZM58.862,44.571a.405.405,0,0,0-.2-.353L51.847,40.36V11.241a2.819,2.819,0,0,0-2.816-2.816H47.2V6.819A2.819,2.819,0,0,0,44.385,4H20.626a.406.406,0,0,0-.286.116l-7.567,7.572a.413.413,0,0,0-.116.286l0,36.384a2.819,2.819,0,0,0,2.816,2.816H17.3v1.611A2.819,2.819,0,0,0,20.116,55.6H41.751l.089.134a11.334,11.334,0,0,0,.764,1.037,14.355,14.355,0,0,0,6.275,4.087,1.792,1.792,0,0,0,1.221,0,14.388,14.388,0,0,0,6.272-4.087,10.662,10.662,0,0,0,2.491-7.086ZM44.373,4.8a2.019,2.019,0,0,1,2.017,2.017V40.783l-6.07,3.437a.4.4,0,0,0-.2.348v5.117c0,.11,0,.224.012.369l.018.317H15.269l0-.01a2.015,2.015,0,0,1-1.809-2V12.374h4.751a2.819,2.819,0,0,0,2.816-2.816V4.807Zm1.417,35.628V6.821A1.418,1.418,0,0,0,44.373,5.4l-22.75,0V9.558a3.419,3.419,0,0,1-3.416,3.416H14.055V48.356a1.414,1.414,0,0,0,1.41,1.414H39.518c0-.029,0-.058,0-.086V44.568a1,1,0,0,1,.507-.871ZM20.216,5.376v4.18A2.019,2.019,0,0,1,18.2,11.573H14.02Zm-2.017,5.6a1.418,1.418,0,0,0,1.417-1.417V6.825l-4.148,4.148ZM47.193,9.232h1.83a2.019,2.019,0,0,1,2.017,2.017l0,28.662-1.356-.769a.389.389,0,0,0-.39,0l-2.1,1.188Zm3.244,29.65,0-27.632a1.418,1.418,0,0,0-1.417-1.417h-1.23V39.3l1.2-.679a.986.986,0,0,1,.989,0Zm-19.7-28.12,10.221,0a1,1,0,0,1,0,2H30.736a1,1,0,0,1,0-2.006Zm10.221,1.406a.4.4,0,0,0,0-.8l-10.221,0a.407.407,0,0,0-.4.4.4.4,0,0,0,.4.4ZM18.89,16.041H40.952a1,1,0,0,1,0,2H18.892a1.012,1.012,0,0,1-1-1,1.005,1.005,0,0,1,1-1Zm.006,1.4H40.952a.4.4,0,0,0,0-.8H18.89a.4.4,0,1,0,.006.8Zm0,3.869H40.954a1,1,0,0,1,0,2H18.892a1,1,0,0,1,0-2Zm22.062,1.4a.4.4,0,0,0,0-.8H18.892a.407.407,0,0,0-.4.4.393.393,0,0,0,.116.282.4.4,0,0,0,.286.12ZM18.892,26.59H40.954a1,1,0,1,1,0,2H18.892a1,1,0,0,1-.714-.3.981.981,0,0,1-.288-.7A1,1,0,0,1,18.892,26.59Zm22.062,1.4a.407.407,0,0,0,.4-.4.4.4,0,0,0-.4-.4H18.892a.407.407,0,0,0-.4.4.386.386,0,0,0,.113.277.4.4,0,0,0,.288.12ZM18.892,31.862H40.954a1,1,0,1,1,0,2H18.892a1,1,0,0,1,0-2Zm22.062,1.4a.4.4,0,0,0,0-.8H18.892a.407.407,0,0,0-.4.4.393.393,0,0,0,.116.282.4.4,0,0,0,.286.12ZM18.892,37.134H40.954a1,1,0,1,1,0,2H18.892a1,1,0,0,1,0-2Zm22.062,1.4a.4.4,0,0,0,0-.8H18.892a.407.407,0,0,0-.4.4.393.393,0,0,0,.115.283.4.4,0,0,0,.287.119Zm8.536,1.417,8.348,4.727h.221l0,.3,0,4.706a9.825,9.825,0,0,1-2.727,7.037,14.025,14.025,0,0,1-5.5,3.379.918.918,0,0,1-.685,0c-3.755-1.341-8.23-4.236-8.23-10.415V44.806Zm7.974,5.2L49.49,40.644l-7.969,4.512v4.531c0,5.832,4.26,8.576,7.834,9.851l0,0a.324.324,0,0,0,.267,0l0,0c3.574-1.275,7.834-4.019,7.834-9.851ZM18.892,42.411H33.936a1,1,0,0,1,0,2H18.892a1,1,0,0,1,0-2Zm15.044,1.4a.4.4,0,0,0,0-.8H18.892a.4.4,0,0,0,0,.8ZM54.42,45.929a1,1,0,0,1,.752.34,1,1,0,0,1-.091,1.412l-7.037,6.2a1.007,1.007,0,0,1-1.412-.083l-2.8-3.1a.985.985,0,0,1-.258-.72,1,1,0,0,1,.327-.691.991.991,0,0,1,.67-.261h0a1.009,1.009,0,0,1,.742.328l2.156,2.38,6.293-5.547A.992.992,0,0,1,54.42,45.929Zm-7.04,7.6a.4.4,0,0,0,.269-.1l7.037-6.2a.4.4,0,0,0,.037-.564.4.4,0,0,0-.3-.137.394.394,0,0,0-.262.1l-6.738,5.94L44.867,49.75a.4.4,0,0,0-.3-.132h0a.392.392,0,0,0-.265.1.4.4,0,0,0-.133.279.39.39,0,0,0,.1.285L47.08,53.4A.393.393,0,0,0,47.38,53.528Zm-29.273-2.35h22.1l.036.258a10.619,10.619,0,0,0,.84,2.938l.027.058,0,.374H20.123a2.019,2.019,0,0,1-2.017-2.017Zm21.582.6H18.707v1.011a1.418,1.418,0,0,0,1.417,1.417H40.358A11.306,11.306,0,0,1,39.688,51.777Z" transform="translate(-12.355 -3.703)" fill="#fff"/></g></g></g><g transform="translate(217.662 1627.233)"><text transform="translate(0.001 16)" fill="#494949" font-size="20" font-family="CircularStd-Medium, Circular Std Medium" font-weight="500" opacity="0.74"><tspan x="0" y="0">Reward</tspan></text><g transform="translate(0 34.402)"><rect width="290.178" height="180.987" transform="translate(0 0)" fill="#00acff"/><text transform="translate(136.883 123.207)" fill="#fff" font-size="25" font-family="CircularStd-Book, Circular Std Book"><tspan x="-94.55" y="0">Smooth Platform</tspan><tspan x="-62.763" y="29">Operations</tspan></text><g transform="translate(119.662 28.909)"><path d="M9.347,0A9.349,9.349,0,0,0,.012,9.335V42.812a9.349,9.349,0,0,0,9.335,9.335H42.816a9.346,9.346,0,0,0,9.332-9.335V9.335A9.345,9.345,0,0,0,42.816,0Zm0,3.259H42.816A6.032,6.032,0,0,1,48.9,9.335V42.812a6.032,6.032,0,0,1-6.085,6.076H9.347a6.035,6.035,0,0,1-6.089-6.076V9.335A6.036,6.036,0,0,1,9.347,3.259Zm10.106,6.28a1.628,1.628,0,0,0-1.155.481l-3.9,3.9L12.26,11.776a1.628,1.628,0,1,0-2.3,2.308l3.282,3.286h0a1.635,1.635,0,0,0,2.312,0l5.054-5.052a1.63,1.63,0,0,0-1.155-2.778Zm6.881,2.528v0a1.63,1.63,0,1,0,0,3.259H41.058a1.63,1.63,0,0,0,0-3.259Zm-6.881,9.851v0A1.628,1.628,0,0,0,18.3,22.4l-3.9,3.9L12.26,24.153v0a1.625,1.625,0,0,0-2.3,2.3l3.282,3.294h0a1.63,1.63,0,0,0,2.312,0L20.608,24.7a1.63,1.63,0,0,0-1.155-2.778Zm6.881,2.528v0a1.63,1.63,0,1,0,0,3.259H41.058a1.63,1.63,0,0,0,0-3.259ZM19.453,34.3v0a1.628,1.628,0,0,0-1.155.481l-3.9,3.9L12.26,36.532a1.625,1.625,0,0,0-2.3,2.3l3.282,3.3,0,0a1.63,1.63,0,0,0,2.312,0l5.054-5.054A1.63,1.63,0,0,0,19.453,34.3Zm6.881,2.528v0a1.63,1.63,0,1,0,0,3.259H41.058a1.63,1.63,0,0,0,0-3.259Z" transform="translate(-0.012 0)" fill="#fff"/></g></g></g></g></svg>