<svg xmlns="http://www.w3.org/2000/svg" xmlns:xlink="http://www.w3.org/1999/xlink" width="1920" height="1080" viewBox="0 0 1920 1080"><defs><clipPath id="b"><rect width="1920" height="1080"/></clipPath></defs><g id="a" clip-path="url(#b)"><rect width="1920" height="1080" fill="#fff"/><text transform="translate(841 184)" fill="#00acff" font-size="46" font-family="CircularStd-Black, Circular Std Black" font-weight="800"><tspan x="0" y="0">Habit Loop</tspan></text><g transform="translate(49)"><rect width="335" height="181" transform="translate(351 380)" fill="#00acff"/><rect width="335" height="181" transform="translate(750 380)" fill="#00acff"/><rect width="335" height="181" transform="translate(1150 380)" fill="#00acff"/><text transform="translate(519 528)" fill="#fff" font-size="32" font-family="CircularStd-Book, Circular Std Book"><tspan x="-62.368" y="0">Discover</tspan></text><text transform="translate(918 528)" fill="#fff" font-size="32" font-family="CircularStd-Book, Circular Std Book"><tspan x="-133.28" y="0">Share with Friends</tspan></text><text transform="translate(1318 528)" fill="#fff" font-size="32" font-family="CircularStd-Book, Circular Std Book"><tspan x="-91.76" y="0">Book Tickets</tspan></text><g transform="translate(488 410.527)"><path d="M59.714,52.969c-.633-1.841-2.211-3.67-4.691-5.434A21.5,21.5,0,0,0,49.5,44.668a4.256,4.256,0,0,0-4.92-6.1,17.17,17.17,0,0,0-2.9-12.918v-8.7a.879.879,0,0,0-1.759,0v6.593A17.333,17.333,0,0,0,37.6,21.565,17.214,17.214,0,0,0,10.523,37.6a17.322,17.322,0,0,0,.5,2.559H4.744a2.988,2.988,0,0,1-2.985-2.985V4.978A2.988,2.988,0,0,1,4.744,1.993H36.935A2.988,2.988,0,0,1,39.92,4.978v8.459c0,.486.1,7.672.59,7.672s1.169-2,1.169-2.49V4.978A4.749,4.749,0,0,0,36.935.234H4.744A4.749,4.749,0,0,0,0,4.978V37.169a4.749,4.749,0,0,0,4.744,4.744h6.863a17.14,17.14,0,0,0,4.585,6.554,28.907,28.907,0,0,0,2.884,2.04c.243,0,1.29.443,1.464.246.322-.364-2.819-3.281-3.182-3.6a15.456,15.456,0,1,1,25.081-7.173c-.057.071-.113.143-.167.218l-5.5,7.73c-.054.076-.1.153-.152.231a15.468,15.468,0,0,1-16.554.922.879.879,0,0,0-.861,1.533A17.229,17.229,0,0,0,36,50.632a4.256,4.256,0,0,0,4.24,4.02,4.306,4.306,0,0,0,.717-.06,4.226,4.226,0,0,0,2.418-1.308,21.485,21.485,0,0,0,4.522,4.279c2.776,1.974,4.957,2.645,6.638,2.645a5.344,5.344,0,0,0,4.46-2.3,5.263,5.263,0,0,0,.724-4.937ZM40.66,52.858a2.5,2.5,0,0,1-2.453-3.914l5.5-7.73A2.483,2.483,0,0,1,45.326,40.2a2.534,2.534,0,0,1,.421-.035,2.5,2.5,0,0,1,2.032,3.949l-5.5,7.73a2.483,2.483,0,0,1-1.621,1.016Zm16.9,4.03a3.509,3.509,0,0,1-3.009,1.557c-1.984,0-4.19-1.286-5.637-2.315a19.2,19.2,0,0,1-4.447-4.323l4-5.621A19.208,19.208,0,0,1,54,48.969c2.278,1.621,5.768,4.8,3.553,7.919Z" transform="translate(0 -0.234)" fill="#fff"/><path d="M54.53,60.357v0c-1.969,0-4.231-.9-6.725-2.673a21.7,21.7,0,0,1-4.447-4.172,4.356,4.356,0,0,1-2.381,1.227,4.469,4.469,0,0,1-.742.062,4.406,4.406,0,0,1-4.37-3.927,17.38,17.38,0,0,1-16.732-.134,1.036,1.036,0,0,1-.157-.108,33.945,33.945,0,0,1-2.883-2.054,17.384,17.384,0,0,1-4.587-6.517H4.744A4.9,4.9,0,0,1-.15,37.169V4.978A4.9,4.9,0,0,1,4.744.084H36.935a4.9,4.9,0,0,1,4.894,4.894V25.6a17.32,17.32,0,0,1,2.936,12.763c.082-.019.164-.035.245-.049a4.476,4.476,0,0,1,.742-.062,4.37,4.37,0,0,1,2.546.817,4.416,4.416,0,0,1,1.413,5.51,21.714,21.714,0,0,1,5.4,2.832c2.506,1.783,4.1,3.636,4.745,5.507a5.408,5.408,0,0,1-.744,5.073A5.5,5.5,0,0,1,54.53,60.357ZM43.38,53.051l.109.141a21.27,21.27,0,0,0,4.49,4.248c2.442,1.737,4.646,2.617,6.551,2.617a5.21,5.21,0,0,0,4.338-2.237,5.118,5.118,0,0,0,.7-4.8c-.622-1.811-2.182-3.615-4.636-5.36a21.283,21.283,0,0,0-5.486-2.848l-.169-.056.084-.157a4.115,4.115,0,0,0-1.242-5.282,4.072,4.072,0,0,0-2.372-.762,4.131,4.131,0,0,0-1.133.158l-.23.065.042-.236a17.13,17.13,0,0,0-2.874-12.8l-.028-.039V19.81c-.036.1-.074.2-.114.293-.316.767-.621,1.156-.905,1.156-.184,0-.267-.21-.334-.526-.037-.174-.073-.4-.106-.684v3.866l-.257-.262a17.236,17.236,0,0,0-2.3-1.965,16.92,16.92,0,0,0-9.855-3.163,17.336,17.336,0,0,0-2.875.242A17.065,17.065,0,0,0,10.672,37.578a17.232,17.232,0,0,0,.495,2.537l.052.19H4.744a3.139,3.139,0,0,1-3.135-3.135V4.978A3.139,3.139,0,0,1,4.744,1.843H36.935A3.139,3.139,0,0,1,40.07,4.978v8.459c0,.2.016,1.388.062,2.734a1.026,1.026,0,0,1,1.4.059V4.978A4.6,4.6,0,0,0,36.935.384H4.744A4.6,4.6,0,0,0,.15,4.978V37.169a4.6,4.6,0,0,0,4.594,4.594h6.965l.037.1a17.081,17.081,0,0,0,4.545,6.5c.156.138,1.577,1.2,2.345,1.723a1.028,1.028,0,0,1,.418-1.083c-.813-.835-1.665-1.616-1.8-1.732A15.606,15.606,0,0,1,25.023,20.2a15.85,15.85,0,0,1,2.628-.221A15.6,15.6,0,0,1,42.583,40.02l-.008.029-.019.023c-.064.079-.115.146-.161.21l-5.5,7.73c-.046.065-.093.135-.147.222l-.016.025-.024.017a15.616,15.616,0,0,1-16.715.931.734.734,0,0,0-.408-.092,11.994,11.994,0,0,1,.793.914c.328.433.408.671.274.823a.357.357,0,0,1-.283.1,1.354,1.354,0,0,1-.234-.025A17.084,17.084,0,0,0,35.922,50.5l.209-.116.014.239a4.106,4.106,0,0,0,4.09,3.878,4.168,4.168,0,0,0,.692-.058,4.061,4.061,0,0,0,2.332-1.262ZM19.638,48.814a1.03,1.03,0,0,1,.5.132,15.316,15.316,0,0,0,16.369-.9c.051-.081.1-.149.141-.213l5.5-7.73c.045-.063.094-.128.154-.2A15.311,15.311,0,0,0,27.651,20.283a15.55,15.55,0,0,0-2.578.217,15.306,15.306,0,0,0-7.615,26.538c.136.12,1.042.952,1.882,1.82A1.027,1.027,0,0,1,19.638,48.814Zm-.517,1.545a3.2,3.2,0,0,1,.477.12,3.58,3.58,0,0,0,.772.174l.04,0c-.026-.1-.19-.436-1.142-1.436a.722.722,0,0,0-.265.271A.733.733,0,0,0,19.121,50.359ZM4.744,2.143A2.838,2.838,0,0,0,1.909,4.978V37.169A2.838,2.838,0,0,0,4.744,40h6.083a17.523,17.523,0,0,1-.452-2.391A17.365,17.365,0,0,1,24.731,18.47a17.637,17.637,0,0,1,2.924-.246,17.218,17.218,0,0,1,10.029,3.219,17.554,17.554,0,0,1,2.086,1.743V16.954a1.022,1.022,0,0,1,.076-.388c-.056-1.5-.076-2.9-.076-3.13V4.978a2.838,2.838,0,0,0-2.835-2.835Zm35.4,14.483c.129,3.411.319,4.158.4,4.32.1-.051.309-.277.59-.958a5.184,5.184,0,0,0,.391-1.37V16.941a.729.729,0,0,0-1.381-.316Zm14.4,41.969c-2.009,0-4.222-1.274-5.725-2.343a19.479,19.479,0,0,1-4.482-4.358l-.062-.087L48.4,46.012l.1.03a19.485,19.485,0,0,1,5.587,2.8c2.323,1.653,5.879,4.907,3.588,8.128A3.658,3.658,0,0,1,54.549,58.595Zm-9.9-6.789A19.279,19.279,0,0,0,49,56.007c1.467,1.043,3.621,2.287,5.551,2.288A3.373,3.373,0,0,0,57.435,56.8c2.14-3.008-1.285-6.122-3.517-7.71a19.287,19.287,0,0,0-5.4-2.731Zm-4.41,1.237a2.651,2.651,0,0,1-2.154-4.186l5.5-7.73A2.632,2.632,0,0,1,45.3,40.05a2.693,2.693,0,0,1,.446-.038A2.651,2.651,0,0,1,47.9,44.2l-5.5,7.73a2.632,2.632,0,0,1-1.718,1.077A2.685,2.685,0,0,1,40.239,53.043Zm5.509-12.73a2.392,2.392,0,0,0-.4.033,2.334,2.334,0,0,0-1.524.955l-5.5,7.73a2.35,2.35,0,0,0,1.909,3.712,2.385,2.385,0,0,0,.4-.033,2.334,2.334,0,0,0,1.524-.955l5.5-7.73a2.35,2.35,0,0,0-1.909-3.712Z" transform="translate(0 -0.234)" fill="#fff"/><path d="M141.823,220.547a12.611,12.611,0,0,0,2.1-.176,12.4,12.4,0,1,0-2.1.176Zm-8.687-18.653a10.693,10.693,0,1,1,2.515,14.911A10.687,10.687,0,0,1,133.137,201.894Z" transform="translate(-114.231 -172.735)" fill="#fff"/><path d="M141.823,220.7a12.6,12.6,0,0,1-5.657-23.85,12.741,12.741,0,0,1,5.7-1.352,12.6,12.6,0,0,1,2.079,25.023A12.8,12.8,0,0,1,141.823,220.7Zm.044-24.9a12.3,12.3,0,0,0-7.148,22.321,12.2,12.2,0,0,0,7.1,2.281,12.5,12.5,0,0,0,2.073-.174,12.3,12.3,0,0,0-2.029-24.427Zm-.04,23.143a10.846,10.846,0,0,1-8.813-17.131,10.874,10.874,0,0,1,8.85-4.554,10.841,10.841,0,0,1,1.789,21.531A11.011,11.011,0,0,1,141.827,218.938Zm.038-21.385a10.54,10.54,0,0,0-6.126,19.13,10.452,10.452,0,0,0,6.088,1.954,10.711,10.711,0,0,0,1.777-.15,10.541,10.541,0,0,0-1.739-20.935Z" transform="translate(-114.231 -172.735)" fill="#fff"/></g><g transform="translate(1271 423.852)"><path d="M90.96,9.25A1.542,1.542,0,0,0,92.5,7.708V1.542A1.542,1.542,0,0,0,90.96,0H1.542A1.542,1.542,0,0,0,0,1.542V7.708A1.542,1.542,0,0,0,1.542,9.25a3.083,3.083,0,0,1,0,6.167A1.542,1.542,0,0,0,0,16.959V29.292a1.542,1.542,0,0,0,1.542,1.542,3.083,3.083,0,0,1,0,6.167A1.542,1.542,0,0,0,0,38.542v6.167a1.542,1.542,0,0,0,1.542,1.542H90.96A1.542,1.542,0,0,0,92.5,44.709V38.542A1.542,1.542,0,0,0,90.96,37a3.083,3.083,0,0,1,0-6.167A1.542,1.542,0,0,0,92.5,29.292V16.959a1.542,1.542,0,0,0-1.542-1.542,3.083,3.083,0,0,1,0-6.167Zm-1.542,9.056v9.639a6.167,6.167,0,0,0,0,11.945v3.278H21.584V38.542H18.5v4.625H3.083V39.89a6.167,6.167,0,0,0,0-11.945V18.306a6.167,6.167,0,0,0,0-11.945V3.083H18.5V7.708h3.083V3.083H89.418V6.361a6.167,6.167,0,0,0,0,11.945Zm0,0" fill="#fff"/><path d="M96,64h3.083v3.083H96Zm0,0" transform="translate(-77.5 -51.666)" fill="#fff"/><path d="M96,96h3.083v3.083H96Zm0,0" transform="translate(-77.5 -77.5)" fill="#fff"/><path d="M96,128h3.083v3.083H96Zm0,0" transform="translate(-77.5 -103.333)" fill="#fff"/><path d="M96,168h3.083v3.083H96Zm0,0" transform="translate(-77.5 -135.624)" fill="#fff"/></g><path d="M54.331,0a6.652,6.652,0,0,0-5.848,9.824l-10.9,10.9a8.811,8.811,0,0,0-10.861,0l-8.5-8.5a4.377,4.377,0,0,0,.629-2.239,4.435,4.435,0,1,0-4.435,4.435,4.377,4.377,0,0,0,2.239-.629l8.5,8.5a8.813,8.813,0,0,0,0,10.861L11.114,47.192a6.585,6.585,0,1,0,1.386,1.75L26.725,34.717a8.818,8.818,0,0,0,4.322,1.8V47.778a6.653,6.653,0,1,0,2.218,0V36.512a8.818,8.818,0,0,0,4.322-1.8l8.5,8.5a4.374,4.374,0,0,0-.63,2.24A4.435,4.435,0,1,0,49.9,41.025a4.377,4.377,0,0,0-2.239.629l-8.5-8.5a8.813,8.813,0,0,0,0-10.861L49.87,11.574A6.648,6.648,0,1,0,54.331,0ZM12.2,9.979A2.218,2.218,0,1,1,14.414,12.2,2.22,2.22,0,0,1,12.2,9.979ZM6.653,56.548a4.435,4.435,0,1,1,4.435-4.435A4.44,4.44,0,0,1,6.653,56.548ZM36.59,54.331A4.435,4.435,0,1,1,32.155,49.9,4.44,4.44,0,0,1,36.59,54.331ZM32.155,34.372a6.653,6.653,0,1,1,6.653-6.653A6.659,6.659,0,0,1,32.155,34.372ZM52.113,45.46A2.218,2.218,0,1,1,49.9,43.243,2.22,2.22,0,0,1,52.113,45.46Zm2.218-34.372a4.435,4.435,0,1,1,4.435-4.435A4.44,4.44,0,0,1,54.331,11.088Z" transform="translate(887 410)" fill="#fff"/><text transform="translate(366 369)" fill="#9a9a9a" font-size="32" font-family="CircularStd-Book, Circular Std Book"><tspan x="-9.952" y="0">1.</tspan></text><text transform="translate(767 369)" fill="#9a9a9a" font-size="32" font-family="CircularStd-Book, Circular Std Book"><tspan x="-12.928" y="0">2.</tspan></text><text transform="translate(1175 369)" fill="#9a9a9a" font-size="32" font-family="CircularStd-Book, Circular Std Book"><tspan x="-13.152" y="0">3.</tspan></text><g transform="translate(-28)"><rect width="335" height="181" transform="translate(609 628)" fill="#00acff"/><text transform="translate(777 776)" fill="#fff" font-size="32" font-family="CircularStd-Book, Circular Std Book"><tspan x="-83.792" y="0">Go to event</tspan></text><g transform="translate(750 663.852)"><g transform="translate(0)"><path d="M56.153,5.97q-.169-.007-.338,0H51.572V2.321C51.572.862,50.179,0,48.72,0H44.808a2.284,2.284,0,0,0-2.52,2.321V5.968H26.374V2.321A2.284,2.284,0,0,0,23.855,0H19.942c-1.459,0-2.851.862-2.851,2.321V5.968H12.847a4.907,4.907,0,0,0-5.042,4.768q0,.169,0,.338V49.4c0,2.918,2.122,5.636,5.039,5.636H55.816c2.918,0,5.039-2.719,5.039-5.636V11.074A4.907,4.907,0,0,0,56.153,5.97ZM44.808,2.652h4.111V9.946H44.808Zm-24.866,0h3.78V9.946h-3.78ZM58.2,49.4c0,1.459-.928,2.984-2.387,2.984H12.847c-1.459,0-2.387-1.525-2.387-2.984V21.219H58.2Zm0-38.326v7.493H10.46V11.074A2.254,2.254,0,0,1,12.847,8.62h4.244v1.459a2.729,2.729,0,0,0,2.851,2.52h3.912a2.453,2.453,0,0,0,2.52-2.385q0-.067,0-.134V8.62H42.289v1.459a2.453,2.453,0,0,0,2.385,2.52q.067,0,.134,0h3.912a2.729,2.729,0,0,0,2.851-2.52V8.62h4.244A2.255,2.255,0,0,1,58.2,11.074Z" transform="translate(-7.804)" fill="#fff"/><path d="M122.857,208.874l-1.194,6.631a1.326,1.326,0,0,0,1.923,1.392l5.968-3.116,5.968,3.116.6.133a1.26,1.26,0,0,0,.8-.265,1.326,1.326,0,0,0,.531-1.26l-1.194-6.631,4.841-4.642a1.458,1.458,0,0,0,.332-1.392,1.393,1.393,0,0,0-1.061-.862l-6.631-.995-2.984-6.034a1.326,1.326,0,0,0-2.387,0l-2.984,6.034-6.631.995a1.392,1.392,0,0,0-1.061.862,1.459,1.459,0,0,0,.332,1.392ZM126.5,203.5a1.193,1.193,0,0,0,.928-.729l2.122-4.244,2.122,4.244a1.193,1.193,0,0,0,.928.729l4.708.663-3.382,3.249a1.393,1.393,0,0,0-.4,1.194l.8,4.708-4.177-2.254-.6-.133-.6.133-4.177,2.254.8-4.708a1.392,1.392,0,0,0-.4-1.194l-3.382-3.249Z" transform="translate(-103.689 -169.553)" fill="#fff"/></g></g><text transform="translate(631 622)" fill="#9a9a9a" font-size="32" font-family="CircularStd-Book, Circular Std Book"><tspan x="-13.648" y="0">4.</tspan></text></g><g transform="translate(10)"><rect width="335" height="181" transform="translate(970 628)" fill="#00acff"/><text transform="translate(1138 776)" fill="#fff" font-size="32" font-family="CircularStd-Book, Circular Std Book"><tspan x="-50.464" y="0">Repeat</tspan></text><g transform="translate(1110 663.977)"><path d="M36.084,33.267A27.481,27.481,0,0,0,8.642,60.722v.091L3.208,52.63A1.75,1.75,0,0,0,.29,54.562L8.175,66.429a1.755,1.755,0,0,0,1.245.765,1.258,1.258,0,0,0,.22.013,1.716,1.716,0,0,0,1.167-.454l10.959-9.869a1.754,1.754,0,0,0-2.347-2.607l-7.276,6.575v-.13A23.977,23.977,0,1,1,19.173,77.66,1.752,1.752,0,0,0,16.7,80.137a27.448,27.448,0,1,0,19.389-46.87Z" transform="translate(0 -33.267)" fill="#fff"/></g><text transform="translate(995 622)" fill="#9a9a9a" font-size="32" font-family="CircularStd-Book, Circular Std Book"><tspan x="-13.072" y="0">5.</tspan></text></g></g></g></svg>