<svg xmlns="http://www.w3.org/2000/svg" xmlns:xlink="http://www.w3.org/1999/xlink" width="1920" height="727" viewBox="0 0 1920 727"><defs><clipPath id="b"><rect width="1920" height="727"/></clipPath></defs><g id="a" clip-path="url(#b)"><rect width="1920" height="727" fill="#f9f9f9"/><g transform="translate(97.217 147.209)"><g transform="translate(0 62.503)"><text transform="translate(0 13)" fill="#494949" font-size="16" font-family="CircularStd-Medium, Circular Std Medium" font-weight="500" opacity="0.74"><tspan x="0" y="0">Trigger</tspan></text><g transform="translate(0 24.92)"><rect width="230.212" height="123.413" transform="translate(0 0)" fill="#00acff"/><text transform="translate(107.026 96.88)" fill="#fff" font-size="19" font-family="CircularStd-Book, Circular Std Book"><tspan x="-55.708" y="0">Event Search</tspan></text><g transform="translate(93.764 19.925)"><path d="M40.8,36.264a8.174,8.174,0,0,0-3.2-3.712,14.687,14.687,0,0,0-3.775-1.959,2.908,2.908,0,0,0-3.362-4.168A11.731,11.731,0,0,0,28.475,17.6V11.657a.6.6,0,0,0-1.2,0v4.5a11.842,11.842,0,0,0-1.587-1.354A11.761,11.761,0,0,0,7.189,25.76a11.834,11.834,0,0,0,.341,1.748H3.241A2.042,2.042,0,0,1,1.2,25.469V3.475A2.042,2.042,0,0,1,3.241,1.435H25.235a2.042,2.042,0,0,1,2.039,2.039V9.254c0,.332.071,5.241.4,5.241s.8-1.37.8-1.7V3.475A3.245,3.245,0,0,0,25.235.234H3.241A3.245,3.245,0,0,0,0,3.475V25.468a3.245,3.245,0,0,0,3.241,3.241H7.93a11.71,11.71,0,0,0,3.133,4.478,19.75,19.75,0,0,0,1.971,1.394c.166,0,.882.3,1,.168.22-.248-1.926-2.241-2.174-2.461A10.559,10.559,0,1,1,29,27.387c-.039.048-.078.1-.114.149l-3.757,5.281c-.037.052-.071.1-.1.157a10.568,10.568,0,0,1-11.31.63.6.6,0,1,0-.588,1.048,11.771,11.771,0,0,0,11.47.015,2.908,2.908,0,0,0,2.9,2.746,2.941,2.941,0,0,0,.49-.041,2.887,2.887,0,0,0,1.652-.894A14.678,14.678,0,0,0,32.72,39.4a8.059,8.059,0,0,0,4.535,1.807A3.651,3.651,0,0,0,40.3,39.637a3.6,3.6,0,0,0,.495-3.373Zm-13.018-.076A1.708,1.708,0,0,1,26.1,33.513l3.757-5.281a1.7,1.7,0,0,1,1.108-.694,1.731,1.731,0,0,1,.288-.024,1.708,1.708,0,0,1,1.388,2.7l-3.757,5.281a1.7,1.7,0,0,1-1.108.694Zm11.544,2.753A2.4,2.4,0,0,1,37.268,40a7.464,7.464,0,0,1-3.852-1.582,13.118,13.118,0,0,1-3.038-2.954l2.732-3.84a13.123,13.123,0,0,1,3.786,1.9c1.556,1.107,3.941,3.282,2.427,5.411Z" transform="translate(0 -0.234)" fill="#fff"/><path d="M37.256,41.359v0a8.322,8.322,0,0,1-4.622-1.835,14.913,14.913,0,0,1-3.015-2.818A3.023,3.023,0,0,1,28,37.52a3.1,3.1,0,0,1-.515.043,3.058,3.058,0,0,1-3.024-2.656,11.921,11.921,0,0,1-11.416-.124.756.756,0,0,1-.11-.075A23.183,23.183,0,0,1,10.963,33.3a11.925,11.925,0,0,1-3.135-4.44H3.241A3.4,3.4,0,0,1-.15,25.468V3.475A3.4,3.4,0,0,1,3.241.084H25.235a3.4,3.4,0,0,1,3.391,3.391V17.551a11.881,11.881,0,0,1,2.016,8.674l.1-.019a3.1,3.1,0,0,1,.515-.043,3.033,3.033,0,0,1,1.767.567,3.065,3.065,0,0,1,1,3.776,14.922,14.922,0,0,1,3.651,1.924,8.314,8.314,0,0,1,3.26,3.786,3.74,3.74,0,0,1-.514,3.509A3.807,3.807,0,0,1,37.256,41.359Zm-7.614-5.113.109.141a14.483,14.483,0,0,0,3.057,2.893,8.041,8.041,0,0,0,4.448,1.779,3.513,3.513,0,0,0,2.925-1.509,3.451,3.451,0,0,0,.475-3.238,8.033,8.033,0,0,0-3.15-3.639,14.492,14.492,0,0,0-3.736-1.939l-.169-.056.084-.157a2.764,2.764,0,0,0-.834-3.547,2.735,2.735,0,0,0-1.593-.512,2.775,2.775,0,0,0-.761.106l-.23.065.042-.236a11.655,11.655,0,0,0-1.955-8.713l-.028-.039V13.86c-.172.414-.4.786-.649.786-.109,0-.187-.057-.253-.3v2.186l-.257-.262A11.729,11.729,0,0,0,25.6,14.93a11.513,11.513,0,0,0-6.706-2.152,11.8,11.8,0,0,0-1.956.165,11.611,11.611,0,0,0-9.6,12.8,11.728,11.728,0,0,0,.337,1.726l.052.19H3.241a2.192,2.192,0,0,1-2.189-2.189V3.475A2.192,2.192,0,0,1,3.241,1.285H25.235a2.192,2.192,0,0,1,2.189,2.189V9.254c0,.135.011.895.039,1.775a.747.747,0,0,1,.862.029V3.475A3.094,3.094,0,0,0,25.235.384H3.241A3.1,3.1,0,0,0,.15,3.475V25.468a3.094,3.094,0,0,0,3.091,3.091H8.032l.037.1a11.622,11.622,0,0,0,3.092,4.421c.1.087.973.743,1.507,1.112a.75.75,0,0,1,.277-.645c-.543-.555-1.1-1.065-1.186-1.142a10.71,10.71,0,0,1,5.328-18.569,10.877,10.877,0,0,1,1.8-.152A10.713,10.713,0,0,1,29.139,27.43l-.008.029-.019.023c-.043.053-.078.1-.108.141L25.247,32.9c-.031.043-.062.091-.1.149l-.016.025-.024.017a10.716,10.716,0,0,1-11.471.639.453.453,0,0,0-.141-.051c.789.852.76,1.039.649,1.164a.251.251,0,0,1-.155.079,11.626,11.626,0,0,0,10.528-.392l.209-.116.014.239a2.758,2.758,0,0,0,2.747,2.6,2.8,2.8,0,0,0,.465-.039,2.727,2.727,0,0,0,1.566-.847ZM13.417,33.377a.751.751,0,0,1,.367.1,10.416,10.416,0,0,0,11.125-.6c.033-.053.063-.1.093-.14l3.757-5.281c.03-.042.062-.084.1-.133a10.413,10.413,0,0,0-9.968-13.337,10.577,10.577,0,0,0-1.754.148,10.41,10.41,0,0,0-5.179,18.049c.092.081.7.639,1.269,1.226A.749.749,0,0,1,13.417,33.377Zm-.331,1.058a2.522,2.522,0,0,1,.317.082,3.119,3.119,0,0,0,.468.114,4.751,4.751,0,0,0-.715-.871.447.447,0,0,0-.133.147A.453.453,0,0,0,13.086,34.435ZM3.241,1.585A1.892,1.892,0,0,0,1.352,3.475V25.469a1.892,1.892,0,0,0,1.889,1.889H7.335a12.017,12.017,0,0,1-.295-1.581,11.911,11.911,0,0,1,9.848-13.131,12.1,12.1,0,0,1,2.006-.169,11.811,11.811,0,0,1,6.879,2.208,12.042,12.042,0,0,1,1.35,1.117V11.657a.745.745,0,0,1,.051-.273c-.038-1.023-.051-1.977-.051-2.13V3.475a1.892,1.892,0,0,0-1.889-1.889Zm24.237,9.858a14.725,14.725,0,0,0,.25,2.87,3.792,3.792,0,0,0,.6-1.519V11.649a.451.451,0,0,0-.848-.205Zm9.791,28.711a7.575,7.575,0,0,1-3.939-1.61,13.357,13.357,0,0,1-3.073-2.989l-.062-.087,2.856-4.014.1.03a13.361,13.361,0,0,1,3.831,1.923c1.6,1.14,4.052,3.385,2.462,5.62A2.545,2.545,0,0,1,37.268,40.155Zm-6.706-4.686A13.157,13.157,0,0,0,33.5,38.3a7.3,7.3,0,0,0,3.765,1.554,2.259,2.259,0,0,0,1.933-1c1.438-2.022-.881-4.127-2.392-5.2A13.162,13.162,0,0,0,33.17,31.8Zm-3.071.893a1.859,1.859,0,0,1-1.51-2.935l3.757-5.281a1.845,1.845,0,0,1,1.2-.755,1.888,1.888,0,0,1,.313-.026,1.859,1.859,0,0,1,1.51,2.935L29.009,35.58a1.846,1.846,0,0,1-1.2.755A1.883,1.883,0,0,1,27.492,36.361Zm3.764-8.7a1.587,1.587,0,0,0-.263.022,1.547,1.547,0,0,0-1.01.633L26.226,33.6a1.558,1.558,0,0,0,1.266,2.461,1.581,1.581,0,0,0,.263-.022,1.548,1.548,0,0,0,1.01-.633l3.757-5.281a1.558,1.558,0,0,0-1.266-2.461Z" transform="translate(0 -0.234)" fill="#fff"/><path d="M137.889,212.659a8.615,8.615,0,0,0,1.433-.121,8.469,8.469,0,1,0-1.433.121Zm-5.935-12.744a7.306,7.306,0,1,1,1.719,10.188A7.3,7.3,0,0,1,131.954,199.915Z" transform="translate(-119.037 -179.993)" fill="#fff"/><path d="M137.889,212.809a8.66,8.66,0,0,1-7.036-13.677,8.682,8.682,0,0,1,7.066-3.636,8.656,8.656,0,0,1,1.428,17.191A8.793,8.793,0,0,1,137.889,212.809Zm.03-17.013a8.355,8.355,0,0,0-4.856,15.164,8.285,8.285,0,0,0,4.826,1.549,8.493,8.493,0,0,0,1.408-.119,8.355,8.355,0,0,0-1.378-16.595Zm-.027,15.811a7.458,7.458,0,0,1-6.06-11.779,7.477,7.477,0,0,1,6.085-3.131,7.454,7.454,0,0,1,1.23,14.8A7.571,7.571,0,0,1,137.891,211.607Zm.026-14.61a7.154,7.154,0,0,0-4.158,12.984,7.094,7.094,0,0,0,4.132,1.327,7.269,7.269,0,0,0,1.206-.1A7.154,7.154,0,0,0,137.917,197Z" transform="translate(-119.037 -179.993)" fill="#fff"/></g></g></g><g transform="translate(251.978 60.13)"><text transform="translate(0 13)" fill="#494949" font-size="16" font-family="CircularStd-Medium, Circular Std Medium" font-weight="500" opacity="0.74"><tspan x="0" y="0">Action</tspan></text><g transform="translate(0.001 27.293)"><rect width="229.026" height="123.413" transform="translate(0 0)" fill="#00acff"/><text transform="translate(109.84 97.88)" fill="#fff" font-size="20" font-family="CircularStd-Book, Circular Std Book"><tspan x="-60.13" y="0">Browse/Book</tspan></text><g transform="translate(87.535 32.08)"><path d="M51.89,5.277a.88.88,0,0,0,.879-.879V.879A.88.88,0,0,0,51.89,0H.879A.88.88,0,0,0,0,.879V4.4a.88.88,0,0,0,.879.879,1.759,1.759,0,0,1,0,3.518A.88.88,0,0,0,0,9.674V16.71a.88.88,0,0,0,.879.879,1.759,1.759,0,0,1,0,3.518A.88.88,0,0,0,0,21.987v3.518a.88.88,0,0,0,.879.879H51.89a.88.88,0,0,0,.879-.879V21.987a.88.88,0,0,0-.879-.879,1.759,1.759,0,0,1,0-3.518.88.88,0,0,0,.879-.879V9.674a.88.88,0,0,0-.879-.879,1.759,1.759,0,0,1,0-3.518Zm-.879,5.166v5.5a3.518,3.518,0,0,0,0,6.814v1.87h-38.7V21.987H10.554v2.638H1.759v-1.87a3.518,3.518,0,0,0,0-6.814v-5.5a3.518,3.518,0,0,0,0-6.814V1.759h8.795V4.4h1.759V1.759h38.7v1.87a3.518,3.518,0,0,0,0,6.814Zm0,0" fill="#fff"/><path d="M96,64h1.759v1.759H96Zm0,0" transform="translate(-85.446 -56.964)" fill="#fff"/><path d="M96,96h1.759v1.759H96Zm0,0" transform="translate(-85.446 -85.446)" fill="#fff"/><path d="M96,128h1.759v1.759H96Zm0,0" transform="translate(-85.446 -113.928)" fill="#fff"/><path d="M96,168h1.759v1.759H96Zm0,0" transform="translate(-85.446 -149.531)" fill="#fff"/></g></g></g><g transform="translate(251.978 232.142)"><text transform="translate(0 13)" fill="#494949" font-size="16" font-family="CircularStd-Medium, Circular Std Medium" font-weight="500" opacity="0.74"><tspan x="0" y="0">Investment</tspan></text><g transform="translate(0.001 27.293)"><rect width="229.026" height="143.586" transform="translate(0 0)" fill="#00acff"/><text transform="translate(104.6 96.88)" fill="#fff" font-size="19" font-family="CircularStd-Book, Circular Std Book"><tspan x="-37.639" y="0">Reviews,</tspan><tspan x="-69.046" y="23">Future Bookings</tspan></text><g transform="translate(90.159 19.283)"><g transform="translate(0 0)"><path d="M26.3,43.231H21.137a.74.74,0,0,0-.521.216L14.5,49.568v-5.6a.738.738,0,0,0-.739-.739h-5.9A2.217,2.217,0,0,1,5.64,41.017V20.353a2.217,2.217,0,0,1,2.215-2.215H13.02a.739.739,0,0,0,0-1.478H7.854a3.7,3.7,0,0,0-3.69,3.69V41.015a3.7,3.7,0,0,0,3.69,3.69H13.02v6.642a.736.736,0,0,0,.455.681.744.744,0,0,0,.282.056.734.734,0,0,0,.521-.216L21.44,44.7H26.3a.739.739,0,0,0,0-1.478Z" transform="translate(-4.164 -12.974)" fill="#fff"/><path d="M50.741,18.143H64.763a2.217,2.217,0,0,1,2.215,2.215v15.5a.739.739,0,1,0,1.478,0v-15.5a3.7,3.7,0,0,0-3.69-3.69H50.743a.739.739,0,0,0,0,1.478Z" transform="translate(-25.648 -12.977)" fill="#fff"/><path d="M25.088,17.1h-.739a.739.739,0,1,0,0,1.478h.739a4.432,4.432,0,0,0,4.427-4.427v-3.69a.738.738,0,0,0-.739-.739H24.349a.739.739,0,0,0-.739.739v2.215a.739.739,0,1,0,1.478,0V11.2h2.951v2.951A2.955,2.955,0,0,1,25.088,17.1Z" transform="translate(-13.278 -9.722)" fill="#fff"/><path d="M38.974,17.1h-.739a.739.739,0,1,0,0,1.478h.739A4.432,4.432,0,0,0,43.4,14.151v-3.69a.738.738,0,0,0-.739-.739H38.235a.739.739,0,0,0-.739.739v2.215a.739.739,0,1,0,1.478,0V11.2h2.951v2.951A2.955,2.955,0,0,1,38.974,17.1Z" transform="translate(-19.786 -9.722)" fill="#fff"/><path d="M69.771,48.363a.742.742,0,0,0-.656-.533l-9.862-.706L55.73,37.97a.738.738,0,0,0-1.378,0L50.83,47.124l-9.862.706a.738.738,0,0,0-.38,1.332l7.7,5.6L45.477,64.6a.738.738,0,0,0,1.119.818l8.445-5.631,8.445,5.631a.734.734,0,0,0,.409.125.748.748,0,0,0,.436-.141.74.74,0,0,0,.274-.8L61.8,54.764l7.7-5.6a.738.738,0,0,0,.276-.8Zm-9.263,5.51a.738.738,0,0,0-.276.8l2.4,8.4-7.185-4.79a.733.733,0,0,0-.818,0l-7.185,4.79,2.4-8.4a.738.738,0,0,0-.276-.8l-6.484-4.716,8.314-.594a.739.739,0,0,0,.637-.471l3-7.8,3,7.8a.742.742,0,0,0,.637.471l8.314.594L60.5,53.874Z" transform="translate(-21.092 -22.739)" fill="#fff"/></g></g></g></g><g transform="translate(0 232.142)"><text transform="translate(0 13)" fill="#494949" font-size="16" font-family="CircularStd-Medium, Circular Std Medium" font-weight="500" opacity="0.74"><tspan x="0" y="0">Reward</tspan></text><g transform="translate(0 27.293)"><rect width="230.212" height="143.586" transform="translate(0 0)" fill="#00acff"/><text transform="translate(106.533 96.88)" fill="#fff" font-size="19" font-family="CircularStd-Book, Circular Std Book"><tspan x="-65.208" y="0">Confirmation &amp;</tspan><tspan x="-45.239" y="23">Reminders</tspan></text><g transform="translate(93.764 23.306)"><g transform="translate(0)"><path d="M40.779,4.072q-.115,0-.23,0H37.655V1.583A1.758,1.758,0,0,0,35.71,0H33.042a1.558,1.558,0,0,0-1.719,1.583V4.07H20.469V1.583A1.558,1.558,0,0,0,18.751,0H16.083a1.758,1.758,0,0,0-1.945,1.583V4.07H11.244A3.347,3.347,0,0,0,7.805,7.322q0,.115,0,.23v26.14a3.68,3.68,0,0,0,3.437,3.844H40.549a3.68,3.68,0,0,0,3.437-3.844V7.552A3.347,3.347,0,0,0,40.779,4.072ZM33.042,1.809h2.8V6.784h-2.8Zm-16.959,0h2.578V6.784H16.083ZM42.177,33.692a1.879,1.879,0,0,1-1.628,2.035H11.244a1.879,1.879,0,0,1-1.628-2.035V14.472H42.177Zm0-26.14v5.11H9.616V7.552a1.537,1.537,0,0,1,1.628-1.673h2.894v.995a1.861,1.861,0,0,0,1.945,1.719h2.668a1.673,1.673,0,0,0,1.719-1.627q0-.046,0-.092v-1H31.323v.995A1.673,1.673,0,0,0,32.95,8.593h2.76a1.861,1.861,0,0,0,1.945-1.719V5.879h2.894a1.538,1.538,0,0,1,1.628,1.673Z" transform="translate(-7.804)" fill="#fff"/><path d="M121.194,204.208l-.814,4.522a.9.9,0,0,0,1.312.95l4.07-2.126,4.07,2.126.407.09a.859.859,0,0,0,.543-.181.9.9,0,0,0,.362-.859l-.814-4.522,3.3-3.166a1,1,0,0,0,.226-.95.95.95,0,0,0-.724-.588l-4.522-.678-2.035-4.115a.9.9,0,0,0-1.628,0l-2.035,4.115-4.522.678a.95.95,0,0,0-.724.588,1,1,0,0,0,.226.95Zm2.487-3.663a.814.814,0,0,0,.633-.5l1.447-2.894,1.447,2.894a.814.814,0,0,0,.633.5l3.211.452-2.306,2.216a.95.95,0,0,0-.271.814l.543,3.211-2.849-1.538-.407-.09-.407.09-2.849,1.538.543-3.211a.95.95,0,0,0-.271-.814L120.47,201Z" transform="translate(-108.121 -177.391)" fill="#fff"/></g></g></g></g><g transform="translate(0 0)"><path d="M488.974.5H0v-1H488.974Z" transform="translate(0.593 30.26)" fill="#4e4e4e"/><text transform="translate(0 16)" fill="#4e4e4e" font-size="20" font-family="CircularStd-Book, Circular Std Book"><tspan x="0" y="0">Attendees</tspan></text></g></g><g transform="translate(715.217 147.209)"><g transform="translate(0 64.876)"><text transform="translate(0 13)" fill="#494949" font-size="16" font-family="CircularStd-Medium, Circular Std Medium" font-weight="500" opacity="0.74"><tspan x="0" y="0">Trigger</tspan></text><g transform="translate(0 24.92)"><rect width="229.026" height="123.413" transform="translate(0 0)" fill="#00acff"/><text transform="translate(106.093 96.88)" fill="#fff" font-size="19" font-family="CircularStd-Book, Circular Std Book"><tspan x="-60.895" y="0">Desire to Host</tspan></text><g transform="translate(91.374 24.03)"><g transform="translate(0 0)"><path d="M48.586,15.141h-.913V12.533a1.723,1.723,0,1,0-3.446,0v2.608H34.415V12.533a1.723,1.723,0,0,0-3.447,0v2.608H21.157V12.533a1.723,1.723,0,0,0-3.447,0v2.608H16.8A7.467,7.467,0,0,0,9.33,22.609V48.365A7.467,7.467,0,0,0,16.8,55.833H48.586a7.467,7.467,0,0,0,7.467-7.467V22.609a7.467,7.467,0,0,0-7.467-7.467ZM16.8,18.588h.913V21.2a1.723,1.723,0,0,0,3.446,0V18.588h9.805V21.2a1.723,1.723,0,0,0,3.447,0V18.588h9.811V21.2a1.723,1.723,0,0,0,3.446,0V18.588h.913a4.021,4.021,0,0,1,4.021,4.021v2.93H12.777v-2.93A4.021,4.021,0,0,1,16.8,18.588Zm31.783,33.8H16.8a4.021,4.021,0,0,1-4.021-4.021V28.985h39.83V48.365a4.021,4.021,0,0,1-4.021,4.021Z" transform="translate(-9.33 -10.81)" fill="#fff"/><path d="M50.615,54.591H45.037V49.013a1.723,1.723,0,0,0-3.446,0v5.578H36.013a1.723,1.723,0,0,0,0,3.447h5.578v5.578a1.723,1.723,0,1,0,3.446,0V58.037h5.578a1.723,1.723,0,1,0,0-3.447Z" transform="translate(-19.953 -26.335)" fill="#fff"/></g></g></g></g><g transform="translate(250.791 62.503)"><text transform="translate(0 13)" fill="#494949" font-size="16" font-family="CircularStd-Medium, Circular Std Medium" font-weight="500" opacity="0.74"><tspan x="0" y="0">Action</tspan></text><g transform="translate(0 27.293)"><rect width="230.212" height="123.413" transform="translate(0 0)" fill="#00acff"/><text transform="translate(109.026 97.88)" fill="#fff" font-size="20" font-family="CircularStd-Book, Circular Std Book"><tspan x="-58.16" y="0">Create Event</tspan></text><g transform="translate(94.933 25.309)"><path d="M7.418,0A7.417,7.417,0,0,0,.012,7.406V33.965a7.417,7.417,0,0,0,7.406,7.406H33.97a7.414,7.414,0,0,0,7.4-7.406V7.406A7.414,7.414,0,0,0,33.97,0Zm0,2.586H33.97A4.785,4.785,0,0,1,38.8,7.406V33.965a4.785,4.785,0,0,1-4.827,4.821H7.418a4.788,4.788,0,0,1-4.831-4.821V7.406A4.789,4.789,0,0,1,7.418,2.586Zm8.017,4.982a1.291,1.291,0,0,0-.916.381l-3.093,3.093-1.7-1.7a1.292,1.292,0,1,0-1.823,1.831l2.6,2.607h0a1.3,1.3,0,0,0,1.834,0l4.009-4.008a1.293,1.293,0,0,0-.916-2.2Zm5.459,2.006v0a1.293,1.293,0,1,0,0,2.586H32.575a1.293,1.293,0,0,0,0-2.586Zm-5.459,7.815v0a1.291,1.291,0,0,0-.916.381l-3.093,3.093-1.7-1.7v0a1.289,1.289,0,1,0-1.823,1.823l2.6,2.613h0a1.293,1.293,0,0,0,1.834,0l4.009-4.008a1.293,1.293,0,0,0-.916-2.2Zm5.459,2.006v0a1.293,1.293,0,1,0,0,2.586H32.575a1.293,1.293,0,0,0,0-2.586ZM15.436,27.21v0a1.291,1.291,0,0,0-.916.381l-3.093,3.093-1.7-1.7a1.29,1.29,0,1,0-1.823,1.825l2.6,2.616,0,0a1.293,1.293,0,0,0,1.834,0l4.009-4.009a1.293,1.293,0,0,0-.916-2.2Zm5.459,2.006v0a1.293,1.293,0,1,0,0,2.586H32.575a1.293,1.293,0,0,0,0-2.586Z" transform="translate(-0.012 0)" fill="#fff"/></g></g></g><g transform="translate(250.791 232.142)"><text transform="translate(0 13)" fill="#494949" font-size="16" font-family="CircularStd-Medium, Circular Std Medium" font-weight="500" opacity="0.74"><tspan x="0" y="0">Investment</tspan></text><g transform="translate(0 27.293)"><rect width="230.212" height="143.586" transform="translate(0 0)" fill="#00acff"/><text transform="translate(104.787 96.88)" fill="#fff" font-size="19" font-family="CircularStd-Book, Circular Std Book"><tspan x="-68.476" y="0">Repeat Hosting,</tspan><tspan x="-57.551" y="23">Analytics Use</tspan></text><g transform="translate(93.746 21.657)"><path d="M36.9,12.609H44.69a.527.527,0,0,1,.528.528V44.69a.528.528,0,0,1-.528.528H36.9a.528.528,0,0,1-.528-.528V13.137A.527.527,0,0,1,36.9,12.609ZM6.377,14.976A2.747,2.747,0,1,0,8.843,16.51l7.186-5.461a2.748,2.748,0,0,0,4.279-.8l6.275,1.785a2.747,2.747,0,1,0,5.2-.983l9.5-7.219L40.37,7.252a.527.527,0,1,0,1.018.273L42.7,2.616h0a.524.524,0,0,0-.547-.661H37.113a.525.525,0,1,0,0,1.05h3.521l-9.483,7.207a2.75,2.75,0,0,0-4.281.8L20.6,9.231h0a2.748,2.748,0,1,0-5.2.983L8.207,15.675a2.741,2.741,0,0,0-1.829-.7Zm0,1.055a1.693,1.693,0,1,1-1.2.5,1.692,1.692,0,0,1,1.2-.5ZM17.858,7.308a1.693,1.693,0,1,1-1.2.5,1.692,1.692,0,0,1,1.2-.5Zm11.463,3.261h0a1.693,1.693,0,1,1-1.2.5,1.69,1.69,0,0,1,1.2-.5Zm-8.1,8.695v24.9l-6.74,0v-24.9Zm-7.265-1.055h7.791a.527.527,0,0,1,.528.528V44.69a.528.528,0,0,1-.528.528H13.952a.528.528,0,0,1-.528-.528V18.736a.527.527,0,0,1,.528-.528ZM10.8,32.418V44.69a.528.528,0,0,1-.528.528H2.48a.528.528,0,0,1-.528-.528V32.418a.527.527,0,0,1,.528-.528h7.793a.527.527,0,0,1,.528.528ZM9.745,44.162V32.945H3.008V44.162Zm22.944-19.3H25.952v19.3H32.69Zm-7.265-1.055h7.793a.527.527,0,0,1,.528.528V44.69a.528.528,0,0,1-.528.528H25.424a.528.528,0,0,1-.528-.528V24.338a.527.527,0,0,1,.528-.528ZM44.162,13.665H37.424v30.5h6.738Z" transform="translate(-1.952 -1.953)" fill="#fff" fill-rule="evenodd"/><path d="M42.2,1.453a1.024,1.024,0,0,1,.957.663h.2l-.167.629L41.872,7.654a1.027,1.027,0,1,1-1.984-.532l.539-2.013-8.031,6.1a3.248,3.248,0,1,1-6.318,1.194L20.54,10.831a3.243,3.243,0,0,1-2.681,1.416,3.242,3.242,0,0,1-1.834-.567L9.452,16.675a3.252,3.252,0,0,1-3.075,4.3h-.02a3.225,3.225,0,0,1-2.286-.944,3.267,3.267,0,0,1-.957-2.3,3.244,3.244,0,0,1,3.25-3.247h0l.128,0a3.238,3.238,0,0,1,1.719.565l6.573-4.995A3.248,3.248,0,1,1,21.1,8.855l5.535,1.574a3.229,3.229,0,0,1,2.084-1.36,3.253,3.253,0,0,1,2.434.511L39.15,3.5H37.107a1.025,1.025,0,1,1,0-2.05h5.032Zm-.146,1.663h-.005l.173-.633a.023.023,0,0,0-.005-.021.022.022,0,0,0-.017-.008l-.043,0H37.107a.028.028,0,0,0-.02.008.026.026,0,0,0-.007.018.025.025,0,0,0,.007.016.027.027,0,0,0,.019.008h5.012L31.126,10.86l-.307-.274a2.25,2.25,0,0,0-3.5.658l-.187.367-6.671-1.9.068-.487L20.1,9.19a2.249,2.249,0,0,0-2.24-2.436,2.251,2.251,0,0,0-2.017,3.239l.182.37-7.843,5.96-.307-.275a2.239,2.239,0,0,0-1.5-.571H6.329a2.248,2.248,0,0,0-1.553,3.841,2.262,2.262,0,0,0,1.582.653h.016a2.251,2.251,0,0,0,2.021-3.24l-.182-.37,7.843-5.96.307.275a2.241,2.241,0,0,0,1.5.57,2.245,2.245,0,0,0,2-1.228l.187-.367,7.067,2.01-.035.411a2.246,2.246,0,0,0,2.238,2.435,2.251,2.251,0,0,0,2.017-3.24l-.182-.37L42.147,2.546,40.853,7.381a.027.027,0,0,0,.02.033h.005a.03.03,0,0,0,.028-.021ZM17.858,6.808a2.193,2.193,0,1,1-1.548.641A2.185,2.185,0,0,1,17.858,6.808Zm0,3.385a1.192,1.192,0,1,0-.842-2.036,1.192,1.192,0,0,0,.842,2.036Zm11.461-.124h0a2.193,2.193,0,1,1-1.551.642A2.186,2.186,0,0,1,29.322,10.069Zm0,3.384a1.192,1.192,0,0,0,0-2.384,1.192,1.192,0,0,0,0,2.384ZM36.9,12.109H44.69a1.029,1.029,0,0,1,1.028,1.028V44.69a1.029,1.029,0,0,1-1.028,1.028H36.9a1.029,1.029,0,0,1-1.028-1.028V13.137A1.029,1.029,0,0,1,36.9,12.109ZM44.69,44.718a.028.028,0,0,0,.028-.028V13.137a.027.027,0,0,0-.028-.028H36.9a.027.027,0,0,0-.028.028V44.69a.028.028,0,0,0,.028.028ZM36.924,13.165h7.738v31.5H36.924Zm6.738,1H37.924v29.5h5.738ZM6.377,15.532a2.193,2.193,0,1,1-1.551.642A2.185,2.185,0,0,1,6.377,15.532Zm0,3.385a1.192,1.192,0,1,0-.844-2.035,1.192,1.192,0,0,0,.844,2.035Zm7.575-1.207h7.795a1.029,1.029,0,0,1,1.026,1.028V44.69a1.029,1.029,0,0,1-1.028,1.028H13.952a1.029,1.029,0,0,1-1.028-1.028V18.736A1.029,1.029,0,0,1,13.952,17.709Zm7.793,27.009a.028.028,0,0,0,.028-.028V18.736a.027.027,0,0,0-.028-.028H13.952a.027.027,0,0,0-.028.028V44.69a.028.028,0,0,0,.028.028ZM13.98,18.764h7.74v25.9l-7.74,0Zm6.74,1H14.98v23.9h5.74Zm4.7,3.547h7.793a1.029,1.029,0,0,1,1.028,1.028V44.69a1.029,1.029,0,0,1-1.028,1.028H25.424A1.029,1.029,0,0,1,24.4,44.69V24.338A1.029,1.029,0,0,1,25.424,23.311Zm7.793,21.407a.028.028,0,0,0,.028-.028V24.338a.027.027,0,0,0-.028-.028H25.424a.027.027,0,0,0-.028.028V44.69a.028.028,0,0,0,.028.028ZM25.452,24.366H33.19v20.3H25.452Zm6.738,1H26.452v18.3H32.19ZM2.48,31.39h7.793A1.029,1.029,0,0,1,11.3,32.418V44.69a1.029,1.029,0,0,1-1.028,1.028H2.48A1.029,1.029,0,0,1,1.452,44.69V32.418A1.029,1.029,0,0,1,2.48,31.39Zm7.793,13.328a.028.028,0,0,0,.028-.028V32.418a.027.027,0,0,0-.028-.028H2.48a.027.027,0,0,0-.028.028V44.69a.028.028,0,0,0,.028.028ZM2.508,32.445h7.738V44.662H2.508Zm6.738,1H3.508V43.662H9.245Z" transform="translate(-1.952 -1.953)" fill="#fff"/></g></g></g><g transform="translate(0 232.142)"><text transform="translate(0 13)" fill="#494949" font-size="16" font-family="CircularStd-Medium, Circular Std Medium" font-weight="500" opacity="0.74"><tspan x="0" y="0">Reward</tspan></text><g transform="translate(0 27.293)"><rect width="229.026" height="122.226" transform="translate(0 0)" fill="#00acff"/><text transform="translate(107.026 96.88)" fill="#fff" font-size="19" font-family="CircularStd-Book, Circular Std Book"><tspan x="-55.603" y="0">Registrations</tspan></text><g transform="translate(86.05 19.742)"><g transform="translate(0 0)"><path d="M4.757,2.931A3.967,3.967,0,0,0,.794,6.879V40.353A3.969,3.969,0,0,0,4.757,44.3H54.179a3.969,3.969,0,0,0,3.963-3.949V6.879a3.967,3.967,0,0,0-3.963-3.947Zm0,1.978H54.179a1.951,1.951,0,0,1,1.985,1.97V40.353a1.953,1.953,0,0,1-1.985,1.972H4.757a1.953,1.953,0,0,1-1.985-1.972V6.879a1.951,1.951,0,0,1,1.985-1.97ZM29.471,7.522A9.584,9.584,0,1,0,39.1,17.107,9.627,9.627,0,0,0,29.471,7.522Zm0,1.978a7.608,7.608,0,0,1,6.782,11.136,8.167,8.167,0,0,0-3.627-2.978,4.385,4.385,0,1,0-6.313,0,8.168,8.168,0,0,0-3.627,2.984A7.607,7.607,0,0,1,29.471,9.5Zm0,2.731a2.4,2.4,0,1,1-2.408,2.4,2.385,2.385,0,0,1,2.408-2.4Zm0,6.773a6.15,6.15,0,0,1,5.516,3.382,7.7,7.7,0,0,1-11.035,0A6.158,6.158,0,0,1,29.471,19Zm-15.78,9.212a3.529,3.529,0,1,0,0,7.059H45.245a3.529,3.529,0,1,0,0-7.059Zm0,1.978H45.245a1.552,1.552,0,1,1,0,3.1H13.691a1.552,1.552,0,1,1,0-3.1Zm10.073,7.541a.989.989,0,0,0,0,1.978h12.08a.989.989,0,0,0,0-1.978Z" transform="translate(-0.794 -2.931)" fill="#fff"/></g></g></g></g><g transform="translate(0 0)"><path d="M488.973.5H0v-1H488.973Z" transform="translate(0.593 30.26)" fill="#4e4e4e"/><text transform="translate(0 16)" fill="#4e4e4e" font-size="20" font-family="CircularStd-Book, Circular Std Book"><tspan x="0" y="0">Event Organizers</tspan></text></g></g><g transform="translate(1333.217 147.209)"><g transform="translate(0 64.876)"><text transform="translate(0.001 13)" fill="#494949" font-size="16" font-family="CircularStd-Medium, Circular Std Medium" font-weight="500" opacity="0.74"><tspan x="0" y="0">Trigger</tspan></text><g transform="translate(0 24.92)"><rect width="230.212" height="123.413" transform="translate(0 0)" fill="#00acff"/><text transform="translate(105.294 96.88)" fill="#fff" font-size="19" font-family="CircularStd-Book, Circular Std Book"><tspan x="-77.9" y="0">New events/Users</tspan></text><g transform="translate(86.627 24.489)"><g transform="translate(0 0)"><path d="M4.757,2.931A3.967,3.967,0,0,0,.794,6.879V40.353A3.969,3.969,0,0,0,4.757,44.3H54.179a3.969,3.969,0,0,0,3.963-3.949V6.879a3.967,3.967,0,0,0-3.963-3.947Zm0,1.978H54.179a1.951,1.951,0,0,1,1.985,1.97V40.353a1.953,1.953,0,0,1-1.985,1.972H4.757a1.953,1.953,0,0,1-1.985-1.972V6.879a1.951,1.951,0,0,1,1.985-1.97ZM29.471,7.522A9.584,9.584,0,1,0,39.1,17.107,9.627,9.627,0,0,0,29.471,7.522Zm0,1.978a7.608,7.608,0,0,1,6.782,11.136,8.167,8.167,0,0,0-3.627-2.978,4.385,4.385,0,1,0-6.313,0,8.168,8.168,0,0,0-3.627,2.984A7.607,7.607,0,0,1,29.471,9.5Zm0,2.731a2.4,2.4,0,1,1-2.408,2.4,2.385,2.385,0,0,1,2.408-2.4Zm0,6.773a6.15,6.15,0,0,1,5.516,3.382,7.7,7.7,0,0,1-11.035,0A6.158,6.158,0,0,1,29.471,19Zm-15.78,9.212a3.529,3.529,0,1,0,0,7.059H45.245a3.529,3.529,0,1,0,0-7.059Zm0,1.978H45.245a1.552,1.552,0,1,1,0,3.1H13.691a1.552,1.552,0,1,1,0-3.1Zm10.073,7.541a.989.989,0,0,0,0,1.978h12.08a.989.989,0,0,0,0-1.978Z" transform="translate(-0.794 -2.931)" fill="#fff"/></g></g></g></g><g transform="translate(251.977 62.503)"><text transform="translate(0 13)" fill="#494949" font-size="16" font-family="CircularStd-Medium, Circular Std Medium" font-weight="500" opacity="0.74"><tspan x="0" y="0">Action</tspan></text><g transform="translate(0 27.293)"><rect width="229.026" height="123.413" transform="translate(0 0)" fill="#00acff"/><text transform="translate(105.6 96.88)" fill="#fff" font-size="19" font-family="CircularStd-Book, Circular Std Book"><tspan x="-70.167" y="0">Review/Approve</tspan></text><g transform="translate(92.383 20.47)"><path d="M23.213,20.106A1.106,1.106,0,1,1,22.106,19,1.106,1.106,0,0,1,23.213,20.106Z" transform="translate(-14.914 -14.021)" fill="#fff"/><path d="M29.106,21.213A1.106,1.106,0,1,0,28,20.106,1.106,1.106,0,0,0,29.106,21.213Z" transform="translate(-18.042 -14.021)" fill="#fff"/><path d="M37.213,20.106A1.106,1.106,0,1,1,36.106,19,1.106,1.106,0,0,1,37.213,20.106Z" transform="translate(-21.169 -14.021)" fill="#fff"/><path d="M62.943,67.143a1.108,1.108,0,0,0-1.673,1.452l1.186,1.364a2.763,2.763,0,0,0,4.257-.1l4.007-5.068a1.106,1.106,0,1,0-1.738-1.37l-4,5.066a.553.553,0,0,1-.851.022Z" transform="translate(-32.785 -33.678)" fill="#fff"/><path d="M10,16.639A6.638,6.638,0,0,1,16.639,10H44.3a6.638,6.638,0,0,1,6.639,6.639V35.294a11.066,11.066,0,1,1-18.3,11.22h-16A6.638,6.638,0,0,1,10,39.875Zm38.727,4.979V33.61a11.068,11.068,0,0,0-16.6,9.584c0,.374.019.743.054,1.106H16.639a4.426,4.426,0,0,1-4.426-4.426V21.618Zm0-2.213H12.213V16.639a4.426,4.426,0,0,1,4.426-4.426H44.3a4.426,4.426,0,0,1,4.426,4.426ZM43.194,34.343a8.852,8.852,0,1,0,8.852,8.852A8.852,8.852,0,0,0,43.194,34.343Z" transform="translate(-10 -10)" fill="#fff" fill-rule="evenodd"/></g></g></g><g transform="translate(251.977 232.142)"><text transform="translate(0 13)" fill="#494949" font-size="16" font-family="CircularStd-Medium, Circular Std Medium" font-weight="500" opacity="0.74"><tspan x="0" y="0">Investment</tspan></text><g transform="translate(0 27.293)"><rect width="229.026" height="143.586" transform="translate(0 0)" fill="#00acff"/><text transform="translate(102.493 96.88)" fill="#fff" font-size="19" font-family="CircularStd-Book, Circular Std Book"><tspan x="-84.075" y="0">Policy Refinements,</tspan><tspan x="-93.033" y="23">Automated Approvals</tspan></text><g transform="translate(96.12 21.657)"><path d="M16.983,14.286a.56.56,0,0,1,.557-.557h17.5a.557.557,0,0,1,0,1.114h-17.5a.562.562,0,0,1-.559-.557Zm9.955-3.63h8.109a.557.557,0,0,0,0-1.114l-8.109,0a.558.558,0,0,0,0,1.115Zm-9.4,8.369h17.5a.557.557,0,0,0,0-1.114h-17.5a.557.557,0,1,0,0,1.114Zm0,4.183h17.5a.56.56,0,0,0,.557-.557.553.553,0,0,0-.557-.553h-17.5a.56.56,0,0,0-.557.557.554.554,0,0,0,.557.553Zm0,4.186h17.5a.557.557,0,1,0,0-1.114h-17.5a.557.557,0,1,0,0,1.114Zm0,4.183h17.5a.557.557,0,0,0,0-1.114h-17.5a.557.557,0,1,0,0,1.114ZM29.476,34.65H17.541a.557.557,0,1,0,0,1.114H29.476a.557.557,0,0,0,0-1.114Zm20.013,1.476v4.059a8.693,8.693,0,0,1-2.033,5.776,11.644,11.644,0,0,1-5.08,3.314,1.659,1.659,0,0,1-1.125,0,11.622,11.622,0,0,1-5.08-3.314,9.322,9.322,0,0,1-.622-.844H18.512a2.473,2.473,0,0,1-2.472-2.472V41.6H14.826a2.476,2.476,0,0,1-2.472-2.472l0-28.866a.567.567,0,0,1,.162-.395l6-6.007a.558.558,0,0,1,.395-.162h18.85a2.473,2.473,0,0,1,2.472,2.472V7.212h1.214a2.476,2.476,0,0,1,2.472,2.472V32.647L49.21,35.64a.562.562,0,0,1,.279.486Zm-9.257-27.8V32.352l1.306-.74a.545.545,0,0,1,.547,0l.721.408,0-22.331a1.364,1.364,0,0,0-1.362-1.362ZM14.25,9.709h2.742a1.364,1.364,0,0,0,1.362-1.362V5.605Zm.572,30.781H34.151c-.006-.1-.01-.2-.01-.306V36.124a.554.554,0,0,1,.281-.484l4.7-2.659V6.177a1.364,1.364,0,0,0-1.362-1.362l-18.287,0V8.348A2.476,2.476,0,0,1,17,10.82H13.466V39.129a1.359,1.359,0,0,0,1.356,1.36ZM34.93,44a8.636,8.636,0,0,1-.686-2.4H17.156v1.04a1.364,1.364,0,0,0,1.362,1.362H34.93Zm13.446-7.55-6.56-3.714-6.56,3.714v3.734c0,4.77,3.468,7,6.373,8.04a.5.5,0,0,0,.38,0c2.905-1.037,6.373-3.275,6.373-8.04l0-3.734ZM38.325,40.075a.555.555,0,0,0-.823.746l2.225,2.466a.547.547,0,0,0,.414.183.553.553,0,0,0,.37-.139l5.583-4.917a.556.556,0,1,0-.734-.834l-5.169,4.556Z" transform="translate(-12.355 -3.703)" fill="#fff"/><path d="M18.917,3.4h18.85a2.775,2.775,0,0,1,2.772,2.772v.737h.914a2.775,2.775,0,0,1,2.772,2.772V32.472l5.134,2.908a.867.867,0,0,1,.432.747h0v4.059a8.983,8.983,0,0,1-2.1,5.97,11.946,11.946,0,0,1-5.209,3.4,1.959,1.959,0,0,1-1.323,0,11.921,11.921,0,0,1-5.213-3.4,9.125,9.125,0,0,1-.553-.737H18.512a2.775,2.775,0,0,1-2.772-2.772V41.9h-.914a2.775,2.775,0,0,1-2.772-2.772l0-28.866a.871.871,0,0,1,.248-.605l6.005-6.009A.864.864,0,0,1,18.917,3.4ZM49.19,36.126a.26.26,0,0,0-.131-.226l-5.435-3.078V9.684a2.174,2.174,0,0,0-2.172-2.172H39.938V6.175A2.174,2.174,0,0,0,37.766,4H18.917a.259.259,0,0,0-.183.074l-6,6.007a.265.265,0,0,0-.074.183l0,28.866A2.174,2.174,0,0,0,14.826,41.3H16.34v1.34a2.174,2.174,0,0,0,2.172,2.172h17.2l.089.134a8.93,8.93,0,0,0,.6.817,11.328,11.328,0,0,0,4.951,3.224,1.36,1.36,0,0,0,.927,0,11.353,11.353,0,0,0,4.948-3.224,8.4,8.4,0,0,0,1.961-5.582ZM37.756,4.515a1.664,1.664,0,0,1,1.662,1.662V33.156L34.571,35.9a.253.253,0,0,0-.129.223v4.059c0,.086,0,.175.009.29l.018.317H14.625l-.005-.013a1.661,1.661,0,0,1-1.454-1.648V10.52H17a2.174,2.174,0,0,0,2.172-2.172V4.517Zm1.062,28.292V6.177a1.063,1.063,0,0,0-1.062-1.062l-17.987,0V8.348A2.775,2.775,0,0,1,17,11.12H13.766V39.129a1.059,1.059,0,0,0,1.056,1.06h19.02s0,0,0-.006V36.124a.857.857,0,0,1,.433-.745ZM18.654,4.881V8.347a1.664,1.664,0,0,1-1.662,1.662H13.526ZM16.992,9.409a1.063,1.063,0,0,0,1.062-1.062V6.329L14.974,9.409Zm22.94-1.381h1.514A1.664,1.664,0,0,1,43.108,9.69l0,22.846-1.168-.662a.245.245,0,0,0-.248,0l-1.758,1Zm2.574,23.478,0-21.816a1.063,1.063,0,0,0-1.062-1.062h-.914v23.21l.858-.486a.845.845,0,0,1,.847,0ZM26.937,9.241l8.109,0a.857.857,0,0,1,0,1.714H26.937a.858.858,0,0,1,0-1.715Zm8.109,1.115a.257.257,0,1,0,0-.514l-8.109,0a.26.26,0,0,0-.257.257.255.255,0,0,0,.257.259ZM17.539,13.429h17.5a.857.857,0,0,1,0,1.714h-17.5a.865.865,0,0,1-.859-.857.859.859,0,0,1,.857-.857Zm.006,1.114h17.5a.257.257,0,0,0,0-.514h-17.5a.257.257,0,1,0,.006.514Zm0,3.069h17.5a.857.857,0,1,1,0,1.714h-17.5a.857.857,0,0,1,0-1.714Zm17.5,1.114a.257.257,0,1,0,0-.514h-17.5a.26.26,0,0,0-.257.257.25.25,0,0,0,.074.18.256.256,0,0,0,.183.077ZM17.541,21.8h17.5a.855.855,0,1,1,0,1.71h-17.5a.854.854,0,0,1-.61-.254.84.84,0,0,1-.246-.6A.857.857,0,0,1,17.541,21.8Zm17.5,1.11a.26.26,0,0,0,.257-.257.252.252,0,0,0-.257-.253h-17.5a.26.26,0,0,0-.257.257.245.245,0,0,0,.072.176.259.259,0,0,0,.185.077Zm-17.5,3.073h17.5a.857.857,0,1,1,0,1.714h-17.5a.857.857,0,0,1,0-1.714Zm17.5,1.114a.257.257,0,1,0,0-.514h-17.5a.26.26,0,0,0-.257.257.25.25,0,0,0,.074.18.256.256,0,0,0,.183.077Zm-17.5,3.069h17.5a.857.857,0,1,1,0,1.714h-17.5a.857.857,0,0,1,0-1.714Zm17.5,1.114a.257.257,0,1,0,0-.514h-17.5a.26.26,0,0,0-.257.257.251.251,0,0,0,.073.181.257.257,0,0,0,.184.076Zm6.772,1.115,6.639,3.759h.221l0,.3,0,3.734A7.855,7.855,0,0,1,46.5,45.81a11.189,11.189,0,0,1-4.39,2.7.789.789,0,0,1-.585,0c-3-1.07-6.57-3.383-6.57-8.321V36.276Zm6.264,4.236-6.264-3.547-6.26,3.545v3.559c0,4.591,3.357,6.752,6.174,7.757l0,0a.2.2,0,0,0,.168,0l0,0c2.817-1,6.174-3.166,6.174-7.757ZM17.541,34.35H29.476a.857.857,0,0,1,0,1.714H17.541a.857.857,0,0,1,0-1.714Zm11.935,1.114a.257.257,0,0,0,0-.514H17.541a.257.257,0,0,0,0,.514Zm16.251,1.678a.855.855,0,0,1,.644.291.855.855,0,0,1-.078,1.207L40.71,43.556a.861.861,0,0,1-1.208-.072L37.28,41.022a.856.856,0,0,1,.632-1.43h0a.863.863,0,0,1,.634.281l1.669,1.843,4.947-4.361A.849.849,0,0,1,45.727,37.141ZM40.142,43.17a.255.255,0,0,0,.172-.064L45.9,38.189a.253.253,0,0,0,.086-.176.25.25,0,0,0-.062-.183.256.256,0,0,0-.194-.088.25.25,0,0,0-.167.063l-5.392,4.753L38.1,40.276a.257.257,0,0,0-.191-.085.246.246,0,0,0-.168.066.252.252,0,0,0-.02.36l2.227,2.468A.251.251,0,0,0,40.142,43.17ZM16.856,41.3H34.505l.036.258a8.363,8.363,0,0,0,.662,2.314l.027.058,0,.373H18.518a1.664,1.664,0,0,1-1.662-1.662Zm17.131.6H17.456v.74a1.063,1.063,0,0,0,1.062,1.062H34.48A9.048,9.048,0,0,1,33.987,41.9Z" transform="translate(-12.355 -3.703)" fill="#fff"/></g></g></g><g transform="translate(0 232.142)"><text transform="translate(0.001 13)" fill="#494949" font-size="16" font-family="CircularStd-Medium, Circular Std Medium" font-weight="500" opacity="0.74"><tspan x="0" y="0">Reward</tspan></text><g transform="translate(0 27.293)"><rect width="230.212" height="143.586" transform="translate(0 0)" fill="#00acff"/><text transform="translate(105.228 96.88)" fill="#fff" font-size="19" font-family="CircularStd-Book, Circular Std Book"><tspan x="-71.858" y="0">Smooth Platform</tspan><tspan x="-47.699" y="23">Operations</tspan></text><g transform="translate(94.934 22.935)"><path d="M7.418,0A7.417,7.417,0,0,0,.012,7.406V33.965a7.417,7.417,0,0,0,7.406,7.406H33.97a7.414,7.414,0,0,0,7.4-7.406V7.406A7.414,7.414,0,0,0,33.97,0Zm0,2.586H33.97A4.785,4.785,0,0,1,38.8,7.406V33.965a4.785,4.785,0,0,1-4.827,4.821H7.418a4.788,4.788,0,0,1-4.831-4.821V7.406A4.789,4.789,0,0,1,7.418,2.586Zm8.017,4.982a1.291,1.291,0,0,0-.916.381l-3.093,3.093-1.7-1.7a1.292,1.292,0,1,0-1.823,1.831l2.6,2.607h0a1.3,1.3,0,0,0,1.834,0l4.009-4.008a1.293,1.293,0,0,0-.916-2.2Zm5.459,2.006v0a1.293,1.293,0,1,0,0,2.586H32.575a1.293,1.293,0,0,0,0-2.586Zm-5.459,7.815v0a1.291,1.291,0,0,0-.916.381l-3.093,3.093-1.7-1.7v0a1.289,1.289,0,1,0-1.823,1.823l2.6,2.613h0a1.293,1.293,0,0,0,1.834,0l4.009-4.008a1.293,1.293,0,0,0-.916-2.2Zm5.459,2.006v0a1.293,1.293,0,1,0,0,2.586H32.575a1.293,1.293,0,0,0,0-2.586ZM15.436,27.21v0a1.291,1.291,0,0,0-.916.381l-3.093,3.093-1.7-1.7a1.29,1.29,0,1,0-1.823,1.825l2.6,2.616,0,0a1.293,1.293,0,0,0,1.834,0l4.009-4.009a1.293,1.293,0,0,0-.916-2.2Zm5.459,2.006v0a1.293,1.293,0,1,0,0,2.586H32.575a1.293,1.293,0,0,0,0-2.586Z" transform="translate(-0.012 0)" fill="#fff"/></g></g></g><g transform="translate(0 0)"><path d="M488.972.5H0v-1H488.972Z" transform="translate(0.593 30.26)" fill="#4e4e4e"/><text transform="translate(0 16)" fill="#4e4e4e" font-size="20" font-family="CircularStd-Book, Circular Std Book"><tspan x="0" y="0">Admins</tspan></text></g></g></g></svg>