<svg xmlns="http://www.w3.org/2000/svg" width="123" height="53" viewBox="0 0 123 53"><g transform="translate(-760 -14095)"><rect width="123" height="53" transform="translate(760 14095)" fill="none"/><g transform="translate(766 14026.993)"><path d="M55.576,85.692A11.073,11.073,0,1,0,66.649,96.764,11.085,11.085,0,0,0,55.576,85.692Z" transform="translate(-22.166 -2.049)" fill="none" stroke="#171717" stroke-width="1"/><path d="M114.1,85.692a11.073,11.073,0,1,0,11.073,11.072A11.085,11.085,0,0,0,114.1,85.692Z" transform="translate(-51.317 -2.049)" fill="none" stroke="#171717" stroke-width="1"/><path d="M9.009,90.2a9.292,9.292,0,0,0-6.4,2.539V84.7h12.86a1,1,0,1,0,0-2.008H1.6a1,1,0,0,0-1,1V95.734a1,1,0,0,0,1.9.459,7.316,7.316,0,1,1-.526,5.34,1,1,0,0,0-1.931.549A9.325,9.325,0,1,0,9.009,90.2Z" transform="translate(0 -0.555)" fill="#171717" stroke="#171717" stroke-width="1"/><path d="M53.583,81.692a13.08,13.08,0,1,0,13.08,13.08A13.095,13.095,0,0,0,53.583,81.692Zm0,24.153A11.073,11.073,0,1,1,64.656,94.772,11.085,11.085,0,0,1,53.583,105.845Z" transform="translate(-20.174 -0.057)" fill="#171717" stroke="#171717" stroke-width="1"/><path d="M112.11,81.692a13.08,13.08,0,1,0,13.08,13.08A13.095,13.095,0,0,0,112.11,81.692Zm0,24.153a11.073,11.073,0,1,1,11.073-11.073A11.085,11.085,0,0,1,112.11,105.845Z" transform="translate(-49.325 -0.057)" fill="#171717" stroke="#171717" stroke-width="1"/><path d="M164.466,81.641a6.812,6.812,0,0,0-6.8,6.8v12.92a1,1,0,1,0,2.008,0V88.445a4.8,4.8,0,1,1,4.8,4.8c-.156,0-.31-.008-.462-.022a1,1,0,0,0-.192,2q.323.032.654.031a6.8,6.8,0,0,0,0-13.608Z" transform="translate(-78.529 -0.031)" fill="#171717" stroke="#171717" stroke-width="1"/><path d="M201.962,94l-5.386-5.328,5.328-5.386a1,1,0,0,0-1.427-1.412l-5.328,5.386L189.73,81.9a1,1,0,1,0-1.412,1.427l5.419,5.361-5.361,5.419A1,1,0,0,0,189.8,95.52l5.361-5.419,5.386,5.328A1,1,0,1,0,201.962,94Z" transform="translate(-93.649)" fill="#171717" stroke="#171717" stroke-width="1"/></g></g></svg>