<svg xmlns="http://www.w3.org/2000/svg" width="53" height="53" viewBox="0 0 53 53"><g transform="translate(-611 -14095)"><rect width="53" height="53" transform="translate(611 14095)" fill="none"/><g transform="translate(615.85 14026.415)"><path d="M39.395,85.088H28.464V82.373H39.4v2.715ZM21.188,96.221a7.178,7.178,0,0,1,1.058,3.976,7.918,7.918,0,0,1-1.206,4.331,7.51,7.51,0,0,1-1.92,2.132,7.42,7.42,0,0,1-3.063,1.363,18.937,18.937,0,0,1-3.832.367H0V81.247H13.108c3.3.054,5.647,1.011,7.03,2.891a6.907,6.907,0,0,1,1.241,4.145,6.042,6.042,0,0,1-1.254,4,6.4,6.4,0,0,1-2.067,1.545A6.027,6.027,0,0,1,21.188,96.221ZM6.26,91.948H12a5.443,5.443,0,0,0,2.869-.673,2.565,2.565,0,0,0,1.1-2.387,2.429,2.429,0,0,0-1.458-2.5,10.253,10.253,0,0,0-3.2-.425H6.26ZM16.527,99.81A2.911,2.911,0,0,0,14.8,96.9a6.8,6.8,0,0,0-2.714-.46H6.26v7.233H12a6.373,6.373,0,0,0,2.749-.476A3.422,3.422,0,0,0,16.527,99.81ZM43.45,95.394a25.532,25.532,0,0,1,.168,3.861H29.462a4.648,4.648,0,0,0,2.032,4.1,5.118,5.118,0,0,0,2.8.73,3.948,3.948,0,0,0,3.865-2.226H43.35a6.32,6.32,0,0,1-1.883,3.514,9.444,9.444,0,0,1-7.312,2.839,10.612,10.612,0,0,1-6.849-2.393q-2.96-2.4-2.964-7.789,0-5.059,2.675-7.751a9.377,9.377,0,0,1,6.956-2.7,11.085,11.085,0,0,1,4.572.909A7.874,7.874,0,0,1,41.9,91.372,9.6,9.6,0,0,1,43.45,95.394Zm-5.107.506a4.246,4.246,0,0,0-1.359-3.073,4.431,4.431,0,0,0-3.013-1.053,4.031,4.031,0,0,0-3.033,1.115,5.24,5.24,0,0,0-1.355,3.01h8.76Z" transform="translate(0 0)" fill="#171717"/></g></g></svg>