<svg xmlns="http://www.w3.org/2000/svg" width="449.604" height="79.001" viewBox="0 0 449.604 79.001"><g transform="translate(612 -1066)"><path d="M364,79H0V0H364V79Zm-4.27-27.784a1.512,1.512,0,1,0,1.512,1.512A1.514,1.514,0,0,0,359.73,51.217Zm-9.073,0a1.512,1.512,0,1,0,1.512,1.512A1.514,1.514,0,0,0,350.657,51.217Zm-9.072,0a1.512,1.512,0,1,0,1.512,1.512A1.514,1.514,0,0,0,341.585,51.217Zm-9.073,0a1.512,1.512,0,1,0,1.512,1.512A1.514,1.514,0,0,0,332.512,51.217Zm-301.42,0A1.512,1.512,0,1,0,32.6,52.729,1.514,1.514,0,0,0,31.092,51.217Zm-9.073,0a1.512,1.512,0,1,0,1.512,1.512A1.514,1.514,0,0,0,22.019,51.217Zm-9.072,0a1.512,1.512,0,1,0,1.512,1.512A1.514,1.514,0,0,0,12.947,51.217Zm-9.073,0a1.512,1.512,0,1,0,1.512,1.512A1.514,1.514,0,0,0,3.875,51.217ZM136.106,36.286l4.576,9.437-2.574,5.611h2.728l6.82-15.048H144.95l-2.882,6.776-3.081-6.776h-2.882Zm112.42,0V51.18h2.53V45.79a3.865,3.865,0,0,0,3.256,1.473c2.966,0,5.038-2.316,5.038-5.631,0-3.395-1.943-5.588-4.95-5.588a3.808,3.808,0,0,0-3.41,1.694V36.286h-2.464Zm36.872-.33a5.372,5.372,0,0,0-5.214,5.632,5.429,5.429,0,0,0,5.478,5.742,4.817,4.817,0,0,0,4.839-3.389l-2.156-.681a2.574,2.574,0,0,1-2.684,1.869,2.879,2.879,0,0,1-2.927-2.794h7.833a3.863,3.863,0,0,0,.066-.815C290.634,38.089,288.628,35.956,285.4,35.956Zm-44.9,0a5.427,5.427,0,0,0-5.544,5.676,5.557,5.557,0,1,0,11.111,0A5.438,5.438,0,0,0,240.5,35.956Zm-18.238,0a5.372,5.372,0,0,0-5.215,5.632,5.429,5.429,0,0,0,5.478,5.742,4.82,4.82,0,0,0,4.84-3.389l-2.156-.681a2.574,2.574,0,0,1-2.684,1.869,2.878,2.878,0,0,1-2.926-2.794h7.832a3.814,3.814,0,0,0,.066-.815C227.494,38.089,225.488,35.956,222.259,35.956Zm-23.056,0a5.372,5.372,0,0,0-5.214,5.632,5.429,5.429,0,0,0,5.477,5.742,4.82,4.82,0,0,0,4.84-3.389l-2.156-.681a2.574,2.574,0,0,1-2.684,1.869,2.878,2.878,0,0,1-2.926-2.794h7.832a3.739,3.739,0,0,0,.067-.815C204.439,38.089,202.432,35.956,199.2,35.956Zm-95.546,0a5.372,5.372,0,0,0-5.215,5.632,5.429,5.429,0,0,0,5.478,5.742,4.82,4.82,0,0,0,4.84-3.389L106.6,43.26a2.574,2.574,0,0,1-2.684,1.869,2.878,2.878,0,0,1-2.926-2.794h7.832a3.817,3.817,0,0,0,.066-.815C108.892,38.089,106.886,35.956,103.657,35.956ZM60.778,31.072a7.827,7.827,0,0,0-7.853,8.141A7.739,7.739,0,0,0,60.8,47.33a7.019,7.019,0,0,0,7.062-5.171l-2.42-.792A4.676,4.676,0,0,1,60.8,44.8a5.075,5.075,0,0,1-3.584-1.425,5.662,5.662,0,0,1-1.587-4.163c0-3.885,2.669-5.654,5.148-5.654a4.322,4.322,0,0,1,4.532,3.409l2.486-.835A6.805,6.805,0,0,0,60.778,31.072Zm9,5.215V43.04a3.94,3.94,0,0,0,4.048,4.268,3.406,3.406,0,0,0,3.036-1.5A7.964,7.964,0,0,0,76.948,47H79.39a17.917,17.917,0,0,1-.11-1.958V36.286H76.729v6.336a2.136,2.136,0,0,1-2.245,2.4,1.975,1.975,0,0,1-1.655-.726,2.765,2.765,0,0,1-.5-1.715V36.286Zm234.653,0v2.265h1.98v5.39a2.942,2.942,0,0,0,3.212,3.19,4.076,4.076,0,0,0,1.562-.242V44.778l-.011,0a5.459,5.459,0,0,1-.869.085c-.956,0-1.364-.4-1.364-1.342V38.552h2.222V36.286h-2.222V33.008h-2.31v1.607a1.512,1.512,0,0,1-1.65,1.672Zm-181.742,0v2.265h1.98v5.39a2.942,2.942,0,0,0,3.212,3.19,4.093,4.093,0,0,0,1.562-.242V44.778l-.011,0a5.454,5.454,0,0,1-.869.085c-.956,0-1.364-.4-1.364-1.342V38.552h2.222V36.286H127.2V33.008h-2.309v1.607a1.512,1.512,0,0,1-1.651,1.672Zm175.164,2c1.418,0,2.2.844,2.2,2.376V47H302.6V40.224c0-2.619-1.484-4.246-3.872-4.246a3.566,3.566,0,0,0-3.168,1.739v-1.43h-2.487V47h2.552V40.818A2.239,2.239,0,0,1,297.851,38.288Zm-24.486-.022a1.945,1.945,0,0,1,2.068,2.2V47H277.9V40.048c0-3-2.039-4.071-3.784-4.071a3.731,3.731,0,0,0-3.476,1.893,3.337,3.337,0,0,0-3.212-1.893,3.685,3.685,0,0,0-3.168,1.672V36.286h-2.442V47h2.53V40.642a2.18,2.18,0,0,1,2.222-2.376,1.945,1.945,0,0,1,2.068,2.2V47h2.507V40.642A2.227,2.227,0,0,1,273.364,38.266Zm-43.428-7.195h0V47h2.552V31.072h-2.551Zm-24.706,5.215L209.587,47h2.551l4.2-10.714h-2.684l-2.772,7.655-2.838-7.655h-2.816ZM179.116,31.4V47h5.5c4.553,0,7.612-3.121,7.612-7.766,0-4.684-3.05-7.832-7.59-7.832Zm-13.53,6.886c1.418,0,2.2.844,2.2,2.376V47h2.552V40.224c0-2.619-1.484-4.246-3.872-4.246a3.565,3.565,0,0,0-3.168,1.739v-1.43h-2.487V47h2.552V40.818A2.239,2.239,0,0,1,165.587,38.288Zm-10.6-2V47h2.53V36.286Zm-23.254-5.215V47h2.551V31.072h-2.551Zm-15.62,7.216c1.419,0,2.2.844,2.2,2.376V47h2.551V40.224c0-2.619-1.484-4.246-3.872-4.246a3.565,3.565,0,0,0-3.168,1.739v-1.43h-2.486V47h2.551V40.818A2.239,2.239,0,0,1,116.108,38.288Zm-25.123-2V47h2.551V41.9c0-2.088.97-3.146,2.882-3.146a5.688,5.688,0,0,1,.836.067v-2.6a3.745,3.745,0,0,0-.681-.066A3.219,3.219,0,0,0,93.47,38V36.286Zm-8.4,0V47h2.551V41.9c0-2.088.97-3.146,2.883-3.146a5.707,5.707,0,0,1,.836.067v-2.6a3.746,3.746,0,0,0-.682-.066A3.22,3.22,0,0,0,85.066,38V36.286Zm277.15,5.859a1.512,1.512,0,1,0,1.512,1.512A1.514,1.514,0,0,0,359.73,42.145Zm-9.073,0a1.512,1.512,0,1,0,1.512,1.512A1.514,1.514,0,0,0,350.657,42.145Zm-9.072,0a1.512,1.512,0,1,0,1.512,1.512A1.514,1.514,0,0,0,341.585,42.145Zm-9.073,0a1.512,1.512,0,1,0,1.512,1.512A1.514,1.514,0,0,0,332.512,42.145Zm-301.42,0A1.512,1.512,0,1,0,32.6,43.657,1.514,1.514,0,0,0,31.092,42.145Zm-9.073,0a1.512,1.512,0,1,0,1.512,1.512A1.514,1.514,0,0,0,22.019,42.145Zm-9.072,0a1.512,1.512,0,1,0,1.512,1.512A1.514,1.514,0,0,0,12.947,42.145Zm-9.073,0a1.512,1.512,0,1,0,1.512,1.512A1.514,1.514,0,0,0,3.875,42.145ZM359.73,33.072a1.512,1.512,0,1,0,1.512,1.512A1.514,1.514,0,0,0,359.73,33.072Zm-9.073,0a1.512,1.512,0,1,0,1.512,1.512A1.514,1.514,0,0,0,350.657,33.072Zm-9.072,0a1.512,1.512,0,1,0,1.512,1.512A1.514,1.514,0,0,0,341.585,33.072Zm-9.073,0a1.512,1.512,0,1,0,1.512,1.512A1.514,1.514,0,0,0,332.512,33.072Zm-301.42,0A1.512,1.512,0,1,0,32.6,34.584,1.514,1.514,0,0,0,31.092,33.072Zm-9.073,0a1.512,1.512,0,1,0,1.512,1.512A1.514,1.514,0,0,0,22.019,33.072Zm-9.072,0a1.512,1.512,0,1,0,1.512,1.512A1.514,1.514,0,0,0,12.947,33.072Zm-9.073,0a1.512,1.512,0,1,0,1.512,1.512A1.514,1.514,0,0,0,3.875,33.072Zm152.362-2.22a1.661,1.661,0,0,0,0,3.322,1.643,1.643,0,0,0,1.672-1.65A1.674,1.674,0,0,0,156.236,30.852ZM359.73,24a1.512,1.512,0,1,0,1.512,1.512A1.514,1.514,0,0,0,359.73,24Zm-9.073,0a1.512,1.512,0,1,0,1.512,1.512A1.514,1.514,0,0,0,350.657,24Zm-9.072,0a1.512,1.512,0,1,0,1.512,1.512A1.514,1.514,0,0,0,341.585,24Zm-9.073,0a1.512,1.512,0,1,0,1.512,1.512A1.514,1.514,0,0,0,332.512,24ZM31.092,24A1.512,1.512,0,1,0,32.6,25.512,1.514,1.514,0,0,0,31.092,24Zm-9.073,0a1.512,1.512,0,1,0,1.512,1.512A1.514,1.514,0,0,0,22.019,24Zm-9.072,0a1.512,1.512,0,1,0,1.512,1.512A1.514,1.514,0,0,0,12.947,24ZM3.875,24a1.512,1.512,0,1,0,1.512,1.512A1.514,1.514,0,0,0,3.875,24ZM240.5,45.042a3.071,3.071,0,0,1-2.992-3.41,3.5,3.5,0,0,1,.91-2.516,2.882,2.882,0,0,1,2.082-.85c1.49,0,2.992,1.041,2.992,3.366C243.489,43.988,241.986,45.042,240.5,45.042ZM253.916,45c-1.724,0-2.882-1.353-2.882-3.366,0-1.956,1.185-3.322,2.882-3.322,1.724,0,2.882,1.335,2.882,3.322C256.8,43.646,255.64,45,253.916,45Zm-69.388-.419h-2.772V33.822h2.795a4.776,4.776,0,0,1,3.479,1.336,5.616,5.616,0,0,1,1.449,4.075,5.49,5.49,0,0,1-1.46,4.026A4.845,4.845,0,0,1,184.528,44.58ZM288.06,40.466H282.8a2.585,2.585,0,0,1,2.618-2.376,2.687,2.687,0,0,1,1.963.718,2.454,2.454,0,0,1,.677,1.657Zm-63.14,0h-5.258a2.585,2.585,0,0,1,2.618-2.376,2.692,2.692,0,0,1,1.964.718,2.448,2.448,0,0,1,.676,1.657Zm-23.055,0h-5.259a2.585,2.585,0,0,1,2.618-2.376,2.692,2.692,0,0,1,1.964.718,2.453,2.453,0,0,1,.677,1.657Zm-95.547,0H101.06a2.585,2.585,0,0,1,2.618-2.376,2.689,2.689,0,0,1,1.964.718,2.448,2.448,0,0,1,.676,1.657Z" transform="translate(-569 1066)" fill="#fff"/><circle cx="1.512" cy="1.512" r="1.512" transform="translate(-612 1090)" fill="#fff"/><circle cx="1.512" cy="1.512" r="1.512" transform="translate(-602.928 1090)" fill="#fff"/><circle cx="1.512" cy="1.512" r="1.512" transform="translate(-593.855 1090)" fill="#fff"/><circle cx="1.512" cy="1.512" r="1.512" transform="translate(-584.783 1090)" fill="#fff"/><circle cx="1.512" cy="1.512" r="1.512" transform="translate(-575.71 1090)" fill="#fff"/><circle cx="1.512" cy="1.512" r="1.512" transform="translate(-612 1099.072)" fill="#fff"/><circle cx="1.512" cy="1.512" r="1.512" transform="translate(-602.928 1099.072)" fill="#fff"/><circle cx="1.512" cy="1.512" r="1.512" transform="translate(-593.855 1099.072)" fill="#fff"/><circle cx="1.512" cy="1.512" r="1.512" transform="translate(-584.783 1099.072)" fill="#fff"/><circle cx="1.512" cy="1.512" r="1.512" transform="translate(-575.71 1099.072)" fill="#fff"/><circle cx="1.512" cy="1.512" r="1.512" transform="translate(-612 1108.145)" fill="#fff"/><circle cx="1.512" cy="1.512" r="1.512" transform="translate(-602.928 1108.145)" fill="#fff"/><circle cx="1.512" cy="1.512" r="1.512" transform="translate(-593.855 1108.145)" fill="#fff"/><circle cx="1.512" cy="1.512" r="1.512" transform="translate(-584.783 1108.145)" fill="#fff"/><circle cx="1.512" cy="1.512" r="1.512" transform="translate(-575.71 1108.145)" fill="#fff"/><circle cx="1.512" cy="1.512" r="1.512" transform="translate(-612 1117.217)" fill="#fff"/><circle cx="1.512" cy="1.512" r="1.512" transform="translate(-602.928 1117.217)" fill="#fff"/><circle cx="1.512" cy="1.512" r="1.512" transform="translate(-593.855 1117.217)" fill="#fff"/><circle cx="1.512" cy="1.512" r="1.512" transform="translate(-584.783 1117.217)" fill="#fff"/><circle cx="1.512" cy="1.512" r="1.512" transform="translate(-575.71 1117.217)" fill="#fff"/><circle cx="1.512" cy="1.512" r="1.512" transform="translate(-201.71 1090)" fill="#fff"/><circle cx="1.512" cy="1.512" r="1.512" transform="translate(-192.638 1090)" fill="#fff"/><circle cx="1.512" cy="1.512" r="1.512" transform="translate(-183.565 1090)" fill="#fff"/><circle cx="1.512" cy="1.512" r="1.512" transform="translate(-174.493 1090)" fill="#fff"/><circle cx="1.512" cy="1.512" r="1.512" transform="translate(-165.42 1090)" fill="#fff"/><circle cx="1.512" cy="1.512" r="1.512" transform="translate(-201.71 1099.072)" fill="#fff"/><circle cx="1.512" cy="1.512" r="1.512" transform="translate(-192.638 1099.072)" fill="#fff"/><circle cx="1.512" cy="1.512" r="1.512" transform="translate(-183.565 1099.072)" fill="#fff"/><circle cx="1.512" cy="1.512" r="1.512" transform="translate(-174.493 1099.072)" fill="#fff"/><circle cx="1.512" cy="1.512" r="1.512" transform="translate(-165.42 1099.072)" fill="#fff"/><circle cx="1.512" cy="1.512" r="1.512" transform="translate(-201.71 1108.145)" fill="#fff"/><circle cx="1.512" cy="1.512" r="1.512" transform="translate(-192.638 1108.145)" fill="#fff"/><circle cx="1.512" cy="1.512" r="1.512" transform="translate(-183.565 1108.145)" fill="#fff"/><circle cx="1.512" cy="1.512" r="1.512" transform="translate(-174.493 1108.145)" fill="#fff"/><circle cx="1.512" cy="1.512" r="1.512" transform="translate(-165.42 1108.145)" fill="#fff"/><circle cx="1.512" cy="1.512" r="1.512" transform="translate(-201.71 1117.217)" fill="#fff"/><circle cx="1.512" cy="1.512" r="1.512" transform="translate(-192.638 1117.217)" fill="#fff"/><circle cx="1.512" cy="1.512" r="1.512" transform="translate(-183.565 1117.217)" fill="#fff"/><circle cx="1.512" cy="1.512" r="1.512" transform="translate(-174.493 1117.217)" fill="#fff"/><circle cx="1.512" cy="1.512" r="1.512" transform="translate(-165.42 1117.217)" fill="#fff"/></g></svg>