<svg xmlns="http://www.w3.org/2000/svg" width="53" height="53" viewBox="0 0 53 53"><g transform="translate(-312 -14095)"><path d="M20.46,0A20.458,20.458,0,0,0,15.5,40.306a2.762,2.762,0,0,1-.153-.972V35.855H12.788a3.5,3.5,0,0,1-3.223-1.74C8.9,32.888,8.8,31,7.11,29.818c-.512-.409-.1-.818.46-.768a5.366,5.366,0,0,1,2.762,2.1,2.612,2.612,0,0,0,2.711,1.33,20.624,20.624,0,0,0,2.864-.205,6.342,6.342,0,0,1,2.711-3.324c-6.854-.818-10.127-4.195-10.127-8.8a8.443,8.443,0,0,1,2.3-5.525c-.46-1.586-1.074-4.86.205-6.138a7.26,7.26,0,0,1,5.37,2.506,15.752,15.752,0,0,1,4.961-.818,15.5,15.5,0,0,1,4.961.818,7.258,7.258,0,0,1,5.37-2.506c1.228,1.228.665,4.552.153,6.138a8.284,8.284,0,0,1,2.252,5.525c0,4.6-3.223,7.98-10.025,8.7,1.893.972,3.223,3.733,3.223,5.779v4.66c0,.153-.05.306-.05.46A20.442,20.442,0,0,0,20.46,0Z" transform="translate(318 14100.985)"/><rect width="53" height="53" transform="translate(312 14095)" fill="none"/></g></svg>