<svg xmlns="http://www.w3.org/2000/svg" width="53" height="53" viewBox="0 0 53 53"><g transform="translate(-607 -13854)"><g transform="translate(-0.278 -1.275)"><path d="M20.909,38.368c-2.444,0-5.338-.084-9.676-.28a14.1,14.1,0,0,1-4.623-.882,9.676,9.676,0,0,1-5.571-5.571C-.54,27.568.148,11.473.156,11.313c.161-3.562,1.111-6.028,3.081-8S7.672.4,11.233.236C14.655.077,17.559,0,20.111,0,30.785,0,32.985,1.375,34.927,3.317c2.983,2.985,3.846,6.828,3.081,23.694a14.043,14.043,0,0,1-.882,4.623C35.14,36.732,31.2,38.368,20.909,38.368ZM17.132,3.4c-8.47,0-10.1.971-11.47,2.342a8.3,8.3,0,0,0-2.08,5.726c-.113,2.546-.454,16.08.656,18.927a6.26,6.26,0,0,0,3.614,3.612,10.4,10.4,0,0,0,3.536.654c4.223.194,7.332.284,9.782.284h.024c8.5,0,11.36-1.021,12.733-4.55a10.538,10.538,0,0,0,.656-3.538c.754-16.4-.1-19.132-2.08-21.116a8.293,8.293,0,0,0-5.726-2.08C22.852,3.483,19.7,3.4,17.132,3.4Zm12.115,7.885A2.286,2.286,0,1,1,31.531,9,2.287,2.287,0,0,1,29.246,11.282Z" transform="translate(614.278 13862.274)" fill="#171717"/><path d="M9.778,19.553a9.777,9.777,0,1,1,9.776-9.778A9.789,9.789,0,0,1,9.778,19.553Zm0-16.124a6.347,6.347,0,1,0,6.346,6.346A6.354,6.354,0,0,0,9.778,3.43Z" transform="translate(624 13871.66)" fill="#171717" stroke="rgba(0,0,0,0)" stroke-width="1"/></g><rect width="53" height="53" transform="translate(607 13854)" fill="none"/></g></svg>