<svg xmlns="http://www.w3.org/2000/svg" width="53" height="53" viewBox="0 0 53 53"><g transform="translate(-611 -14016)"><g transform="translate(621 14026)"><path d="M226.9,245.976v16.65h7.931V239.96H226.9Z" transform="translate(-226.9 -228.626)" fill="#171717"/><path d="M230.866,222.033A3.967,3.967,0,1,0,234.831,226,3.967,3.967,0,0,0,230.866,222.033Z" transform="translate(-226.9 -222.033)" fill="#171717"/><path d="M267.975,246.922c-.533-4.272-2.5-6.963-8.273-6.963-3.428,0-5.729,1.272-6.669,3.061h-.1v-3.061h-6.323v22.667h6.607V251.393c0-2.962.561-5.832,4.224-5.832,3.61,0,3.9,3.386,3.9,6.024v11.041h6.8V250.173A26.161,26.161,0,0,0,267.975,246.922Z" transform="translate(-234.15 -228.626)" fill="#171717"/></g><rect width="53" height="53" transform="translate(611 14016)" fill="none"/></g></svg>