<svg xmlns="http://www.w3.org/2000/svg" width="53" height="53" viewBox="0 0 53 53"><g transform="translate(-312 -13938)"><g transform="translate(308 13927.3)"><g transform="translate(10 24)"><path d="M13.121,976.362a3.094,3.094,0,0,0-1.658.488L29.28,992.407a2.161,2.161,0,0,0,3.024,0l17.85-15.574a3.113,3.113,0,0,0-1.658-.471H13.121Zm-2.942,2.113A3.113,3.113,0,0,0,10,979.483v20.808a3.114,3.114,0,0,0,3.121,3.121H48.5a3.114,3.114,0,0,0,3.121-3.121V979.483a3.111,3.111,0,0,0-.179-1.008l-17.768,15.51a4.362,4.362,0,0,1-5.755-.016L10.179,978.475Z" transform="translate(-10 -976.362)" fill="#171717"/></g></g><rect width="53" height="53" transform="translate(312 13938)" fill="none"/></g></svg>