<svg xmlns="http://www.w3.org/2000/svg" width="53" height="53" viewBox="0 0 53 53"><g transform="translate(-312 -14016)"><g transform="translate(318 13995.2)"><path d="M274.369,65.991,262.02,60.054l-.093-26.912a.851.851,0,0,1,1.22-.77L274.854,38a.851.851,0,0,1,.482.767V65.382A.675.675,0,0,1,274.369,65.991Z" transform="translate(-235.24 -2.234)" fill="#171717"/><path d="M145.025,57.82,131.66,51.394l12.867-21.184a.851.851,0,0,1,1.1-.325l11.871,5.709a.851.851,0,0,1,.358,1.21Z" transform="translate(-118.246)" fill="#171717"/><path d="M36.155,63.511,22.789,57.085,10.538,37.136a.654.654,0,0,1,.84-.931l11.41,5.487Z" transform="translate(-9.375 -5.691)" fill="#171717"/><path d="M12.447,64.946.382,59.144A.675.675,0,0,1,0,58.536V31.779a.654.654,0,0,1,.937-.589l12.477,6V64.337A.675.675,0,0,1,12.447,64.946Z" transform="translate(0 -1.189)" fill="#171717"/></g><rect width="53" height="53" transform="translate(312 14016)" fill="none"/></g></svg>