<svg xmlns="http://www.w3.org/2000/svg" width="53" height="53" viewBox="0 0 53 53"><g transform="translate(-903 -13854)"><g transform="translate(901.139 13855.4)"><path d="M14.456,5a3.4,3.4,0,0,0-3.383,3.383V42.216A3.4,3.4,0,0,0,14.456,45.6H42.81a3.4,3.4,0,0,0,3.383-3.383V8.383A3.4,3.4,0,0,0,42.81,5Zm0,2.256H42.81a1.1,1.1,0,0,1,1.128,1.128V42.216a1.1,1.1,0,0,1-1.128,1.128H14.456a1.1,1.1,0,0,1-1.128-1.128V8.383A1.1,1.1,0,0,1,14.456,7.256ZM28.633,10.92A3.127,3.127,0,1,0,31.7,14.045,3.09,3.09,0,0,0,28.633,10.92Zm-3.246,7.113c-2.154.009-4.053,3.623-4.046,5.836H35.924c.008-2.213-1.892-5.828-4.046-5.836ZM15.973,28.3v2.229h25.1V28.3Zm0,4.6v2.229h25.1V32.9Zm0,4.6v2.229h25.1V37.5Z" fill="#171717"/></g><rect width="53" height="53" transform="translate(903 13854)" fill="none"/></g></svg>