<svg xmlns="http://www.w3.org/2000/svg" xmlns:xlink="http://www.w3.org/1999/xlink" viewBox="0 0 256.36 784.03"><path d="M256.24 783.8c-70-37.7-96.36-79.35-107.6-110.8-24.93-69.7 12-124.43 19.2-190l.06-.5c.58-5.42 1-10.9 1.08-16.5v-.67q0-1.53 0-3.06 0-6.56-.5-13.27v-.5a164.74 164.74 0 0 0-2.15-16.5c0-.17-.06-.34-.1-.5a175.35 175.35 0 0 0-8.08-29.23A150.13 150.13 0 0 0 137.84 364l-.37-.5q-1-1.32-2-2.58l-.5-.63c-9.7-12.2-20.13-21.23-30.26-30.66l-.14-.13-3.1-2.92-.32-.3c-12.6-12-24.5-25.3-33.68-46.86l-.5-1.2a164.09 164.09 0 0 1-6.47-18.85c-.54-1.92-5.58-21-6.88-48.37v-.5c-.24-5.22-.34-10.74-.25-16.5v-.5c.8-42.76 12.37-98.3 58-141.32C160.4 5.9 221.8-.38 256.24.3" fill="none" stroke="#707070" stroke-width=".5"/><g fill="#707070"><path d="M186.5 76.2v2.06h-.5v-1.92z"/><use xlink:href="#B"/><use xlink:href="#C"/><path d="M203.5 72.13v6.14h-.5v-6z"/><use xlink:href="#C" x="17"/><use xlink:href="#D"/><path d="M220 71.3h.5v6.96h-.5z"/><use xlink:href="#E"/><use xlink:href="#C" x="34"/><path d="M237 71.3h.5v6.96h-.5z"/><use xlink:href="#F"/><use xlink:href="#G"/><path d="M135.5 94.83v.44h-.5v-.2z"/><use xlink:href="#C" x="-51" y="17"/><use xlink:href="#H"/><path d="M152 88.3h.5v6.96h-.5z"/><use xlink:href="#C" x="-34" y="17"/><use xlink:href="#I"/><path d="M169 88.3h.5v6.96h-.5z"/><use xlink:href="#C" x="-17" y="17"/><use xlink:href="#J"/><path d="M186 88.3h.5v6.96h-.5z"/><use xlink:href="#C" y="17"/><use xlink:href="#B" y="17"/><path d="M203 88.3h.5v6.96h-.5z"/><use xlink:href="#C" x="17" y="17"/><use xlink:href="#D" y="17"/><path d="M220 88.3h.5v6.96h-.5z"/><use xlink:href="#C" x="34" y="17"/><use xlink:href="#E" y="17"/><path d="M237 88.3h.5v6.96h-.5z"/><use xlink:href="#F" y="17"/><use xlink:href="#G" y="17"/><use xlink:href="#K"/><use xlink:href="#C" x="-85" y="34"/><path d="M118 105.3h.5v6.96h-.5z"/><use xlink:href="#L"/><use xlink:href="#C" x="-68" y="34"/><path d="M135 105.3h.5v6.96h-.5z"/><use xlink:href="#C" x="-51" y="34"/><use xlink:href="#H" y="17"/><path d="M152 105.3h.5v6.96h-.5z"/><use xlink:href="#C" x="-34" y="34"/><use xlink:href="#I" y="17"/><path d="M169 105.3h.5v6.96h-.5z"/><use xlink:href="#C" x="-17" y="34"/><use xlink:href="#J" y="17"/><path d="M186 105.3h.5v6.96h-.5z"/><use xlink:href="#B" y="34"/><use xlink:href="#C" y="34"/><path d="M203 105.3h.5v6.96h-.5z"/><use xlink:href="#D" y="34"/><use xlink:href="#C" x="17" y="34"/><path d="M220 105.3h.5v6.96h-.5z"/><use xlink:href="#E" y="34"/><use xlink:href="#C" x="34" y="34"/><path d="M237 105.3h.5v6.96h-.5z"/><use xlink:href="#F" y="34"/><use xlink:href="#G" y="34"/><path d="M87.73 125.54v.5H84.5v-.23l.35-.27z"/><path d="M84.5 125.8v3.46H84v-3.08z"/><use xlink:href="#C" x="-102" y="51"/><use xlink:href="#M"/><path d="M101 122.3h.5v6.96h-.5z"/><use xlink:href="#C" x="-85" y="51"/><use xlink:href="#K" y="17"/><path d="M118 122.3h.5v6.96h-.5z"/><use xlink:href="#C" x="-68" y="51"/><use xlink:href="#L" y="17"/><path d="M135 122.3h.5v6.96h-.5z"/><use xlink:href="#C" x="-51" y="51"/><use xlink:href="#H" y="34"/><path d="M152 122.3h.5v6.96h-.5z"/><use xlink:href="#I" y="34"/><use xlink:href="#C" x="-34" y="51"/><path d="M169 122.3h.5v6.96h-.5z"/><use xlink:href="#C" x="-17" y="51"/><use xlink:href="#J" y="34"/><path d="M186 122.3h.5v6.96h-.5z"/><use xlink:href="#B" y="51"/><use xlink:href="#C" y="51"/><path d="M203 122.3h.5v6.96h-.5z"/><use xlink:href="#C" x="17" y="51"/><use xlink:href="#D" y="51"/><path d="M220 122.3h.5v6.96h-.5z"/><use xlink:href="#E" y="51"/><use xlink:href="#C" x="34" y="51"/><path d="M237 122.3h.5v6.96h-.5z"/><use xlink:href="#F" y="51"/><use xlink:href="#G" y="51"/><use xlink:href="#N"/><path d="M67,142.54v.5H64.4l.52-.5Z"/><path d="M67.5 140.14v6.13H67v-5.67z"/><use xlink:href="#O"/><use xlink:href="#P"/><path d="M84 139.3h.5v6.96H84z"/><use xlink:href="#M" y="17"/><use xlink:href="#C" x="-102" y="68"/><path d="M101 139.3h.5v6.96h-.5z"/><use xlink:href="#C" x="-85" y="68"/><use xlink:href="#K" y="34"/><path d="M118 139.3h.5v6.96h-.5z"/><use xlink:href="#C" x="-68" y="68"/><use xlink:href="#L" y="34"/><path d="M135 139.3h.5v6.96h-.5z"/><use xlink:href="#H" y="51"/><use xlink:href="#C" x="-51" y="68"/><path d="M152 139.3h.5v6.96h-.5z"/><use xlink:href="#C" x="-34" y="68"/><use xlink:href="#I" y="51"/><path d="M169 139.3h.5v6.96h-.5z"/><use xlink:href="#C" x="-17" y="68"/><use xlink:href="#J" y="51"/><path d="M186 139.3h.5v6.96h-.5z"/><use xlink:href="#B" y="68"/><use xlink:href="#C" y="68"/><path d="M203 139.3h.5v6.96h-.5z"/><use xlink:href="#D" y="68"/><use xlink:href="#C" x="17" y="68"/><path d="M220 139.3h.5v6.96h-.5z"/><use xlink:href="#C" x="34" y="68"/><use xlink:href="#E" y="68"/><path d="M237 139.3h.5v6.96h-.5z"/><use xlink:href="#F" y="68"/><use xlink:href="#G" y="68"/><path d="M48.27,160H50v-.5h-1.3Z"/><use xlink:href="#Q"/><path d="M50 163.27h.5v-5.78l-.5.57v5.2z"/><use xlink:href="#R"/><use xlink:href="#N" y="17"/><path d="M67 156.3h.5v6.96H67z"/><use xlink:href="#P" y="17"/><use xlink:href="#O" y="17"/><path d="M84 156.3h.5v6.96H84z"/><use xlink:href="#M" y="34"/><use xlink:href="#C" x="-102" y="85"/><path d="M101 156.3h.5v6.96h-.5z"/><use xlink:href="#C" x="-85" y="85"/><use xlink:href="#K" y="51"/><path d="M118 156.3h.5v6.96h-.5z"/><use xlink:href="#C" x="-68" y="85"/><use xlink:href="#L" y="51"/><path d="M135 156.3h.5v6.96h-.5z"/><use xlink:href="#H" y="68"/><use xlink:href="#C" x="-51" y="85"/><path d="M152 156.3h.5v6.96h-.5z"/><use xlink:href="#C" x="-34" y="85"/><use xlink:href="#I" y="68"/><path d="M169 156.3h.5v6.96h-.5z"/><use xlink:href="#C" x="-17" y="85"/><use xlink:href="#J" y="68"/><path d="M186 156.3h.5v6.96h-.5z"/><use xlink:href="#C" y="85"/><use xlink:href="#B" y="85"/><path d="M203 156.3h.5v6.96h-.5z"/><use xlink:href="#D" y="85"/><use xlink:href="#C" x="17" y="85"/><path d="M220 156.3h.5v6.96h-.5z"/><use xlink:href="#C" x="34" y="85"/><use xlink:href="#E" y="85"/><path d="M237 156.3h.5v6.96h-.5z"/><use xlink:href="#F" y="85"/><use xlink:href="#G" y="85"/><path d="M36.73 177v-.5h-1.28l-.36.5zm-3.23 3.27v-.9l-.5.74v.17z"/><use xlink:href="#S"/><use xlink:href="#Q" y="17"/><use xlink:href="#T"/><use xlink:href="#N" y="34"/><use xlink:href="#R" y="17"/><path d="M67 173.3h.5v6.96H67z"/><use xlink:href="#O" y="34"/><use xlink:href="#P" y="34"/><path d="M84 173.3h.5v6.96H84z"/><use xlink:href="#C" x="-102" y="102"/><use xlink:href="#M" y="51"/><path d="M101 173.3h.5v6.96h-.5z"/><use xlink:href="#C" x="-85" y="102"/><use xlink:href="#K" y="68"/><path d="M118 173.3h.5v6.96h-.5z"/><use xlink:href="#C" x="-68" y="102"/><use xlink:href="#L" y="68"/><path d="M135 173.3h.5v6.96h-.5z"/><use xlink:href="#H" y="85"/><use xlink:href="#C" x="-51" y="102"/><path d="M152 173.3h.5v6.96h-.5z"/><use xlink:href="#C" x="-34" y="102"/><use xlink:href="#I" y="85"/><path d="M169 173.3h.5v6.96h-.5z"/><use xlink:href="#C" x="-17" y="102"/><use xlink:href="#J" y="85"/><path d="M186 173.3h.5v6.96h-.5z"/><use xlink:href="#C" y="102"/><use xlink:href="#B" y="102"/><path d="M203 173.3h.5v6.96h-.5z"/><use xlink:href="#C" x="17" y="102"/><use xlink:href="#D" y="102"/><path d="M220 173.3h.5v6.96h-.5z"/><use xlink:href="#E" y="102"/><use xlink:href="#C" x="34" y="102"/><path d="M237 173.3h.5v6.96h-.5z"/><use xlink:href="#F" y="102"/><use xlink:href="#G" y="102"/><use xlink:href="#U"/><use xlink:href="#V"/><use xlink:href="#W"/><use xlink:href="#S" y="17"/><use xlink:href="#Q" y="34"/><use xlink:href="#T" y="17"/><use xlink:href="#N" y="51"/><use xlink:href="#R" y="34"/><path d="M67 190.3h.5v6.96H67z"/><use xlink:href="#O" y="51"/><use xlink:href="#P" y="51"/><path d="M84 190.3h.5v6.96H84z"/><use xlink:href="#C" x="-102" y="119"/><use xlink:href="#M" y="68"/><path d="M101 190.3h.5v6.96h-.5z"/><use xlink:href="#C" x="-85" y="119"/><use xlink:href="#K" y="85"/><path d="M118 190.3h.5v6.96h-.5z"/><use xlink:href="#C" x="-68" y="119"/><use xlink:href="#L" y="85"/><path d="M135 190.3h.5v6.96h-.5z"/><use xlink:href="#H" y="102"/><use xlink:href="#C" x="-51" y="119"/><path d="M152 190.3h.5v6.96h-.5z"/><use xlink:href="#I" y="102"/><use xlink:href="#C" x="-34" y="119"/><path d="M169 190.3h.5v6.96h-.5z"/><use xlink:href="#J" y="102"/><use xlink:href="#C" x="-17" y="119"/><path d="M186 190.3h.5v6.96h-.5z"/><use xlink:href="#B" y="119"/><use xlink:href="#C" y="119"/><path d="M203 190.3h.5v6.96h-.5z"/><use xlink:href="#C" x="17" y="119"/><use xlink:href="#D" y="119"/><path d="M220 190.3h.5v6.96h-.5z"/><use xlink:href="#C" x="34" y="119"/><use xlink:href="#E" y="119"/><path d="M237 190.3h.5v6.96h-.5z"/><use xlink:href="#F" y="119"/><use xlink:href="#G" y="119"/><use xlink:href="#X"/><path d="M16,211v-.27l-.12.27Z"/><path d="M16 214.27h.5v-4.62l-.5 1.12v3.5z"/><use xlink:href="#V" y="17"/><use xlink:href="#U" y="17"/><use xlink:href="#W" y="17"/><use xlink:href="#Q" y="51"/><use xlink:href="#S" y="34"/><use xlink:href="#T" y="34"/><use xlink:href="#R" y="51"/><use xlink:href="#N" y="68"/><path d="M67 207.3h.5v6.96H67z"/><use xlink:href="#P" y="68"/><use xlink:href="#O" y="68"/><path d="M84 207.3h.5v6.96H84z"/><use xlink:href="#M" y="85"/><use xlink:href="#C" x="-102" y="136"/><path d="M101 207.3h.5v6.96h-.5z"/><use xlink:href="#C" x="-85" y="136"/><use xlink:href="#K" y="102"/><path d="M118 207.3h.5v6.96h-.5z"/><use xlink:href="#C" x="-68" y="136"/><use xlink:href="#L" y="102"/><path d="M135 207.3h.5v6.96h-.5z"/><use xlink:href="#H" y="119"/><use xlink:href="#C" x="-51" y="136"/><path d="M152 207.3h.5v6.96h-.5z"/><use xlink:href="#C" x="-34" y="136"/><use xlink:href="#I" y="119"/><path d="M169 207.3h.5v6.96h-.5z"/><use xlink:href="#C" x="-17" y="136"/><use xlink:href="#J" y="119"/><path d="M186 207.3h.5v6.96h-.5z"/><use xlink:href="#B" y="136"/><use xlink:href="#C" y="136"/><path d="M203 207.3h.5v6.96h-.5z"/><use xlink:href="#D" y="136"/><use xlink:href="#C" x="17" y="136"/><path d="M220 207.3h.5v6.96h-.5z"/><use xlink:href="#C" x="34" y="136"/><use xlink:href="#E" y="136"/><path d="M237 207.3h.5v6.96h-.5z"/><use xlink:href="#F" y="136"/><use xlink:href="#G" y="136"/><use xlink:href="#X" y="17"/><path d="M12.76 227.54H16v.5h-3.23z"/><path d="M16.5 224.3H16v6.97h.5v-6.97z"/><use xlink:href="#V" y="34"/><use xlink:href="#U" y="34"/><use xlink:href="#W" y="34"/><use xlink:href="#Q" y="68"/><use xlink:href="#S" y="51"/><use xlink:href="#T" y="51"/><use xlink:href="#R" y="68"/><use xlink:href="#N" y="85"/><path d="M67 224.3h.5v6.96H67z"/><use xlink:href="#P" y="85"/><use xlink:href="#O" y="85"/><path d="M84 224.3h.5v6.96H84z"/><use xlink:href="#M" y="102"/><use xlink:href="#C" x="-102" y="153"/><path d="M101 224.3h.5v6.96h-.5z"/><use xlink:href="#K" y="119"/><use xlink:href="#C" x="-85" y="153"/><path d="M118 224.3h.5v6.96h-.5z"/><use xlink:href="#C" x="-68" y="153"/><use xlink:href="#L" y="119"/><path d="M135 224.3h.5v6.96h-.5z"/><use xlink:href="#C" x="-51" y="153"/><use xlink:href="#H" y="136"/><path d="M152 224.3h.5v6.96h-.5z"/><use xlink:href="#C" x="-34" y="153"/><use xlink:href="#I" y="136"/><path d="M169 224.3h.5v6.96h-.5z"/><use xlink:href="#C" x="-17" y="153"/><use xlink:href="#J" y="136"/><path d="M186 224.3h.5v6.96h-.5z"/><use xlink:href="#C" y="153"/><use xlink:href="#B" y="153"/><path d="M203 224.3h.5v6.96h-.5z"/><use xlink:href="#D" y="153"/><use xlink:href="#C" x="17" y="153"/><path d="M220 224.3h.5v6.96h-.5z"/><use xlink:href="#E" y="153"/><use xlink:href="#C" x="34" y="153"/><path d="M237 224.3h.5v6.96h-.5z"/><use xlink:href="#F" y="153"/><use xlink:href="#G" y="153"/><use xlink:href="#X" y="34"/><path d="M12.76 244.54H16v.5h-3.23z"/><path d="M16.5 241.3H16v6.97h.5v-6.97z"/><use xlink:href="#V" y="51"/><use xlink:href="#U" y="51"/><use xlink:href="#W" y="51"/><use xlink:href="#S" y="68"/><use xlink:href="#Q" y="85"/><use xlink:href="#T" y="68"/><use xlink:href="#R" y="85"/><use xlink:href="#N" y="102"/><path d="M67 241.3h.5v6.96H67z"/><use xlink:href="#P" y="102"/><use xlink:href="#O" y="102"/><path d="M84 241.3h.5v6.96H84z"/><use xlink:href="#C" x="-102" y="170"/><use xlink:href="#M" y="119"/><path d="M101 241.3h.5v6.96h-.5z"/><use xlink:href="#C" x="-85" y="170"/><use xlink:href="#K" y="136"/><path d="M118 241.3h.5v6.96h-.5z"/><use xlink:href="#L" y="136"/><use xlink:href="#C" x="-68" y="170"/><path d="M135 241.3h.5v6.96h-.5z"/><use xlink:href="#C" x="-51" y="170"/><use xlink:href="#H" y="153"/><path d="M152 241.3h.5v6.96h-.5z"/><use xlink:href="#I" y="153"/><use xlink:href="#C" x="-34" y="170"/><path d="M169 241.3h.5v6.96h-.5z"/><use xlink:href="#J" y="153"/><use xlink:href="#C" x="-17" y="170"/><path d="M186 241.3h.5v6.96h-.5z"/><use xlink:href="#B" y="170"/><use xlink:href="#C" y="170"/><path d="M203 241.3h.5v6.96h-.5z"/><use xlink:href="#D" y="170"/><use xlink:href="#C" x="17" y="170"/><path d="M220 241.3h.5v6.96h-.5z"/><use xlink:href="#C" x="34" y="170"/><use xlink:href="#E" y="170"/><path d="M237 241.3h.5v6.96h-.5z"/><use xlink:href="#F" y="170"/><use xlink:href="#G" y="170"/><path d="M2.73,262v-.5H2c0,.16-.05.33-.07.5Z"/><use xlink:href="#X" y="51"/><path d="M12.76 261.54H16v.5h-3.23z"/><path d="M16.5 258.3H16v6.97h.5v-6.97z"/><use xlink:href="#V" y="68"/><use xlink:href="#U" y="68"/><use xlink:href="#W" y="68"/><use xlink:href="#S" y="85"/><use xlink:href="#Q" y="102"/><use xlink:href="#T" y="85"/><use xlink:href="#R" y="102"/><use xlink:href="#N" y="119"/><path d="M67 258.3h.5v6.96H67z"/><use xlink:href="#O" y="119"/><use xlink:href="#P" y="119"/><path d="M84 258.3h.5v6.96H84z"/><use xlink:href="#C" x="-102" y="187"/><use xlink:href="#M" y="136"/><path d="M101 258.3h.5v6.96h-.5z"/><use xlink:href="#C" x="-85" y="187"/><use xlink:href="#K" y="153"/><path d="M118 258.3h.5v6.96h-.5z"/><use xlink:href="#C" x="-68" y="187"/><use xlink:href="#L" y="153"/><path d="M135 258.3h.5v6.96h-.5z"/><use xlink:href="#H" y="170"/><use xlink:href="#C" x="-51" y="187"/><path d="M152 258.3h.5v6.96h-.5z"/><use xlink:href="#C" x="-34" y="187"/><use xlink:href="#I" y="170"/><path d="M169 258.3h.5v6.96h-.5z"/><use xlink:href="#J" y="170"/><use xlink:href="#C" x="-17" y="187"/><path d="M186 258.3h.5v6.96h-.5z"/><use xlink:href="#B" y="187"/><use xlink:href="#C" y="187"/><path d="M203 258.3h.5v6.96h-.5z"/><use xlink:href="#C" x="17" y="187"/><use xlink:href="#D" y="187"/><path d="M220 258.3h.5v6.96h-.5z"/><use xlink:href="#E" y="187"/><use xlink:href="#C" x="34" y="187"/><path d="M237 258.3h.5v6.96h-.5z"/><use xlink:href="#F" y="187"/><use xlink:href="#G" y="187"/><path d="M2.73 278.54H.4v.5h2.32z"/><use xlink:href="#X" y="68"/><path d="M12.76 278.54H16v.5h-3.23z"/><path d="M16.5 275.3H16v6.97h.5v-6.97z"/><use xlink:href="#U" y="85"/><use xlink:href="#V" y="85"/><use xlink:href="#W" y="85"/><use xlink:href="#S" y="102"/><use xlink:href="#Q" y="119"/><use xlink:href="#T" y="102"/><use xlink:href="#N" y="136"/><use xlink:href="#R" y="119"/><path d="M67 275.3h.5v6.96H67z"/><use xlink:href="#P" y="136"/><use xlink:href="#O" y="136"/><path d="M84 275.3h.5v6.96H84z"/><use xlink:href="#C" x="-102" y="204"/><use xlink:href="#M" y="153"/><path d="M101 275.3h.5v6.96h-.5z"/><use xlink:href="#K" y="170"/><use xlink:href="#C" x="-85" y="204"/><path d="M118 275.3h.5v6.96h-.5z"/><use xlink:href="#L" y="170"/><use xlink:href="#C" x="-68" y="204"/><path d="M135 275.3h.5v6.96h-.5z"/><use xlink:href="#H" y="187"/><use xlink:href="#C" x="-51" y="204"/><path d="M152 275.3h.5v6.96h-.5z"/><use xlink:href="#C" x="-34" y="204"/><use xlink:href="#I" y="187"/><path d="M169 275.3h.5v6.96h-.5z"/><use xlink:href="#C" x="-17" y="204"/><use xlink:href="#J" y="187"/><path d="M186 275.3h.5v6.96h-.5z"/><use xlink:href="#C" y="204"/><use xlink:href="#B" y="204"/><path d="M203 275.3h.5v6.96h-.5z"/><use xlink:href="#D" y="204"/><use xlink:href="#C" x="17" y="204"/><path d="M220 275.3h.5v6.96h-.5z"/><use xlink:href="#C" x="34" y="204"/><use xlink:href="#E" y="204"/><path d="M237 275.3h.5v6.96h-.5z"/><use xlink:href="#F" y="204"/><use xlink:href="#G" y="204"/><path d="M2.73,295.54H0v.5H2.73Z"/><use xlink:href="#X" y="85"/><path d="M12.76 295.54H16v.5h-3.23z"/><path d="M16.5 292.3H16v6.97h.5v-6.97z"/><use xlink:href="#U" y="102"/><use xlink:href="#V" y="102"/><use xlink:href="#W" y="102"/><use xlink:href="#Q" y="136"/><use xlink:href="#S" y="119"/><use xlink:href="#T" y="119"/><use xlink:href="#N" y="153"/><use xlink:href="#R" y="136"/><path d="M67.5 292.3H67v6.97h.5v-6.97z"/><use xlink:href="#P" y="153"/><use xlink:href="#O" y="153"/><path d="M84 292.3h.5v6.96H84z"/><use xlink:href="#M" y="170"/><use xlink:href="#C" x="-102" y="221"/><path d="M101 292.3h.5v6.96h-.5z"/><use xlink:href="#C" x="-85" y="221"/><use xlink:href="#K" y="187"/><path d="M118 292.3h.5v6.96h-.5z"/><use xlink:href="#L" y="187"/><use xlink:href="#C" x="-68" y="221"/><path d="M135 292.3h.5v6.96h-.5z"/><use xlink:href="#H" y="204"/><use xlink:href="#C" x="-51" y="221"/><path d="M152 292.3h.5v6.96h-.5z"/><use xlink:href="#I" y="204"/><use xlink:href="#C" x="-34" y="221"/><path d="M169 292.3h.5v6.96h-.5z"/><use xlink:href="#J" y="204"/><use xlink:href="#C" x="-17" y="221"/><path d="M186 292.3h.5v6.96h-.5z"/><use xlink:href="#C" y="221"/><use xlink:href="#B" y="221"/><path d="M203 292.3h.5v6.96h-.5z"/><use xlink:href="#C" x="17" y="221"/><use xlink:href="#D" y="221"/><path d="M220 292.3h.5v6.96h-.5z"/><use xlink:href="#C" x="34" y="221"/><use xlink:href="#E" y="221"/><path d="M237 292.3h.5v6.96h-.5z"/><use xlink:href="#F" y="221"/><use xlink:href="#G" y="221"/><path d="M2.73 312.54h-2v.5h2zm10.03 0H16v.5h-3.23z"/><use xlink:href="#X" y="102"/><path d="M16.5 309.3H16v6.97h.5v-6.97z"/><use xlink:href="#U" y="119"/><use xlink:href="#V" y="119"/><use xlink:href="#W" y="119"/><use xlink:href="#Q" y="153"/><use xlink:href="#S" y="136"/><use xlink:href="#T" y="136"/><use xlink:href="#N" y="170"/><use xlink:href="#R" y="153"/><path d="M67.5 309.3H67v6.97h.5v-6.97z"/><use xlink:href="#O" y="170"/><use xlink:href="#P" y="170"/><path d="M84.5 309.3H84v6.97h.5v-6.97z"/><use xlink:href="#M" y="187"/><use xlink:href="#C" x="-102" y="238"/><path d="M101 309.3h.5v6.96h-.5z"/><use xlink:href="#K" y="204"/><use xlink:href="#C" x="-85" y="238"/><path d="M118 309.3h.5v6.96h-.5z"/><use xlink:href="#C" x="-68" y="238"/><use xlink:href="#L" y="204"/><path d="M135 309.3h.5v6.96h-.5z"/><use xlink:href="#C" x="-51" y="238"/><use xlink:href="#H" y="221"/><path d="M152 309.3h.5v6.96h-.5z"/><use xlink:href="#C" x="-34" y="238"/><use xlink:href="#I" y="221"/><path d="M169 309.3h.5v6.96h-.5z"/><use xlink:href="#J" y="221"/><use xlink:href="#C" x="-17" y="238"/><path d="M186 309.3h.5v6.96h-.5z"/><use xlink:href="#C" y="238"/><use xlink:href="#B" y="238"/><path d="M203 309.3h.5v6.96h-.5z"/><use xlink:href="#D" y="238"/><use xlink:href="#C" x="17" y="238"/><path d="M220 309.3h.5v6.96h-.5z"/><use xlink:href="#E" y="238"/><use xlink:href="#C" x="34" y="238"/><path d="M237 309.3h.5v6.96h-.5z"/><use xlink:href="#F" y="238"/><use xlink:href="#G" y="238"/><use xlink:href="#X" y="119"/><path d="M12.76 329.54H16v.5h-3.23z"/><path d="M16.5 326.3H16v6.97h.5v-6.97z"/><use xlink:href="#V" y="136"/><use xlink:href="#U" y="136"/><use xlink:href="#W" y="136"/><use xlink:href="#S" y="153"/><use xlink:href="#Q" y="170"/><use xlink:href="#T" y="153"/><use xlink:href="#N" y="187"/><use xlink:href="#R" y="170"/><path d="M67.5 326.3H67v6.97h.5v-6.97z"/><use xlink:href="#O" y="187"/><use xlink:href="#P" y="187"/><path d="M84.5 326.3H84v6.97h.5v-6.97z"/><use xlink:href="#C" x="-102" y="255"/><use xlink:href="#M" y="204"/><path d="M101 326.3h.5v6.96h-.5z"/><use xlink:href="#C" x="-85" y="255"/><use xlink:href="#K" y="221"/><path d="M118 326.3h.5v6.96h-.5z"/><use xlink:href="#C" x="-68" y="255"/><use xlink:href="#L" y="221"/><path d="M135 326.3h.5v6.96h-.5z"/><use xlink:href="#H" y="238"/><use xlink:href="#C" x="-51" y="255"/><path d="M152 326.3h.5v6.96h-.5z"/><use xlink:href="#C" x="-34" y="255"/><use xlink:href="#I" y="238"/><path d="M169 326.3h.5v6.96h-.5z"/><use xlink:href="#C" x="-17" y="255"/><use xlink:href="#J" y="238"/><path d="M186 326.3h.5v6.96h-.5z"/><use xlink:href="#C" y="255"/><use xlink:href="#B" y="255"/><path d="M203 326.3h.5v6.96h-.5z"/><use xlink:href="#C" x="17" y="255"/><use xlink:href="#D" y="255"/><path d="M220 326.3h.5v6.96h-.5z"/><use xlink:href="#C" x="34" y="255"/><use xlink:href="#E" y="255"/><path d="M237 326.3h.5v6.96h-.5z"/><use xlink:href="#F" y="255"/><use xlink:href="#G" y="255"/><use xlink:href="#X" y="136"/><path d="M12.76 346.54H16v.5h-3.23z"/><path d="M16.5 350.27v-6.97H16v6.97h.5z"/><use xlink:href="#V" y="153"/><use xlink:href="#U" y="153"/><use xlink:href="#W" y="153"/><use xlink:href="#S" y="170"/><use xlink:href="#Q" y="187"/><use xlink:href="#T" y="170"/><use xlink:href="#R" y="187"/><use xlink:href="#N" y="204"/><path d="M67.5 343.3H67v6.97h.5v-6.97z"/><use xlink:href="#O" y="204"/><use xlink:href="#P" y="204"/><path d="M84.5 343.3H84v6.97h.5v-6.97z"/><use xlink:href="#M" y="221"/><use xlink:href="#C" x="-102" y="272"/><use xlink:href="#Y"/><use xlink:href="#C" x="-85" y="272"/><use xlink:href="#K" y="238"/><use xlink:href="#Y" x="17"/><use xlink:href="#C" x="-68" y="272"/><use xlink:href="#L" y="238"/><path d="M135 343.3h.5v6.96h-.5z"/><use xlink:href="#H" y="255"/><use xlink:href="#C" x="-51" y="272"/><path d="M152 343.3h.5v6.96h-.5z"/><use xlink:href="#I" y="255"/><use xlink:href="#C" x="-34" y="272"/><path d="M169 343.3h.5v6.96h-.5z"/><use xlink:href="#C" x="-17" y="272"/><use xlink:href="#J" y="255"/><path d="M186 343.3h.5v6.96h-.5z"/><use xlink:href="#C" y="272"/><use xlink:href="#B" y="272"/><path d="M203 343.3h.5v6.96h-.5z"/><use xlink:href="#D" y="272"/><use xlink:href="#C" x="17" y="272"/><path d="M220 343.3h.5v6.96h-.5z"/><use xlink:href="#C" x="34" y="272"/><use xlink:href="#E" y="272"/><path d="M237 343.3h.5v6.96h-.5z"/><use xlink:href="#F" y="272"/><use xlink:href="#G" y="272"/><use xlink:href="#X" y="153"/><path d="M12.76 363.54H16v.5h-3.23z"/><path d="M16 367.27h.5v-6.97H16v6.97z"/><use xlink:href="#U" y="170"/><use xlink:href="#V" y="170"/><use xlink:href="#W" y="170"/><use xlink:href="#S" y="187"/><use xlink:href="#Q" y="204"/><use xlink:href="#T" y="187"/><use xlink:href="#N" y="221"/><use xlink:href="#R" y="204"/><path d="M67.5 360.3H67v6.97h.5v-6.97z"/><use xlink:href="#O" y="221"/><use xlink:href="#P" y="221"/><path d="M84.5 360.3H84v6.97h.5v-6.97z"/><use xlink:href="#M" y="238"/><use xlink:href="#C" x="-102" y="289"/><use xlink:href="#Y" y="17"/><use xlink:href="#K" y="255"/><use xlink:href="#C" x="-85" y="289"/><use xlink:href="#Y" x="17" y="17"/><use xlink:href="#L" y="255"/><use xlink:href="#C" x="-68" y="289"/><path d="M135 360.3h.5v6.96h-.5z"/><use xlink:href="#H" y="272"/><use xlink:href="#C" x="-51" y="289"/><path d="M152 360.3h.5v6.96h-.5z"/><use xlink:href="#C" x="-34" y="289"/><use xlink:href="#I" y="272"/><path d="M169 360.3h.5v6.96h-.5z"/><use xlink:href="#C" x="-17" y="289"/><use xlink:href="#J" y="272"/><path d="M186 360.3h.5v6.96h-.5z"/><use xlink:href="#B" y="289"/><use xlink:href="#C" y="289"/><path d="M203 360.3h.5v6.96h-.5z"/><use xlink:href="#C" x="17" y="289"/><use xlink:href="#D" y="289"/><path d="M220 360.3h.5v6.96h-.5z"/><use xlink:href="#C" x="34" y="289"/><use xlink:href="#E" y="289"/><path d="M237 360.3h.5v6.96h-.5z"/><use xlink:href="#F" y="289"/><use xlink:href="#G" y="289"/><path d="M19.73 380.54h-1.6l.24.5h1.35z"/><use xlink:href="#U" y="187"/><use xlink:href="#V" y="187"/><use xlink:href="#W" y="187"/><use xlink:href="#Q" y="221"/><use xlink:href="#S" y="204"/><use xlink:href="#T" y="204"/><use xlink:href="#N" y="238"/><use xlink:href="#R" y="221"/><path d="M67.5 377.3H67v6.97h.5v-6.97z"/><use xlink:href="#P" y="238"/><use xlink:href="#O" y="238"/><path d="M84.5 377.3H84v6.97h.5v-6.97z"/><use xlink:href="#M" y="255"/><use xlink:href="#C" x="-102" y="306"/><use xlink:href="#Y" y="34"/><use xlink:href="#K" y="272"/><use xlink:href="#C" x="-85" y="306"/><use xlink:href="#Y" x="17" y="34"/><use xlink:href="#L" y="272"/><use xlink:href="#C" x="-68" y="306"/><use xlink:href="#Y" x="34" y="34"/><use xlink:href="#H" y="289"/><use xlink:href="#C" x="-51" y="306"/><path d="M152 377.3h.5v6.97h-.5z"/><use xlink:href="#C" x="-34" y="306"/><use xlink:href="#I" y="289"/><path d="M169 377.3h.5v6.97h-.5z"/><use xlink:href="#C" x="-17" y="306"/><use xlink:href="#J" y="289"/><path d="M186 377.3h.5v6.97h-.5z"/><use xlink:href="#B" y="306"/><use xlink:href="#C" y="306"/><path d="M203 377.3h.5v6.97h-.5z"/><use xlink:href="#D" y="306"/><use xlink:href="#C" x="17" y="306"/><path d="M220 377.3h.5v6.97h-.5z"/><use xlink:href="#C" x="34" y="306"/><use xlink:href="#E" y="306"/><path d="M237 377.3h.5v6.97h-.5z"/><use xlink:href="#F" y="306"/><use xlink:href="#Z"/><use xlink:href="#V" y="204"/><use xlink:href="#U" y="204"/><path d="M33.5 401.27v-6.97H33v6.97h.5z"/><use xlink:href="#S" y="221"/><use xlink:href="#Q" y="238"/><use xlink:href="#T" y="221"/><use xlink:href="#R" y="238"/><use xlink:href="#N" y="255"/><path d="M67.5 394.3H67v6.97h.5v-6.97z"/><use xlink:href="#O" y="255"/><use xlink:href="#P" y="255"/><path d="M84.5 394.3H84v6.97h.5v-6.97z"/><use xlink:href="#M" y="272"/><use xlink:href="#C" x="-102" y="323"/><use xlink:href="#Y" y="51"/><use xlink:href="#K" y="289"/><use xlink:href="#C" x="-85" y="323"/><use xlink:href="#Y" x="17" y="51"/><use xlink:href="#L" y="289"/><use xlink:href="#C" x="-68" y="323"/><use xlink:href="#Y" x="34" y="51"/><use xlink:href="#H" y="306"/><use xlink:href="#C" x="-51" y="323"/><use xlink:href="#Y" x="51" y="51"/><use xlink:href="#C" x="-34" y="323"/><use xlink:href="#I" y="306"/><path d="M169 394.3h.5v6.97h-.5z"/><use xlink:href="#C" x="-17" y="323"/><use xlink:href="#J" y="306"/><path d="M186 394.3h.5v6.97h-.5z"/><use xlink:href="#C" y="323"/><use xlink:href="#B" y="323"/><path d="M203 394.3h.5v6.97h-.5z"/><use xlink:href="#C" x="17" y="323"/><use xlink:href="#D" y="323"/><path d="M220 394.3h.5v6.97h-.5z"/><use xlink:href="#E" y="323"/><use xlink:href="#C" x="34" y="323"/><path d="M237 394.3h.5v6.97h-.5z"/><use xlink:href="#F" y="323"/><use xlink:href="#Z" y="17"/><use xlink:href="#Q" y="255"/><use xlink:href="#S" y="238"/><path d="M50.5 418.27v-6.97H50v6.97h.5z"/><use xlink:href="#R" y="255"/><use xlink:href="#N" y="272"/><path d="M67.5 418.27v-6.97H67v6.97h.5z"/><use xlink:href="#P" y="272"/><use xlink:href="#O" y="272"/><path d="M84.5 411.3H84v6.97h.5v-6.97z"/><use xlink:href="#C" x="-102" y="340"/><use xlink:href="#M" y="289"/><use xlink:href="#Y" y="68"/><use xlink:href="#C" x="-85" y="340"/><use xlink:href="#K" y="306"/><use xlink:href="#Y" x="17" y="68"/><use xlink:href="#C" x="-68" y="340"/><use xlink:href="#L" y="306"/><use xlink:href="#Y" x="34" y="68"/><use xlink:href="#C" x="-51" y="340"/><use xlink:href="#H" y="323"/><use xlink:href="#Y" x="51" y="68"/><use xlink:href="#I" y="323"/><use xlink:href="#C" x="-34" y="340"/><path d="M169 411.3h.5v6.97h-.5z"/><use xlink:href="#C" x="-17" y="340"/><use xlink:href="#J" y="323"/><path d="M186 411.3h.5v6.97h-.5z"/><use xlink:href="#C" y="340"/><use xlink:href="#B" y="340"/><path d="M203 411.3h.5v6.97h-.5z"/><use xlink:href="#C" x="17" y="340"/><use xlink:href="#D" y="340"/><path d="M220 411.3h.5v6.97h-.5z"/><use xlink:href="#E" y="340"/><use xlink:href="#C" x="34" y="340"/><path d="M237 411.3h.5v6.97h-.5z"/><use xlink:href="#F" y="340"/><use xlink:href="#Z" y="34"/><use xlink:href="#R" y="272"/><use xlink:href="#N" y="289"/><path d="M67 435.27h.5v-6.97H67v6.97z"/><use xlink:href="#P" y="289"/><use xlink:href="#O" y="289"/><path d="M84.5 435.27v-6.97H84v6.97h.5z"/><use xlink:href="#C" x="-102" y="357"/><use xlink:href="#M" y="306"/><use xlink:href="#Y" y="85"/><use xlink:href="#C" x="-85" y="357"/><use xlink:href="#K" y="323"/><use xlink:href="#Y" x="17" y="85"/><use xlink:href="#L" y="323"/><use xlink:href="#C" x="-68" y="357"/><use xlink:href="#Y" x="34" y="85"/><use xlink:href="#H" y="340"/><use xlink:href="#C" x="-51" y="357"/><use xlink:href="#Y" x="51" y="85"/><use xlink:href="#C" x="-34" y="357"/><use xlink:href="#I" y="340"/><path d="M169 428.3h.5v6.97h-.5z"/><use xlink:href="#C" x="-17" y="357"/><use xlink:href="#J" y="340"/><path d="M186 428.3h.5v6.97h-.5z"/><use xlink:href="#B" y="357"/><use xlink:href="#C" y="357"/><path d="M203 428.3h.5v6.97h-.5z"/><use xlink:href="#D" y="357"/><use xlink:href="#C" x="17" y="357"/><path d="M220 428.3h.5v6.97h-.5z"/><use xlink:href="#E" y="357"/><use xlink:href="#C" x="34" y="357"/><path d="M237 428.3h.5v6.97h-.5z"/><use xlink:href="#F" y="357"/><use xlink:href="#Z" y="51"/><path d="M82.22,448.54l.9.5H84v-.5Z"/><use xlink:href="#O" y="306"/><path d="M84.5 448.54v-3.24H84v4.22l.5.28v-1.26z"/><use xlink:href="#C" x="-102" y="374"/><use xlink:href="#M" y="323"/><path d="M101.5 452.27v-6.97h-.5v6.97h.5z"/><use xlink:href="#K" y="340"/><use xlink:href="#C" x="-85" y="374"/><use xlink:href="#Y" x="17" y="102"/><use xlink:href="#L" y="340"/><use xlink:href="#C" x="-68" y="374"/><use xlink:href="#Y" x="34" y="102"/><use xlink:href="#C" x="-51" y="374"/><use xlink:href="#H" y="357"/><use xlink:href="#Y" x="51" y="102"/><use xlink:href="#C" x="-34" y="374"/><use xlink:href="#I" y="357"/><path d="M169 445.3h.5v6.97h-.5z"/><use xlink:href="#C" x="-17" y="374"/><use xlink:href="#J" y="357"/><path d="M186 445.3h.5v6.97h-.5z"/><use xlink:href="#C" y="374"/><use xlink:href="#B" y="374"/><path d="M203 445.3h.5v6.97h-.5z"/><use xlink:href="#C" x="17" y="374"/><use xlink:href="#D" y="374"/><path d="M220 445.3h.5v6.97h-.5z"/><use xlink:href="#E" y="374"/><use xlink:href="#C" x="34" y="374"/><path d="M237 445.3h.5v6.97h-.5z"/><use xlink:href="#F" y="374"/><use xlink:href="#Z" y="68"/><use xlink:href="#K" y="357"/><use xlink:href="#C" x="-85" y="391"/><path d="M118.5 469.27v-6.97h-.5v6.97h.5z"/><use xlink:href="#L" y="357"/><use xlink:href="#C" x="-68" y="391"/><path d="M135.5 469.27v-6.97h-.5v6.97h.5z"/><use xlink:href="#H" y="374"/><use xlink:href="#C" x="-51" y="391"/><use xlink:href="#Y" x="51" y="119"/><use xlink:href="#I" y="374"/><use xlink:href="#C" x="-34" y="391"/><path d="M169 462.3h.5v6.97h-.5z"/><use xlink:href="#C" x="-17" y="391"/><use xlink:href="#J" y="374"/><path d="M186 462.3h.5v6.97h-.5z"/><use xlink:href="#C" y="391"/><use xlink:href="#B" y="391"/><path d="M203 462.3h.5v6.97h-.5z"/><use xlink:href="#C" x="17" y="391"/><use xlink:href="#D" y="391"/><path d="M220 462.3h.5v6.97h-.5z"/><use xlink:href="#C" x="34" y="391"/><use xlink:href="#E" y="391"/><path d="M237 462.3h.5v6.97h-.5z"/><use xlink:href="#F" y="391"/><use xlink:href="#Z" y="85"/><use xlink:href="#C" x="-68" y="408"/><path d="M132.68,482.54l.52.5H135v-.5Z"/><path d="M135.5 482.54v-3.24h-.5v5.52l.5.5v-2.78z"/><use xlink:href="#C" x="-51" y="408"/><use xlink:href="#H" y="391"/><use xlink:href="#Y" x="51" y="136"/><use xlink:href="#I" y="391"/><use xlink:href="#C" x="-34" y="408"/><path d="M169 479.3h.5v6.97h-.5z"/><use xlink:href="#C" x="-17" y="408"/><use xlink:href="#J" y="391"/><path d="M186 479.3h.5v6.97h-.5z"/><use xlink:href="#C" y="408"/><use xlink:href="#B" y="408"/><path d="M203 479.3h.5v6.97h-.5z"/><use xlink:href="#C" x="17" y="408"/><use xlink:href="#D" y="408"/><path d="M220 479.3h.5v6.97h-.5z"/><use xlink:href="#C" x="34" y="408"/><use xlink:href="#E" y="408"/><path d="M237 479.3h.5v6.97h-.5z"/><use xlink:href="#F" y="408"/><use xlink:href="#Z" y="102"/><use xlink:href="#H" y="408"/><use xlink:href="#C" x="-51" y="425"/><path d="M152.5 503.27v-6.97h-.5v6.97h.5z"/><use xlink:href="#C" x="-34" y="425"/><use xlink:href="#I" y="408"/><path d="M169 496.3h.5v6.97h-.5z"/><use xlink:href="#C" x="-17" y="425"/><use xlink:href="#J" y="408"/><path d="M186 496.3h.5v6.97h-.5z"/><use xlink:href="#C" y="425"/><use xlink:href="#B" y="425"/><path d="M203 496.3h.5v6.97h-.5z"/><use xlink:href="#D" y="425"/><use xlink:href="#C" x="17" y="425"/><path d="M220 496.3h.5v6.97h-.5z"/><use xlink:href="#C" x="34" y="425"/><use xlink:href="#E" y="425"/><path d="M237 496.3h.5v6.97h-.5z"/><use xlink:href="#F" y="425"/><use xlink:href="#Z" y="119"/><use xlink:href="#C" x="-34" y="442"/><use xlink:href="#I" y="425"/><path d="M169 513.3h.5v6.97h-.5z"/><use xlink:href="#J" y="425"/><use xlink:href="#C" x="-17" y="442"/><path d="M186 513.3h.5v6.97h-.5z"/><use xlink:href="#B" y="442"/><use xlink:href="#C" y="442"/><path d="M203 513.3h.5v6.97h-.5z"/><use xlink:href="#C" x="17" y="442"/><use xlink:href="#D" y="442"/><path d="M220 513.3h.5v6.97h-.5z"/><use xlink:href="#C" x="34" y="442"/><use xlink:href="#E" y="442"/><path d="M237 513.3h.5v6.97h-.5z"/><use xlink:href="#F" y="442"/><use xlink:href="#Z" y="136"/><path d="M169,533.54v.15l-.07-.15Z"/><use xlink:href="#C" x="-34" y="459"/><path d="M169.5 530.3v4.46l-.5-1.08v-3.38z"/><use xlink:href="#C" x="-17" y="459"/><use xlink:href="#J" y="442"/><path d="M186 530.3h.5v6.97h-.5z"/><use xlink:href="#B" y="459"/><use xlink:href="#C" y="459"/><path d="M203 530.3h.5v6.97h-.5z"/><use xlink:href="#C" x="17" y="459"/><use xlink:href="#D" y="459"/><path d="M220 530.3h.5v6.97h-.5z"/><use xlink:href="#E" y="459"/><use xlink:href="#C" x="34" y="459"/><path d="M237 530.3h.5v6.97h-.5z"/><use xlink:href="#F" y="459"/><use xlink:href="#Z" y="153"/><use xlink:href="#J" y="459"/><use xlink:href="#C" x="-17" y="476"/><path d="M186 547.3h.5v6.97h-.5z"/><use xlink:href="#C" y="476"/><use xlink:href="#B" y="476"/><path d="M203 547.3h.5v6.97h-.5z"/><use xlink:href="#D" y="476"/><use xlink:href="#C" x="17" y="476"/><path d="M220 547.3h.5v6.97h-.5z"/><use xlink:href="#E" y="476"/><use xlink:href="#C" x="34" y="476"/><path d="M237 547.3h.5v6.97h-.5z"/><use xlink:href="#F" y="476"/><use xlink:href="#Z" y="170"/><use xlink:href="#C" x="-17" y="493"/><use xlink:href="#J" y="476"/><path d="M186 564.3h.5v6.97h-.5z"/><use xlink:href="#B" y="493"/><use xlink:href="#C" y="493"/><path d="M203 564.3h.5v6.97h-.5z"/><use xlink:href="#C" x="17" y="493"/><use xlink:href="#D" y="493"/><path d="M220 564.3h.5v6.97h-.5z"/><use xlink:href="#E" y="493"/><use xlink:href="#C" x="34" y="493"/><path d="M237 564.3h.5v6.97h-.5z"/><use xlink:href="#F" y="493"/><use xlink:href="#Z" y="187"/><use xlink:href="#C" x="-17" y="510"/><path d="M186 584.54v.5h-1.9c0-.17-.07-.33-.1-.5z"/><path d="M186 581.3h.5v6.97h-.5z"/><use xlink:href="#B" y="510"/><use xlink:href="#C" y="510"/><path d="M203 581.3h.5v6.97h-.5z"/><use xlink:href="#C" x="17" y="510"/><use xlink:href="#D" y="510"/><path d="M220 581.3h.5v6.97h-.5z"/><use xlink:href="#C" x="34" y="510"/><use xlink:href="#E" y="510"/><path d="M237 581.3h.5v6.97h-.5z"/><use xlink:href="#F" y="510"/><use xlink:href="#Z" y="204"/><path d="M189.73 601.54v.5h-2.1c0-.17-.07-.33-.1-.5z"/><use xlink:href="#B" y="527"/><use xlink:href="#C" y="527"/><path d="M203 598.3h.5v6.97h-.5z"/><use xlink:href="#D" y="527"/><use xlink:href="#C" x="17" y="527"/><path d="M220 598.3h.5v6.97h-.5z"/><use xlink:href="#E" y="527"/><use xlink:href="#C" x="34" y="527"/><path d="M237 598.3h.5v6.97h-.5z"/><use xlink:href="#F" y="527"/><use xlink:href="#Z" y="221"/><use xlink:href="#C" y="544"/><use xlink:href="#B" y="544"/><path d="M203 615.3h.5v6.97h-.5z"/><use xlink:href="#D" y="544"/><use xlink:href="#C" x="17" y="544"/><path d="M220 615.3h.5v6.97h-.5z"/><use xlink:href="#C" x="34" y="544"/><use xlink:href="#E" y="544"/><path d="M237 615.3h.5v6.97h-.5z"/><use xlink:href="#F" y="544"/><use xlink:href="#Z" y="238"/><path d="M203,635.54v.5h-2.63l-.27-.5Z"/><use xlink:href="#C" y="561"/><path d="M203 632.3h.5v6.97h-.5z"/><use xlink:href="#D" y="561"/><use xlink:href="#C" x="17" y="561"/><path d="M220 632.3h.5v6.97h-.5z"/><use xlink:href="#E" y="561"/><use xlink:href="#C" x="34" y="561"/><path d="M237 632.3h.5v6.97h-.5z"/><use xlink:href="#F" y="561"/><use xlink:href="#Z" y="255"/><use xlink:href="#D" y="578"/><use xlink:href="#C" x="17" y="578"/><path d="M220 649.3h.5v6.97h-.5z"/><use xlink:href="#E" y="578"/><use xlink:href="#C" x="34" y="578"/><path d="M237 649.3h.5v6.97h-.5z"/><use xlink:href="#F" y="578"/><use xlink:href="#Z" y="272"/><use xlink:href="#C" x="34" y="595"/><use xlink:href="#E" y="595"/><path d="M237 666.3h.5v6.97h-.5z"/><use xlink:href="#F" y="595"/><use xlink:href="#Z" y="289"/><path d="M254,686.54v.13l-.24-.13Z"/><path d="M254.24 683.3v3.5l-.25-.14v-3.36z"/></g><defs ><path id="B" d="M199.76 74.54H203v.5h-3.23z"/><path id="C" d="M203.5 74.54h3.24v.5h-3.24z"/><path id="D" d="M216.76 74.54H220v.5h-3.23z"/><path id="E" d="M233.76 74.54H237v.5h-3.23z"/><path id="F" d="M250.76 74.54H254v.5h-3.23z"/><path id="G" d="M254 71.3h.25v6.96H254z"/><path id="H" d="M148.76 91.54H152v.5h-3.23z"/><path id="I" d="M165.76 91.54H169v.5h-3.23z"/><path id="J" d="M182.76 91.54H186v.5h-3.23z"/><path id="K" d="M114.76 108.54H118v.5h-3.23z"/><path id="L" d="M131.76 108.54H135v.5h-3.23z"/><path id="M" d="M97.76 125.54H101v.5h-3.23z"/><path id="N" d="M67.5 142.54h3.24v.5H67.5z"/><path id="O" d="M84.5 142.54h3.24v.5H84.5z"/><path id="P" d="M80.76 142.54H84v.5h-3.23z"/><path id="Q" d="M50.5 159.54h3.24v.5H50.5z"/><path id="R" d="M63.76 159.54H67v.5h-3.23z"/><path id="S" d="M46.76 176.54H50v.5h-3.23z"/><path id="T" d="M50.5 173.3H50v6.97h.5v-6.97z"/><path id="U" d="M33.5 193.54h3.24v.5H33.5z"/><path id="V" d="M29.76 193.54H33v.5h-3.23z"/><path id="W" d="M33.5 190.3H33v6.97h.5v-6.97z"/><path id="X" d="M16.5 210.54h3.24v.5H16.5z"/><path id="Y" d="M101.5 343.3h-.5v6.97h.5v-6.97z"/><path id="Z" d="M254 377.3h.25v6.97H254z"/></defs></svg>