<svg xmlns="http://www.w3.org/2000/svg" xmlns:xlink="http://www.w3.org/1999/xlink" viewBox="0 0 964.69 130.12"><g fill="#707070"><path d="M867.43 113.45h3.44v.8h-3.44zm-.8.8v-.8h-3.44v.8h3.44z"/><path d="M866.62 117.7h.8V110h-.8v7.7zm-17.95-4.25h3.44v.8h-3.44z"/><use xlink:href="#B"/><path d="M848.67 110h-.82v7.7h.82V110zm-60.55 3.45v.8h.13l.8-.8h-.94zm3.44-3.45v.94l.8-.8V110h-.8zm-17.96 3.45h3.44v.8h-3.44zm-3.02 0h-1.22v.8h3.43v-.8h-2.2z"/><path d="M773.6 110h-.82v7.7h.82V110zM638 113.45h3.44v.8H638zm5.36 0h-1.1v.8h.3l.82-.8z"/><path d="M642.25 110h-.8v5.36l.8-.82V110zm-23 3.45h3.44v.8h-3.44zm4.26 0h3.44v.8h-3.44z"/><path d="M623.5 117.7V110h-.8v7.7h.8zm-60.56-4.25v.8h.13l.8-.8h-.94zm3.44-3.45v.94l.82-.8V110h-.82zm-17.95 3.45h3.44v.8h-3.44zm-4.25 0h3.44v.8h-3.44z"/><path d="M548.43 117.7V110h-.8v7.7h.8zm-135.6-4.25v.8h3.44v-.8h-3.44z"/><path d="M416.26 110v4.25l.82-.8V110h-.82zm-17.96 3.45h3.44v.8h-3.44zm-4.24 0h3.44v.8h-3.44z"/><path d="M398.3 117.7V110h-.8v7.7h.8zm-60.53-4.25v.8h.12l.82-.8h-.94zm3.43-3.45v.94l.8-.8V110h-.8zm-17.94 3.45h3.44v.8h-3.44zm-4.26 0h3.44v.8H319z"/><path d="M323.25 117.7V110h-.8v7.7h.8zm-135.6-4.25v.8h3.44v-.8h-3.44z"/><path d="M191.1 110v4.25l.8-.8V110h-.8zm-22.22 3.45h3.44v.8h-3.44zm4.26 0h3.44v.8h-3.44z"/><path d="M173.14 117.7V110h-.82v7.7h.82zm-60.54-4.25v.8h2.33l.82-.8h-3.15zm3.43-3.45v3.15l.8-.8V110h-.8zm-17.95 3.45h3.44v.8h-3.44zm-4.26 0h3.44v.8h-3.44z"/><path d="M98.08 117.7V110h-.82v7.7h.82z"/><use xlink:href="#B" x="37.53" y="-18.75"/><path d="M886.2 94.68h3.44v.8h-3.44z"/><path d="M886.2 91.25h-.82v7.7h.82v-7.7z"/><use xlink:href="#B" x="18.77" y="-18.75"/><path d="M867.43 94.68h3.44v.8h-3.44z"/><path d="M867.43 91.25h-.8v7.7h.8v-7.7z"/><use xlink:href="#B" y="-18.75"/><path d="M848.67 94.68h3.44v.8h-3.44z"/><path d="M848.67 91.25h-.82v7.7h.82v-7.7z"/><use xlink:href="#B" x="-18.76" y="-18.75"/><path d="M829.9 94.68h3.44v.8h-3.44z"/><path d="M829.9 91.25h-.8v7.7h.8v-7.7zm-23.02 3.45v.8h.13l.82-.8h-.95zm3.44-3.45v.94l.82-.82v-.12h-.82z"/><use xlink:href="#B" x="-56.29" y="-18.75"/><path d="M792.37 94.68h3.44v.8h-3.44z"/><path d="M792.37 91.25h-.8v7.7h.8v-7.7zm-21.8 3.45h-1.22v.8h3.43v-.8h-2.2zm3.02-.02h3.44v.8h-3.44z"/><path d="M773.6 91.25h-.82v7.7h.82v-7.7zm-19.57 4.25v-.8h-3.44v.8h3.44zm.8-.82h3.44v.8h-3.44z"/><path d="M754.03 98.94h.8v-7.7h-.8v7.7zm-97.26-4.26h3.44v.8h-3.44zm5.35.02h-1.1v.8h.3l.8-.8z"/><path d="M661.02 91.25h-.8v5.35l.8-.8v-4.54zM638 94.68h3.44v.8H638zm4.25 0h3.44v.8h-3.44z"/><path d="M642.25 98.94v-7.7h-.8v7.7h.8zm-23-4.26h3.44v.8h-3.44zm4.26 0h3.44v.8h-3.44z"/><path d="M623.5 91.25h-.8v7.7h.8v-7.7zm-23.03 3.43h3.44v.8h-3.44zm4.26 0h3.44v.8h-3.44z"/><path d="M604.73 98.94v-7.7h-.82v7.7h.82zM581.7 94.7v.8h.13l.8-.8h-.94zm3.45-3.45v.94l.8-.82v-.12h-.8zm-22.2 3.43h3.44v.8h-3.44zm4.26 0h3.44v.8h-3.44z"/><path d="M567.2 98.94v-7.7h-.82v7.7h.82zm-23.02-4.26h3.44v.8h-3.44zm4.25 0h3.44v.8h-3.44z"/><path d="M548.43 91.25h-.8v7.7h.8v-7.7zm-23.03 3.43h3.44v.8h-3.44zm4.27 0h3.44v.8h-3.44z"/><path d="M528.85 98.94h.82v-7.7h-.82v7.7zM431.6 94.7v.8h3.44v-.8h-3.44z"/><path d="M435.03 91.25v4.25l.8-.8v-3.44h-.8zm-17.95 3.43h3.44v.8h-3.44zm-4.26 0h3.44v.8h-3.44z"/><path d="M417.08 98.94v-7.7h-.82v7.7h.82zm-18.78-4.26h3.44v.8h-3.44zm-4.24 0h3.44v.8h-3.44z"/><path d="M398.3 91.25h-.8v7.7h.8v-7.7zm-23 3.43h3.44v.8h-3.44zm4.25 0H383v.8h-3.44z"/><path d="M379.55 98.94v-7.7h-.8v7.7h.8zm-23.02-4.24v.8h.13l.8-.8h-.94zm3.44-3.45v.94l.8-.82v-.12h-.8zm-22.2 3.43h3.44v.8h-3.44zm4.25 0h3.44v.8h-3.44z"/><path d="M342.02 98.94v-7.7h-.8v7.7h.8zm-18.76-4.26h3.44v.8h-3.44zm-4.26 0h3.44v.8H319z"/><path d="M323.25 91.25h-.8v7.7h.8v-7.7zm-23 3.43h3.44v.8h-3.44z"/><path d="M304.5 94.68h3.44v.8h-3.44zm-.82 4.26h.8v-7.7h-.8v7.7zM206.4 94.7v.8h3.44v-.8h-3.44z"/><path d="M209.85 91.25v4.25l.82-.8v-3.44h-.82zm-17.95 3.43h3.44v.8h-3.44zm-4.25 0h3.44v.8h-3.44z"/><path d="M191.9 98.94v-7.7h-.8v7.7h.8zm-18.76-4.26h3.44v.8h-3.44zm-4.26 0h3.44v.8h-3.44z"/><path d="M173.14 91.25h-.82v7.7h.82v-7.7zm-23.02 3.43h3.44v.8h-3.44zm4.25 0h3.44v.8h-3.44z"/><path d="M154.37 98.94v-7.7h-.8v7.7h.8zm-23.02-4.24v.8h2.34l.8-.8h-3.15zm3.45-3.45v3.14l.82-.8v-2.33h-.82zm-22.2 3.43h3.44v.8h-3.44zm4.24 0h3.44v.8h-3.44z"/><path d="M116.84 98.94v-7.7h-.8v7.7h.8zm-23.02-4.26h3.44v.8h-3.44zm4.26 0h3.44v.8h-3.44z"/><path d="M98.08 91.25h-.82v7.7h.82v-7.7zm-23.02 3.43h3.44v.8h-3.44zm4.24 0h3.44v.8H79.3z"/><path d="M79.3 98.94v-7.7h-.8v7.7h.8zm825.66-23.02h3.44v.8h-3.44z"/><use xlink:href="#B" x="56.3" y="-37.53"/><path d="M904.96 72.48h-.8v7.7h.8v-7.7z"/><use xlink:href="#B" x="37.53" y="-37.53"/><path d="M886.2 75.92h3.44v.8h-3.44z"/><path d="M886.2 72.48h-.82v7.7h.82v-7.7zm-18.77 3.44h3.44v.8h-3.44z"/><use xlink:href="#B" x="18.77" y="-37.53"/><path d="M867.43 72.48h-.8v7.7h.8v-7.7zm-18.76 3.44h3.44v.8h-3.44z"/><use xlink:href="#B" y="-37.53"/><path d="M847.85 72.48v7.7h.82v-7.7h-.82zm-17.95 3.44h3.44v.8h-3.44zm-3.03.8h2.22v-.8h-2.5l-.8.8h1.1z"/><path d="M829.1 80.17h.8V72.6l-.8.8v6.75z"/><use xlink:href="#B" x="-56.29" y="-37.53"/><path d="M792.37 75.92h3.44v.8h-3.44z"/><path d="M792.37 72.48h-.8v7.7h.8v-7.7zm-21.8 3.44h-1.22v.8h3.43v-.8h-2.2zm3.02 0h3.44v.8h-3.44z"/><path d="M773.6 72.48h-.82v7.7h.82v-7.7zm-18.76 3.44h3.44v.8h-3.44z"/><use xlink:href="#B" x="-93.83" y="-37.53"/><path d="M754.84 72.48h-.8v7.7h.8v-7.7zm-18.76 3.44h3.44v.8h-3.44zm-4.26 0h3.44v.8h-3.44z"/><path d="M736.08 80.17v-7.7h-.82v7.7h.82zm-60.55-4.25h3.44v.8h-3.44z"/><path d="M680.9 75.92h-1.1v.8h.3l.82-.8zm-1.12-3.44h-.8v5.36l.8-.82v-4.54zm-23 3.44h3.44v.8h-3.44zm4.25 0h3.44v.8h-3.44z"/><path d="M661.02 80.17v-7.7h-.8v7.7h.8zM638 75.92h3.44v.8H638zm4.25 0h3.44v.8h-3.44z"/><path d="M642.25 72.48h-.8v7.7h.8v-7.7zm-18.75 3.44h3.44v.8h-3.44zm-4.26 0h3.44v.8h-3.44z"/><path d="M622.68 72.48v7.7h.8v-7.7h-.8zm-17.95 3.44h3.44v.8h-3.44zm-4.13.8h3.3v-.8h-2.5l-.8.8z"/><path d="M603.9 80.17h.82V72.6l-.82.8v6.75zm-40.96-4.25h3.44v.8h-3.44zm4.26 0h3.44v.8h-3.44z"/><path d="M567.2 72.48h-.82v7.7h.82v-7.7zm-23.02 3.44h3.44v.8h-3.44zm4.25 0h3.44v.8h-3.44z"/><path d="M548.43 72.48h-.8v7.7h.8v-7.7zm-18.76 3.44h3.44v.8h-3.44zm-4.27 0h3.44v.8h-3.44z"/><path d="M529.67 80.17v-7.7h-.82v7.7h.82zm-18.77-4.25h3.44v.8h-3.44z"/><path d="M506.65 75.92h3.44v.8h-3.44zm4.25 4.25v-7.7h-.8v7.7h.8zm-60.55-4.25v.8h3.44v-.8h-3.44z"/><path d="M453.8 72.48v4.25l.82-.8V72.5h-.82zm-17.96 3.44h3.44v.8h-3.44zm-4.24 0h3.44v.8h-3.44z"/><path d="M435.84 80.17v-7.7h-.8v7.7h.8zm-23.02-4.25h3.44v.8h-3.44zm4.26 0h3.44v.8h-3.44z"/><path d="M417.08 72.48h-.82v7.7h.82v-7.7zm-23.02 3.44h3.44v.8h-3.44zm4.24 0h3.44v.8h-3.44z"/><path d="M397.5 72.48v7.7h.8v-7.7h-.8zm-22.08 4.25h3.32v-.8h-2.5l-.82.8zm4.13-.8H383v.8h-3.44z"/><path d="M378.74 80.17h.8V72.6l-.8.8v6.75zm-36.72-4.25h3.44v.8h-3.44z"/><path d="M337.77 75.92h3.44v.8h-3.44zm4.25-3.44h-.8v7.7h.8v-7.7zm-18.76 3.44h3.44v.8h-3.44zm-4.26 0h3.44v.8H319z"/><path d="M323.25 72.48h-.8v7.7h.8v-7.7zm-18.75 3.44h3.44v.8h-3.44z"/><path d="M300.24 75.92h3.44v.8h-3.44zm4.26 4.25v-7.7h-.8v7.7h.8zm-23.03-4.25h3.44v.8h-3.44zm4.26 0h3.44v.8h-3.44z"/><path d="M285.73 80.17v-7.7h-.82v7.7h.82zm-60.55-4.25v.8h3.44v-.8h-3.44z"/><path d="M228.62 72.48v4.25l.8-.8V72.5h-.8zm-22.22 3.44h3.44v.8h-3.44zm4.27 0h3.44v.8h-3.44z"/><path d="M210.67 80.17v-7.7h-.82v7.7h.82zm-18.77-4.25h3.44v.8h-3.44zm-4.25 0h3.44v.8h-3.44z"/><path d="M191.9 72.48h-.8v7.7h.8v-7.7zm-18.76 3.44h3.44v.8h-3.44zm-4.26 0h3.44v.8h-3.44z"/><path d="M172.32 72.48v7.7h.82v-7.7h-.82zm-19.87 4.25h1.1v-.8h-.3l-.82.8zm1.92-.8h3.44v.8h-3.44z"/><path d="M153.56 80.17h.8v-5.35l-.8.8v4.54zm-36.72-4.25h3.44v.8h-3.44zm-4.24 0h3.44v.8h-3.44z"/><path d="M116.84 72.48h-.8v7.7h.8v-7.7zm-23.02 3.44h3.44v.8h-3.44zm4.26 0h3.44v.8h-3.44z"/><path d="M98.08 72.48h-.82v7.7h.82v-7.7zM79.3 75.92h3.44v.8H79.3zm-4.24 0h3.44v.8h-3.44z"/><path d="M79.3 72.48h-.8v7.7h.8v-7.7zm-18.75 3.44H64v.8h-3.44zm-4.25 0h3.44v.8H56.3z"/><path d="M60.55 80.17v-7.7h-.82v7.7h.82z"/><use xlink:href="#B" x="75.07" y="-56.29"/><path d="M923.73 57.15h3.44v.8h-3.44z"/><path d="M923.73 53.72h-.82v7.7h.82v-7.7zm-18.77 3.43h3.44v.8h-3.44z"/><use xlink:href="#B" x="56.3" y="-56.29"/><path d="M904.96 53.72h-.8v7.7h.8v-7.7z"/><use xlink:href="#B" x="37.53" y="-56.29"/><path d="M886.2 57.15h3.44v.8h-3.44z"/><path d="M886.2 53.72h-.82v7.7h.82v-7.7zm-18.77 3.43h3.44v.8h-3.44z"/><use xlink:href="#B" x="18.77" y="-56.29"/><path d="M867.43 53.72h-.8v7.7h.8v-7.7zm-21.8 3.44h-.27l-.82.8h3.3v-.8h-2.22zm3.04-.01h3.44v.8h-3.44z"/><path d="M847.85 54.66v6.75h.82v-7.57l-.82.82zm-77.27 2.5h-1.22v.8h3.43v-.8h-2.2zm3.02-.01h3.44v.8h-3.44z"/><path d="M773.6 53.72h-.82v7.7h.82v-7.7zm-18.76 3.43h3.44v.8h-3.44z"/><use xlink:href="#B" x="-93.83" y="-56.29"/><path d="M754.84 53.72h-.8v7.7h.8v-7.7zm-18.76 3.43h3.44v.8h-3.44zm-4.26 0h3.44v.8h-3.44z"/><path d="M736.08 53.72h-.82v7.7h.82v-7.7zm-23.02 3.43h3.44v.8h-3.44zm4.24 0h3.44v.8h-3.44z"/><path d="M717.3 61.4v-7.7h-.8v7.7h.8zm-17.65-4.24h-1.1v.8h.3l.8-.8zm-5.35-.01h3.44v.8h-3.44z"/><path d="M698.55 53.72h-.8v5.35l.8-.8v-4.54zm-18.77 3.43h3.44v.8h-3.44zm-4.25 0h3.44v.8h-3.44z"/><path d="M679.78 61.4v-7.7h-.8v7.7h.8zm-18.76-4.25h3.44v.8h-3.44zm-4.25 0h3.44v.8h-3.44z"/><path d="M661.02 53.72h-.8v7.7h.8v-7.7zm-18.77 3.43h3.44v.8h-3.44zm-4.25 0h3.44v.8H638z"/><path d="M642.25 53.72h-.8v7.7h.8v-7.7zm-18.75 3.43h3.44v.8h-3.44zm-3.32.01l-.8.8h3.3v-.8h-2.5z"/><path d="M622.68 54.66v6.75h.8v-7.57l-.8.82zm-78.5 2.5h3.44v.8h-3.44zm4.25 0h3.44v.8h-3.44z"/><path d="M548.43 53.72h-.8v7.7h.8v-7.7zm-18.76 3.43h3.44v.8h-3.44zm-4.27 0h3.44v.8h-3.44z"/><path d="M529.67 53.72h-.82v7.7h.82v-7.7zm-23.02 3.43h3.44v.8h-3.44zm4.25 0h3.44v.8h-3.44z"/><path d="M510.9 53.72h-.8v7.7h.8v-7.7zm-23.02 3.43h3.44v.8h-3.44zm4.26 0h3.44v.8h-3.44z"/><path d="M492.14 61.4v-7.7h-.82v7.7h.82zm-18.77-4.24zm-4.25-.01h3.44v.8h-3.44z"/><path d="M473.37 53.72h-.8v4.25l.8-.8v-3.44zm-18.77 3.43h3.44v.8h-3.44zm-4.25 0h3.44v.8h-3.44z"/><path d="M454.6 61.4v-7.7h-.82v7.7h.82zm-18.76-4.25h3.44v.8h-3.44zm-4.24 0h3.44v.8h-3.44z"/><path d="M435.84 53.72h-.8v7.7h.8v-7.7zm-23.02 3.43h3.44v.8h-3.44zm4.26 0h3.44v.8h-3.44z"/><path d="M417.08 53.72h-.82v7.7h.82v-7.7zm-18.78 3.43h3.44v.8h-3.44zm-3.3.01l-.8.8h3.3v-.8H395z"/><path d="M397.5 54.66v6.75h.8v-7.57l-.8.82zm-74.24 2.5h3.44v.8h-3.44zm-4.26 0h3.44v.8H319z"/><path d="M323.25 53.72h-.8v7.7h.8v-7.7zm-18.75 3.43h3.44v.8h-3.44z"/><path d="M300.24 57.15h3.44v.8h-3.44zm4.26-3.43h-.8v7.7h.8v-7.7zm-23.03 3.43h3.44v.8h-3.44zm4.26 0h3.44v.8h-3.44z"/><path d="M285.73 53.72h-.82v7.7h.82v-7.7zm-23.03 3.43h3.44v.8h-3.44zm4.26 0h3.44v.8h-3.44z"/><path d="M266.96 61.4v-7.7h-.8v7.7h.8zm-23.02-4.24v.8h3.44v-.8h-3.44z"/><path d="M247.38 53.72v4.25l.82-.8v-3.44h-.82zm-22.2 3.43h3.44v.8h-3.44zm4.25 0h3.44v.8h-3.44z"/><path d="M229.43 61.4v-7.7h-.8v7.7h.8zm-18.76-4.25h3.44v.8h-3.44zm-4.27 0h3.44v.8h-3.44z"/><path d="M210.67 53.72h-.82v7.7h.82v-7.7zm-23.02 3.43h3.44v.8h-3.44zm4.25 0h3.44v.8h-3.44z"/><path d="M191.9 53.72h-.8v7.7h.8v-7.7zm-18.76 3.43h3.44v.8h-3.44zm-1.1.01l-.8.8h1.1v-.8h-.3z"/><path d="M172.32 56.87v4.54h.82v-5.36l-.82.82zm-74.24.28h3.44v.8h-3.44zm-4.26 0h3.44v.8h-3.44z"/><path d="M98.08 53.72h-.82v7.7h.82v-7.7zm-23.02 3.43h3.44v.8h-3.44zm4.24 0h3.44v.8H79.3z"/><path d="M79.3 53.72h-.8v7.7h.8v-7.7zm-23 3.43h3.44v.8H56.3zm4.25 0H64v.8h-3.44z"/><path d="M60.55 53.72h-.82v7.7h.82v-7.7zm-18.77 3.43h3.44v.8h-3.44zm-4.25 0h3.44v.8h-3.44z"/><path d="M41.78 61.4v-7.7h-.8v7.7h.8z"/><use xlink:href="#B" x="93.83" y="-75.05"/><path d="M942.5 38.4h3.44v.8h-3.44z"/><path d="M942.5 34.95h-.8v7.7h.8v-7.7zm-18.77 3.45h3.44v.8h-3.44z"/><use xlink:href="#B" x="75.07" y="-75.05"/><path d="M923.73 34.95h-.82v7.7h.82v-7.7zm-18.77 3.45h3.44v.8h-3.44z"/><use xlink:href="#B" x="56.3" y="-75.05"/><path d="M904.96 34.95h-.8v7.7h.8v-7.7z"/><use xlink:href="#B" x="37.53" y="-75.05"/><path d="M886.2 38.4h3.44v.8h-3.44z"/><path d="M886.2 34.95h-.82v7.7h.82v-7.7zm-21.8 4.25h2.22v-.8h-2.5l-.8.8h1.1zm3.03-.8h3.44v.8h-3.44z"/><path d="M866.62 42.64h.8v-7.56l-.8.8v6.75zM754.84 38.4h3.44v.8h-3.44z"/><use xlink:href="#B" x="-93.83" y="-75.05"/><path d="M754.84 34.95h-.8v7.7h.8v-7.7zm-23.02 3.45h3.44v.8h-3.44zm4.26 0h3.44v.8h-3.44z"/><path d="M736.08 34.95h-.82v7.7h.82v-7.7zm-15.33 4.25v-.8h-2.33l-.82.8h3.15zm-3.45 3.44V39.5l-.8.82v2.33h.8zm-41.77-4.24h3.44v.8h-3.44zm4.25 0h3.44v.8h-3.44z"/><path d="M679.78 34.95h-.8v7.7h.8v-7.7zm-18.76 3.45h3.44v.8h-3.44zm-4.25 0h3.44v.8h-3.44z"/><path d="M661.02 34.95h-.8v7.7h.8v-7.7zm-22.9 4.25h3.3v-.8h-2.5l-.8.8zm4.12-.8h3.44v.8h-3.44z"/><path d="M641.44 42.64h.8v-7.56l-.8.8v6.75zM525.4 38.4h3.44v.8h-3.44zm4.27 0h3.44v.8h-3.44z"/><path d="M529.67 34.95h-.82v7.7h.82v-7.7zm-23.02 3.45h3.44v.8h-3.44zm4.25 0h3.44v.8h-3.44z"/><path d="M510.9 34.95h-.8v7.7h.8v-7.7zm-18.76 3.45h3.44v.8h-3.44zm-.82.8z"/><path d="M491.32 42.64h.82V38.4l-.82.8v3.44zm-40.97-4.24h3.44v.8h-3.44zm4.25 0h3.44v.8h-3.44z"/><path d="M454.6 34.95h-.82v7.7h.82v-7.7zm-18.76 3.45h3.44v.8h-3.44zm-4.24 0h3.44v.8h-3.44z"/><path d="M435.84 34.95h-.8v7.7h.8v-7.7zm-22.9 4.25h3.3v-.8h-2.5l-.82.8zm4.13-.8h3.44v.8h-3.44z"/><path d="M416.26 42.64h.82v-7.56l-.82.8v6.75zM300.24 38.4h3.44v.8h-3.44zm4.26 0h3.44v.8h-3.44z"/><path d="M304.5 34.95h-.8v7.7h.8v-7.7zm-23.03 3.45h3.44v.8h-3.44zm4.26 0h3.44v.8h-3.44z"/><path d="M285.73 34.95h-.82v7.7h.82v-7.7zm-19.58 4.25zm.8-.8h3.44v.8h-3.44z"/><path d="M266.15 42.64h.8V38.4l-.8.8v3.44zm-40.97-4.24h3.44v.8h-3.44zm4.25 0h3.44v.8h-3.44z"/><path d="M229.43 34.95h-.8v7.7h.8v-7.7zM206.4 38.4h3.44v.8h-3.44zm4.27 0h3.44v.8h-3.44z"/><path d="M210.67 34.95h-.82v7.7h.82v-7.7zM191.9 38.4h3.44v.8h-3.44z"/><path d="M189.98 39.2h1.1v-.8h-.3l-.82.8zm1.12 3.44h.8V37.3l-.8.8v4.54zM75.06 38.4h3.44v.8h-3.44zm4.24 0h3.44v.8H79.3z"/><path d="M79.3 34.95h-.8v7.7h.8v-7.7zm-23 3.45h3.44v.8H56.3zm4.25 0H64v.8h-3.44z"/><path d="M60.55 34.95h-.82v7.7h.82v-7.7zM37.53 38.4h3.44v.8h-3.44zm4.25 0h3.44v.8h-3.44z"/><path d="M41.78 34.95h-.8v7.7h.8v-7.7zm-23 3.45h3.44v.8h-3.44zm4.25 0h3.44v.8h-3.44z"/><path d="M23.02 42.64v-7.7h-.82v7.7h.82zm938.24-23h3.44v.8h-3.44zm-3.04 0H957v.8h3.44v-.8h-2.22z"/><path d="M961.26 16.2h-.82v7.7h.82v-7.7z"/><use xlink:href="#B" x="93.83" y="-93.82"/><path d="M942.5 19.63h3.44v.8h-3.44z"/><path d="M942.5 16.2h-.8v7.7h.8v-7.7z"/><use xlink:href="#B" x="75.07" y="-93.82"/><path d="M923.73 19.63h3.44v.8h-3.44z"/><path d="M923.73 16.2h-.82v7.7h.82v-7.7zm-18.77 3.43h3.44v.8h-3.44z"/><use xlink:href="#B" x="56.3" y="-93.82"/><path d="M904.96 16.2h-.8v7.7h.8v-7.7zm-21.8 4.24h2.22v-.8h-2.5l-.8.8h1.1zm3.04-.8h3.44v.8h-3.44z"/><path d="M885.38 23.88h.82v-7.7h-.4v.53l-.4.4v6.75zm-145.86-3.44v-.8h-2.34l-.8.8h3.15zm-3.44 3.44v-3.15l-.82.8v2.34h.82zm-79.18-3.44h3.32v-.8h-2.5l-.82.8z"/><path d="M661.02 19.63h3.44v.8h-3.44zm-.82 4.25h.8V16.3l-.8.82v6.75zm-150.1-3.44zm.8-.8h3.44v.8h-3.44z"/><path d="M510.1 23.88h.8v-4.25l-.8.8v3.44zm-74.26-4.25h3.44v.8h-3.44zm-4.12.8h3.3v-.8h-2.5l-.8.8z"/><path d="M435.03 23.88h.8V16.3l-.8.82v6.75zM284.9 20.44zm.83-.8h3.44v.8h-3.44z"/><path d="M284.9 23.88h.82v-4.25l-.82.8v3.44zm-74.23-4.25h3.44v.8h-3.44zm-1.92.8h1.1v-.8h-.3l-.8.8z"/><path d="M209.85 23.88h.82v-5.36l-.82.82v4.54zM56.3 19.63h3.44v.8H56.3zm4.25 0H64v.8h-3.44z"/><path d="M60.55 16.2h-.82v7.7h.82v-7.7zm-18.77 3.43h3.44v.8h-3.44zm-4.25 0h3.44v.8h-3.44z"/><path d="M41.78 16.2h-.8v7.7h.8v-7.7zm-23 3.43h3.44v.8h-3.44zm4.25 0h3.44v.8h-3.44z"/><path d="M23.02 16.2h-.82v7.7h.82v-7.7zM4.25 19.63H7.7v.8H4.25z"/><path d="M0 19.63h3.44v.8H0zm4.25 4.25v-7.7h-.8v7.7h.8z"/></g><path d="M808.7 130.12l-113-113-111 111-113.5-113.5-112.5 112.5-110-110-107.5 107.5L18 1.4 19.4 0l121.8 121.8L248.7 14.3l110 110L471.2 11.8l113.5 113.5 111-111 113 113L933.5 2.5l1.4 1.4-126.2 126.2z" fill="#fc3a52"/><defs ><path id="B" d="M845.63 113.45h-1.22v.8h3.44v-.8h-2.22z"/></defs></svg>