<svg xmlns="http://www.w3.org/2000/svg" xmlns:xlink="http://www.w3.org/1999/xlink" viewBox="0 0 592.45 62.34"><g fill="#707070"><path d="M532.72 59.73h2.1v.5h-2.1zm-.5.5v-.5h-2.1v.5h2.1z"/><path d="M532.22 62.34h.5v-4.72h-.5v4.72zm-11.02-2.6h2.1v.5h-2.1z"/><use xlink:href="#B"/><path d="M521.2 57.62h-.5v4.72h.5v-4.72zm-37.2 2.1v.5h.08l.5-.5H484zm2.12-2.1v.58l.5-.5v-.08h-.5zm-11.02 2.1h2.1v.5h-2.1z"/><use xlink:href="#B" x="-46.09"/><path d="M475.1 57.62h-.5v4.72h.5v-4.72zm-83.28 2.1h2.1v.5h-2.1zm3.28 0h-.68v.5h.18l.5-.5z"/><path d="M394.43 57.62h-.5v3.3l.5-.5v-2.8zm-14.13 2.1h2.1v.5h-2.1zm2.6 0h2.1v.5h-2.1z"/><path d="M382.9 62.34v-4.72h-.5v4.72h.5zm-37.18-2.6v.5h.08l.5-.5h-.58zm2.1-2.1v.58l.5-.5v-.08h-.5zm-11.03 2.1h2.1v.5h-2.1zm-2.6 0h2.1v.5h-2.1z"/><path d="M336.8 62.34v-4.72h-.5v4.72h.5zm-83.27-2.6v.5h2.1v-.5h-2.1z"/><path d="M255.64 57.62v2.6l.5-.5v-2.1h-.5zm-11.02 2.1h2.1v.5h-2.1z"/><path d="M242 59.73h2.1v.5H242zm2.62 2.6v-4.72h-.5v4.72h.5zm-37.2-2.6v.5h.08l.5-.5h-.58zm2.1-2.1v.58l.5-.5v-.08h-.5zm-11.02 2.1h2.1v.5h-2.1zm-2.62 0h2.1v.5h-2.1z"/><path d="M198.52 62.34v-4.72h-.5v4.72h.5zm-83.28-2.6v.5h2.1v-.5h-2.1z"/><path d="M117.35 57.62v2.6l.5-.5v-2.1h-.5zm-13.63 2.1h2.1v.5h-2.1zm2.6 0h2.1v.5h-2.1z"/><path d="M106.33 62.34v-4.72h-.5v4.72h.5zm-37.2-2.6v.5h1.44l.5-.5h-1.94zm2.12-2.1v1.93l.5-.5v-1.43h-.5zm-11.03 2.1h2.1v.5h-2.1zm-2.6 0h2.1v.5h-2.1z"/><path d="M60.23 62.34v-4.72h-.5v4.72h.5z"/><use xlink:href="#B" x="23.05" y="-11.53"/><path d="M544.24 48.2h2.1v.5h-2.1z"/><use xlink:href="#C"/><use xlink:href="#B" x="11.53" y="-11.53"/><path d="M532.72 48.2h2.1v.5h-2.1z"/><use xlink:href="#C" x="-11.52"/><use xlink:href="#B" y="-11.53"/><path d="M521.2 48.2h2.1v.5h-2.1z"/><use xlink:href="#C" x="-23.04"/><use xlink:href="#B" x="-11.53" y="-11.53"/><path d="M509.67 48.2h2.1v.5h-2.1z"/><use xlink:href="#C" x="-34.57"/><path d="M495.53 48.2v.5h.08l.5-.5h-.58zm2.12-2.1v.57l.5-.5v-.07h-.5zm-12.9 2.1H484v.5h2.1v-.5h-1.36zm1.86 0h2.1v.5h-2.1z"/><use xlink:href="#C" x="-57.62"/><use xlink:href="#B" x="-46.09" y="-11.53"/><path d="M475.1 48.2h2.1v.5h-2.1z"/><use xlink:href="#C" x="-69.14"/><path d="M463.07 48.7v-.5h-2.1v.5h2.1zm.5-.5h2.1v.5h-2.1z"/><path d="M463.07 50.82h.5V46.1h-.5v4.72zm-59.73-2.62h2.1v.5h-2.1zm3.3 0h-.68v.5h.18l.5-.5z"/><path d="M405.95 46.1h-.5v3.3l.5-.5v-2.8zm-14.13 2.1h2.1v.5h-2.1zm2.6 0h2.1v.5h-2.1z"/><use xlink:href="#D"/><path d="M380.3 48.2h2.1v.5h-2.1zm2.6 0h2.1v.5h-2.1z"/><use xlink:href="#C" x="-161.34"/><path d="M368.77 48.2h2.1v.5h-2.1zm2.6 0h2.1v.5h-2.1z"/><use xlink:href="#D" x="-23.05"/><path d="M357.25 48.2v.5h.07l.5-.5h-.57zm2.1-2.1v.57l.5-.5v-.07h-.5zm-13.64 2.1h2.1v.5h-2.1zm2.6 0h2.1v.5h-2.1z"/><use xlink:href="#D" x="-46.1"/><path d="M334.2 48.2h2.1v.5h-2.1zm2.6 0h2.1v.5h-2.1z"/><use xlink:href="#C" x="-207.44"/><path d="M322.67 48.2h2.1v.5h-2.1zm2.63 0h2.1v.5h-2.1z"/><path d="M324.8 50.82h.5V46.1h-.5v4.72zm-59.75-2.62v.5h2.12v-.5h-2.12z"/><path d="M267.17 46.1v2.6l.5-.5v-2.1h-.5zm-11.03 2.1h2.1v.5h-2.1zm-2.6 0h2.1v.5h-2.1z"/><use xlink:href="#D" x="-138.29"/><path d="M244.62 48.2h2.1v.5h-2.1zm-2.62 0h2.1v.5H242z"/><use xlink:href="#C" x="-299.62"/><path d="M230.48 48.2h2.1v.5h-2.1zm2.62 0h2.1v.5h-2.1z"/><use xlink:href="#D" x="-161.33"/><path d="M218.96 48.2v.5h.08l.5-.5h-.58zm2.1-2.1v.57l.5-.5v-.07h-.5zm-13.64 2.1h2.1v.5h-2.1zm2.62 0h2.1v.5h-2.1z"/><use xlink:href="#D" x="-184.39"/><path d="M198.52 48.2h2.1v.5h-2.1zm-2.62 0h2.1v.5h-2.1z"/><use xlink:href="#C" x="-345.72"/><path d="M184.38 48.2h2.1v.5h-2.1zm2.62 0h2.1v.5H187z"/><path d="M186.5 50.82h.5V46.1h-.5v4.72zm-59.73-2.62v.5h2.1v-.5h-2.1z"/><path d="M128.88 46.1v2.6l.5-.5v-2.1h-.5zm-11.03 2.1h2.1v.5h-2.1zm-2.6 0h2.1v.5h-2.1z"/><use xlink:href="#D" x="-276.58"/><path d="M106.33 48.2h2.1v.5h-2.1zm-2.6 0h2.1v.5h-2.1z"/><use xlink:href="#C" x="-437.91"/><path d="M92.2 48.2h2.1v.5h-2.1zm2.6 0h2.1v.5h-2.1z"/><use xlink:href="#D" x="-299.63"/><path d="M80.67 48.2v.5h1.43l.5-.5h-1.93zm2.1-2.1v1.93l.5-.5V46.1h-.5zm-13.64 2.1h2.1v.5h-2.1zm2.62 0h2.1v.5h-2.1z"/><use xlink:href="#D" x="-322.67"/><path d="M57.62 48.2h2.1v.5h-2.1zm2.6 0h2.1v.5h-2.1z"/><use xlink:href="#C" x="-484.01"/><path d="M46.1 48.2h2.1v.5h-2.1zm2.6 0h2.1v.5h-2.1z"/><use xlink:href="#D" x="-345.73"/><path d="M555.77 36.68h2.1v.5h-2.1zm-1.87.02h-.75v.5h2.12v-.5h-1.37z"/><use xlink:href="#E"/><use xlink:href="#B" x="23.05" y="-23.03"/><path d="M544.24 36.68h2.1v.5h-2.1z"/><use xlink:href="#E" x="-11.53"/><path d="M532.72 36.68h2.1v.5h-2.1z"/><use xlink:href="#B" x="11.53" y="-23.03"/><use xlink:href="#E" x="-23.05"/><path d="M521.2 36.68h2.1v.5h-2.1z"/><use xlink:href="#B" y="-23.03"/><path d="M520.7 34.57v4.73h.5v-4.73h-.5zm-11.03 2.1h2.1v.5h-2.1zm-1.87.52h1.36v-.5h-1.53l-.5.5h.67z"/><path d="M509.17 39.3h.5v-4.65l-.5.5v4.15zm-24.4-2.6H484v.5h2.1v-.5h-1.36zm1.86-.02h2.1v.5h-2.1z"/><use xlink:href="#E" x="-69.15"/><use xlink:href="#B" x="-46.09" y="-23.03"/><path d="M475.1 36.68h2.1v.5h-2.1z"/><use xlink:href="#E" x="-80.67"/><path d="M463.57 36.68h2.1v.5h-2.1z"/><use xlink:href="#B" x="-57.63" y="-23.03"/><use xlink:href="#E" x="-92.2"/><path d="M452.05 36.68h2.1v.5h-2.1zm-2.6 0h2.1v.5h-2.1z"/><path d="M452.05 39.3v-4.73h-.5v4.73h.5zm-37.18-2.62h2.1v.5h-2.1zm3.3.02h-.68v.5h.18l.5-.5z"/><path d="M417.48 34.57h-.5v3.3l.5-.5v-2.8zm-14.14 2.1h2.1v.5h-2.1zm2.6 0h2.1v.5h-2.1z"/><path d="M405.95 39.3v-4.73h-.5v4.73h.5zm-14.13-2.62h2.1v.5h-2.1zm2.6 0h2.1v.5h-2.1z"/><use xlink:href="#E" x="-161.34"/><path d="M382.9 36.68h2.1v.5h-2.1zm-2.6 0h2.1v.5h-2.1z"/><path d="M382.4 34.57v4.73h.5v-4.73h-.5zm-11.02 2.1h2.1v.5h-2.1zm-2.53.52h2.03v-.5h-1.53l-.5.5z"/><path d="M370.88 39.3h.5v-4.65l-.5.5v4.15zm-25.16-2.62h2.1v.5h-2.1zm2.6 0h2.1v.5h-2.1z"/><use xlink:href="#E" x="-207.44"/><path d="M334.2 36.68h2.1v.5h-2.1zm2.6 0h2.1v.5h-2.1z"/><use xlink:href="#E" x="-218.97"/><path d="M325.3 36.68h2.1v.5h-2.1zm-2.63 0h2.1v.5h-2.1z"/><path d="M325.3 39.3v-4.73h-.5v4.73h.5zm-11.54-2.62h2.1v.5h-2.1zm-2.6 0h2.1v.5h-2.1z"/><path d="M313.76 39.3v-4.73h-.5v4.73h.5zm-37.18-2.6v.5h2.1v-.5h-2.1zm2.12-2.13v2.6l.5-.5v-2.1h-.5zm-11.03 2.1h2.1v.5h-2.1z"/><path d="M265.05 36.68h2.1v.5h-2.1zm2.62 2.62v-4.73h-.5v4.73h.5zm-14.14-2.62h2.1v.5h-2.1zm2.6 0h2.1v.5h-2.1z"/><use xlink:href="#E" x="-299.63"/><path d="M242 36.68h2.1v.5H242zm2.62 0h2.1v.5h-2.1z"/><path d="M244.12 34.57v4.73h.5v-4.73h-.5zm-13.56 2.63h2.03v-.5h-1.53l-.5.5zm2.54-.52h2.1v.5h-2.1z"/><path d="M232.6 39.3h.5v-4.65l-.5.5v4.15zm-22.55-2.62h2.1v.5h-2.1zm-2.62 0h2.1v.5h-2.1z"/><use xlink:href="#E" x="-345.73"/><path d="M198.52 36.68h2.1v.5h-2.1zm-2.62 0h2.1v.5h-2.1z"/><use xlink:href="#E" x="-357.25"/><path d="M187 36.68h2.1v.5H187zm-2.62 0h2.1v.5h-2.1z"/><path d="M187 39.3v-4.73h-.5v4.73h.5zm-14.14-2.62h2.1v.5h-2.1zm2.6 0h2.1v.5h-2.1z"/><path d="M175.47 39.3v-4.73h-.5v4.73h.5zm-37.17-2.6v.5h2.1v-.5h-2.1z"/><path d="M140.4 34.57v2.62l.5-.5v-2.12h-.5zm-13.64 2.1h2.1v.5h-2.1zm2.62 0h2.1v.5h-2.1z"/><path d="M129.38 39.3v-4.73h-.5v4.73h.5zm-11.53-2.62h2.1v.5h-2.1zm-2.6 0h2.1v.5h-2.1z"/><use xlink:href="#E" x="-437.92"/><path d="M106.33 36.68h2.1v.5h-2.1zm-2.6 0h2.1v.5h-2.1z"/><path d="M105.83 34.57v4.73h.5v-4.73h-.5zm-12.2 2.63h.68v-.5h-.18l-.5.5zm1.17-.52h2.1v.5h-2.1z"/><path d="M94.3 39.3h.5V36l-.5.5v2.8zm-22.54-2.62h2.1v.5h-2.1zm-2.62 0h2.1v.5h-2.1z"/><use xlink:href="#E" x="-484.01"/><path d="M57.62 36.68h2.1v.5h-2.1zm2.6 0h2.1v.5h-2.1z"/><use xlink:href="#E" x="-495.54"/><path d="M48.7 36.68h2.1v.5h-2.1zm-2.6 0h2.1v.5h-2.1z"/><use xlink:href="#E" x="-507.07"/><path d="M37.18 36.68h2.1v.5h-2.1zm-2.6 0h2.1v.5h-2.1z"/><path d="M37.2 39.3v-4.73h-.5v4.73h.5z"/><use xlink:href="#B" x="46.1" y="-34.57"/><path d="M567.3 25.16h2.1v.5h-2.1z"/><path d="M567.3 23.05h-.5v4.72h.5v-4.72zm-11.53 2.1h2.1v.5h-2.1zm-1.87 0h-.75v.5h2.12v-.5h-1.37z"/><path d="M555.77 23.05h-.5v4.72h.5v-4.72z"/><use xlink:href="#B" x="23.05" y="-34.57"/><path d="M544.24 25.16h2.1v.5h-2.1z"/><path d="M544.24 23.05h-.5v4.72h.5v-4.72zm-11.52 2.1h2.1v.5h-2.1z"/><use xlink:href="#B" x="11.53" y="-34.57"/><path d="M532.72 23.05h-.5v4.72h.5v-4.72zm-13.4 2.1h-.17l-.5.5h2.03v-.5h-1.36zm1.87 0h2.1v.5h-2.1z"/><path d="M520.7 23.63v4.14h.5v-4.64l-.5.5z"/><use xlink:href="#B" x="-46.09" y="-34.57"/><path d="M475.1 25.16h2.1v.5h-2.1z"/><path d="M475.1 23.05h-.5v4.72h.5v-4.72zm-11.53 2.1h2.1v.5h-2.1z"/><use xlink:href="#B" x="-57.63" y="-34.57"/><path d="M463.57 23.05h-.5v4.72h.5v-4.72zm-11.52 2.1h2.1v.5h-2.1zm-2.6 0h2.1v.5h-2.1z"/><path d="M452.05 23.05h-.5v4.72h.5v-4.72zm-14.15 2.1h2.1v.5h-2.1zm2.63 0h2.1v.5h-2.1z"/><path d="M440.53 27.77v-4.72h-.5v4.72h.5zm-10.85-2.6H429v.5h.18l.5-.5zm-3.28 0h2.1v.5h-2.1z"/><path d="M429 23.05h-.5v3.3l.5-.5v-2.8zm-11.52 2.1h2.1v.5h-2.1zm-2.6 0h2.1v.5h-2.1z"/><path d="M417.48 27.77v-4.72h-.5v4.72h.5zm-11.53-2.6h2.1v.5h-2.1zm-2.6 0h2.1v.5h-2.1z"/><path d="M405.95 23.05h-.5v4.72h.5v-4.72zm-11.52 2.1h2.1v.5h-2.1zm-2.6 0h2.1v.5h-2.1z"/><path d="M394.43 23.05h-.5v4.72h.5v-4.72zm-11.53 2.1h2.1v.5h-2.1zm-2.03 0l-.5.5h2.04v-.5h-1.54z"/><path d="M382.4 23.63v4.14h.5v-4.64l-.5.5zm-48.2 1.53h2.1v.5h-2.1zm2.6 0h2.1v.5h-2.1z"/><path d="M336.8 23.05h-.5v4.72h.5v-4.72zm-11.5 2.1h2.1v.5h-2.1z"/><path d="M322.67 25.16h2.1v.5h-2.1zm2.63-2.1h-.5v4.72h.5v-4.72zm-14.15 2.1h2.1v.5h-2.1zm2.6 0h2.1v.5h-2.1z"/><path d="M313.76 23.05h-.5v4.72h.5v-4.72zm-14.13 2.1h2.1v.5h-2.1zm2.6 0h2.1v.5h-2.1z"/><path d="M302.24 27.77v-4.72h-.5v4.72h.5zm-11.54-2.6zm-2.6 0h2.1v.5h-2.1z"/><path d="M290.7 23.05h-.5v2.6l.5-.5v-2.1zm-11.5 2.1h2.1v.5h-2.1z"/><path d="M276.58 25.16h2.1v.5h-2.1zm2.62 2.6v-4.72h-.5v4.72h.5zm-11.53-2.6h2.1v.5h-2.1zm-2.62 0h2.1v.5h-2.1z"/><path d="M267.67 23.05h-.5v4.72h.5v-4.72zm-14.14 2.1h2.1v.5h-2.1zm2.6 0h2.1v.5h-2.1z"/><path d="M256.14 23.05h-.5v4.72h.5v-4.72zm-11.52 2.1h2.1v.5h-2.1zm-2.04 0l-.5.5h2.04v-.5h-1.54z"/><path d="M244.12 23.63v4.14h.5v-4.64l-.5.5zm-45.6 1.53h2.1v.5h-2.1z"/><path d="M195.9 25.16h2.1v.5h-2.1zm2.62-2.1h-.5v4.72h.5v-4.72zM187 25.16h2.1v.5H187zm-2.62 0h2.1v.5h-2.1z"/><path d="M187 23.05h-.5v4.72h.5v-4.72zm-14.14 2.1h2.1v.5h-2.1zm2.6 0h2.1v.5h-2.1z"/><path d="M175.47 23.05h-.5v4.72h.5v-4.72zm-14.13 2.1h2.1v.5h-2.1zm2.6 0h2.1v.5h-2.1z"/><path d="M163.95 27.77v-4.72h-.5v4.72h.5zm-14.15-2.6v.5h2.12v-.5h-2.12zm2.13-2.1v2.6l.5-.5v-2.1h-.5zm-13.63 2.1h2.1v.5h-2.1zm2.6 0h2.1v.5h-2.1z"/><path d="M140.9 27.77v-4.72h-.5v4.72h.5zm-11.52-2.6h2.1v.5h-2.1z"/><path d="M126.76 25.16h2.1v.5h-2.1zm2.62-2.1h-.5v4.72h.5v-4.72zm-14.14 2.1h2.1v.5h-2.1zm2.6 0h2.1v.5h-2.1z"/><path d="M117.85 23.05h-.5v4.72h.5v-4.72zm-11.52 2.1h2.1v.5h-2.1zm-.68 0l-.5.5h.68v-.5h-.18z"/><path d="M105.83 24.98v2.8h.5v-3.3l-.5.5zm-45.6.18h2.1v.5h-2.1zm-2.6 0h2.1v.5h-2.1z"/><path d="M60.23 23.05h-.5v4.72h.5v-4.72zm-14.13 2.1h2.1v.5h-2.1zm2.6 0h2.1v.5h-2.1z"/><path d="M48.7 23.05h-.5v4.72h.5v-4.72zm-14.13 2.1h2.1v.5h-2.1zm2.6 0h2.1v.5h-2.1z"/><path d="M37.2 23.05h-.5v4.72h.5v-4.72zm-11.54 2.1h2.1v.5h-2.1z"/><path d="M23.05 25.16h2.1v.5h-2.1zm2.6 2.6v-4.72h-.5v4.72h.5z"/><use xlink:href="#B" x="57.62" y="-46.09"/><path d="M578.8 13.64h2.1v.5h-2.1z"/><use xlink:href="#E" x="23.03" y="-23.05"/><path d="M567.3 13.64h2.1v.5h-2.1z"/><use xlink:href="#B" x="46.1" y="-46.09"/><use xlink:href="#E" x="11.53" y="-23.05"/><path d="M555.77 13.64h2.1v.5h-2.1zm-1.87 0h-.75v.5h2.12v-.5h-1.37z"/><use xlink:href="#E" y="-23.05"/><use xlink:href="#B" x="23.05" y="-46.09"/><path d="M544.24 13.64h2.1v.5h-2.1z"/><use xlink:href="#E" x="-11.53" y="-23.05"/><path d="M530.86 14.14h1.36v-.5h-1.54l-.5.5h.68zm1.86-.5h2.1v.5h-2.1z"/><path d="M532.22 16.25h.5V11.6l-.5.5v4.15zm-68.65-2.6h2.1v.5h-2.1z"/><use xlink:href="#B" x="-57.63" y="-46.09"/><use xlink:href="#E" x="-92.2" y="-23.05"/><path d="M449.44 13.64h2.1v.5h-2.1zm2.6 0h2.1v.5h-2.1z"/><use xlink:href="#E" x="-103.72" y="-23.05"/><path d="M442.64 14.14v-.5h-1.44l-.5.5h1.94zm-2.1 2.1V14.3l-.5.5v1.44h.5zm-25.66-2.6h2.1v.5h-2.1zm2.6 0h2.1v.5h-2.1z"/><use xlink:href="#E" x="-138.29" y="-23.05"/><path d="M405.95 13.64h2.1v.5h-2.1zm-2.6 0h2.1v.5h-2.1z"/><use xlink:href="#E" x="-149.82" y="-23.05"/><path d="M391.9 14.14h2.03v-.5h-1.53l-.5.5zm2.53-.5h2.1v.5h-2.1z"/><path d="M393.93 16.25h.5V11.6l-.5.5v4.15zm-71.26-2.6h2.1v.5h-2.1zm2.63 0h2.1v.5h-2.1z"/><use xlink:href="#E" x="-230.47" y="-23.05"/><path d="M311.15 13.64h2.1v.5h-2.1zm2.6 0h2.1v.5h-2.1z"/><use xlink:href="#E" x="-242.01" y="-23.05"/><path d="M302.24 13.64h2.1v.5h-2.1zm-.5.5z"/><path d="M301.74 16.25h.5v-2.6l-.5.5v2.1zm-25.16-2.6h2.1v.5h-2.1zm2.62 0h2.1v.5h-2.1z"/><use xlink:href="#E" x="-276.57" y="-23.05"/><path d="M267.67 13.64h2.1v.5h-2.1zm-2.62 0h2.1v.5h-2.1z"/><use xlink:href="#E" x="-288.1" y="-23.05"/><path d="M253.6 14.14h2.03v-.5h-1.53l-.5.5zm2.54-.5h2.1v.5h-2.1z"/><path d="M255.64 16.25h.5V11.6l-.5.5v4.15zm-71.26-2.6h2.1v.5h-2.1zm2.62 0h2.1v.5H187z"/><use xlink:href="#E" x="-368.77" y="-23.05"/><path d="M172.86 13.64h2.1v.5h-2.1zm2.6 0h2.1v.5h-2.1z"/><use xlink:href="#E" x="-380.3" y="-23.05"/><path d="M163.45 14.14zm.5-.5h2.1v.5h-2.1z"/><path d="M163.45 16.25h.5v-2.6l-.5.5v2.1zm-25.15-2.6h2.1v.5h-2.1zm2.6 0h2.1v.5h-2.1z"/><use xlink:href="#E" x="-414.87" y="-23.05"/><path d="M126.76 13.64h2.1v.5h-2.1zm2.62 0h2.1v.5h-2.1z"/><use xlink:href="#E" x="-426.39" y="-23.05"/><path d="M117.85 13.64h2.1v.5h-2.1zm-1.18.5h.68v-.5h-.18l-.5.5z"/><path d="M117.35 16.25h.5v-3.3l-.5.5v2.8zm-71.25-2.6h2.1v.5h-2.1zm2.6 0h2.1v.5h-2.1z"/><use xlink:href="#E" x="-507.07" y="-23.05"/><path d="M34.57 13.64h2.1v.5h-2.1zm2.6 0h2.1v.5h-2.1z"/><use xlink:href="#E" x="-518.57" y="-23.05"/><path d="M23.05 13.64h2.1v.5h-2.1zm2.6 0h2.1v.5h-2.1z"/><use xlink:href="#E" x="-530.11" y="-23.05"/><path d="M11.52 13.64h2.1v.5h-2.1zm2.62 0h2.1v.5h-2.1z"/><path d="M14.14 16.25v-4.73h-.5v4.73h.5zM590.34 2.1h2.1v.5h-2.1z"/><use xlink:href="#B" x="69.15" y="-57.63"/><path d="M590.34 0h-.5v4.72h.5V0z"/><use xlink:href="#B" x="57.62" y="-57.63"/><path d="M578.8 2.1h2.1v.5h-2.1z"/><path d="M578.8 0h-.5v4.72h.5V0z"/><use xlink:href="#B" x="46.1" y="-57.63"/><path d="M567.3 2.1h2.1v.5h-2.1z"/><path d="M567.3 0h-.5v4.72h.5V0zm-11.53 2.1h2.1v.5h-2.1zm-1.87 0h-.75v.5h2.12v-.5h-1.37z"/><path d="M555.77 0h-.5v4.72h.5V0zm-13.4 2.6h1.36v-.5h-1.53l-.5.5h.67zm1.86-.5h2.1v.5h-2.1z"/><path d="M543.74 4.72h.5V0H544v.33l-.25.25v4.14zM454.16 2.6v-.5h-1.43l-.5.5h1.93zm-2.1 2.12V2.8l-.5.5v1.43h.5zM403.42 2.6h2.03v-.5h-1.53l-.5.5zm2.53-.5h2.1v.5h-2.1z"/><path d="M405.45 4.72h.5V.08l-.5.5v4.14zm-92.2-2.12zm.5-.5h2.1v.5h-2.1z"/><path d="M313.26 4.72h.5V2.1l-.5.5v2.1zm-45.6-2.62h2.1v.5h-2.1zm-2.54.5h2.04v-.5h-1.54l-.5.5z"/><path d="M267.17 4.72h.5V.08l-.5.5v4.14zm-92.2-2.12zm.5-.5h2.1v.5h-2.1z"/><path d="M174.97 4.72h.5V2.1l-.5.5v2.1zm-45.6-2.62h2.1v.5h-2.1zm-1.18.5h.68v-.5h-.18l-.5.5z"/><path d="M128.88 4.72h.5v-3.3l-.5.5v2.8zM34.57 2.1h2.1v.5h-2.1zm2.6 0h2.1v.5h-2.1z"/><path d="M37.2 0h-.5v4.72h.5V0zM25.66 2.1h2.1v.5h-2.1z"/><path d="M23.05 2.1h2.1v.5h-2.1zm2.6-2.1h-.5v4.72h.5V0zM11.52 2.1h2.1v.5h-2.1zm2.62 0h2.1v.5h-2.1z"/><path d="M14.14 0h-.5v4.72h.5V0zM2.6 2.1h2.1v.5H2.6zM0 2.1h2.1v.5H0z"/><path d="M2.6 4.72V0h-.5v4.72h.5z"/></g><defs ><path id="B" d="M519.33 59.73h-.75v.5h2.1v-.5h-1.36z"/><path id="C" d="M544.24 46.1h-.5v4.72h.5V46.1z"/><path id="D" d="M394.43 50.82V46.1h-.5v4.72h.5z"/><path id="E" d="M555.77 34.57h-.5v4.73h.5v-4.73z"/></defs></svg>