<svg xmlns="http://www.w3.org/2000/svg" width="420" height="420" viewBox="0 0 420 420"><g transform="translate(-1221 -501)"><path d="M0,0H420V420H0Z" transform="translate(1221 501)" fill="none"/><path d="M270.587,23.469c-7.45-45.6-40.726-103.833-128.636-103.833C74.405-80.364,15.8-28.722,15.8,44.894c0,57.685,36.256,101.635,95.856,114.271l48.176,9.889c23.343,4.944,37.746,19.228,37.746,39.006,0,24.173-18.873,40.654-49.666,40.654-48.176,0-70.029-31.315-73.009-67.024L2.886,200.918c4.967,54.938,46.686,124.709,144.032,124.709,83.936,0,130.126-62.08,130.126-123.061,0-55.487-34.766-103.283-101.816-117.018l-47.183-9.889C103.708,70.715,93.279,56.981,93.279,38.3c0-21.426,18.873-41.753,48.176-41.753,42.713,0,56.123,30.765,58.606,48.895Zm47.68,242.276c0,30.216,22.846,56.586,50.66,56.586s51.156-26.37,51.156-56.586c0-30.765-23.343-56.037-51.156-56.037S318.267,234.979,318.267,265.744Z" transform="translate(1220.114 589.051)" fill="#fc3a52"/></g></svg>