<svg xmlns="http://www.w3.org/2000/svg" width="50.05" height="45.862" viewBox="0 0 50.05 45.862"><g transform="translate(-934.975 -6383.75)"><path d="M959.976,6391.666c.785-1.029,1.511-2.091,2.348-3.055a13.319,13.319,0,0,1,7.668-4.649,11.28,11.28,0,0,1,9.289,2.32,14.49,14.49,0,0,1,5.528,9.718c.764,5.015-.566,9.6-2.959,13.949a42.169,42.169,0,0,1-10.226,11.861,77.435,77.435,0,0,1-11.192,7.666.747.747,0,0,1-.865,0,72.241,72.241,0,0,1-13.414-9.613,37.33,37.33,0,0,1-9.279-12.509,21.257,21.257,0,0,1-1.892-9.034,15.476,15.476,0,0,1,4.9-11.361,11.685,11.685,0,0,1,14.664-1.121,17.889,17.889,0,0,1,5.092,5.362c.1.159.211.312.319.466C959.963,6391.672,959.99,6391.669,959.976,6391.666Z" fill="#fff"/></g></svg>