<svg xmlns="http://www.w3.org/2000/svg" width="58" height="58" viewBox="0 0 58 58"><g transform="translate(-1309 -6187)"><path d="M24.193,0a24.191,24.191,0,0,0-5.866,47.66,3.267,3.267,0,0,1-.181-1.149V42.4H15.121A4.132,4.132,0,0,1,11.31,40.34c-.787-1.452-.908-3.69-2.9-5.082-.605-.484-.121-.968.544-.908a6.345,6.345,0,0,1,3.266,2.479A3.089,3.089,0,0,0,15.422,38.4a24.388,24.388,0,0,0,3.387-.243,7.5,7.5,0,0,1,3.206-3.931c-8.1-.968-11.975-4.96-11.975-10.4a9.984,9.984,0,0,1,2.722-6.533c-.544-1.876-1.27-5.747.243-7.258A8.585,8.585,0,0,1,19.355,13a18.626,18.626,0,0,1,5.866-.968A18.334,18.334,0,0,1,31.087,13a8.582,8.582,0,0,1,6.35-2.963c1.452,1.452.787,5.382.181,7.258a9.8,9.8,0,0,1,2.662,6.533c0,5.444-3.811,9.436-11.854,10.283,2.238,1.149,3.811,4.415,3.811,6.834v5.51c0,.181-.06.362-.06.544A24.172,24.172,0,0,0,24.193,0Z" transform="translate(1314 6192)"/><rect width="58" height="58" transform="translate(1309 6187)" fill="none"/></g></svg>