<svg xmlns="http://www.w3.org/2000/svg" xmlns:xlink="http://www.w3.org/1999/xlink" width="58" height="58" viewBox="0 0 58 58"><defs><radialGradient id="a" cx="37.047" cy="129.234" r="35.463" gradientTransform="translate(0.334 -1.526) scale(0.973 0.942)" gradientUnits="userSpaceOnUse"><stop offset="0" stop-color="#39464d" stop-opacity="0.98"/><stop offset="1" stop-color="#05151f"/></radialGradient></defs><g transform="translate(-354 -5966)"><g transform="translate(358 5971)"><path d="M24.8,155.549H70.192V199.7H24.8Z" transform="translate(-22.74 -153.486)" fill="url(#a)"/><path d="M2.063,132.809H47.452V176.96H2.063ZM0,179.023H49.515V130.746H0Zm28.987-27.955c0-.248,0-.846-.1-2a.237.237,0,0,1,.165-.268,21.7,21.7,0,0,1,7.592-1.424c.165,0,.248.041.248.206v2.971c0,.165-.062.206-.248.206a12.141,12.141,0,0,0-3.941.413v13.018c0,.165-.062.248-.248.248H29.214c-.165,0-.248-.062-.248-.248V151.068h.021ZM13.72,164.437c-.248,0-.31-.1-.31-.309V141.949c0-.165.062-.268.248-.268h3.26c.165,0,.206.062.206.248v19.1h8.5c.165,0,.227.062.186.248l-.516,2.93a.293.293,0,0,1-.31.248H13.72Z" transform="translate(0 -130.746)" fill="#aad1eb"/></g><rect width="58" height="58" transform="translate(354 5966)" fill="none"/></g></svg>