<svg xmlns="http://www.w3.org/2000/svg" xmlns:xlink="http://www.w3.org/1999/xlink" width="58" height="58" viewBox="0 0 58 58"><defs><linearGradient id="a" x1="0.5" y1="0.04" x2="0.5" y2="1" gradientUnits="objectBoundingBox"><stop offset="0" stop-color="#fdfdfd"/><stop offset="1" stop-color="#cbcbcb"/></linearGradient><linearGradient id="b" x1="0.5" y1="0.04" x2="0.5" y2="1" gradientUnits="objectBoundingBox"><stop offset="0" stop-color="#b2e198"/><stop offset="1" stop-color="#04a171"/></linearGradient></defs><g transform="translate(-866 -6180)"><g transform="translate(871 6185)"><ellipse cx="24.254" cy="24.254" rx="24.254" ry="24.254" transform="translate(0 0)" fill="url(#a)"/><ellipse cx="22.177" cy="22.177" rx="22.177" ry="22.177" transform="translate(2.05 2.104)" fill="url(#b)"/><path d="M55.943,63.566q-.388.6-.757,1.211-.389-1.066-.7-2.158,1.061-.152,2.252-.237Q56.332,62.967,55.943,63.566Zm19.565,1.418a11.075,11.075,0,0,0-3.331-2.049,32.571,32.571,0,0,0-10.679-2.2q-.714-.038-1.428-.053c3.1-3.7,6.086-5.662,7.827-5.728a1.552,1.552,0,0,1,.921.216c.815.53,1.041,2.173.6,4.395a.809.809,0,1,0,1.588.312c.75-3.82-.3-5.406-1.311-6.064a3.133,3.133,0,0,0-1.865-.477c-2.679.1-6.431,2.958-9.856,7.361a34.484,34.484,0,0,0-3.886.347q-.2-.9-.308-1.806c-.307-2.531.07-4.328,1.008-4.806a1.3,1.3,0,0,1,.5-.135,5.4,5.4,0,0,1,3.328,1.586.809.809,0,1,0,1.034-1.245c-1.679-1.394-3.187-2.052-4.483-1.954a2.924,2.924,0,0,0-1.118.307,3.612,3.612,0,0,0-1.77,2.529,11.113,11.113,0,0,0-.109,3.915c.074.61.182,1.244.322,1.9a19.837,19.837,0,0,0-2.636.734c-3.475,1.255-4.277,2.909-4.338,4.076-.058,1.115.512,2.773,3.562,4.346a.809.809,0,1,0,.742-1.439c-1.754-.9-2.734-1.933-2.687-2.823.066-1.253,2.166-2.579,5.743-3.326a34.313,34.313,0,0,0,1.267,3.7,28.917,28.917,0,0,0-2.71,6.908,11.092,11.092,0,0,0-.3,3.9,3.609,3.609,0,0,0,1.5,2.7,3.1,3.1,0,0,0,1.722.484,7.936,7.936,0,0,0,4.428-1.809.809.809,0,1,0-.94-1.318c-1.883,1.343-3.5,1.824-4.328,1.286-.882-.573-1.069-2.4-.5-4.881a25.61,25.61,0,0,1,1.97-5.351q.3.644.623,1.277a32.616,32.616,0,0,0,6.354,8.871,11.09,11.09,0,0,0,3.227,2.212,4.56,4.56,0,0,0,1.716.374,2.971,2.971,0,0,0,1.369-.321,3.552,3.552,0,0,0,1.737-2.4,10.454,10.454,0,0,0,.179-3.7,31.177,31.177,0,0,0-3.05-9.844.809.809,0,1,0-1.459.7,29.544,29.544,0,0,1,2.9,9.307c.241,2.361-.148,4.042-1.041,4.5-.937.478-2.609-.273-4.473-2.009a30.982,30.982,0,0,1-6.015-8.42q-.594-1.166-1.11-2.368.641-1.145,1.355-2.245T58.8,62.3l.4,0c.7,0,1.44.017,2.217.058a30.939,30.939,0,0,1,10.13,2.072c2.341,1,3.706,2.22,3.651,3.272-.047.893-1.132,1.816-2.977,2.533a.809.809,0,1,0,.586,1.509c3.207-1.245,3.95-2.839,4.008-3.957a3.61,3.61,0,0,0-1.3-2.8Z" transform="translate(-36.915 -42.707)" fill="#f2f8f6"/><path d="M119.194,121.572a1.769,1.769,0,1,0,1.769-1.77,1.769,1.769,0,0,0-1.769,1.77" transform="translate(-96.61 -97.103)" fill="#f1f8f3"/></g><rect width="58" height="58" transform="translate(866 6180)" fill="none"/></g></svg>