<svg xmlns="http://www.w3.org/2000/svg" width="58" height="58" viewBox="0 0 58 58"><g transform="translate(-348 -6061)"><g transform="translate(353 6070.1)"><path d="M241.1,1326.4l-2.566.938-.137,7.634,8.884-3.245c-3.05-1.021-5.274-2.821-6.181-5.327" transform="translate(-233.54 -1299.459)" fill="#fdbd39"/><path d="M8.906,930.3,0,933.553l5,5.761,2.566-.938c-.905-2.5-.347-5.316,1.343-8.077" transform="translate(0 -911.434)" fill="#f69833"/><path d="M366.63,283.295c-11.34,4.142-18.652,12.692-16.328,19.093l41.066-15c-2.324-6.4-13.4-8.234-24.737-4.091" transform="translate(-342.738 -275.447)" fill="#fecf33"/><path d="M395.637,609.693c11.34-4.142,18.665-12.653,16.328-19.093l-41.066,15c2.336,6.442,13.4,8.236,24.737,4.093" transform="translate(-363.339 -578.659)" fill="#ee6723"/><path d="M412.064,590.5,371,605.5c.8,2.218,3.871,3.311,8.172,3.311a46.264,46.264,0,0,0,15.162-3.082c11.34-4.142,19.317-10.851,17.729-15.23" transform="translate(-363.437 -578.561)" fill="#f69833"/><path d="M394.211,428.2a46.274,46.274,0,0,0-15.162,3.082c-11.34,4.142-19.317,10.849-17.729,15.228l41.066-15c-.805-2.218-3.871-3.309-8.174-3.309" transform="translate(-353.757 -419.569)" fill="#fdbd39"/><g transform="translate(15.881 -0.1)"><path d="M801.342,192.143c-1.209,0-2.99-1.091-5.3-3.243a77.514,77.514,0,0,1-15.625-22.4c-1.58-3.755-1.806-6.063-.671-6.862a1.514,1.514,0,0,1,.893-.263c.923,0,2.725.687,6.054,3.965l.073.071-.01.1c-.022.236-.043.473-.061.707l-.037.463-.326-.328c-3.588-3.614-5.166-4-5.679-4a.593.593,0,0,0-.347.088c-.493.347-.526,2.043,1.007,5.681a67.63,67.63,0,0,0,6.721,11.715,67.352,67.352,0,0,0,8.672,10.347c2.891,2.7,4.193,2.988,4.619,2.988a.6.6,0,0,0,.355-.094c.52-.365.52-2.181-1.188-6.1l-.079-.179.171-.094c.171-.094.338-.186.493-.275l.206-.116.1.216c1.211,2.776,2.344,6.305.858,7.349a1.522,1.522,0,0,1-.9.263Zm0-.428v0Z" transform="translate(-779.038 -156.125)" fill="#ee6723"/><path d="M1135.053,30.916l-.016.212c-.287,3.547-1.042,7.812-3.011,7.985-.041,0-.082,0-.12,0-1.337,0-2.6-1.916-3.759-5.694a68.519,68.519,0,0,1-2.393-13.513,68.687,68.687,0,0,1,.018-13.725c.5-4.044,1.456-6.156,2.838-6.279.041,0,.084-.006.124-.006.97,0,2.432,1.1,3.928,6.215l-.977.188a20.117,20.117,0,0,0-1.584-4.057c-.5-.883-.987-1.37-1.368-1.37a.262.262,0,0,0-.039,0c-.6.053-1.472,1.5-1.957,5.427a67.7,67.7,0,0,0-.016,13.519,67.685,67.685,0,0,0,2.354,13.311,18.139,18.139,0,0,0,1.529,3.747c.477.811.94,1.258,1.3,1.258a.223.223,0,0,0,.037,0c.573-.049,1.653-1.561,2.108-6.88Z" transform="translate(-1118.361 0.1)" fill="#ee6723"/></g></g><rect width="58" height="58" transform="translate(348 6061)" fill="none"/></g></svg>