<svg xmlns="http://www.w3.org/2000/svg" xmlns:xlink="http://www.w3.org/1999/xlink" width="58" height="58" viewBox="0 0 58 58"><defs><radialGradient id="a" cx="37.047" cy="129.234" r="35.463" gradientTransform="translate(0.334 -1.526) scale(0.973 0.942)" gradientUnits="userSpaceOnUse"><stop offset="0" stop-color="#442f55" stop-opacity="0.98"/><stop offset="1" stop-color="#12002c"/></radialGradient></defs><g transform="translate(-351 -5853)"><g transform="translate(355 5858)"><path d="M24.8,155.549H70.192V199.7H24.8Z" transform="translate(-22.74 -153.486)" fill="url(#a)"/><path d="M2.063,132.809H47.452V176.96H2.063ZM0,179.023H49.515V130.746H0Zm35.032-25.005a9.127,9.127,0,0,0,1.527-.041c0-.144.041-.248.041-.351,0-1.114-.536-3.177-2.682-3.177-1.981,0-2.826,1.733-3.033,3.569h4.147Zm-4.188,2.826c.041,2.785,1.362,4.663,4.5,4.663a8.075,8.075,0,0,0,3.363-.639c.144-.062.248-.041.248.144v2.579a.437.437,0,0,1-.206.413,9.356,9.356,0,0,1-4.147.784c-5.447,0-7.489-4.023-7.489-8.5,0-4.869,2.517-8.851,6.953-8.851,4.5,0,6.066,3.775,6.066,6.85a10.433,10.433,0,0,1-.165,2.187.307.307,0,0,1-.268.268,29.866,29.866,0,0,1-3.445.144H30.844Zm-11.058-2.1c-.578-2.29-1.981-7.283-2.5-9.7h-.041c-.433,2.414-1.568,6.5-2.414,9.7Zm-5.8,3.342-1.63,6.169c-.041.165-.1.227-.31.227H9.016c-.206,0-.248-.062-.206-.309l5.859-20.487a6.324,6.324,0,0,0,.206-1.692c0-.144.062-.206.165-.206h4.333c.144,0,.206.041.248.206l6.561,22.22c.041.165,0,.268-.165.268h-3.4a.279.279,0,0,1-.31-.206l-1.692-6.189H13.988Z" transform="translate(0 -130.746)" fill="#d8a1ff"/></g><rect width="58" height="58" transform="translate(351 5853)" fill="none"/></g></svg>