<svg xmlns="http://www.w3.org/2000/svg" xmlns:xlink="http://www.w3.org/1999/xlink" width="64.673" height="66.231" viewBox="0 0 64.673 66.231"><defs><filter id="a" x="20.284" y="0.714" width="44.389" height="44.388" filterUnits="userSpaceOnUse"><feOffset dy="3" input="SourceAlpha"/><feGaussianBlur stdDeviation="3" result="b"/><feFlood flood-opacity="0.161"/><feComposite operator="in" in2="b"/><feComposite in="SourceGraphic"/></filter><filter id="c" x="20.284" y="0.714" width="44.389" height="44.388" filterUnits="userSpaceOnUse"><feOffset dy="3" input="SourceAlpha"/><feGaussianBlur stdDeviation="3" result="d"/><feFlood flood-opacity="0.161"/><feComposite operator="in" in2="d"/><feComposite in="SourceGraphic"/></filter><filter id="e" x="0" y="6.63" width="44.389" height="44.388" filterUnits="userSpaceOnUse"><feOffset dy="3" input="SourceAlpha"/><feGaussianBlur stdDeviation="3" result="f"/><feFlood flood-opacity="0.161"/><feComposite operator="in" in2="f"/><feComposite in="SourceGraphic"/></filter><filter id="g" x="13.523" y="21.843" width="44.389" height="44.388" filterUnits="userSpaceOnUse"><feOffset dy="3" input="SourceAlpha"/><feGaussianBlur stdDeviation="3" result="h"/><feFlood flood-opacity="0.161"/><feComposite operator="in" in2="h"/><feComposite in="SourceGraphic"/></filter></defs><g transform="translate(-1311 -6300)"><g transform="translate(485 -3369.75)"><g transform="matrix(1, 0, 0, 1, 826, 9669.75)" filter="url(#a)"><rect width="26.389" height="26.388" transform="translate(29.28 6.71)" fill="#fff"/></g><g transform="matrix(1, 0, 0, 1, 826, 9669.75)" filter="url(#c)"><rect width="26.389" height="26.388" transform="translate(29.28 6.71)" fill="#fff"/></g><g transform="matrix(1, 0, 0, 1, 826, 9669.75)" filter="url(#e)"><path d="M0,0H17.389a9,9,0,0,1,9,9v8.388a9,9,0,0,1-9,9H9a9,9,0,0,1-9-9V0A0,0,0,0,1,0,0Z" transform="translate(9 12.63)" fill="#fff"/></g><g transform="matrix(1, 0, 0, 1, 826, 9669.75)" filter="url(#g)"><rect width="26.389" height="26.388" rx="13.194" transform="translate(22.52 27.84)" fill="#fff"/></g><g transform="translate(848.523 9674.75)"><line y2="35.549" transform="translate(17.774 0)" fill="none" stroke="#fc3a52" stroke-width="4"/><line y2="35.549" transform="translate(35.549 17.774) rotate(90)" fill="none" stroke="#fc3a52" stroke-width="4"/></g></g><rect width="58" height="58" transform="translate(1316 6300)" fill="none"/></g></svg>