<svg xmlns="http://www.w3.org/2000/svg" xmlns:xlink="http://www.w3.org/1999/xlink" width="58" height="58" viewBox="0 0 58 58"><defs><radialGradient id="a" cx="36.975" cy="129.188" r="35.291" gradientTransform="translate(0.332 -1.528) scale(0.973 0.942)" gradientUnits="userSpaceOnUse"><stop offset="0" stop-color="#423325" stop-opacity="0.98"/><stop offset="1" stop-color="#1c0a00"/></radialGradient></defs><g transform="translate(-846 -5739)"><g transform="translate(851 5744)"><path d="M24.8,155.549H69.972v43.938H24.8Z" transform="translate(-22.75 -153.496)" fill="url(#a)"/><path d="M2.053,132.8H47.223v43.938H2.053ZM0,178.79H49.276V130.746H0Zm32.276-30.921c0-.164.062-.246.246-.246h3.223c.164,0,.246.062.246.246v16.2c0,.164-.041.246-.246.246H32.563c-.205,0-.267-.1-.267-.267V147.869Zm-.226-4.661a2.094,2.094,0,0,1,4.188,0A1.962,1.962,0,0,1,34.1,145.3,1.93,1.93,0,0,1,32.05,143.209Zm-9.239,11.416c-.575-2.279-1.93-7.248-2.443-9.65h-.041c-.431,2.4-1.519,6.467-2.382,9.65ZM17.1,157.95l-1.622,6.159c-.041.164-.1.205-.308.205H12.155c-.205,0-.246-.062-.205-.308L17.78,143.6a6.651,6.651,0,0,0,.205-1.7c0-.144.062-.205.164-.205h4.312c.144,0,.205.041.246.205l6.529,22.154c.041.164,0,.267-.164.267H25.664c-.164,0-.267-.041-.308-.185l-1.684-6.18H17.1Z" transform="translate(0 -130.746)" fill="#ff7f18"/></g><rect width="58" height="58" transform="translate(846 5739)" fill="none"/></g></svg>