<svg xmlns="http://www.w3.org/2000/svg" xmlns:xlink="http://www.w3.org/1999/xlink" width="58" height="58" viewBox="0 0 58 58"><defs><radialGradient id="a" cx="39.597" cy="165.34" r="35.094" gradientTransform="translate(0.403 0.57) scale(0.973 0.942)" gradientUnits="userSpaceOnUse"><stop offset="0" stop-color="#34364e" stop-opacity="0.98"/><stop offset="1" stop-color="#0c0824"/></radialGradient></defs><g transform="translate(-2237 -2185)"><rect width="58" height="58" transform="translate(2237 2185)" fill="none"/><g transform="translate(2242 2059.254)"><path d="M24.8,155.549H69.72v43.692H24.8Z" transform="translate(-22.761 -22.761)" fill="url(#a)"/><path d="M2.042,132.788H46.958v43.692H2.042ZM0,178.521H49V130.746H0Zm33.034-28.175c-1.613,0-2.164.817-2.164,1.49,0,.735.367,1.245,2.532,2.368,3.205,1.552,4.206,3.042,4.206,5.227,0,3.267-2.491,5.022-5.86,5.022a8.883,8.883,0,0,1-4.185-.878c-.143-.061-.163-.163-.163-.327v-3c0-.2.1-.265.245-.163a7.578,7.578,0,0,0,4.1,1.2c1.613,0,2.287-.674,2.287-1.593,0-.735-.47-1.388-2.532-2.45-2.9-1.388-4.1-2.8-4.1-5.145,0-2.634,2.062-4.818,5.635-4.818a9.388,9.388,0,0,1,3.655.572.452.452,0,0,1,.2.408v2.8c0,.163-.1.265-.306.2A6.9,6.9,0,0,0,33.034,150.346Zm-17.558,2.43c.47.041.837.041,1.654.041,2.389,0,4.635-.837,4.635-4.083,0-2.593-1.613-3.9-4.328-3.9-.817,0-1.593.041-1.96.061Zm-3.634-10.841c0-.143.286-.245.449-.245,1.307-.061,3.246-.1,5.268-.1,5.655,0,7.86,3.1,7.86,7.064,0,5.186-3.757,7.411-8.371,7.411-.776,0-1.041-.041-1.593-.041v7.84c0,.163-.061.245-.245.245H12.087c-.163,0-.245-.061-.245-.245V141.934Z" fill="#31c5f0"/></g></g></svg>