<svg xmlns="http://www.w3.org/2000/svg" width="58" height="58" viewBox="0 0 58 58"><g transform="translate(-859 -5622)"><g transform="translate(861 5627)"><path d="M10.882,0,26.866,31.285,0,0Z" transform="translate(0 17.338)" fill="#ea6c00" fill-rule="evenodd"/><path d="M10.882,31.285,26.866,0,0,31.285Z" transform="translate(53.736 48.623) rotate(180)" fill="#ea6c00" fill-rule="evenodd"/><path d="M0,0H31.968L15.984,31.285Z" transform="translate(10.882 17.338)" fill="#fdad00" fill-rule="evenodd"/><path d="M15.984,0,.841,1.6,0,17.338Z" transform="translate(10.882 0)" fill="#fdd231" fill-rule="evenodd"/><path d="M15.984,17.338.841,15.737,0,0Z" transform="translate(42.849 17.338) rotate(180)" fill="#fdd231" fill-rule="evenodd"/><path d="M0,0,11.723,15.737,10.882,0Z" transform="translate(53.736 17.338) rotate(180)" fill="#fdad00" fill-rule="evenodd"/><path d="M0,15.737,11.723,0l-.841,15.737Z" transform="translate(0 1.601)" fill="#fdad00" fill-rule="evenodd"/><path d="M15.984,0,0,17.338H31.968Z" transform="translate(10.882 0)" fill="#feeeb7" fill-rule="evenodd"/></g><rect width="58" height="58" transform="translate(859 5622)" fill="none"/></g></svg>