<svg xmlns="http://www.w3.org/2000/svg" xmlns:xlink="http://www.w3.org/1999/xlink" width="58" height="58" viewBox="0 0 58 58"><defs><radialGradient id="a" cx="36.563" cy="128.917" r="34.313" gradientTransform="translate(0.321 -1.544) scale(0.973 0.942)" gradientUnits="userSpaceOnUse"><stop offset="0" stop-color="#4b2d4f" stop-opacity="0.98"/><stop offset="1" stop-color="#180024"/></radialGradient></defs><g transform="translate(-869 -5870)"><g transform="translate(874 5876)"><path d="M24.8,155.549H68.721v42.72H24.8Z" transform="translate(-22.807 -153.553)" fill="url(#a)"/><path d="M2,132.742H45.914v42.72H2ZM0,177.459H47.911V130.746H0Zm28.746-26.99c0-.24,0-.818-.1-1.936,0-.16.02-.2.16-.259a20.728,20.728,0,0,1,7.306-1.377c.16,0,.24.04.24.2v2.895c0,.16-.06.2-.22.2a11.491,11.491,0,0,0-3.773.4v12.577c0,.16-.06.24-.24.24H28.986c-.16,0-.24-.06-.24-.24v-12.7ZM15.97,152.286c.459.04.818.04,1.617.04,2.336,0,4.532-.818,4.532-3.993,0-2.535-1.557-3.813-4.232-3.813-.8,0-1.557.04-1.916.06Zm-3.533-10.6c0-.14.04-.24.2-.24,1.278-.06,3.154-.1,5.13-.1,5.53,0,7.945,3.034,7.945,6.927,0,5.071-3.673,7.246-8.185,7.246-.759,0-1.018-.04-1.557-.04v7.666c0,.16-.06.24-.24.24H12.656c-.16,0-.24-.06-.24-.24v-21.46Z" transform="translate(0 -130.746)" fill="#e579ff"/></g><rect width="58" height="58" transform="translate(869 5870)" fill="none"/></g></svg>