<svg xmlns="http://www.w3.org/2000/svg" width="58" height="58" viewBox="0 0 58 58"><g transform="translate(-355 -6298)"><g transform="translate(359 6302)"><path d="M17.988,0a4.915,4.915,0,0,0,0,9.83H22.9V4.917A4.915,4.915,0,0,0,17.988,0h0m0,13.109H4.907a4.916,4.916,0,0,0,0,9.832H17.988a4.916,4.916,0,0,0,0-9.832Z" transform="translate(0)" fill="#36c5f0" fill-rule="evenodd"/><path d="M1328.294,18.024a4.907,4.907,0,1,0-9.814,0v4.917h4.907A4.911,4.911,0,0,0,1328.294,18.024Zm-13.083,0V4.915a4.906,4.906,0,1,0-9.812,0V18.024a4.906,4.906,0,1,0,9.812,0Z" transform="translate(-1279.234 0)" fill="#2eb67d" fill-rule="evenodd"/><path d="M1310.207,1330.843a4.915,4.915,0,0,0,0-9.83H1305.3v4.915A4.914,4.914,0,0,0,1310.207,1330.843Zm0-13.111h13.083a4.916,4.916,0,0,0,0-9.832h-13.083a4.916,4.916,0,0,0,0,9.832Z" transform="translate(-1279.136 -1281.684)" fill="#ecb22e" fill-rule="evenodd"/><path d="M0,1312.915a4.907,4.907,0,1,0,9.814,0V1308H4.907A4.911,4.911,0,0,0,0,1312.915Zm13.083,0v13.109a4.906,4.906,0,1,0,9.812,0v-13.107a4.906,4.906,0,1,0-9.812,0h0" transform="translate(0 -1281.782)" fill="#e01e5a" fill-rule="evenodd"/></g><rect width="58" height="58" transform="translate(355 6298)" fill="none"/></g></svg>