<svg xmlns="http://www.w3.org/2000/svg" width="58" height="58" viewBox="0 0 58 58"><g transform="translate(-854 -5969)"><g transform="translate(867 5974)"><path d="M8.061,216.122a8.064,8.064,0,0,0,8.061-8.061V200H8.061a8.061,8.061,0,1,0,0,16.122Z" transform="translate(0 -167.755)" fill="#0acf83"/><path d="M0,108.061A8.064,8.064,0,0,1,8.061,100h8.061v16.122H8.061A8.064,8.064,0,0,1,0,108.061Z" transform="translate(0 -83.878)" fill="#a259ff"/><path d="M0,8.061A8.064,8.064,0,0,1,8.061,0h8.061V16.122H8.061A8.064,8.064,0,0,1,0,8.061Z" fill="#f24e1e"/><path d="M100,0h8.061a8.061,8.061,0,1,1,0,16.122H100Z" transform="translate(-83.878)" fill="#ff7262"/><path d="M116.122,108.061A8.061,8.061,0,1,1,108.061,100,8.064,8.064,0,0,1,116.122,108.061Z" transform="translate(-83.878 -83.878)" fill="#1abcfe"/></g><rect width="58" height="58" transform="translate(854 5969)" fill="none"/></g></svg>