<svg xmlns="http://www.w3.org/2000/svg" xmlns:xlink="http://www.w3.org/1999/xlink" width="58" height="58" viewBox="0 0 58 58"><defs><radialGradient id="a" cx="37.048" cy="129.235" r="35.463" gradientTransform="translate(0.334 -1.526) scale(0.973 0.942)" gradientUnits="userSpaceOnUse"><stop offset="0" stop-color="#4b2b36" stop-opacity="0.98"/><stop offset="1" stop-color="#250012"/></radialGradient></defs><g transform="translate(-1313 -5855)"><g transform="translate(1317 5860)"><path d="M24.8,155.549H70.192V199.7H24.8Z" transform="translate(-22.74 -153.486)" fill="url(#a)"/><path d="M2.063,132.809H47.452V176.96H2.063ZM0,179.023H49.515V130.746H0ZM31.318,150.8a2.937,2.937,0,0,0-1.217-.206c-2.661,0-4.518,2.043-4.518,5.447,0,3.879,1.9,5.447,4.271,5.447a3.707,3.707,0,0,0,1.465-.248Zm-1.094-3.363a9.507,9.507,0,0,1,1.093.041V141.99a.194.194,0,0,1,.206-.206h3.342c.165,0,.206.062.206.165v19.29a15.559,15.559,0,0,0,.1,2.084c0,.144-.041.165-.186.248a12.614,12.614,0,0,1-5.405,1.217c-4.559,0-7.819-2.826-7.819-8.583-.021-4.931,3.239-8.768,8.459-8.768ZM18.114,164.21c0,.206-.041.268-.268.268H14.669c-.206,0-.268-.1-.268-.268V142.052c0-.206.1-.268.268-.268h3.2c.165,0,.248.062.248.248Z" transform="translate(0 -130.746)" fill="#ff408c"/></g><rect width="58" height="58" transform="translate(1313 5855)" fill="none"/></g></svg>