<svg xmlns="http://www.w3.org/2000/svg" width="58" height="58" viewBox="0 0 58 58"><g transform="translate(-348 -5633)"><g transform="translate(353 5638)"><path d="M40.194,47.622H8.649A8.642,8.642,0,0,1,0,38.973V8.649A8.642,8.642,0,0,1,8.649,0H40.194a8.642,8.642,0,0,1,8.649,8.649V38.973A8.642,8.642,0,0,1,40.194,47.622Z" fill="#ff26be"/><path d="M141.585,147.751h-30a7.4,7.4,0,0,1-7.387-7.387V111.587a7.4,7.4,0,0,1,7.387-7.387h29.978a7.386,7.386,0,0,1,7.387,7.387v28.757a7.375,7.375,0,0,1-7.368,7.407Z" transform="translate(-102.164 -102.164)" fill="#2e001f"/><path d="M476.884,603.5l5.7,10.949c.1.162.041.326-.123.326h-3.542a.4.4,0,0,1-.428-.264c-1.3-2.686-2.626-5.373-3.99-8.262h-.041c-1.221,2.728-2.565,5.6-3.866,8.284a.393.393,0,0,1-.367.224h-3.355c-.2,0-.225-.162-.121-.285l5.576-10.624L466.934,593.1a.165.165,0,0,1,.121-.285h3.5a.319.319,0,0,1,.365.225c1.282,2.687,2.585,5.455,3.806,8.161h.041c1.18-2.686,2.483-5.474,3.745-8.141.1-.162.162-.264.367-.264h3.276c.162,0,.225.123.123.285Zm6.7,3.318c0-4.742,3.155-8.446,8.161-8.446a8.974,8.974,0,0,1,1.059.041v-5.392a.2.2,0,0,1,.2-.2h3.216c.162,0,.2.061.2.162v18.683a14.541,14.541,0,0,0,.1,1.995c0,.123-.041.162-.162.225a12.114,12.114,0,0,1-5.211,1.18c-4.417.018-7.573-2.708-7.571-8.245Zm9.218-5.209a3.06,3.06,0,0,0-1.18-.2c-2.565,0-4.355,1.973-4.355,5.252,0,3.745,1.833,5.252,4.132,5.252a3.814,3.814,0,0,0,1.4-.225V601.611Z" transform="translate(-457.572 -581.218)" fill="#ffd9f2"/></g><rect width="58" height="58" transform="translate(348 5633)" fill="none"/></g></svg>