<svg xmlns="http://www.w3.org/2000/svg" width="58" height="58" viewBox="0 0 58 58"><g transform="translate(-361 -6181)"><g transform="translate(366 6186)"><path d="M3.192,249.187s-1.2-.862.239-2.012l3.342-2.988a1.418,1.418,0,0,1,1.967-.129L39.576,267.4V278.6s-.015,1.758-2.271,1.564Z" transform="translate(-2.725 -232.258)" fill="#2489ca"/><path d="M13.122,498.8l-7.948,7.226s-.817.608,0,1.693l3.69,3.357a1.516,1.516,0,0,0,2.171-.129l8.426-6.389Z" transform="translate(-4.707 -474.655)" fill="#1070b3"/><path d="M306.614,45.969l14.576-11.13L321.1,23.7s-.623-2.43-2.7-1.165L299,40.193Z" transform="translate(-284.246 -21.765)" fill="#0877b9"/><path d="M688.928,61.881a2,2,0,0,0,1.872.583l11.359-5.6a2.4,2.4,0,0,0,1.25-2.221V21.219a2.235,2.235,0,0,0-1.5-1.977L692.061,14.5a2.734,2.734,0,0,0-3.561.239s1.813-1.3,2.7,1.165V60.1a2.007,2.007,0,0,1-.194.871c-.259.523-.822,1.011-2.171.807Z" transform="translate(-654.348 -13.962)" fill="#3c99d4"/></g><rect width="58" height="58" transform="translate(361 6181)" fill="none"/></g></svg>