<svg xmlns="http://www.w3.org/2000/svg" xmlns:xlink="http://www.w3.org/1999/xlink" width="79.039" height="79.039" viewBox="0 0 79.039 79.039"><defs><radialGradient id="a" cx="39.52" cy="-39.52" r="79.039" gradientTransform="matrix(1, 0, 0, -1, 0, -79.039)" gradientUnits="userSpaceOnUse"><stop offset="0" stop-color="#20c6b7"/><stop offset="1" stop-color="#4d9abf"/></radialGradient></defs><path d="M57.283,27.429l-.029-.012a.123.123,0,0,1-.048-.027.227.227,0,0,1-.058-.192l1.6-9.742,7.481,7.474-7.78,3.306a.171.171,0,0,1-.068.012h-.031a.21.21,0,0,1-.041-.035A3.538,3.538,0,0,0,57.283,27.429Zm10.851-.594,8,7.99c1.661,1.661,2.493,2.49,2.8,3.451a3.9,3.9,0,0,1,.111.431L59.924,30.62l-.031-.012c-.077-.031-.165-.066-.165-.144s.091-.115.167-.146l.025-.01Zm10.58,14.436a15.054,15.054,0,0,1-2.58,2.941l-9.018,9.006L55.452,50.792l-.062-.012c-.1-.017-.213-.035-.213-.128a3.515,3.515,0,0,0-1.352-2.459c-.048-.048-.035-.122-.021-.19a.063.063,0,0,1,0-.029L56,34.522l.008-.045c.012-.1.031-.223.124-.223a3.572,3.572,0,0,0,2.394-1.371.2.2,0,0,1,.056-.056.271.271,0,0,1,.213.029l19.914,8.415ZM65.042,55.29,50.213,70.1l2.538-15.584,0-.021a.283.283,0,0,1,.012-.06c.021-.05.074-.07.126-.091l.025-.01a3.821,3.821,0,0,0,1.434-1.065.315.315,0,0,1,.186-.124.2.2,0,0,1,.06,0L65.04,55.292ZM47.074,73.239,45.4,74.908,26.922,48.23,26.9,48.2a.18.18,0,0,1-.053-.123.146.146,0,0,1,.045-.087l.02-.027c.056-.082.1-.165.155-.253l.041-.072.006-.006a.3.3,0,0,1,.105-.124.25.25,0,0,1,.151,0l20.473,4.218a.333.333,0,0,1,.157.068.15.15,0,0,1,.039.089A3.623,3.623,0,0,0,50.163,54.3c.058.029.033.093.006.161a.487.487,0,0,0-.031.093C49.88,56.123,47.668,69.6,47.074,73.239Zm-3.492,3.486a7.762,7.762,0,0,1-2.78,2.123,4.134,4.134,0,0,1-2.489,0c-.961-.305-1.793-1.134-3.455-2.8L16.3,57.514,21.148,50a.309.309,0,0,1,.082-.1.215.215,0,0,1,.188,0,5.025,5.025,0,0,0,3.38-.171c.056-.02.111-.035.155,0a.39.39,0,0,1,.058.066L43.582,76.726Zm-29.07-21-4.257-4.252,8.407-3.583a.179.179,0,0,1,.068-.015c.07,0,.111.07.149.134q.127.195.268.379l.027.033c.025.035.008.07-.016.1l-4.643,7.2ZM8.37,49.593l-5.386-5.38C2.068,43.3,1.4,42.633.941,42.063l16.377,3.393.062.01c.1.016.212.035.212.13s-.122.151-.225.19l-.048.021ZM0,39.3a4.112,4.112,0,0,1,.186-1.02c.305-.961,1.135-1.79,2.8-3.451L9.877,27.94q4.76,6.9,9.546,13.785c.056.074.118.157.054.218a5.724,5.724,0,0,0-.815,1.089.326.326,0,0,1-.1.128.113.113,0,0,1-.086,0h0L0,39.294ZM11.722,26.1l9.268-9.258c.871.381,4.041,1.719,6.876,2.915,2.146.907,4.1,1.731,4.717,2a.227.227,0,0,1,.144.111.21.21,0,0,1,0,.124,4.125,4.125,0,0,0,1.079,3.768c.062.062,0,.15-.054.227l-.029.044-9.41,14.559a.287.287,0,0,1-.089.1.241.241,0,0,1-.178,0,4.67,4.67,0,0,0-1.12-.153,6.188,6.188,0,0,0-1.077.13h0a.138.138,0,0,1-.111-.01.432.432,0,0,1-.093-.105ZM22.861,14.97l12-11.985C36.52,1.325,37.352.495,38.313.192a4.134,4.134,0,0,1,2.489,0c.962.3,1.793,1.134,3.455,2.793l2.6,2.6-8.533,13.2a.323.323,0,0,1-.085.1.218.218,0,0,1-.186,0,4.331,4.331,0,0,0-3.962.763c-.056.058-.138.025-.208-.006C32.769,19.154,24.1,15.5,22.861,14.97ZM48.669,7.392l7.879,7.87-1.9,11.746v.031a.273.273,0,0,1-.016.078c-.021.041-.062.049-.1.062a3.776,3.776,0,0,0-1.131.563.279.279,0,0,0-.041.035.13.13,0,0,1-.082.052.236.236,0,0,1-.089-.015l-12.006-5.1-.023-.01c-.077-.031-.167-.068-.167-.146a4.525,4.525,0,0,0-.64-1.886c-.058-.095-.122-.194-.072-.291Zm-8.114,17.74L51.81,29.894c.062.029.13.056.157.119a.217.217,0,0,1,0,.118,2.788,2.788,0,0,0-.062.542v.315c0,.078-.08.111-.155.142l-.023.008C49.944,31.9,26.7,41.8,26.66,41.8a.133.133,0,0,1-.107-.035c-.062-.062,0-.149.056-.227l.029-.041,9.249-14.306.016-.025c.054-.086.116-.183.215-.183l.093.015a4.344,4.344,0,0,0,.584.056,4.18,4.18,0,0,0,3.488-1.849.326.326,0,0,1,.07-.082A.21.21,0,0,1,40.555,25.132ZM27.665,44.066l25.342-10.8a.112.112,0,0,1,.072.035,3.423,3.423,0,0,0,.369.317l.056.035c.052.029.1.062.107.115a.214.214,0,0,1,0,.052L51.436,47.146l-.008.054c-.014.1-.029.22-.126.22a3.568,3.568,0,0,0-2.833,1.746l-.01.016a.285.285,0,0,1-.1.118.231.231,0,0,1-.144,0L28,45.138C27.981,45.134,27.688,44.068,27.665,44.066Z" fill="url(#a)"/></svg>