<svg xmlns="http://www.w3.org/2000/svg" xmlns:xlink="http://www.w3.org/1999/xlink" width="213.367" height="130.675" viewBox="0 0 213.367 130.675"><defs><linearGradient id="a" x1="0.681" y1="0.175" x2="0.278" y2="0.897" gradientUnits="objectBoundingBox"><stop offset="0" stop-color="#3f873f"/><stop offset="0.33" stop-color="#3e8a3d"/><stop offset="0.637" stop-color="#3e9537"/><stop offset="0.934" stop-color="#3da82d"/><stop offset="1" stop-color="#3dae2b"/></linearGradient><clipPath id="c"><path d="M218.357,226.254a2.456,2.456,0,0,0-2.454,0l-20.322,11.727a2.454,2.454,0,0,0-1.228,2.126v23.473a2.457,2.457,0,0,0,1.227,2.126L215.9,277.443a2.453,2.453,0,0,0,2.455,0l20.318-11.736a2.457,2.457,0,0,0,1.227-2.126V240.107a2.454,2.454,0,0,0-1.228-2.125Z" transform="translate(-194.353 -225.926)" fill="url(#a)" clip-rule="evenodd"/></clipPath><linearGradient id="d" x1="0.432" y1="0.552" x2="1.591" y2="-0.183" gradientUnits="objectBoundingBox"><stop offset="0.138" stop-color="#3f873f"/><stop offset="0.397" stop-color="#519f44"/><stop offset="0.711" stop-color="#63b649"/><stop offset="0.908" stop-color="#6abf4b"/></linearGradient><linearGradient id="e" x1="-57.151" y1="0.5" x2="68.852" y2="0.5" gradientUnits="objectBoundingBox"><stop offset="0.092" stop-color="#6abf4b"/><stop offset="0.289" stop-color="#63b649"/><stop offset="0.603" stop-color="#519f44"/><stop offset="0.862" stop-color="#3f873f"/></linearGradient><linearGradient id="f" x1="-0.045" x2="1.016" xlink:href="#e"/><linearGradient id="g" x1="-347.794" x2="1" xlink:href="#e"/><linearGradient id="h" x1="-1.037" x2="1.006" xlink:href="#e"/><linearGradient id="i" x1="1.303" y1="-2.11" x2="0.044" y2="2.012" xlink:href="#a"/></defs><g transform="translate(-78.306 -164.018)"><g transform="translate(160.455 242.111)"><path d="M271.934,378.51a4.04,4.04,0,0,1-2.021-.541l-6.433-3.807c-.96-.537-.491-.728-.175-.838A12.81,12.81,0,0,0,266.214,372a.494.494,0,0,1,.478.037l4.942,2.934a.634.634,0,0,0,.6,0L291.5,363.851a.608.608,0,0,0,.294-.522V341.092a.621.621,0,0,0-.3-.531l-19.261-11.112a.605.605,0,0,0-.594,0l-19.256,11.115a.62.62,0,0,0-.306.528v22.237a.59.59,0,0,0,.3.515l5.278,3.05c2.864,1.432,4.618-.254,4.618-1.949V342.99a.554.554,0,0,1,.56-.555h2.443a.556.556,0,0,1,.558.555v21.956c0,3.822-2.082,6.014-5.705,6.014a8.243,8.243,0,0,1-4.438-1.206l-5.053-2.909a4.069,4.069,0,0,1-2.021-3.515V341.092a4.059,4.059,0,0,1,2.021-3.512l19.268-11.135a4.223,4.223,0,0,1,4.05,0L293.23,337.58a4.066,4.066,0,0,1,2.024,3.512v22.237a4.078,4.078,0,0,1-2.024,3.515l-19.267,11.125A4.042,4.042,0,0,1,271.934,378.51Z" transform="translate(-248.624 -325.929)" fill="#679e63"/><path d="M298.347,380.27c-8.432,0-10.2-3.871-10.2-7.117a.554.554,0,0,1,.557-.556H291.2a.559.559,0,0,1,.554.472c.376,2.536,1.5,3.816,6.6,3.816,4.059,0,5.787-.918,5.787-3.072,0-1.242-.49-2.163-6.8-2.781-5.272-.521-8.533-1.686-8.533-5.9,0-3.888,3.277-6.206,8.771-6.206,6.173,0,9.227,2.142,9.615,6.739a.557.557,0,0,1-.555.606h-2.5a.555.555,0,0,1-.541-.435c-.6-2.669-2.059-3.521-6.017-3.521-4.432,0-4.947,1.544-4.947,2.7,0,1.4.608,1.81,6.592,2.6,5.922.782,8.734,1.891,8.734,6.053C307.954,377.865,304.453,380.27,298.347,380.27Z" transform="translate(-269.085 -343.009)" fill="#679e63"/></g><g transform="translate(210.075 252.337)"><path d="M358.927,350.844a3.714,3.714,0,1,1-3.714-3.714A3.724,3.724,0,0,1,358.927,350.844Zm-6.827-.011a3.114,3.114,0,1,0,3.1-3.1A3.115,3.115,0,0,0,352.1,350.834Zm1.719-2.073h1.435c.491,0,1.455,0,1.455,1.1a.957.957,0,0,1-.788,1.022c.572.039.61.413.688.943a4.106,4.106,0,0,0,.216,1.1h-.883c-.021-.2-.159-1.257-.159-1.316-.057-.236-.137-.354-.432-.354h-.726v1.669h-.806Zm.787,1.827h.648a.56.56,0,0,0,.629-.589c0-.571-.394-.571-.61-.571h-.667Z" transform="translate(-351.5 -347.13)" fill="#679e63"/></g><path d="M124.1,239.3a2.464,2.464,0,0,0-1.234-2.144L102.434,225.4a2.4,2.4,0,0,0-1.125-.325H101.1a2.435,2.435,0,0,0-1.128.325L79.541,237.155a2.475,2.475,0,0,0-1.235,2.144l.045,31.657a1.213,1.213,0,0,0,.616,1.066,1.187,1.187,0,0,0,1.226,0l12.141-6.952a2.485,2.485,0,0,0,1.235-2.141V248.139A2.459,2.459,0,0,1,94.8,246l5.17-2.977a2.456,2.456,0,0,1,1.237-.331,2.417,2.417,0,0,1,1.227.331L107.6,246a2.46,2.46,0,0,1,1.234,2.136v14.791a2.492,2.492,0,0,0,1.237,2.141l12.138,6.952a1.2,1.2,0,0,0,1.233,0,1.233,1.233,0,0,0,.613-1.066Z" transform="translate(0 -31.607)" fill="#333" fill-rule="evenodd"/><path d="M342.283,164.173a1.234,1.234,0,0,0-1.835,1.078V196.6a.863.863,0,0,1-1.3.748l-5.117-2.948a2.468,2.468,0,0,0-2.466,0L311.133,206.2a2.468,2.468,0,0,0-1.234,2.137v23.593a2.469,2.469,0,0,0,1.234,2.138l20.436,11.8a2.468,2.468,0,0,0,2.469,0l20.439-11.8a2.469,2.469,0,0,0,1.234-2.138V173.115a2.468,2.468,0,0,0-1.266-2.155Zm-1.9,60a.615.615,0,0,1-.309.533l-7.017,4.045a.616.616,0,0,1-.616,0l-7.017-4.045a.615.615,0,0,1-.309-.533v-8.1a.619.619,0,0,1,.308-.535l7.017-4.053a.617.617,0,0,1,.617,0l7.017,4.053a.619.619,0,0,1,.308.535Z" transform="translate(-119.89)" fill="#333" fill-rule="evenodd"/><g transform="translate(246.003 193.752)"><path d="M470.432,247.776a2.468,2.468,0,0,0,1.228-2.134v-5.717a2.467,2.467,0,0,0-1.229-2.134L450.125,226a2.467,2.467,0,0,0-2.473,0l-20.429,11.794a2.467,2.467,0,0,0-1.234,2.137v23.587a2.467,2.467,0,0,0,1.246,2.144l20.3,11.569a2.466,2.466,0,0,0,2.42.013l12.28-6.825a1.234,1.234,0,0,0,.015-2.149l-20.559-11.8a1.234,1.234,0,0,1-.62-1.07v-7.392a1.233,1.233,0,0,1,.618-1.069l6.4-3.689a1.232,1.232,0,0,1,1.232,0l6.4,3.689a1.233,1.233,0,0,1,.618,1.069v5.816a1.234,1.234,0,0,0,1.854,1.067Z" transform="translate(-425.989 -225.667)" fill="#333" fill-rule="evenodd"/><path d="M468.382,269.146a.472.472,0,0,1,.474,0l3.922,2.263a.474.474,0,0,1,.236.41v4.528a.475.475,0,0,1-.236.41l-3.922,2.262a.472.472,0,0,1-.474,0l-3.918-2.262a.475.475,0,0,1-.237-.41v-4.528a.475.475,0,0,1,.237-.41Z" transform="translate(-445.784 -248.142)" fill="#679e63" fill-rule="evenodd"/></g><g transform="translate(134.279 193.878)"><path d="M218.357,226.254a2.456,2.456,0,0,0-2.454,0l-20.322,11.727a2.454,2.454,0,0,0-1.228,2.126v23.473a2.457,2.457,0,0,0,1.227,2.126L215.9,277.443a2.453,2.453,0,0,0,2.455,0l20.318-11.736a2.457,2.457,0,0,0,1.227-2.126V240.107a2.454,2.454,0,0,0-1.228-2.125Z" transform="translate(-194.353 -225.926)" fill-rule="evenodd" fill="url(#a)"/><g transform="translate(0 0)" clip-path="url(#c)"><g transform="translate(-0.17 0.002)"><path d="M215.678,226.256l-20.365,11.727A2.537,2.537,0,0,0,194,240.109v23.473a2.374,2.374,0,0,0,.633,1.562L217.515,226A2.493,2.493,0,0,0,215.678,226.256Z" transform="translate(-194 -225.929)" fill="none"/><path d="M242.988,291.072a2.42,2.42,0,0,0,.572-.238L263.9,279.1a2.506,2.506,0,0,0,1.278-2.126V253.5a2.425,2.425,0,0,0-.743-1.7Z" transform="translate(-219.36 -239.318)" fill="none"/><path d="M239.211,238.062l-20.379-11.727a2.443,2.443,0,0,0-.638-.254l-22.882,39.142a2.8,2.8,0,0,0,.685.564l20.414,11.736a2.48,2.48,0,0,0,1.9.238l21.45-39.279A2.685,2.685,0,0,0,239.211,238.062Z" transform="translate(-194.68 -226.008)" fill="url(#d)"/></g><g transform="translate(-0.17 -3.983)"><path d="M264.941,263.638V240.164a2.513,2.513,0,0,0-1.289-2.125l-20.379-11.727a2.452,2.452,0,0,0-.748-.275l22.34,38.166A2.248,2.248,0,0,0,264.941,263.638Z" transform="translate(-219.12 -222)" fill="none"/><path d="M195.313,250.845A2.536,2.536,0,0,0,194,252.971v23.473a2.547,2.547,0,0,0,1.318,2.126l20.414,11.736a2.474,2.474,0,0,0,1.57.305l-21.867-39.837Z" transform="translate(-194 -234.807)" fill="none"/><path d="M237.327,217.669l-.279.16h.373Z" transform="translate(-216.285 -217.669)" fill="url(#e)"/><path d="M240.084,265.711a2.568,2.568,0,0,0,1.2-1.562l-22.34-38.165a2.492,2.492,0,0,0-1.727.275l-20.242,11.657,21.867,39.837a2.452,2.452,0,0,0,.9-.305Z" transform="translate(-195.541 -221.948)" fill="url(#f)"/><path d="M290.135,307.373l-.135-.23v.308Z" transform="translate(-243.697 -263.987)" fill="url(#g)"/><path d="M263.554,306.726l-20.343,11.736a2.452,2.452,0,0,1-.9.305l.405.738,22.6-13.079v-.308l-.559-.955A2.568,2.568,0,0,1,263.554,306.726Z" transform="translate(-219.01 -262.963)" fill="url(#h)"/><path d="M263.554,306.726l-20.343,11.736a2.452,2.452,0,0,1-.9.305l.405.738,22.6-13.079v-.308l-.559-.955A2.568,2.568,0,0,1,263.554,306.726Z" transform="translate(-219.01 -262.963)" fill="url(#i)"/></g></g></g></g></svg>