<svg xmlns="http://www.w3.org/2000/svg" width="58" height="58" viewBox="0 0 58 58"><g transform="translate(-9891 6031)"><rect width="58" height="58" transform="translate(9891 -6031)" fill="#fff" opacity="0"/><g transform="translate(9895 -6027)"><path d="M10.826,0H39.141A10.885,10.885,0,0,1,49.967,10.826V39.141A10.885,10.885,0,0,1,39.141,49.967H10.826A10.885,10.885,0,0,1,0,39.141V10.826A10.885,10.885,0,0,1,10.826,0Z" fill="#ffd02f"/><path d="M34.378,6H28.86l4.58,8.016L23.447,6H17.93l5,9.785L12.517,6H7l5.517,12.492L7,43.475h5.517L23.031,16.722l-5.1,26.753h5.517l10.1-28.523-4.58,28.523h5.517l9.993-31.229Z" transform="translate(0.287 0.246)" fill="#050038" fill-rule="evenodd"/></g></g></svg>