<svg xmlns="http://www.w3.org/2000/svg" xmlns:xlink="http://www.w3.org/1999/xlink" width="1920" height="1080" viewBox="0 0 1920 1080">
  <defs>
    <linearGradient id="linear-gradient" x1="0.502" y1="-0.117" x2="0.498" y2="1.141" gradientUnits="objectBoundingBox">
      <stop offset="0" stop-color="#6adfff"/>
      <stop offset="1" stop-color="#005094"/>
    </linearGradient>
    <clipPath id="clip-tbt-01">
      <rect width="1920" height="1080"/>
    </clipPath>
  </defs>
  <g id="tbt-01" clip-path="url(#clip-tbt-01)">
    <rect width="1920" height="1080" fill="#fff"/>
    <rect id="Rectangle_308" data-name="Rectangle 308" width="1920" height="1080" transform="translate(0 0.5)" fill="url(#linear-gradient)"/>
    <path id="Path_1519" data-name="Path 1519" d="M53.718,0h60.658V-132.881h52.69v-47.035H1.028v47.035h52.69ZM299.433-179.917v63.742H243.4v-63.742H182.744V0H243.4V-66.312h56.031V0h60.658V-179.917ZM449.021-45.75V-69.4H525.1v-43.694H449.021v-21.076h86.617v-45.75H389.391V0H538.979V-45.75ZM158.584,97.929c16.45-8.225,24.931-22.1,24.931-38.811,0-27.245-23.132-47.035-72.738-47.035H14.65V192H115.918C165.524,192,192,173.751,192,142.394,192,121.061,179.66,105.64,158.584,97.929ZM102.553,54.492c13.622,0,19.791,4.626,19.791,13.365s-6.169,13.365-19.791,13.365H74.28V54.492Zm8.225,95.1H74.28V121.318h36.5c13.365,0,20.048,4.883,20.048,14.136S124.143,149.591,110.777,149.591ZM357.263,97.929c16.45-8.225,24.931-22.1,24.931-38.811,0-27.245-23.132-47.035-72.738-47.035H213.33V192H314.6c49.606,0,76.079-18.249,76.079-49.606C390.677,121.061,378.339,105.64,357.263,97.929ZM301.232,54.492c13.622,0,19.791,4.626,19.791,13.365s-6.169,13.365-19.791,13.365H272.96V54.492Zm8.225,95.1h-36.5V121.318h36.5c13.365,0,20.048,4.883,20.048,14.136S322.822,149.591,309.457,149.591ZM412.01,192h88.673c60.144,0,101.524-34.184,101.524-89.958S560.827,12.083,500.683,12.083H412.01Zm60.658-47.292V59.376h25.445c25.445,0,42.923,15.164,42.923,42.666s-17.478,42.666-42.923,42.666ZM53.718,384h60.658V251.119h52.69V204.083H1.028v47.035h52.69Zm129.026,0H243.4V204.083H182.744ZM488.6,384l-.514-179.917H438.226l-57.059,95.87-58.6-95.87H272.7V384h55.26V304.837l39.068,62.971h26.73l39.068-65.8L433.343,384Zm88.93-45.75V314.6h76.079V270.909H577.533V249.833H664.15v-45.75H517.9V384H667.492V338.25Zm180.431,49.863c55.774,0,83.79-27.759,83.79-60.658,0-66.312-99.468-48.321-99.468-69.911,0-6.169,5.655-11.309,23.389-11.309,15.678,0,32.385,4.369,50.12,13.365l18.249-43.951c-18.763-10.538-43.694-15.678-67.854-15.678-55.774,0-83.79,27.245-83.79,60.658,0,67.083,99.468,48.835,99.468,71.453,0,6.169-6.169,9.767-23.389,9.767-19.791,0-42.409-6.426-59.373-16.45l-19.534,44.208C697.563,380.659,727.892,388.112,757.964,388.112Z" transform="translate(141.573 389.753)" fill="#fff"/>
    <g id="Group_384" data-name="Group 384" transform="translate(20 -83)">
      <path id="Path_1520" data-name="Path 1520" d="M23.464.9c7.672,0,13.72-2.8,17.584-7.84L32.7-14.392c-2.3,2.912-5.04,4.592-8.568,4.592-5.488,0-9.184-3.808-9.184-9.8s3.7-9.8,9.184-9.8c3.528,0,6.272,1.68,8.568,4.592l8.344-7.448c-3.864-5.04-9.912-7.84-17.584-7.84-12.6,0-21.84,8.456-21.84,20.5S10.864.9,23.464.9ZM59.808.56c10.416,0,17.808-6.608,17.808-15.9S70.224-31.192,59.808-31.192C49.448-31.192,42-24.64,42-15.344S49.448.56,59.808.56Zm0-9.856c-2.8,0-4.984-2.072-4.984-6.048s2.184-5.992,4.984-5.992,4.984,2.016,4.984,5.992S62.608-9.3,59.808-9.3Zm43.064-21.9a12.758,12.758,0,0,0-9.24,3.584v-3.024H81.592V0H94.248V-14.392c0-4.536,2.184-6.16,4.76-6.16,2.3,0,3.752,1.456,3.752,5.264V0h12.656V-17.472C115.416-27.1,109.928-31.192,102.872-31.192Zm39.312,0a12.759,12.759,0,0,0-9.24,3.584v-3.024H120.9V0H133.56V-14.392c0-4.536,2.184-6.16,4.76-6.16,2.3,0,3.752,1.456,3.752,5.264V0h12.656V-17.472C154.728-27.1,149.24-31.192,142.184-31.192Zm51.184,15.848c0-10.36-7.784-15.848-16.856-15.848-9.912,0-17.36,6.552-17.36,15.848,0,9.128,7.28,15.9,18.536,15.9,6.1,0,10.416-1.68,13.384-4.928l-6.608-6.664a9.358,9.358,0,0,1-6.384,2.24c-3.136,0-5.264-1.232-6.16-3.584H193.2C193.256-13.272,193.368-14.448,193.368-15.344Zm-16.744-7.224a4.754,4.754,0,0,1,4.928,4.088H171.7A4.716,4.716,0,0,1,176.624-22.568ZM213.808.56c7.448,0,13.048-3.416,15.064-9.072l-9.8-4.816c-1.288,2.856-3.136,4.032-5.32,4.032-2.856,0-5.208-2.016-5.208-6.048,0-3.976,2.352-5.992,5.208-5.992,2.184,0,4.032,1.176,5.32,4.032l9.8-4.816c-2.016-5.656-7.616-9.072-15.064-9.072-10.584,0-18.088,6.552-18.088,15.848C195.72-5.992,203.224.56,213.808.56Zm38.08-10.416a5.162,5.162,0,0,1-2.856.84c-1.512,0-2.632-1.064-2.632-2.968v-7.728h6.272v-9.24H246.4V-37.52H233.744v8.568h-4.2v9.24h4.2v7.84c0,8.456,4.928,12.432,13.384,12.432a16.348,16.348,0,0,0,7.784-1.624Zm53.2-.112V-15.12h16.576v-9.52H305.088v-4.592H323.96V-39.2H292.1V0h32.592V-9.968ZM363.216,0,351.68-15.736l11.256-14.9H349.664l-4.592,6.5-4.368-6.5h-14.28L337.68-15.176,326.088,0h13.72l4.7-6.552L348.712,0Zm22.736-31.192c-3.808,0-6.552,1.008-8.4,3.08v-2.52h-12.04v41.5h12.656V-2.072C380.016-.28,382.592.56,385.952.56c8.008,0,14.784-5.992,14.784-15.848S393.96-31.192,385.952-31.192ZM382.928-9.3c-2.8,0-4.984-2.016-4.984-5.992s2.184-6.048,4.984-6.048,4.984,2.072,4.984,6.048S385.728-9.3,382.928-9.3Zm33.824-18.032v-3.3h-12.04V0h12.656V-13.608c0-4.872,2.688-6.608,6.5-6.608a17.539,17.539,0,0,1,2.8.224v-11.2C422.408-31.192,418.992-29.9,416.752-27.328ZM462.56-15.344c0-10.36-7.784-15.848-16.856-15.848-9.912,0-17.36,6.552-17.36,15.848,0,9.128,7.28,15.9,18.536,15.9,6.1,0,10.416-1.68,13.384-4.928l-6.608-6.664a9.358,9.358,0,0,1-6.384,2.24c-3.136,0-5.264-1.232-6.16-3.584h21.28C462.448-13.272,462.56-14.448,462.56-15.344Zm-16.744-7.224a4.754,4.754,0,0,1,4.928,4.088h-9.856A4.716,4.716,0,0,1,445.816-22.568ZM478.52.56c10.64,0,15.848-4.816,15.848-10.36,0-12.264-17.584-8.12-17.584-11.312,0-.728.9-1.456,4.144-1.456a18.147,18.147,0,0,1,8.848,2.24l3.472-8.344c-3.248-1.68-8.008-2.52-12.488-2.52-10.3,0-15.68,4.7-15.68,10.472,0,12.264,17.64,8.064,17.64,11.2,0,.9-.84,1.456-3.92,1.456a22.165,22.165,0,0,1-10.7-2.744l-3.472,8.344C467.768-.672,473.256.56,478.52.56Zm31.64,0c10.64,0,15.848-4.816,15.848-10.36,0-12.264-17.584-8.12-17.584-11.312,0-.728.9-1.456,4.144-1.456a18.147,18.147,0,0,1,8.848,2.24l3.472-8.344c-3.248-1.68-8.008-2.52-12.488-2.52-10.3,0-15.68,4.7-15.68,10.472,0,12.264,17.64,8.064,17.64,11.2,0,.9-.84,1.456-3.92,1.456a22.165,22.165,0,0,1-10.7-2.744l-3.472,8.344C499.408-.672,504.9.56,510.16.56Zm79.576-11.312a12.3,12.3,0,0,1-4.816.952c-5.656,0-9.352-3.92-9.352-9.8,0-6.048,3.7-9.8,9.52-9.8a11.183,11.183,0,0,1,8.792,4.312l8.456-7.448c-3.976-4.872-10.192-7.56-17.92-7.56-12.936,0-22.176,8.456-22.176,20.5S571.48.9,584.136.9a31.67,31.67,0,0,0,17.08-4.984V-20.664h-11.48ZM618.52-27.328v-3.3H606.48V0h12.656V-13.608c0-4.872,2.688-6.608,6.5-6.608a17.538,17.538,0,0,1,2.8.224v-11.2C624.176-31.192,620.76-29.9,618.52-27.328ZM647.92.56c10.416,0,17.808-6.608,17.808-15.9s-7.392-15.848-17.808-15.848c-10.36,0-17.808,6.552-17.808,15.848S637.56.56,647.92.56Zm0-9.856c-2.8,0-4.984-2.072-4.984-6.048s2.184-5.992,4.984-5.992,4.984,2.016,4.984,5.992S650.72-9.3,647.92-9.3Zm62.1-21.336L704.536-14.28l-5.32-16.352H688.464l-5.488,16.184-5.264-16.184H665.728L676.368,0h12.32L693.5-14.168,698.152,0h12.32l10.64-30.632Z" transform="translate(121.922 942.066)" fill="#fff"/>
      <circle id="Ellipse_65" data-name="Ellipse 65" cx="6.5" cy="6.5" r="6.5" transform="translate(388 916)" fill="#fff"/>
      <circle id="Ellipse_66" data-name="Ellipse 66" cx="6.5" cy="6.5" r="6.5" transform="translate(660 916)" fill="#fff"/>
    </g>
  </g>
</svg>
