<svg xmlns="http://www.w3.org/2000/svg" width="58.031" height="58.012" viewBox="0 0 58.031 58.012"><g transform="translate(-2.97 -3)"><path d="M49.488,35.069l1.729-1.729a4.281,4.281,0,0,0,.277-5.884,4.141,4.141,0,0,0-2.127-1.275l.35-.35a4.273,4.273,0,0,0,.277-5.886,4.153,4.153,0,0,0-3-1.39,4.294,4.294,0,0,0-3.084,1.221l-.193.193a4.142,4.142,0,0,0-2.732-1.138,4.263,4.263,0,0,0-3.071,1.225l-1.991,1.991a4.192,4.192,0,0,0-4.068-3.214h-.006A4.153,4.153,0,0,0,28.9,20.058l-7.6,7.6a5.208,5.208,0,0,0-1.626-3.215,3.114,3.114,0,0,0-4.3.12l-7.2,7.2a17.147,17.147,0,0,0-.883,23.685,16.78,16.78,0,0,0,16.328,5.116,17.347,17.347,0,0,0,2.289.158,16.749,16.749,0,0,0,11.906-4.959l13.53-13.52h0a4.3,4.3,0,0,0,.274-5.893A4.142,4.142,0,0,0,49.488,35.069Zm.519-6.277a2.314,2.314,0,0,1-.2,3.134l-4.259,4.259h0l-.178.178c-.029-.028-.061-.05-.09-.076-.071-.063-.143-.124-.217-.181s-.176-.128-.267-.188c-.072-.047-.144-.1-.219-.139-.108-.061-.22-.113-.332-.164-.065-.03-.127-.063-.193-.089a3.953,3.953,0,0,0-.559-.178l1.382-1.383.347-.345a4.552,4.552,0,0,0,.482-.582c.061-.085.112-.174.166-.262.066-.11.129-.22.186-.334s.124-.258.176-.391c.018-.049.032-.1.049-.146a4.343,4.343,0,0,0,.235-1.714v-.009a4.244,4.244,0,0,0-.078-.562c-.008-.04-.019-.08-.028-.12-.023-.1-.039-.2-.069-.289l.5-.5.016-.016a2.14,2.14,0,0,1,1.585-.628,2.163,2.163,0,0,1,1.565.725Zm-4.683-7.6a2.211,2.211,0,0,1,1.616-.639,2.175,2.175,0,0,1,1.569.731,2.306,2.306,0,0,1-.206,3.132L45.44,27.278l-.02.021h0l-.177.178c-.025-.023-.052-.042-.076-.064a3.007,3.007,0,0,0-.244-.2c-.084-.06-.157-.113-.237-.166s-.161-.109-.246-.157-.2-.1-.3-.146c-.076-.036-.15-.075-.228-.106a4.16,4.16,0,0,0-.538-.172h-.011l.351-.35a4.461,4.461,0,0,0,.508-.621c.026-.037.049-.074.073-.112a4.394,4.394,0,0,0,.307-.552c.025-.053.052-.1.075-.157A4.391,4.391,0,0,0,44.9,24c.018-.073.026-.147.04-.22a4.7,4.7,0,0,0,.066-.47c.008-.1.012-.2.013-.307,0-.138-.007-.275-.019-.413-.009-.1-.013-.2-.028-.292a4.166,4.166,0,0,0-.143-.611ZM13.145,57.422A14.966,14.966,0,0,1,8.772,54.1a15.152,15.152,0,0,1,.819-20.925l7.2-7.2a1.161,1.161,0,0,1,.818-.342,1.014,1.014,0,0,1,.7.267,3.252,3.252,0,0,1,.077,4.673L11.615,37.34a1,1,0,1,0,1.414,1.414l6.764-6.763L30.312,21.472a2.164,2.164,0,0,1,1.54-.639h0A2.19,2.19,0,0,1,33.4,24.571L22.136,35.837a1,1,0,1,0,1.414,1.414L34.815,25.985l4.516-4.515a2.189,2.189,0,0,1,3.177.087,2.039,2.039,0,0,1,.5,1.115.479.479,0,0,0,0,.084,2.234,2.234,0,0,1,.008.317c0,.037-.007.074-.01.111a2.528,2.528,0,0,1-.047.3q-.012.054-.027.108a2.545,2.545,0,0,1-.108.311c-.01.025-.02.05-.031.074a2.494,2.494,0,0,1-.5.717l-2.321,2.321-.546.545-.006.007h0v0h0L26.645,40.346a1,1,0,1,0,1.414,1.414L40.834,28.985c.041-.041.088-.07.131-.107a2.263,2.263,0,0,1,1.413-.529h.06a2.228,2.228,0,0,1,.442.056,2.177,2.177,0,0,1,1.129.674,1.987,1.987,0,0,1,.454.9A2.425,2.425,0,0,1,43.8,32.21l-.2.2-4.057,4.047c-.009.009-.011.02-.02.029l-8.371,8.371a1,1,0,1,0,1.414,1.414l8.4-8.394a2.171,2.171,0,0,1,1.131-.6l.029-.008a2.118,2.118,0,0,1,.444-.032,2.232,2.232,0,0,1,.4.051l.042.006c.051.012.1.035.147.05a2.185,2.185,0,0,1,.981.623,1.985,1.985,0,0,1,.247.341,2.372,2.372,0,0,1-.457,2.792L30.4,54.624c-.275.275-.559.536-.85.786-.054.045-.109.087-.163.132-.232.193-.467.379-.708.557-.094.069-.191.135-.286.2q-.309.216-.626.416c-.116.073-.232.143-.35.213-.2.115-.394.225-.595.332-.132.07-.265.14-.4.206-.186.092-.375.177-.565.26-.151.067-.3.136-.456.2s-.324.12-.486.179c-.188.068-.374.139-.564.2-.037.012-.075.021-.112.032-.292.09-.587.173-.885.245-.009,0-.016.009-.026.012a14.912,14.912,0,0,1-10.183-1.172ZM36.4,54.346a14.814,14.814,0,0,1-7.593,4.088c.06-.038.114-.085.174-.124.322-.207.632-.435.942-.666.18-.133.366-.257.54-.4.373-.3.73-.628,1.081-.965.088-.083.185-.155.27-.24l13.53-13.53a4.436,4.436,0,0,0,.49-.6c.05-.071.092-.144.138-.217a4.4,4.4,0,0,0,.217-.391c.056-.114.108-.227.154-.344.029-.075.052-.152.077-.229a4.321,4.321,0,0,0,.218-1.6v-.09a3.91,3.91,0,0,0-.069-.507c-.013-.067-.031-.132-.047-.2s-.033-.164-.058-.243l.493-.494h0a2.187,2.187,0,0,1,3.18.081,2.331,2.331,0,0,1-.206,3.146Z" fill="#fc3a52"/><path d="M60.707,7.293a1,1,0,0,0-1.414,0l-6,6a1,1,0,1,0,1.414,1.414l6-6a1,1,0,0,0,0-1.414Z" fill="#fc3a52"/><path d="M59.553,15.1l-4,2a1,1,0,1,0,.894,1.79l4-2a1,1,0,0,0-.894-1.79Z" fill="#fc3a52"/><path d="M49.485,12.857a1,1,0,0,0,1.372-.342l3-5a1,1,0,1,0-1.714-1.03l-3,5A1,1,0,0,0,49.485,12.857Z" fill="#fc3a52"/><path d="M25.081,11.394a1,1,0,1,0,1.838-.788l-3-7a1,1,0,1,0-1.838.788Z" fill="#fc3a52"/><path d="M30,12a1,1,0,0,0,1-1V5a1,1,0,0,0-2,0v6A1,1,0,0,0,30,12Z" fill="#fc3a52"/><path d="M21.219,13.625a1,1,0,0,0,1.562-1.25l-4-5a1,1,0,1,0-1.562,1.25Z" fill="#fc3a52"/></g></svg>