<svg xmlns="http://www.w3.org/2000/svg" viewBox="0 0 131.12 459.59"><defs><style>.bd16c9d1-8e29-45fd-a60c-c3e6d1b5173a{fill:#fff;}.b8a2fba8-0144-4b53-875c-a7f1624b41e9{fill:#f0f;}</style></defs><title>aashi</title><g id="ad018846-ab9f-4370-a497-512591487b45" data-name="Layer 2"><g id="a5d47cb3-d1dc-41c9-a745-50dde0950164" data-name="Layer 1"><path class="bd16c9d1-8e29-45fd-a60c-c3e6d1b5173a" d="M75.46,97.58c4.53-1.85,9-3.94,13.62-5.44a6.14,6.14,0,0,1,5.21,1,123.29,123.29,0,0,1,12.84,14.5c5.5,7.69,6.18,16.55,3,25.26-4,10.78-5.18,21.87-5.61,33.19-.14,3.75-.43,7.52-.86,11.25a36.56,36.56,0,0,1-1.62,5.48,38.9,38.9,0,0,0,6.44-.5,63.4,63.4,0,0,0,9.61-3.12c4.9-2.06,8.51-.4,11.61,3.39a12.2,12.2,0,0,0,1.42,1.25v7c-.36,7.51-5.61,8.82-11.62,9.16a5.36,5.36,0,0,1-.76-.13c-.4-2.49-.82-5.12-1.3-8.05l5.68,1.39-.76-3.86-17,4.73a98.23,98.23,0,0,1,1.76,9.91c.3,3.82-.12,7.69.1,11.52.23,4,1.27,8,1.25,12-.11,17.79.32,35.63-.94,53.35-1.42,19.78-4.6,39.43-6.75,59.16q-3.75,34.47-7,69c-.7,7.56-.27,7.5-8.12,8.53-1.29.17-3.48,1.74-3.43,2.55.26,4.59,0,9.64,1.93,13.59,4.25,8.82,11.84,14.52,20.92,18.16,1.69.68,3.33,1.48,5,2.23a10.38,10.38,0,0,1-4.56,3.08c-2.64.9-5.33,1.61-8,2.4H85c-4.22-3.58-8.51-7.1-12.67-10.77-4.42-3.89-5.19-3.73-7.28,1.92-.39,1.06-.83,2.1-1.5,3.77-.58-1.21-1.12-1.82-1.12-2.43-.06-7.15-1-14.48.32-21.36a47.43,47.43,0,0,0,1.18-12c-.14-2.41-.7-3.85-3.54-3.9a81.86,81.86,0,0,1-8.69-1.1c1.13-5.35,2-10.43,3.33-15.4.71-2.72.36-4.78-1.82-6.53-8.08,8.27-13.42,16.27-10.35,26.27.41,1.36,1.81,2.51,3,3.52,1,.84,2.38,1.14,3.31,2a55.32,55.32,0,0,1,4,4.41c-1.72,1-3.47,3-5.16,2.92A103.66,103.66,0,0,1,30,429.08c-1.83-.38-3.36-3.36-4.57-5.41-3.73-6.33-6.25-7.1-12.58-3.45-3.36,1.94-5.18,1-8.38-4.21,3.43-2.68,7.11-5.14,10.27-8.14,3-2.83,5.27-6.33,8.07-9.35,2.32-2.5,5-4.7,7.42-7.09A5.47,5.47,0,0,0,32,386c-1-6.14,1.52-11.74,4.22-17.09q12.62-25,25.44-50c2.9-5.67,5.48-11.57,9.07-16.77,3.78-5.48,4.17-11.3,4-17.43-.53-16.6-3-32.84-9.26-48.33A76,76,0,0,0,60,225.28c-.74-1.21-2.83-2.05-4.4-2.23-7.71-.85-9.75-3.86-5.72-10.49,6.05-10,12.82-19.48,19.1-28.9-4.59-1.46-10-3.22-15.47-4.9-.43-.13-1,.44-1.56.46-1.13,0-2.82.35-3.3-.24-5.32-6.55-10.9-13-15.38-20.08-1.6-2.53-.79-6.87-.38-10.3.66-5.56,1.91-11,2.91-16.54l9.87-2.17c2.32-.75,4.85-1.13,6.91-2.32,7-4.07,11.72-10.36,15.55-17.4C70.44,105.91,73,101.78,75.46,97.58ZM55.65,140l-1.32.17c-1.68,3.46-3.32,6.94-5,10.38-1.57,3.12-1.11,5.53,1.81,7.7,3.53,2.63,6.77,5.62,10.21,8.37,2.14,1.71,4.41,3.25,6.62,4.87l.86-.69c-.84-4.69-1.61-9.38-2.55-14-.21-1.08-.72-2.68-1.5-3-4-1.52-4.85-5.2-6.36-8.47C57.53,143.49,56.56,141.75,55.65,140Z"/><path class="b8a2fba8-0144-4b53-875c-a7f1624b41e9" d="M90.85,76.36V90.28c-5.22,1.91-11.9,1.34-15.39,7.3-2.45,4.2-5,8.34-7.34,12.59-3.83,7-8.5,13.33-15.54,17.4-2.07,1.18-4.6,1.56-6.92,2.32-15.46,1.82-31.75.33-45.12,11.35-1.82-6.64,1.16-11.44,5.87-14.91,6.55-4.83,13.6-9,20.41-13.49,2.87-1.91,5.63-4,8.43-6l-.11-.16,3.14-2.61v0a.13.13,0,0,0,.07-.09l.1-.07c2.88-3.23,5.64-6.29,8.33-9.26-.07.12-.14.25-.22.36Z"/><path class="bd16c9d1-8e29-45fd-a60c-c3e6d1b5173a" d="M110.26,54.39a17.43,17.43,0,0,0,.22,9.21,2.62,2.62,0,0,1,0,1.41,63.6,63.6,0,0,0-59.8,24c-2-2.29-4.34-2.78-6.9-1.33-4,2.25-7.19,10.75-5.54,16.39l-3.14,2.61c-7.52-11.91-5.21-22.12,6.28-30a10.93,10.93,0,0,0,3.22-2.75c3-4.65,1.42-7.66-4.67-8.57,6.18-1.22,5-5,4.69-9.39-.78-11.28-.89-22.61-1-33.93,0-9,6.09-13.71,12.9-18.11C63.24-.41,70.52,1,77.66.17,85.83-.74,92,2,97.29,7.69c3.11,3.31,6.38,6.48,9.36,9.9,2,2.31,1.65,4.9,1.18,8A53.5,53.5,0,0,0,108,40.4c.18,1.47,2.83,2.62,4.78,4.27C107.45,47.14,111.08,51.17,110.26,54.39Z"/></g></g></svg>