<svg xmlns="http://www.w3.org/2000/svg" xmlns:xlink="http://www.w3.org/1999/xlink" viewBox="0 0 217.06 322.25"><defs><style>.bdfef992-b6f7-4f8b-97cf-e11bf0511956{fill:none;}.bf38a54f-b297-450a-a83d-e08001a8dfb0{isolation:isolate;}.be0c1314-2029-4430-9828-147f563800a1{mix-blend-mode:multiply;}.be14d7c2-0c27-41dd-bbdd-97fa59a7491d{clip-path:url(#f57d784c-0c02-45ef-b286-367bef7295ac);}</style><clipPath id="f57d784c-0c02-45ef-b286-367bef7295ac" transform="translate(-58.47 -127.9)"><rect class="bdfef992-b6f7-4f8b-97cf-e11bf0511956" width="377.42" height="427.94"/></clipPath></defs><title>anant</title><g class="bf38a54f-b297-450a-a83d-e08001a8dfb0"><g id="aaf72a61-68c3-4a37-a8c1-f3810605aa2b" data-name="Layer 2"><g id="bdaf2483-b189-4d49-b72a-2cec76ca3a4b" data-name="Layer 1"><g class="be0c1314-2029-4430-9828-147f563800a1"><g class="be14d7c2-0c27-41dd-bbdd-97fa59a7491d"><path d="M219.8,423.19l16.61,1.47c2.78-10.06,5.86-19.83,8.15-29.8,4.42-19.3,8.67-38.66,12.44-58.1,1.83-9.43.36-10.48-8.57-13.84a43.11,43.11,0,0,1-11.6-7.09c-3.06-2.48-5.84-4.11-9.84-2.93-1.65.49-3.56.16-5.17.73-4.56,1.6-6.52-1.43-8.33-4.52-2.38-4.06-4-8.68-6.87-12.31-4.74-6-7.54-12.07-6.32-20,.72-4.59.13-9.38.13-14.57,5.16,1.82,9.52,3.67,14,4.83,2,.51,4.94.39,6.57-.73,8.7-6,17.13-12.42,25.65-18.71,3.16-2.33,6.25-4.75,9.46-7,2.13-1.5,3.38-2.9,2.21-5.86-2-5,0-8.57,4.44-11.51,3.4-2.24,6.32-5.25,9.3-8.08,4.16-4,3.41-9.25,3.32-14.22,0-1-1.66-2-2.61-3-1.16-1.14-2.38-2.21-3.62-3.34l-.57,1.77-1.85-1.1c.62-2.9,1.25-5.8,2-9l-4.86-1.76-3.37,9,3.37,2.36c-.64.78-1,1.68-1.57,1.86-4.62,1.45-6.69,5-7.86,9.3-1.5,5.5-4.62,9.28-9.64,12.47-9.4,6-18.06,13.13-27.25,19.48a6.52,6.52,0,0,1-5.84.11c-6.79-4.17-13.77-8.11-15.21-17.4-.6-3.88-2.92-7.74-5.27-11-2.61-3.66-3.49-7.1-2.16-11.38,1.27-4.07,1.77-7.71-3.14-10.55-1.5-.86-1.26-5.42-1.05-8.24.09-1.13,2.13-2.27,3.47-3.11a11.59,11.59,0,0,1,3.2-.86c5.23-1.41,6-3.33,3.54-8.13-1.76-3.47-3.18-7.12-4.73-10.61,3.2-5.3,3.09-5.09-2.53-8.16-1.94-1.06-3.19-3.42-4.65-5.28-2-2.59-4-5.25-6-8l4.29-7.89c-10.87-.19-20.59-1.2-30.11-.26-7.89.78-13.29,6.16-15,14.42a10.77,10.77,0,0,1-1,2.67c-5.35,10.42-3,20.81,6.17,28.21,3.45,2.78,6.49,6.09,10.09,8.66,4.27,3,3.85,6.8,1.78,10.37-8.91,15.33-12.71,31.88-13.06,49.5-.3,15.23-.4,30.53-2,45.65-1.22,11.74-4.52,23.27-7,34.87-2.64,12.37-5.38,24.71-8.28,38,5.49.66,10.32,1.07,15.08,1.92a6.55,6.55,0,0,1,4.21,2.64c6.63,11.95,6.94,25.47,10,39.4-2.51-.71-4.08-1.15-5.64-1.61-17.18-5-34.31-10.17-51.53-15-9.51-2.68-19.15-4.9-28.73-7.34-6.21-1.58-7.61-.57-7.91,5.95-.13,2.85-.07,5.72,0,8.57,0,.93-.05,2.39.46,2.71,5.19,3.19,2.47,7.57,1.46,11.26-3.35,12.21.35,21.82,11.45,28,1.21.68,3.28,1.2,4.21.62a4.71,4.71,0,0,0,1.51-4,45.48,45.48,0,0,0-3-9.44c-1.25-2.81-.91-4.65,1.67-6.45,3.67-2.56,7.12-5.44,11.78-9.06,0,6.26.21,11.1-.07,15.92-.19,3.45,1.17,4.8,4.45,5.18,16,1.89,32.06,4.14,48.13,5.8,15.28,1.58,30.62,2.6,46.4,3.9-.27-.44,0-.18,0,0-1,8.05-.62,8.71,7.71,8.48,3.9-.11,8.53,2,11.59-2.76.32-.5,3.22,0,4.36.8,5.26,3.74,11.25,4.11,17.28,4A114.7,114.7,0,0,0,244,449c2.14-.34,4-2.47,6-3.79-2-1.49-3.93-3.28-6.16-4.36-1.79-.87-4-.77-6-1.27C229.11,437.37,222.73,432.66,219.8,423.19Zm-2.93-70.52c-7.64,21.84-15,42.9-22.45,63.91-.44,1.23-2.1,2-3.18,3-.66-1.45-1.85-2.88-1.9-4.34-.57-17.75-1-35.51-1.4-53.26,0-1.37.19-2.74.29-4.12Zm54.72-150.74c-5.54,5.67-6.76,5.86-10.28,1.85C263.82,198.9,267.35,199.21,271.59,201.93Z" transform="translate(-58.47 -127.9)"/></g></g></g></g></g></svg>