<svg xmlns="http://www.w3.org/2000/svg" viewBox="0 0 355.78 282.88"><defs><style>.ec790c3b-5c87-4bcd-af7f-2132e1cbcd8d{fill:#ec6059;}</style></defs><title>heart</title><g id="adb9022b-11b7-49d9-92b9-f9ac6b00aaa3" data-name="Layer 2"><g id="b63f5791-25db-4546-beb4-fadac3f17e45" data-name="Layer 1"><path class="ec790c3b-5c87-4bcd-af7f-2132e1cbcd8d" d="M351.18,129.5c-7.16,23.39-21.47,39-35.16,51.6-41.94,38.62-101.17,70.47-139.63,89-11.33,5.45-20.85,9.77-27.6,12.75l-1.85-1.12C105.36,256.42,33.35,205.42,9.88,143.66c-5.3-14-14.76-38.89-6.84-68S31.58,29.93,39.12,24C46,18.62,79.34-7.52,116.73,2.11c18.1,4.67,31.06,16.15,35.16,19.86,11,10,18.57,22,23.73,30.14,1.31,2.06,2.5,4,3.55,5.85,3.17-8,13.71-31.34,39.6-45.8A86.53,86.53,0,0,1,264.89,1.21C289,2.66,305.22,14.63,314.2,21.29c8.08,6,25.48,19.21,35.16,43.83C361.23,95.29,353.45,122.1,351.18,129.5Z"/></g></g></svg>