<svg xmlns="http://www.w3.org/2000/svg" viewBox="0 0 1529.59 820.5"><defs><style>.a550ce83-16f9-4171-811f-a60ff16a385c{fill:#e87377;}.ae7bcaed-2e77-44a8-ba86-1721ebb709f3{fill:#fff;}</style></defs><title>hindiquote</title><g id="e0849480-ca62-4e04-b8a9-51f0e57cba34" data-name="Layer 2"><g id="f012b5a4-612a-446c-84b4-a8eb7089ed5c" data-name="Layer 1"><g id="e20aea29-a2af-4d40-8e67-f22c4ce2c716" data-name="Group 90"><g id="f4af5062-ffd9-4e4e-9795-02e555dea3ad" data-name="Group 55"><path id="a3bedfd2-4dbb-42b1-8491-18f6f1a6fbad" data-name="Path 37" class="a550ce83-16f9-4171-811f-a60ff16a385c" d="M935.32,346.14c-10.68,34.86-32,58.11-52.4,76.89-62.5,57.55-150.75,105-208.06,132.66-16.88,8.13-31.06,14.55-41.12,19L631,573c-62-37.76-169.26-113.75-204.22-205.78-7.9-20.81-22-57.94-10.21-101.37,11.78-43.27,42.54-68.09,53.76-76.89,10.29-8.06,59.95-47,115.65-32.65,27,7,46.29,24.06,52.39,29.59,16.43,14.88,27.68,32.72,35.37,44.9,1.94,3.08,3.71,6,5.29,8.72,4.71-11.86,20.43-46.7,59-68.24,32.39-18.08,62.78-16.7,68.72-16.32,36,2.16,60.09,20,73.47,29.92,12,8.92,38,28.63,52.4,65.31C950.28,295.18,938.68,335.12,935.32,346.14Z"/><path id="b992d186-3356-495c-9d86-15aef046dd17" data-name="Path 38" class="a550ce83-16f9-4171-811f-a60ff16a385c" d="M311.16,96.61c-3.77,19.6-14,33.51-24,44.93-30.65,35-75.92,66-105.5,84.42-8.72,5.41-16.06,9.74-21.28,12.75l-1.6-.75C122.81,221,59.94,186,35.52,137.9,30,127,20.14,107.64,24,83.31s19.16-39.57,24.76-45c5.13-5,29.88-29.11,61.05-24.56,15.1,2.21,26.61,10.39,30.25,13,9.82,7.14,17,16.19,21.89,22.37,1.24,1.57,2.38,3.05,3.39,4.44,1.87-6.73,8.39-26.62,28.13-40.6A70.57,70.57,0,0,1,229.94.07c19.72-.93,33.89,7.37,41.76,12,7.08,4.15,22.35,13.36,32.35,32.48C316.32,68,312.34,90.41,311.16,96.61Z"/><path id="f968f12b-466d-406f-a84e-e75545111905" data-name="Path 39" class="a550ce83-16f9-4171-811f-a60ff16a385c" d="M191.3,561.94c-2.5,13-9.31,22.26-16,29.84C155,615,124.92,635.62,105.27,647.86c-5.78,3.59-10.66,6.47-14.13,8.47l-1.06-.5C66.2,644.59,24.45,621.28,8.22,589.37,4.55,582.15-2,569.27.59,553.11S13.32,526.83,17,523.21c3.41-3.32,19.85-19.33,40.55-16.31,10,1.46,17.67,6.9,20.1,8.66C84.2,520.3,89,526.31,92.22,530.42q1.23,1.56,2.25,2.94a49.53,49.53,0,0,1,18.68-27,47.06,47.06,0,0,1,24.21-8.58c13.1-.61,22.51,4.9,27.74,8,4.7,2.76,14.84,8.88,21.49,21.58C194.72,542.94,192.09,557.83,191.3,561.94Z"/><path id="fc19829a-3c7f-474c-9173-93a3e4906adc" data-name="Path 40" class="a550ce83-16f9-4171-811f-a60ff16a385c" d="M697.49,771.08c-4.5,9.12-11.41,14.56-17.86,18.82-19.78,13.05-46.19,22.16-63.2,27.21-5,1.48-9.2,2.61-12.17,3.39l-.69-.59c-15.36-13.16-41.5-38.88-47-65.77-1.25-6.08-3.47-16.93,1.72-28.36s14.76-16.84,18.24-18.76c3.19-1.75,18.6-10.25,33.29-3.81a35.7,35.7,0,0,1,13.1,10.49c3.86,4.83,6.15,10.24,7.73,13.94.4.93.75,1.82,1.06,2.63A38.06,38.06,0,0,1,651,714.13a36,36,0,0,1,19.65-1.42c9.81,2.21,15.64,8.2,18.88,11.53a39.36,39.36,0,0,1,8,46.84Z"/><path id="b279c168-82a3-450d-8aaf-d344ffc91e5d" data-name="Path 41" class="a550ce83-16f9-4171-811f-a60ff16a385c" d="M1464.31,177.5c-.58,17.07-7.39,30.19-14.33,41.17-21.25,33.66-55.4,65.89-78,85.39-6.65,5.73-12.28,10.37-16.29,13.61l-1.45-.42c-32.64-9.53-90.44-30.83-117.48-68.2-6.11-8.46-17-23.54-17-44.62s11-36,15-41.34c3.67-4.9,21.39-28.58,48.34-28.87,13.05-.15,23.87,5.24,27.31,7,9.25,4.72,16.51,11.42,21.48,16,1.25,1.15,2.41,2.26,3.45,3.3.69-5.94,3.55-23.62,18.38-38.07a60.36,60.36,0,0,1,29.1-15.76c16.54-3.41,29.62,1.72,36.89,4.58,6.53,2.56,20.66,8.32,31.66,23.16C1464.87,152.62,1464.49,172.1,1464.31,177.5Z"/><path id="e15d3358-a072-4dfe-b1bd-3084297fa97b" data-name="Path 42" class="a550ce83-16f9-4171-811f-a60ff16a385c" d="M1311.34,625.85c-5.24,10.62-13.3,16.95-20.81,21.9-23,15.17-53.81,25.75-73.63,31.62-5.83,1.71-10.71,3-14.17,3.93l-.8-.68c-17.88-15.35-48.29-45.32-54.67-76.64-1.44-7.09-4-19.72,2-33s17.2-19.59,21.26-21.83c3.71-2,21.67-11.92,38.77-4.4,8.28,3.64,13.57,10.13,15.24,12.23,4.48,5.62,7.15,11.93,9,16.24.46,1.09.87,2.12,1.24,3.07a44.25,44.25,0,0,1,22.48-18.78,41.86,41.86,0,0,1,22.88-1.63c11.41,2.58,18.21,9.56,22,13.44,3.39,3.49,10.66,11.16,13.37,23.67A47.4,47.4,0,0,1,1311.34,625.85Z"/></g><g id="fa2ab037-85bc-4087-837c-dc6ea2284169" data-name="Group 56"><path id="a5a822ca-bc71-42bb-ad97-1079958f3230" data-name="Path 43" class="ae7bcaed-2e77-44a8-ba86-1721ebb709f3" d="M168.17,131c2,0,47-12,47-12l-8,66-29,2Z"/><path id="b86b782d-73a2-41d4-9993-aacea3b8e01c" data-name="Path 44" class="ae7bcaed-2e77-44a8-ba86-1721ebb709f3" d="M221.17,125l49,2-25,60-30-5Z"/></g><g id="ee114611-d2da-41fd-81de-6ac392898efa" data-name="Group 57"><path id="e1d58ad3-6ca9-4bc9-8eb0-84101670f80a" data-name="Path 45" class="ae7bcaed-2e77-44a8-ba86-1721ebb709f3" d="M1313.17,613c-2,0-47,12-47,12l8-66,29-2Z"/><path id="a6ff683b-b9fe-46b5-8ff0-bd2c01aafcf8" data-name="Path 46" class="ae7bcaed-2e77-44a8-ba86-1721ebb709f3" d="M1260.17,619l-49-2,25-60,30,5Z"/></g><path id="fabfc42f-d52a-4a90-99dd-74834793a1c2" data-name="Path 1458" class="ae7bcaed-2e77-44a8-ba86-1721ebb709f3" d="M339.55,342.09a19,19,0,0,0,2.41-.92,9.44,9.44,0,0,0,2.13-1.34,6.54,6.54,0,0,0,1.53-1.86,5.18,5.18,0,0,0,.59-2.5,5.44,5.44,0,0,0-2.54-4.76c-1.69-1.14-4.1-1.71-7.21-1.71a19.76,19.76,0,0,0-3.84.38,10.58,10.58,0,0,0-3.59,1.4,8,8,0,0,0-2.65,2.76,8.66,8.66,0,0,0-1,4.43,12.07,12.07,0,0,0,1.07,5.06,17.3,17.3,0,0,0,2.78,4.28,24.78,24.78,0,0,0,3.84,3.54,44.51,44.51,0,0,0,4.25,2.8,41.59,41.59,0,0,0,4,2c1.25.55,2.29,1,3.12,1.3L342,362.06c-1.72-.73-3.47-1.54-5.24-2.41a55.34,55.34,0,0,1-5.17-2.87,39.7,39.7,0,0,1-4.71-3.44,23.25,23.25,0,0,1-3.84-4.15,19.45,19.45,0,0,1-2.58-5,18.12,18.12,0,0,1-.93-5.93,16.34,16.34,0,0,1,.82-5.46,13.48,13.48,0,0,1,2.3-4.1,17,17,0,0,1-3-4.67,13.55,13.55,0,0,1-.95-5.11,11.07,11.07,0,0,1,.38-3,5.68,5.68,0,0,1,1.4-2.45,7.13,7.13,0,0,1,2.81-1.67,14.47,14.47,0,0,1,4.67-.62h16.66V303H311.3v-5.41h47.93V303h-8.57v13.53H329.51a10.83,10.83,0,0,0-2.41.24,3.91,3.91,0,0,0-1.56.72,2.51,2.51,0,0,0-.83,1.2,5.28,5.28,0,0,0-.24,1.67,7.31,7.31,0,0,0,.44,2.5,9.94,9.94,0,0,0,1.66,2.73,18.15,18.15,0,0,1,4.69-1.64,26,26,0,0,1,5.35-.53,23.75,23.75,0,0,1,6.05.73,14.76,14.76,0,0,1,4.89,2.23,10.54,10.54,0,0,1,3.27,3.78,11.61,11.61,0,0,1,1.2,5.39,10.92,10.92,0,0,1-3.55,8.5,13.78,13.78,0,0,1-3.33,2.26,33.9,33.9,0,0,1-3.35,1.41ZM409.94,303h-7.72v49.43h-6V331.83H376v4.37c0,.68,0,1.35-.09,2a4.18,4.18,0,0,1-.4,1.47,2.2,2.2,0,0,1-.89.9,3.06,3.06,0,0,1-1.52.31,4.9,4.9,0,0,1-2.13-.57,12.57,12.57,0,0,1-2.4-1.54,23.37,23.37,0,0,1-2.35-2.21,20.92,20.92,0,0,1-2-2.57,15.34,15.34,0,0,1-1.45-2.67,6.39,6.39,0,0,1-.56-2.43,2.68,2.68,0,0,1,.28-1.27,1.92,1.92,0,0,1,.77-.75,3.67,3.67,0,0,1,1.2-.35,13.82,13.82,0,0,1,1.58-.09h4V303H356.65v-5.41h53.29Zm-34,0v23.43h20.23V303Zm53.55,0h-7.73v49.43h-6V303h-8.38v-5.41h22.14Zm36.81,0H452.46a38.22,38.22,0,0,1,3,6.6,20.83,20.83,0,0,1,1.16,6.82,16.11,16.11,0,0,1-.79,5,13.58,13.58,0,0,1-2.32,4.3,12,12,0,0,1-3.79,3.09,12.23,12.23,0,0,1-5.2,1.34l-.07.19a76.06,76.06,0,0,0,7.43,9.73,68.89,68.89,0,0,0,9.52,8.7l-3.94,4.52a60.4,60.4,0,0,1-5.94-5c-1.87-1.8-3.65-3.66-5.31-5.59s-3.22-3.87-4.65-5.85-2.74-3.89-3.93-5.77-2.25-3.68-3.18-5.41-1.74-3.3-2.4-4.72l5-2.72a15.14,15.14,0,0,0,3,4.5A5.41,5.41,0,0,0,444,324.4a5.18,5.18,0,0,0,2.84-.81,7.3,7.3,0,0,0,2.1-2.08,9.87,9.87,0,0,0,1.28-2.8,10.47,10.47,0,0,0,.44-3,13,13,0,0,0-.44-3.4,21.11,21.11,0,0,0-1.14-3.27,30.1,30.1,0,0,0-1.56-3.11l-1.67-2.9H427v-5.41h39.37Zm-6.14-4.38h-5.33l-3.35-6.29a53,53,0,0,0-3.88-6.36,18.75,18.75,0,0,0-3.31-3.58,7.82,7.82,0,0,0-3.07-1.58,13.49,13.49,0,0,0-3.16-.35h-7.14v-6h6.73a19.19,19.19,0,0,1,3.86.35,10.66,10.66,0,0,1,3.3,1.25,13.3,13.3,0,0,1,3.05,2.5,33.48,33.48,0,0,1,3.18,4.12q1.69,2.52,3.7,6t4.58,8.29Zm59.36,29.46,1.07,5.19a22.11,22.11,0,0,1-3.7,2.83,21.19,21.19,0,0,1-3.63,1.73,17.46,17.46,0,0,1-3.42.85,23.93,23.93,0,0,1-3.05.22A17.39,17.39,0,0,1,501,338a11.6,11.6,0,0,1-4.49-2.82,13,13,0,0,1-2.93-4.78,20.23,20.23,0,0,1-1-6.86V303h-8.2v-5.41h33.54V303H498.54v20.19a20,20,0,0,0,.38,4.16,8.09,8.09,0,0,0,1.33,3.12,5.91,5.91,0,0,0,2.48,2,9.63,9.63,0,0,0,3.86.68,15.5,15.5,0,0,0,6.11-1.32,17.61,17.61,0,0,0,5.51-3.75ZM556.79,303h-7.72v49.43h-6V335.25l-.15,0a17.9,17.9,0,0,1-2.37,1.6,19.3,19.3,0,0,1-3.07,1.4,25.79,25.79,0,0,1-3.64,1,20.84,20.84,0,0,1-4.09.39,15.89,15.89,0,0,1-7.3-1.55,15.14,15.14,0,0,1-5.07-4.13,20.78,20.78,0,0,1-3.22-5.92,36,36,0,0,1-1.69-6.94,14.3,14.3,0,0,0,4.15-1.14,9,9,0,0,0,2.8-1.93,7.41,7.41,0,0,0,2.06-5.09,13.24,13.24,0,0,0-.16-2,16,16,0,0,0-.57-2.37,21.87,21.87,0,0,0-1.07-2.67A20.48,20.48,0,0,0,518,303H507.36v-5.41h49.43Zm-32.29,0a20.83,20.83,0,0,1,2.08,4.91,19.35,19.35,0,0,1,.75,5.24,13.16,13.16,0,0,1-.5,3.64,11.33,11.33,0,0,1-1.52,3.29,12.08,12.08,0,0,1-2.56,2.73,12.26,12.26,0,0,1-3.55,1.89,15.06,15.06,0,0,0,1.62,4.21,10.31,10.31,0,0,0,2.43,2.87,9.16,9.16,0,0,0,3.12,1.64,13,13,0,0,0,3.72.51,16,16,0,0,0,3.77-.44,16.54,16.54,0,0,0,3.53-1.27,15.69,15.69,0,0,0,3.11-2A14.77,14.77,0,0,0,543,327.6V303Zm51.86,0h-7.73v49.43h-6V303h-8.38v-5.41h22.14Zm36.81,0H599.31a37.49,37.49,0,0,1,3,6.6,20.58,20.58,0,0,1,1.16,6.82,15.83,15.83,0,0,1-.79,5,13.58,13.58,0,0,1-2.32,4.3,11.83,11.83,0,0,1-3.79,3.09,12.19,12.19,0,0,1-5.2,1.34l-.07.19a76.06,76.06,0,0,0,7.43,9.73,69.47,69.47,0,0,0,9.52,8.7l-3.93,4.52a59.26,59.26,0,0,1-5.94-5q-2.82-2.7-5.32-5.59t-4.65-5.85c-1.43-2-2.75-3.9-3.94-5.77s-2.25-3.68-3.18-5.41-1.73-3.3-2.39-4.72l5-2.72a15.14,15.14,0,0,0,3,4.5,5.41,5.41,0,0,0,3.88,1.64,5.15,5.15,0,0,0,2.83-.81,7.18,7.18,0,0,0,2.1-2.08,10,10,0,0,0,1.29-2.8,10.47,10.47,0,0,0,.44-3,13.44,13.44,0,0,0-.44-3.4,23.43,23.43,0,0,0-1.14-3.27,32.25,32.25,0,0,0-1.56-3.11L592.69,303h-18.9v-5.4h39.39Zm85.66,0H667.75v14.49l.19.07a14.35,14.35,0,0,1,4.67-4.13,12.3,12.3,0,0,1,6.14-1.56,11.13,11.13,0,0,1,4.91,1.08,12.15,12.15,0,0,1,3.91,3,13.94,13.94,0,0,1,2.6,4.47,17,17,0,0,1-.24,11.79,21.55,21.55,0,0,1-3,5.16,24,24,0,0,1-4.15,4.1,38.45,38.45,0,0,1-4.56,3l-3.28-5.67c.49-.26,1.09-.62,1.8-1.06s1.45-1,2.23-1.55a22.66,22.66,0,0,0,2.28-2,16.34,16.34,0,0,0,2-2.45,12.41,12.41,0,0,0,1.45-2.86,9.67,9.67,0,0,0,.56-3.28,9.36,9.36,0,0,0-.5-3,8.15,8.15,0,0,0-1.38-2.5,6.61,6.61,0,0,0-2.12-1.7,5.88,5.88,0,0,0-2.7-.62,7.65,7.65,0,0,0-3.71,1,14.45,14.45,0,0,0-3.28,2.48,17.06,17.06,0,0,0-2.48,3.19,11.07,11.07,0,0,0-1.34,3.12v24.86h-6V338.37l-.15-.07c-.37.32-.83.7-1.4,1.16a11.75,11.75,0,0,1-2,1.3,14.21,14.21,0,0,1-2.76,1.07,12.56,12.56,0,0,1-3.51.44,14.09,14.09,0,0,1-6-1.25,14.73,14.73,0,0,1-4.75-3.4,15.8,15.8,0,0,1-3.14-5.06,16.71,16.71,0,0,1-1.14-6.21,15.81,15.81,0,0,1,1-5.85,14,14,0,0,1,2.86-4.61,13.07,13.07,0,0,1,4.27-3,12.94,12.94,0,0,1,5.28-1.09,13.26,13.26,0,0,1,3.7.5,18.19,18.19,0,0,1,3.12,1.22,17.71,17.71,0,0,1,2.54,1.54c.75.55,1.38,1,1.9,1.49l.14,0V303H631.23v-5.41h67.6ZM651.2,317.52a7.66,7.66,0,0,0-3.7.86,8.48,8.48,0,0,0-2.66,2.21,9.15,9.15,0,0,0-1.6,3,10.8,10.8,0,0,0-.54,3.29,10.47,10.47,0,0,0,.63,3.51,10.34,10.34,0,0,0,1.78,3.15,9.37,9.37,0,0,0,2.78,2.26,7.38,7.38,0,0,0,3.57.86,10.1,10.1,0,0,0,3.47-.68,10,10,0,0,0,3.35-2.11,11.41,11.41,0,0,0,2.52-3.66,12.94,12.94,0,0,0,1-5.32v-1.8a14.82,14.82,0,0,0-2.08-2.11,16.88,16.88,0,0,0-2.57-1.79,15.31,15.31,0,0,0-2.89-1.23A10.54,10.54,0,0,0,651.2,317.52ZM718.39,303h-7.72v49.43h-6V303h-8.39v-5.41h9a34.82,34.82,0,0,0-1.7-6.41,21.58,21.58,0,0,0-2.24-4.45,12.12,12.12,0,0,0-2.54-2.81,11.29,11.29,0,0,0-2.55-1.55,9.33,9.33,0,0,0-2.32-.66,13.36,13.36,0,0,0-1.78-.15,7.94,7.94,0,0,0-3.66.72,6.07,6.07,0,0,0-2.12,1.71,5.3,5.3,0,0,0-1,2.08,8.3,8.3,0,0,0-.24,1.85q0,.3.09,1.2a9.85,9.85,0,0,0,.59,2.27,17.31,17.31,0,0,0,1.53,3,19.53,19.53,0,0,0,2.9,3.57H684a19.78,19.78,0,0,1-3.48-5.5,14.69,14.69,0,0,1-1.15-5.54,11.09,11.09,0,0,1,.81-4.26,9.61,9.61,0,0,1,2.42-3.52,12.07,12.07,0,0,1,4-2.37,16.3,16.3,0,0,1,5.63-.88,16,16,0,0,1,7.61,1.71,16.19,16.19,0,0,1,5.39,4.65,23.51,23.51,0,0,1,3.45,6.9,44,44,0,0,1,1.79,8.4h7.9Zm85.66,0H773v14.49l.19.07a14.35,14.35,0,0,1,4.67-4.13A12.3,12.3,0,0,1,784,311.9a11.13,11.13,0,0,1,4.91,1.08,12.26,12.26,0,0,1,3.91,3,13.81,13.81,0,0,1,2.59,4.47,17,17,0,0,1-.23,11.78,21.42,21.42,0,0,1-3,5.17,23.74,23.74,0,0,1-4.16,4.1,36.89,36.89,0,0,1-4.56,3l-3.27-5.67c.49-.27,1.09-.62,1.8-1.07s1.45-1,2.23-1.54a24,24,0,0,0,2.28-2,17.66,17.66,0,0,0,2-2.45,12.68,12.68,0,0,0,1.45-2.87,9.56,9.56,0,0,0,.55-3.27,8.85,8.85,0,0,0-.5-3,7.75,7.75,0,0,0-1.38-2.5,6.55,6.55,0,0,0-2.11-1.7,5.88,5.88,0,0,0-2.7-.62,7.72,7.72,0,0,0-3.72,1,14.62,14.62,0,0,0-3.27,2.48,17.32,17.32,0,0,0-2.48,3.18A11,11,0,0,0,773,327.6v24.86h-6V338.37l-.15-.07c-.37.32-.84.7-1.4,1.16a12.14,12.14,0,0,1-2,1.3,14.46,14.46,0,0,1-2.76,1.07,12.61,12.61,0,0,1-3.51.44,14.17,14.17,0,0,1-6-1.25,14.8,14.8,0,0,1-4.74-3.4,15.63,15.63,0,0,1-3.14-5.06,16.71,16.71,0,0,1-1.14-6.21,16,16,0,0,1,1-5.85,14.14,14.14,0,0,1,2.87-4.61,13.07,13.07,0,0,1,4.27-3,12.94,12.94,0,0,1,5.28-1.09,13.26,13.26,0,0,1,3.7.5,18.52,18.52,0,0,1,3.12,1.22A17.71,17.71,0,0,1,764.9,315c.75.55,1.38,1,1.89,1.49l.15,0V303H736.45v-5.41h67.6Zm-47.63,14.49a7.66,7.66,0,0,0-3.7.86,8.48,8.48,0,0,0-2.66,2.21,9.15,9.15,0,0,0-1.6,3,10.8,10.8,0,0,0-.54,3.29,10.47,10.47,0,0,0,.63,3.51,10.34,10.34,0,0,0,1.78,3.15,9.37,9.37,0,0,0,2.78,2.26,7.38,7.38,0,0,0,3.57.86,10.1,10.1,0,0,0,3.47-.68,10,10,0,0,0,3.35-2.11,11.41,11.41,0,0,0,2.52-3.66,12.94,12.94,0,0,0,1-5.32v-1.8a14.82,14.82,0,0,0-2.08-2.11,16.88,16.88,0,0,0-2.57-1.79,15.31,15.31,0,0,0-2.89-1.23A10.54,10.54,0,0,0,756.42,317.52Zm73.3,24.57a19,19,0,0,0,2.41-.92,9.22,9.22,0,0,0,2.13-1.34,6.54,6.54,0,0,0,1.53-1.86,5.06,5.06,0,0,0,.59-2.5,5.42,5.42,0,0,0-2.54-4.76q-2.54-1.71-7.21-1.71a19.84,19.84,0,0,0-3.84.38,10.58,10.58,0,0,0-3.59,1.4,7.93,7.93,0,0,0-2.64,2.76,8.56,8.56,0,0,0-1,4.43,11.94,11.94,0,0,0,1.06,5.06,17.48,17.48,0,0,0,2.78,4.28,24.23,24.23,0,0,0,3.84,3.53,42.68,42.68,0,0,0,4.25,2.8,41.59,41.59,0,0,0,4,2c1.25.55,2.29,1,3.13,1.31l-2.43,5.07c-1.72-.73-3.47-1.54-5.24-2.41a55.34,55.34,0,0,1-5.17-2.87,39.7,39.7,0,0,1-4.71-3.44,23.62,23.62,0,0,1-3.84-4.15,19.41,19.41,0,0,1-2.57-5,18.07,18.07,0,0,1-.94-5.92,16.12,16.12,0,0,1,.83-5.47,13.07,13.07,0,0,1,2.3-4.1,16.5,16.5,0,0,1-3-4.67,13.33,13.33,0,0,1-1-5.11,10.75,10.75,0,0,1,.39-3,5.54,5.54,0,0,1,1.4-2.44,7,7,0,0,1,2.81-1.68,14.47,14.47,0,0,1,4.67-.62h16.65V303H801.47v-5.4h47.92V303h-8.57v13.54H819.68a9.77,9.77,0,0,0-2.41.24,3.89,3.89,0,0,0-1.56.71,2.51,2.51,0,0,0-.83,1.2,5.3,5.3,0,0,0-.24,1.68,7.35,7.35,0,0,0,.44,2.5,9.74,9.74,0,0,0,1.66,2.72,18.15,18.15,0,0,1,4.69-1.64,26,26,0,0,1,5.35-.53,23.75,23.75,0,0,1,6.05.73,14.76,14.76,0,0,1,4.89,2.23A10.58,10.58,0,0,1,841,330.2a11.55,11.55,0,0,1,1.2,5.39,10.92,10.92,0,0,1-3.55,8.49,13.23,13.23,0,0,1-3.33,2.26,33.8,33.8,0,0,1-3.34,1.42ZM869,303h-7.72v49.43h-6V303h-8.39v-5.41H869Zm45.75,0H907v49.43h-6.07V324.1H883.71c0,1.62,0,3-.06,4.16a15.16,15.16,0,0,1-.31,2.85,3.37,3.37,0,0,1-.77,1.64,2,2,0,0,1-1.44.51,6,6,0,0,1-3.62-1.25,13.86,13.86,0,0,1-3-3,16.51,16.51,0,0,1-2.08-3.68,8.84,8.84,0,0,1-.77-3.24,2.94,2.94,0,0,1,.51-1.84,3.12,3.12,0,0,1,1.36-1,6.39,6.39,0,0,1,1.93-.4c.73-.05,1.46-.07,2.19-.07h23.28V303H866.39v-5.41h48.32Zm19.57,0h-7.72v49.43h-6V303h-8.39v-5.41h9a34.82,34.82,0,0,0-1.7-6.41,21.58,21.58,0,0,0-2.24-4.45,12,12,0,0,0-2.54-2.82,11.62,11.62,0,0,0-2.55-1.54,9.33,9.33,0,0,0-2.32-.66,13.36,13.36,0,0,0-1.78-.15,7.94,7.94,0,0,0-3.66.72,6,6,0,0,0-2.12,1.71,5.32,5.32,0,0,0-1,2.07A8.39,8.39,0,0,0,901,288q0,.3.09,1.2a9.18,9.18,0,0,0,.59,2.26,17.71,17.71,0,0,0,1.52,3,19.58,19.58,0,0,0,2.91,3.57h-6.26a19.75,19.75,0,0,1-3.47-5.5,14.7,14.7,0,0,1-1.16-5.54,11.28,11.28,0,0,1,.81-4.26,9.52,9.52,0,0,1,2.43-3.52,11.93,11.93,0,0,1,4-2.37,16.34,16.34,0,0,1,5.63-.88,16,16,0,0,1,7.61,1.71,16.19,16.19,0,0,1,5.39,4.65,23.78,23.78,0,0,1,3.46,6.9,44.7,44.7,0,0,1,1.78,8.4h7.91Zm74.62,0h-7.72v49.43h-6V331.83H975.84v5.26a9.24,9.24,0,0,1-.1,1.17,3.56,3.56,0,0,1-.36,1.16,2.53,2.53,0,0,1-.74.88,1.81,1.81,0,0,1-1.16.35,4.8,4.8,0,0,1-2-.53,14.81,14.81,0,0,1-2.39-1.43,22.8,22.8,0,0,1-2.43-2.06,21.22,21.22,0,0,1-2.13-2.41,15.21,15.21,0,0,1-1.53-2.5,5.49,5.49,0,0,1-.58-2.32,2.45,2.45,0,0,1,1.1-2.24,5.27,5.27,0,0,1,2.9-.7H970V306.27a4.2,4.2,0,0,0-.92-2.93,3,3,0,0,0-2.31-1,3.4,3.4,0,0,0-2.6,1.14,4.15,4.15,0,0,0-1,2.91,5.56,5.56,0,0,0,.08.81,3.84,3.84,0,0,0,.37,1.08,7.53,7.53,0,0,0,.88,1.36,10.86,10.86,0,0,0,1.58,1.6l-3.27,4a11,11,0,0,1-2.76-2,9.91,9.91,0,0,1-1.66-2.3,9,9,0,0,1-.8-2.3,10.35,10.35,0,0,1-.23-2.08,10.52,10.52,0,0,1,.61-3.47,9.28,9.28,0,0,1,1.82-3.09,9,9,0,0,1,3-2.23,10,10,0,0,1,4.24-.84,9.45,9.45,0,0,1,3.79.7,7.36,7.36,0,0,1,2.78,2,8.7,8.7,0,0,1,1.69,3.12,13.35,13.35,0,0,1,.57,4.07v19.68h19.31V297.62h13.75Zm19.57,0h-7.73v49.43h-6V303h-8.38v-5.41h9a34.79,34.79,0,0,0-1.69-6.41,22.09,22.09,0,0,0-2.24-4.45,12.19,12.19,0,0,0-2.54-2.82,11.46,11.46,0,0,0-2.56-1.54,9.38,9.38,0,0,0-2.31-.66,13.37,13.37,0,0,0-1.79-.15,8,8,0,0,0-3.66.72A5.93,5.93,0,0,0,996.4,284a5.49,5.49,0,0,0-1,2.07,9.77,9.77,0,0,0-.24,1.86c0,.2,0,.6.1,1.2a9.62,9.62,0,0,0,.58,2.26,17.75,17.75,0,0,0,1.53,3,19.58,19.58,0,0,0,2.91,3.57H994a19.75,19.75,0,0,1-3.47-5.5,14.7,14.7,0,0,1-1.16-5.54,11.28,11.28,0,0,1,.81-4.26,9.52,9.52,0,0,1,2.43-3.52,11.93,11.93,0,0,1,4-2.37,16.34,16.34,0,0,1,5.63-.88,15.93,15.93,0,0,1,7.61,1.71,16.19,16.19,0,0,1,5.39,4.65,23.53,23.53,0,0,1,3.46,6.9,44.7,44.7,0,0,1,1.78,8.4h7.91Zm67.74,23.72a7.41,7.41,0,0,0-1.89-.59,10.86,10.86,0,0,0-2-.18,9.35,9.35,0,0,0-3.35.59,11.18,11.18,0,0,0-2.81,1.5,10,10,0,0,0-2.06,2.05,6.38,6.38,0,0,0-1.09,2.18v20.16h-6V338.37l-.14-.07c-.37.32-.84.7-1.4,1.16a12.14,12.14,0,0,1-2,1.3,14.73,14.73,0,0,1-2.76,1.07,12.66,12.66,0,0,1-3.51.44,14.17,14.17,0,0,1-6-1.25,14.8,14.8,0,0,1-4.74-3.4,15.83,15.83,0,0,1-3.15-5.06,16.93,16.93,0,0,1-1.14-6.22,16,16,0,0,1,1-5.84,14.12,14.12,0,0,1,2.87-4.62,13.08,13.08,0,0,1,4.26-3,12.83,12.83,0,0,1,5.28-1.08,13.21,13.21,0,0,1,3.7.5A17.71,17.71,0,0,1,1075,315c.74.55,1.38,1,1.89,1.49l.15,0V303h-30.5v-5.41h51.82V303H1083v20.08l.19.07a15.17,15.17,0,0,1,4-2,16,16,0,0,1,5.13-.81,17.43,17.43,0,0,1,2.5.2,10.11,10.11,0,0,1,2.54.72Zm-29.72-9.23a7.66,7.66,0,0,0-3.7.86,8.48,8.48,0,0,0-2.66,2.21,9.15,9.15,0,0,0-1.6,3,10.8,10.8,0,0,0-.54,3.29,10.47,10.47,0,0,0,.63,3.51,10.34,10.34,0,0,0,1.78,3.15,9.37,9.37,0,0,0,2.78,2.26,7.38,7.38,0,0,0,3.57.86,10.1,10.1,0,0,0,3.47-.68,10,10,0,0,0,3.35-2.11,11.41,11.41,0,0,0,2.52-3.66,12.94,12.94,0,0,0,1-5.32v-1.8A14.82,14.82,0,0,0,1075,321a16.88,16.88,0,0,0-2.57-1.79,15.31,15.31,0,0,0-2.89-1.23A10.54,10.54,0,0,0,1066.49,317.52ZM1136.81,303h-7.72v49.43h-6V335.25l-.15,0a17.27,17.27,0,0,1-2.37,1.6,19.3,19.3,0,0,1-3.07,1.4,25.43,25.43,0,0,1-3.64,1,20.74,20.74,0,0,1-4.08.39,15.87,15.87,0,0,1-7.3-1.55,15.08,15.08,0,0,1-5.08-4.13,20.78,20.78,0,0,1-3.22-5.92,36.8,36.8,0,0,1-1.69-6.94,14.28,14.28,0,0,0,4.16-1.14,9.11,9.11,0,0,0,2.8-1.93,7.22,7.22,0,0,0,1.56-2.44,7.33,7.33,0,0,0,.5-2.65,13.24,13.24,0,0,0-.16-2,16,16,0,0,0-.57-2.37,23.6,23.6,0,0,0-1.07-2.67A20.14,20.14,0,0,0,1098,303h-10.64v-5.4h49.43Zm-32.29,0a20.83,20.83,0,0,1,2.08,4.91,19.35,19.35,0,0,1,.75,5.24,13.55,13.55,0,0,1-.5,3.64,11.1,11.1,0,0,1-1.53,3.29,11.81,11.81,0,0,1-2.55,2.73,12.26,12.26,0,0,1-3.55,1.89,15.06,15.06,0,0,0,1.62,4.21,10.45,10.45,0,0,0,2.42,2.87,9.3,9.3,0,0,0,3.13,1.64,13,13,0,0,0,3.72.51,16,16,0,0,0,3.77-.44,16.54,16.54,0,0,0,3.53-1.27,15.34,15.34,0,0,0,3.1-2,14.82,14.82,0,0,0,2.54-2.65V303Zm51.85,0h-7.72v49.43h-6V303h-8.38v-5.41h22.14Zm67.6,0h-7.72v49.43h-6V303h-16.59v28.54c0,.39,0,.84-.07,1.36a5.88,5.88,0,0,1-.35,1.49,3.26,3.26,0,0,1-.79,1.21,2,2,0,0,1-1.44.5,4.64,4.64,0,0,1-2.18-.64,14.81,14.81,0,0,1-2.45-1.69,22.47,22.47,0,0,1-2.41-2.37,25.19,25.19,0,0,1-2.08-2.73,17.39,17.39,0,0,1-1.47-2.72,6.36,6.36,0,0,1-.55-2.35,2.25,2.25,0,0,1,.46-1.48,2.93,2.93,0,0,1,1.29-.84,7.42,7.42,0,0,1,2-.37c.8-.05,1.68-.07,2.63-.07h1.29V303h-13.1v-5.41H1224Zm56.38,0h-7.72v49.43h-6V320.54h-11.84l0,.14,1.32,1.57a18.3,18.3,0,0,1,1.77,2.57,19.83,19.83,0,0,1,1.54,3.46,12.55,12.55,0,0,1,.66,4.17,13.34,13.34,0,0,1-.75,4.43,12.06,12.06,0,0,1-2.24,3.94,11,11,0,0,1-3.77,2.81,12.42,12.42,0,0,1-5.3,1.07,14,14,0,0,1-5.46-1.05,16.79,16.79,0,0,1-4.52-2.81,22.13,22.13,0,0,1-3.66-4.08,37.17,37.17,0,0,1-2.89-4.91,50.42,50.42,0,0,1-2.21-5.26q-.93-2.67-1.6-5.11c-.44-1.64-.79-3.14-1.06-4.51s-.48-2.51-.63-3.42l5.45-1.07a75.88,75.88,0,0,0,3,11.6,40,40,0,0,0,3.88,8.33,16.71,16.71,0,0,0,4.6,5,9,9,0,0,0,5.15,1.68,5.38,5.38,0,0,0,4.92-2.6,6.8,6.8,0,0,0,.9-2.24,9.67,9.67,0,0,0,.24-2,9.82,9.82,0,0,0-.6-3.22,15.62,15.62,0,0,0-1.77-3.42,18.83,18.83,0,0,0-2.89-3.29,22,22,0,0,0-4-2.87v-4.3h21.81V303h-45.2v-5.41h58.95Zm-39.09,51.42a4.75,4.75,0,0,1,1.23-3.4,4.51,4.51,0,0,1,5-.94,4.65,4.65,0,0,1,2.42,2.51,5,5,0,0,1,.35,1.9,4.68,4.68,0,0,1-1.23,3.38,4.23,4.23,0,0,1-3.22,1.29,4.52,4.52,0,0,1-1.78-.35,4.22,4.22,0,0,1-1.44-1,4.76,4.76,0,0,1-1-1.51A4.91,4.91,0,0,1,1241.26,354.45Zm86-51.42h-7.72v49.43h-6v-13l-.15,0a20.05,20.05,0,0,1-1.89,1.44,17.29,17.29,0,0,1-2.5,1.36,18,18,0,0,1-3.19,1,17.57,17.57,0,0,1-3.9.4,18.32,18.32,0,0,1-7.31-1.42,17.83,17.83,0,0,1-5.69-3.79,17.32,17.32,0,0,1-3.7-5.44,16.08,16.08,0,0,1-1.32-6.42,15,15,0,0,1,1.32-6.29,15.53,15.53,0,0,1,3.63-5,17.22,17.22,0,0,1,5.35-3.32,17.46,17.46,0,0,1,6.51-1.22,24.07,24.07,0,0,1,2.54.17,16,16,0,0,1,3.14.71,19.72,19.72,0,0,1,3.47,1.57,17.19,17.19,0,0,1,3.54,2.7l.14,0V303h-35.74v-5.41h49.5Zm-37.51,24.13a11.69,11.69,0,0,0,.7,4,10.35,10.35,0,0,0,2.1,3.5,10.48,10.48,0,0,0,3.45,2.48,11.74,11.74,0,0,0,4.82.94,14,14,0,0,0,4.71-.81L1293.41,319a9.84,9.84,0,0,0-2.67,3.53A10.92,10.92,0,0,0,1289.77,327.16Zm23.9-4.45a31.66,31.66,0,0,0-2.7-2.61,17.26,17.26,0,0,0-2.92-2,15.19,15.19,0,0,0-3.26-1.33,13.67,13.67,0,0,0-3.66-.48,12.32,12.32,0,0,0-1.61.11c-.52.08-1,.17-1.58.3l12,17.94a12.18,12.18,0,0,0,2.8-3.58,8.46,8.46,0,0,0,1-3.84ZM1412.93,303h-31.07v14.49l.18.08a14.37,14.37,0,0,1,4.67-4.14,12.37,12.37,0,0,1,6.15-1.56,11.16,11.16,0,0,1,4.91,1.08,12.26,12.26,0,0,1,3.91,3,13.94,13.94,0,0,1,2.6,4.47,17.13,17.13,0,0,1-.24,11.79,21.55,21.55,0,0,1-3,5.16,23.74,23.74,0,0,1-4.16,4.1,36.89,36.89,0,0,1-4.56,3l-3.27-5.67c.49-.26,1.09-.62,1.8-1.06s1.45-1,2.23-1.55a22.66,22.66,0,0,0,2.28-2,17,17,0,0,0,2-2.45,12.82,12.82,0,0,0,1.45-2.86,9.66,9.66,0,0,0,.55-3.28,8.85,8.85,0,0,0-.5-3,7.92,7.92,0,0,0-1.37-2.5,6.72,6.72,0,0,0-2.12-1.7,5.88,5.88,0,0,0-2.7-.62,7.65,7.65,0,0,0-3.71,1,14.45,14.45,0,0,0-3.28,2.48,17.06,17.06,0,0,0-2.48,3.19,11.07,11.07,0,0,0-1.34,3.12v24.86h-6V338.37l-.15-.07c-.37.32-.83.7-1.4,1.16a12.14,12.14,0,0,1-2,1.3,14.21,14.21,0,0,1-2.76,1.07,12.56,12.56,0,0,1-3.51.44,14.17,14.17,0,0,1-6-1.25,14.8,14.8,0,0,1-4.74-3.4,15.63,15.63,0,0,1-3.14-5.06,16.71,16.71,0,0,1-1.14-6.21,16,16,0,0,1,1-5.85,14.14,14.14,0,0,1,2.87-4.61,13.07,13.07,0,0,1,4.27-3,12.94,12.94,0,0,1,5.28-1.09,13.26,13.26,0,0,1,3.7.5,18.52,18.52,0,0,1,3.12,1.22,17.71,17.71,0,0,1,2.54,1.54c.75.55,1.38,1,1.9,1.49l.14,0V303h-30.49v-5.41h67.6Zm-47.62,14.49a7.67,7.67,0,0,0-3.7.87,8.47,8.47,0,0,0-2.67,2.2,9.64,9.64,0,0,0-1.6,3,10.49,10.49,0,0,0-.53,3.29,10.22,10.22,0,0,0,.62,3.51,10.36,10.36,0,0,0,1.79,3.15,9.15,9.15,0,0,0,2.77,2.26,7.41,7.41,0,0,0,3.57.86A9.66,9.66,0,0,0,1369,336a9.92,9.92,0,0,0,3.34-2.11,11,11,0,0,0,2.52-3.66,13.06,13.06,0,0,0,1-5.31v-1.8a16,16,0,0,0-2.08-2.12,16.42,16.42,0,0,0-2.58-1.78,13.8,13.8,0,0,0-2.88-1.23,10.22,10.22,0,0,0-3-.47ZM1432.5,303h-7.72v49.43h-6V303h-8.39v-5.41h9a34,34,0,0,0-1.69-6.41,21.58,21.58,0,0,0-2.24-4.45,12.19,12.19,0,0,0-2.54-2.82,11.62,11.62,0,0,0-2.55-1.54,9.45,9.45,0,0,0-2.32-.66,13.37,13.37,0,0,0-1.79-.15,7.9,7.9,0,0,0-3.65.72,6,6,0,0,0-2.12,1.71,5.32,5.32,0,0,0-1,2.07,8.39,8.39,0,0,0-.24,1.86q0,.3.09,1.2a9.18,9.18,0,0,0,.59,2.26,17.71,17.71,0,0,0,1.52,3,19.58,19.58,0,0,0,2.91,3.57h-6.25a19.78,19.78,0,0,1-3.48-5.5,14.89,14.89,0,0,1-1.16-5.54,11.48,11.48,0,0,1,.81-4.26,9.76,9.76,0,0,1,2.43-3.52,12,12,0,0,1,4-2.37,16.28,16.28,0,0,1,5.62-.88,15.32,15.32,0,0,1,13,6.36,23.29,23.29,0,0,1,3.46,6.9,44,44,0,0,1,1.79,8.4h7.9Zm46.3,39.06a19,19,0,0,0,2.41-.92,9.44,9.44,0,0,0,2.13-1.34,6.54,6.54,0,0,0,1.53-1.86,5.18,5.18,0,0,0,.59-2.5,5.44,5.44,0,0,0-2.54-4.76c-1.69-1.14-4.1-1.71-7.21-1.71a19,19,0,0,0-3.84.39,10.38,10.38,0,0,0-3.59,1.4,8,8,0,0,0-2.65,2.75,8.68,8.68,0,0,0-1,4.44,12.06,12.06,0,0,0,1.07,5,17.54,17.54,0,0,0,2.78,4.29,24.71,24.71,0,0,0,3.84,3.53,44.51,44.51,0,0,0,4.25,2.8,41.59,41.59,0,0,0,4,2c1.25.55,2.29,1,3.12,1.31l-2.42,5.06c-1.71-.73-3.46-1.54-5.24-2.41a58,58,0,0,1-5.17-2.87,39.59,39.59,0,0,1-4.7-3.44,23.3,23.3,0,0,1-3.85-4.15,19.41,19.41,0,0,1-2.57-5,18.07,18.07,0,0,1-.94-5.92,16.12,16.12,0,0,1,.83-5.47,13.07,13.07,0,0,1,2.3-4.1,16.73,16.73,0,0,1-3-4.67,13.52,13.52,0,0,1-1-5.11,11.55,11.55,0,0,1,.39-3,5.54,5.54,0,0,1,1.4-2.44,7.09,7.09,0,0,1,2.81-1.68,14.47,14.47,0,0,1,4.67-.62h16.66V303h-33.32v-5.4h47.92V303h-8.56v13.54h-21.15a9.77,9.77,0,0,0-2.41.24,3.89,3.89,0,0,0-1.56.71,2.51,2.51,0,0,0-.83,1.2,5.3,5.3,0,0,0-.24,1.68,7.35,7.35,0,0,0,.44,2.5,9.74,9.74,0,0,0,1.66,2.72,18.09,18.09,0,0,1,4.68-1.64,26.12,26.12,0,0,1,5.36-.53,23.75,23.75,0,0,1,6.05.73,14.76,14.76,0,0,1,4.89,2.23,10.58,10.58,0,0,1,3.27,3.79,11.55,11.55,0,0,1,1.2,5.39,10.92,10.92,0,0,1-3.55,8.49,13.23,13.23,0,0,1-3.33,2.26,34.85,34.85,0,0,1-3.34,1.42Zm13.79-43.44h-4.89l-1.32-1.17c-1.92-1.69-3.6-3.12-5.06-4.29s-2.75-2.12-3.88-2.88a22.29,22.29,0,0,0-3-1.77,14.27,14.27,0,0,0-2.46-.92,11,11,0,0,0-2.21-.35c-.71,0-1.46,0-2.24,0h-7.06V282H1467a19.72,19.72,0,0,1,3,.2,11.48,11.48,0,0,1,2.63.7,16.1,16.1,0,0,1,2.56,1.28,30.48,30.48,0,0,1,2.81,2q1.53,1.21,3.39,2.87c1.23,1.1,2.65,2.38,4.24,3.83l.22-.15q-2.13-3.5-3.78-6.05c-1.11-1.7-2.11-3.15-3-4.34a27.89,27.89,0,0,0-2.5-2.92,11.08,11.08,0,0,0-2.21-1.77,7,7,0,0,0-2.17-.85,12.73,12.73,0,0,0-2.39-.22h-7.13v-5.4h6.73a15.63,15.63,0,0,1,3.8.4,9.23,9.23,0,0,1,3.2,1.47,15.54,15.54,0,0,1,3,2.91,42.93,42.93,0,0,1,3.29,4.73q1.78,2.88,4,6.91t5.09,9.47Zm37,71.54h-5.44V294.87h5.44ZM358.16,393.41h-7.72v49.43h-6V429.71l-.14,0a21.76,21.76,0,0,1-1.73,1.45,12.84,12.84,0,0,1-2.28,1.36,15.72,15.72,0,0,1-2.89,1,14.43,14.43,0,0,1-3.59.4,15.49,15.49,0,0,1-6.63-1.4,16.32,16.32,0,0,1-5.17-3.73,17,17,0,0,1-3.37-5.37,17.41,17.41,0,0,1-1.2-6.34,16,16,0,0,1,1.2-6.16,15.26,15.26,0,0,1,8.19-8.24,15.09,15.09,0,0,1,6-1.2,20.69,20.69,0,0,1,2.22.15,13.75,13.75,0,0,1,2.89.66,16.61,16.61,0,0,1,3.2,1.49,13.74,13.74,0,0,1,3.16,2.63l.15,0V393.41h-33.1V388h46.85Zm-13.61,19.83a21.46,21.46,0,0,0-5-4.51,11.42,11.42,0,0,0-6.18-1.71,9.3,9.3,0,0,0-7.72,3.63,10.1,10.1,0,0,0-1.77,3.47,13.44,13.44,0,0,0-.55,3.68,11.91,11.91,0,0,0,.63,3.79,10.33,10.33,0,0,0,1.85,3.36,9.71,9.71,0,0,0,3.08,2.43,9.38,9.38,0,0,0,4.3.94,10.88,10.88,0,0,0,4.63-1,12.62,12.62,0,0,0,3.61-2.48,11.13,11.13,0,0,0,2.34-3.38,9,9,0,0,0,.82-3.65Zm33.17-19.83H370v49.43h-6V393.41h-8.39V388h22.14ZM369.49,389h-5.34l-3.34-6.29a52.17,52.17,0,0,0-3.88-6.36,19.13,19.13,0,0,0-3.31-3.59,7.89,7.89,0,0,0-3.07-1.58,14.06,14.06,0,0,0-3.17-.35h-7.13v-6H347a20,20,0,0,1,3.86.35,11,11,0,0,1,3.29,1.25,13.4,13.4,0,0,1,3.06,2.5,35.31,35.31,0,0,1,3.18,4.12c1.12,1.68,2.36,3.69,3.7,6s2.86,5.11,4.57,8.3Zm85.25,4.37H447v49.43h-6V410.92H429.14l0,.15c.3.34.74.86,1.33,1.56a18.55,18.55,0,0,1,1.76,2.57,19.87,19.87,0,0,1,1.55,3.46,12.92,12.92,0,0,1,.66,4.18,13.44,13.44,0,0,1-.76,4.43,12,12,0,0,1-2.24,3.93,11,11,0,0,1-3.77,2.82,12.41,12.41,0,0,1-5.3,1.06,13.82,13.82,0,0,1-5.46-1.05,16.79,16.79,0,0,1-4.52-2.81,21.85,21.85,0,0,1-3.66-4.08,37.17,37.17,0,0,1-2.89-4.91,50.35,50.35,0,0,1-2.2-5.26q-.94-2.67-1.6-5.11c-.44-1.63-.8-3.13-1.07-4.51s-.47-2.51-.62-3.42l5.44-1.06a78.91,78.91,0,0,0,3,11.6,40.19,40.19,0,0,0,3.88,8.33,17.09,17.09,0,0,0,4.6,5,9,9,0,0,0,5.15,1.67,5.67,5.67,0,0,0,3.09-.75,6,6,0,0,0,1.84-1.84,7.22,7.22,0,0,0,.9-2.25,11,11,0,0,0,.24-2,9.77,9.77,0,0,0-.61-3.21A15,15,0,0,0,426,416a18.89,18.89,0,0,0-2.88-3.3,22.48,22.48,0,0,0-4-2.87v-4.3H441V393.41h-45.2V388h59Zm19.56,0h-7.72v49.43h-6V393.41h-8.39V388H474.3Zm45.75,0h-7.72v49.43h-6.07V414.49H489.05c0,1.62,0,3-.06,4.15a15.07,15.07,0,0,1-.31,2.85,3.33,3.33,0,0,1-.77,1.64,2,2,0,0,1-1.43.52,6.08,6.08,0,0,1-3.63-1.25,14.13,14.13,0,0,1-3-3,16.29,16.29,0,0,1-2.08-3.68,8.84,8.84,0,0,1-.77-3.23,2.93,2.93,0,0,1,.51-1.84,3.2,3.2,0,0,1,1.36-1,6.71,6.71,0,0,1,1.93-.4c.73-.05,1.46-.07,2.19-.07h23.28V393.41H471.73V388h48.32Zm46.09,0h-7.73v49.43h-6V410.55h-12a29,29,0,0,0-4.45.32,8.25,8.25,0,0,0-3.38,1.25,6,6,0,0,0-2.15,2.61,10.78,10.78,0,0,0-.75,4.39,17.63,17.63,0,0,0,1.15,6.51,24.44,24.44,0,0,0,3,5.46,33.51,33.51,0,0,0,4,4.58q2.19,2.1,4.22,3.86l-3.68,4.2c-.22-.13-.74-.49-1.57-1.09a30.19,30.19,0,0,1-2.86-2.44,40.87,40.87,0,0,1-3.46-3.75,32.71,32.71,0,0,1-3.35-5,31.74,31.74,0,0,1-2.54-6.12,24.78,24.78,0,0,1-1-7.21,16,16,0,0,1,1.09-6.34,9.63,9.63,0,0,1,3.07-4,12,12,0,0,1,4.81-2.08,31.34,31.34,0,0,1,6.33-.59h13.53v-11.7H517.48V388h48.66Zm19.56,0H578v49.43h-6V393.41h-8.39V388h9a34.71,34.71,0,0,0-1.7-6.42,21.84,21.84,0,0,0-2.24-4.45,12.12,12.12,0,0,0-2.54-2.81,11.29,11.29,0,0,0-2.55-1.55,9.33,9.33,0,0,0-2.32-.66,13.36,13.36,0,0,0-1.78-.15,7.94,7.94,0,0,0-3.66.72,6.07,6.07,0,0,0-2.12,1.71,5.37,5.37,0,0,0-1,2.08,8.32,8.32,0,0,0-.24,1.86q0,.29.09,1.2a9.9,9.9,0,0,0,.59,2.26,18.46,18.46,0,0,0,1.52,3.05,19.58,19.58,0,0,0,2.91,3.57h-6.25a19.78,19.78,0,0,1-3.48-5.5,14.89,14.89,0,0,1-1.16-5.54,11.48,11.48,0,0,1,.81-4.26,9.76,9.76,0,0,1,2.43-3.52,12,12,0,0,1,4-2.37,16.28,16.28,0,0,1,5.62-.88,15.32,15.32,0,0,1,13,6.36,23.29,23.29,0,0,1,3.46,6.9,44,44,0,0,1,1.79,8.4h7.9Zm66.38,0h-7.72v49.43h-6.07V414.49H621.08c0,1.62,0,3-.05,4.15a15.08,15.08,0,0,1-.32,2.85,3.33,3.33,0,0,1-.77,1.64,2,2,0,0,1-1.43.52,6.08,6.08,0,0,1-3.63-1.25,14.13,14.13,0,0,1-3-3,16.29,16.29,0,0,1-2.08-3.68,8.84,8.84,0,0,1-.77-3.23,2.93,2.93,0,0,1,.51-1.84,3.2,3.2,0,0,1,1.36-1,6.71,6.71,0,0,1,1.93-.4c.73-.05,1.46-.07,2.19-.07h23.28V393.41H603.76V388h48.32Zm25.68,39.06a18.84,18.84,0,0,0,2.4-.92,9.5,9.5,0,0,0,2.14-1.34,6.5,6.5,0,0,0,1.52-1.86,5.06,5.06,0,0,0,.59-2.5,5.44,5.44,0,0,0-2.54-4.76q-2.54-1.71-7.2-1.71a19.87,19.87,0,0,0-3.85.39,10.33,10.33,0,0,0-3.58,1.4,7.93,7.93,0,0,0-2.65,2.75,8.66,8.66,0,0,0-1,4.43,12.07,12.07,0,0,0,1.07,5.06,17.25,17.25,0,0,0,2.78,4.29,24.71,24.71,0,0,0,3.84,3.53,44.51,44.51,0,0,0,4.25,2.8,41.59,41.59,0,0,0,4,2c1.25.55,2.29,1,3.12,1.3l-2.42,5.08q-2.58-1.11-5.25-2.41a59,59,0,0,1-5.16-2.87,39.7,39.7,0,0,1-4.71-3.44,22.88,22.88,0,0,1-3.84-4.15,19.45,19.45,0,0,1-2.58-5,18.08,18.08,0,0,1-.93-5.93,16.34,16.34,0,0,1,.82-5.46,13.48,13.48,0,0,1,2.3-4.1,17,17,0,0,1-3-4.67,13.51,13.51,0,0,1-1-5.11,11.07,11.07,0,0,1,.38-3,5.64,5.64,0,0,1,1.4-2.44,7,7,0,0,1,2.82-1.68,14.47,14.47,0,0,1,4.67-.62h16.66v-8.18H649.52V388h47.92v5.4h-8.58V407H667.71a9.69,9.69,0,0,0-2.4.24,3.93,3.93,0,0,0-1.57.71,2.62,2.62,0,0,0-.82,1.2,5.34,5.34,0,0,0-.24,1.68,7.12,7.12,0,0,0,.44,2.5,10,10,0,0,0,1.65,2.72,18.15,18.15,0,0,1,4.69-1.64,26,26,0,0,1,5.35-.53,23.69,23.69,0,0,1,6.05.73,14.67,14.67,0,0,1,4.89,2.23,10.61,10.61,0,0,1,3.28,3.79,11.58,11.58,0,0,1-2.36,13.88,13.63,13.63,0,0,1-3.32,2.26c-1.1.53-2.21,1-3.35,1.42ZM717,393.41h-7.72v49.43h-6V393.41h-8.38V388h9a34.69,34.69,0,0,0-1.69-6.42,22.36,22.36,0,0,0-2.24-4.45,12.59,12.59,0,0,0-2.54-2.81,11.14,11.14,0,0,0-2.56-1.55,9.33,9.33,0,0,0-2.32-.66,13.22,13.22,0,0,0-1.78-.15,8,8,0,0,0-3.66.72,6,6,0,0,0-2.11,1.71,5.53,5.53,0,0,0-1,2.08,9.67,9.67,0,0,0-.24,1.86q0,.29.09,1.2a10.45,10.45,0,0,0,.59,2.26,17.75,17.75,0,0,0,1.53,3.05,19.53,19.53,0,0,0,2.9,3.57h-6.25a19.52,19.52,0,0,1-3.47-5.5,14.43,14.43,0,0,1-1.16-5.54,11.28,11.28,0,0,1,.81-4.26,9.61,9.61,0,0,1,2.42-3.52,12.07,12.07,0,0,1,4.05-2.37,16.3,16.3,0,0,1,5.63-.88,16,16,0,0,1,7.61,1.71,16.19,16.19,0,0,1,5.39,4.65,23.51,23.51,0,0,1,3.45,6.9,44,44,0,0,1,1.79,8.4H717Zm-13.16-16.62a4.78,4.78,0,0,1,1.23-3.4,4.55,4.55,0,0,1,5-.94,4.63,4.63,0,0,1,2.42,2.52,5,5,0,0,1,.35,1.9,4.69,4.69,0,0,1-1.23,3.38,4.27,4.27,0,0,1-3.22,1.29,4.71,4.71,0,0,1-1.78-.35,4.46,4.46,0,0,1-1.44-1,4.76,4.76,0,0,1-1-1.51A5,5,0,0,1,703.83,376.79Zm41.08,33.54c.37,1.15.8,2.41,1.29,3.77a40.34,40.34,0,0,0,1.74,4.12,39,39,0,0,0,2.28,4,18.17,18.17,0,0,0,2.91,3.46,13.5,13.5,0,0,0,3.62,2.4,11.63,11.63,0,0,0,8.46.2,6.9,6.9,0,0,0,4.17-4.63,11.6,11.6,0,0,0,.46-3.31,7,7,0,0,0-2.74-5.92q-2.73-2.13-7.92-2.13c-.42,0-.84,0-1.25,0s-.84.06-1.25.11v-5.59a3.08,3.08,0,0,0,.53,0h.28a15.14,15.14,0,0,0,4.58-.64,10.18,10.18,0,0,0,3.36-1.75,7.35,7.35,0,0,0,2.06-2.57,7.2,7.2,0,0,0,.7-3.09,6.3,6.3,0,0,0-.51-2.61,5.57,5.57,0,0,0-1.4-1.92,5.92,5.92,0,0,0-2.1-1.15,8.51,8.51,0,0,0-2.65-.39,13.52,13.52,0,0,0-1.91.13,16,16,0,0,0-2,.4,21.55,21.55,0,0,0-2.19.72c-.77.29-1.65.66-2.63,1.1l-2.1-5a31,31,0,0,1,5.52-2.12,20.54,20.54,0,0,1,5.4-.72,14.13,14.13,0,0,1,4.91.85,11.76,11.76,0,0,1,3.9,2.34A10.68,10.68,0,0,1,773,394a10.85,10.85,0,0,1,.92,4.45q0,6.58-6.29,10.6v.14a14.46,14.46,0,0,1,4.12,2.54c.71.12,1.46.22,2.26.3s1.53.11,2.19.11a19.78,19.78,0,0,0,2.17-.15,12.53,12.53,0,0,0,2.33-.55,13.46,13.46,0,0,0,2.43-1.14,14.42,14.42,0,0,0,2.48-1.92V388h13.76v5.4h-7.72v49.43h-6V414.89l-.15,0a12.38,12.38,0,0,1-3.93,1.83,16.1,16.1,0,0,1-3.79.45q-.63,0-1.29-.06l-1.36-.13,0,.15a10.19,10.19,0,0,1,.58,3.71,15.06,15.06,0,0,1-1,5.52,12.65,12.65,0,0,1-2.85,4.4,13,13,0,0,1-4.49,2.88,16,16,0,0,1-5.9,1,15.49,15.49,0,0,1-6.3-1.23,19.83,19.83,0,0,1-5.08-3.18,23,23,0,0,1-4-4.4,38.43,38.43,0,0,1-2.91-4.91,40,40,0,0,1-2-4.68c-.52-1.49-.9-2.72-1.14-3.7ZM819,393.41h-7.72v49.43h-6V393.41h-8.39V388H819ZM811,389h-4.89l-1.32-1.18c-1.92-1.69-3.6-3.12-5.06-4.29s-2.75-2.12-3.88-2.88a22.29,22.29,0,0,0-3-1.77,14.27,14.27,0,0,0-2.46-.92,11.7,11.7,0,0,0-2.21-.35c-.71,0-1.46,0-2.24,0h-7.06v-5.22h6.55a19.68,19.68,0,0,1,3,.2,11.87,11.87,0,0,1,2.63.7,15.35,15.35,0,0,1,2.56,1.29,26.47,26.47,0,0,1,2.81,2c1,.8,2.15,1.76,3.39,2.86l4.25,3.83.22-.15c-1.43-2.33-2.69-4.34-3.79-6.05s-2.11-3.15-3-4.34a29,29,0,0,0-2.5-2.92,11.7,11.7,0,0,0-2.2-1.77,7.19,7.19,0,0,0-2.17-.84,12,12,0,0,0-2.4-.22H781v-5.4h6.73a15.77,15.77,0,0,1,3.81.4,9.32,9.32,0,0,1,3.2,1.47,15.15,15.15,0,0,1,3,2.9,42.93,42.93,0,0,1,3.29,4.73c1.19,1.92,2.52,4.23,4,6.91s3.15,5.85,5.09,9.48Zm44.83,4.37H841.93a37.49,37.49,0,0,1,3,6.6,20.63,20.63,0,0,1,1.16,6.83,15.87,15.87,0,0,1-.79,5,13.39,13.39,0,0,1-2.32,4.3,12,12,0,0,1-3.78,3.09,12.42,12.42,0,0,1-5.2,1.34l-.08.18a76.28,76.28,0,0,0,7.43,9.73,69.55,69.55,0,0,0,9.53,8.7L847,443.72a60.4,60.4,0,0,1-5.94-5c-1.87-1.8-3.65-3.66-5.31-5.59s-3.22-3.87-4.65-5.84-2.75-3.9-3.94-5.78-2.25-3.68-3.18-5.4-1.73-3.31-2.39-4.73l5-2.72a15.19,15.19,0,0,0,3,4.51,5.36,5.36,0,0,0,3.88,1.63,5,5,0,0,0,2.83-.81,7.14,7.14,0,0,0,2.1-2.07,10.16,10.16,0,0,0,1.29-2.8,10.58,10.58,0,0,0,.44-3,13.38,13.38,0,0,0-.44-3.4,23.56,23.56,0,0,0-1.14-3.28,33.44,33.44,0,0,0-1.56-3.11l-1.68-2.9h-18.9V388h39.38Zm46.3,39.06a19,19,0,0,0,2.41-.92,9.22,9.22,0,0,0,2.13-1.34,6.54,6.54,0,0,0,1.53-1.86,5.06,5.06,0,0,0,.59-2.5,5.44,5.44,0,0,0-2.54-4.76c-1.69-1.14-4.1-1.71-7.21-1.71a19.77,19.77,0,0,0-3.84.39,10.38,10.38,0,0,0-3.59,1.4,8,8,0,0,0-2.65,2.76,8.62,8.62,0,0,0-1,4.43,12,12,0,0,0,1.07,5.05,17.54,17.54,0,0,0,2.78,4.29,24.78,24.78,0,0,0,3.85,3.53,44.51,44.51,0,0,0,4.25,2.8,41.59,41.59,0,0,0,4,2c1.25.55,2.29,1,3.13,1.3l-2.43,5.08c-1.72-.74-3.46-1.54-5.24-2.41s-3.5-1.83-5.17-2.87a40.53,40.53,0,0,1-4.71-3.44,23.34,23.34,0,0,1-3.84-4.16,18.8,18.8,0,0,1-2.57-5,17.73,17.73,0,0,1-.94-5.92,16.34,16.34,0,0,1,.82-5.46,13.48,13.48,0,0,1,2.3-4.1,16.69,16.69,0,0,1-3-4.67,13.33,13.33,0,0,1-1-5.11,10.7,10.7,0,0,1,.39-3,5.63,5.63,0,0,1,1.4-2.45,7,7,0,0,1,2.81-1.67,14.47,14.47,0,0,1,4.67-.62h16.66v-8.18H873.85V388h47.92v5.4H913.2V407H892.06a9.77,9.77,0,0,0-2.41.24,4,4,0,0,0-1.57.71,2.62,2.62,0,0,0-.82,1.2,5.34,5.34,0,0,0-.24,1.68,7.35,7.35,0,0,0,.44,2.5,10,10,0,0,0,1.65,2.72,18.15,18.15,0,0,1,4.69-1.64,26,26,0,0,1,5.35-.53,23.26,23.26,0,0,1,6.05.74,14.45,14.45,0,0,1,4.89,2.22,10.61,10.61,0,0,1,3.28,3.79,12.88,12.88,0,0,1,.19,10.43,11.69,11.69,0,0,1-2.54,3.45,13.88,13.88,0,0,1-3.33,2.26c-1.09.53-2.21,1-3.35,1.42Zm70.4-39.06h-7.72v49.43h-6V422.21H938.51v4.38a19.52,19.52,0,0,1-.1,2,3.79,3.79,0,0,1-.4,1.47,2.07,2.07,0,0,1-.88.9,3.2,3.2,0,0,1-1.52.32,5.13,5.13,0,0,1-2.14-.57,13.4,13.4,0,0,1-2.39-1.55,21.34,21.34,0,0,1-2.35-2.21,20.19,20.19,0,0,1-2-2.57,15.7,15.7,0,0,1-1.46-2.67,6.33,6.33,0,0,1-.55-2.42A2.54,2.54,0,0,1,925,418a1.77,1.77,0,0,1,.77-.76,3.86,3.86,0,0,1,1.2-.35,13.82,13.82,0,0,1,1.58-.09h4V393.41H919.2V388h53.29Zm-34,0v23.43h20.23V393.41Zm111,0h-7.72v49.43h-6V410.92H1023.9l0,.15,1.32,1.56a19.54,19.54,0,0,1,1.77,2.57,19.83,19.83,0,0,1,1.54,3.46,12.55,12.55,0,0,1,.66,4.17,13.44,13.44,0,0,1-.75,4.44,12,12,0,0,1-2.24,3.93,11,11,0,0,1-3.77,2.81,12.27,12.27,0,0,1-5.3,1.07,13.79,13.79,0,0,1-5.46-1.05,16.84,16.84,0,0,1-4.53-2.81,22.54,22.54,0,0,1-3.66-4.08,36,36,0,0,1-2.88-4.91,48.35,48.35,0,0,1-2.21-5.26q-.95-2.67-1.6-5.11c-.44-1.63-.8-3.14-1.07-4.51s-.47-2.51-.62-3.42l5.44-1.06a78.91,78.91,0,0,0,3,11.6,40.19,40.19,0,0,0,3.88,8.33,17.09,17.09,0,0,0,4.6,5,9.06,9.06,0,0,0,5.15,1.67,5.67,5.67,0,0,0,3.09-.75,6,6,0,0,0,1.84-1.84,7.22,7.22,0,0,0,.9-2.25,11,11,0,0,0,.24-2,9.77,9.77,0,0,0-.61-3.21,14.6,14.6,0,0,0-1.77-3.42,18.49,18.49,0,0,0-2.88-3.3,22.78,22.78,0,0,0-4-2.87v-4.3h21.8V393.41h-45.2V388h59Zm46.09,0h-7.73v49.43h-6V410.55h-12a28.88,28.88,0,0,0-4.45.32,8.25,8.25,0,0,0-3.38,1.25,6,6,0,0,0-2.15,2.61,10.79,10.79,0,0,0-.76,4.39,17.85,17.85,0,0,0,1.16,6.51,24.44,24.44,0,0,0,3,5.46,33.51,33.51,0,0,0,4,4.58q2.19,2.1,4.22,3.86l-3.68,4.2c-.22-.13-.74-.49-1.57-1.09a30.19,30.19,0,0,1-2.86-2.44,40.87,40.87,0,0,1-3.46-3.75,32.71,32.71,0,0,1-3.35-5,31.74,31.74,0,0,1-2.54-6.12,24.78,24.78,0,0,1-1-7.21,16,16,0,0,1,1.09-6.35,9.67,9.67,0,0,1,3.07-4,11.87,11.87,0,0,1,4.82-2.08,31.18,31.18,0,0,1,6.32-.59h13.54v-11.7h-34.94V388h48.65Zm19.56,0h-7.72v49.43h-6V393.41H1093V388h22.14Zm46.08,0h-7.72v49.43h-6V410.55h-12a28.79,28.79,0,0,0-4.45.32,8.19,8.19,0,0,0-3.38,1.25,6,6,0,0,0-2.15,2.61,10.79,10.79,0,0,0-.76,4.39,17.85,17.85,0,0,0,1.16,6.51,24,24,0,0,0,3,5.46,33.51,33.51,0,0,0,4,4.58q2.19,2.1,4.21,3.86l-3.67,4.2c-.23-.13-.75-.49-1.57-1.09a31.62,31.62,0,0,1-2.87-2.44,40.76,40.76,0,0,1-3.45-3.75,32.71,32.71,0,0,1-3.35-5,31.74,31.74,0,0,1-2.54-6.12,24.78,24.78,0,0,1-1-7.21,16.18,16.18,0,0,1,1.08-6.35,9.61,9.61,0,0,1,3.08-4,11.82,11.82,0,0,1,4.81-2.08,31.34,31.34,0,0,1,6.33-.59h13.53v-11.7h-34.94V388h48.66Zm-6.14-4.37h-5.33l-3.35-6.29a51,51,0,0,0-3.88-6.36,18.8,18.8,0,0,0-3.31-3.59,7.76,7.76,0,0,0-3.07-1.58,14,14,0,0,0-3.16-.35h-7.14v-6h6.73a19.94,19.94,0,0,1,3.86.35,11.19,11.19,0,0,1,3.3,1.25,13.57,13.57,0,0,1,3,2.5,34.25,34.25,0,0,1,3.18,4.12q1.69,2.52,3.7,6t4.57,8.3Zm72.53,4.38h-7.73v49.42h-6.07V414.49h-17.21c0,1.62,0,3,0,4.15a15.08,15.08,0,0,1-.32,2.85,3.33,3.33,0,0,1-.77,1.64,2,2,0,0,1-1.43.52,6.08,6.08,0,0,1-3.63-1.25,14.13,14.13,0,0,1-3-3,16.29,16.29,0,0,1-2.08-3.68,8.84,8.84,0,0,1-.77-3.23,2.93,2.93,0,0,1,.51-1.84,3.2,3.2,0,0,1,1.36-1,6.71,6.71,0,0,1,1.93-.4c.73-.05,1.46-.07,2.19-.07h23.28V393.41h-34.53V388h48.33Zm25.67,39.05a17.58,17.58,0,0,0,2.41-.92,9.66,9.66,0,0,0,2.13-1.34,6.63,6.63,0,0,0,1.53-1.85,5.17,5.17,0,0,0,.58-2.5,5.43,5.43,0,0,0-2.53-4.77q-2.55-1.71-7.21-1.71a20.77,20.77,0,0,0-3.85.39,10.53,10.53,0,0,0-3.58,1.4,8,8,0,0,0-2.65,2.76,8.64,8.64,0,0,0-1,4.43,12.1,12.1,0,0,0,1.07,5.06,17.45,17.45,0,0,0,2.77,4.28,24.78,24.78,0,0,0,3.85,3.53A42.68,42.68,0,0,0,1251,444a41.59,41.59,0,0,0,4,2c1.25.55,2.29,1,3.12,1.31l-2.43,5.07q-2.57-1.09-5.24-2.41a56.38,56.38,0,0,1-5.16-2.86,39.7,39.7,0,0,1-4.71-3.44,22.94,22.94,0,0,1-3.84-4.16,19.29,19.29,0,0,1-2.58-5,18.07,18.07,0,0,1-.94-5.92,16.6,16.6,0,0,1,.83-5.46,13.48,13.48,0,0,1,2.3-4.1,17,17,0,0,1-3-4.67,13.36,13.36,0,0,1-1-5.11,11.07,11.07,0,0,1,.38-3,5.58,5.58,0,0,1,1.4-2.45,7.06,7.06,0,0,1,2.81-1.67,14.82,14.82,0,0,1,4.68-.63h16.66v-8.18h-33.32V388H1273v5.4h-8.58V407h-21.15a9.69,9.69,0,0,0-2.4.24,3.93,3.93,0,0,0-1.57.71,2.72,2.72,0,0,0-.83,1.2,5.33,5.33,0,0,0-.23,1.68,6.9,6.9,0,0,0,.44,2.5,10,10,0,0,0,1.65,2.72,18.15,18.15,0,0,1,4.69-1.64,26,26,0,0,1,5.35-.53,23.69,23.69,0,0,1,6.05.73,14.67,14.67,0,0,1,4.89,2.23,10.61,10.61,0,0,1,3.28,3.79,11.58,11.58,0,0,1-2.36,13.88,13.63,13.63,0,0,1-3.32,2.26c-1.1.53-2.21,1-3.35,1.42Zm39.24-39.05h-7.72v49.42h-6V393.41h-8.38V388h9a34.69,34.69,0,0,0-1.69-6.42,22.36,22.36,0,0,0-2.24-4.45,12.59,12.59,0,0,0-2.54-2.81,11.14,11.14,0,0,0-2.56-1.55,9.33,9.33,0,0,0-2.32-.66,13.22,13.22,0,0,0-1.78-.15,8,8,0,0,0-3.66.72,6,6,0,0,0-2.11,1.71,5.39,5.39,0,0,0-1,2.08,9.67,9.67,0,0,0-.24,1.86q0,.29.09,1.2a10.45,10.45,0,0,0,.59,2.26,17.75,17.75,0,0,0,1.53,3.05,19.53,19.53,0,0,0,2.9,3.57h-6.25a19.52,19.52,0,0,1-3.47-5.5,14.43,14.43,0,0,1-1.16-5.54,11.28,11.28,0,0,1,.81-4.26,9.61,9.61,0,0,1,2.42-3.52,12.07,12.07,0,0,1,4-2.37,16.3,16.3,0,0,1,5.63-.88,16,16,0,0,1,7.61,1.71,16.19,16.19,0,0,1,5.39,4.65,23.78,23.78,0,0,1,3.46,6.9,44.7,44.7,0,0,1,1.78,8.4h7.91Zm-13.17-16.63a4.78,4.78,0,0,1,1.23-3.4,4.51,4.51,0,0,1,5-.94A4.6,4.6,0,0,1,1288,375a4.91,4.91,0,0,1,.35,1.89,4.66,4.66,0,0,1-1.23,3.39,4.3,4.3,0,0,1-3.22,1.29,4.71,4.71,0,0,1-1.78-.35,4.34,4.34,0,0,1-1.44-1,4.72,4.72,0,0,1-1-1.5A5,5,0,0,1,1279.36,376.79Zm44.28,83.78h-5.44V385.25h5.44Z"/></g></g></g></svg>