<svg xmlns="http://www.w3.org/2000/svg" viewBox="0 0 617.87 1007"><defs><style>.f99d0366-50dd-4f35-b4c8-ea3d285342f2{fill:#cb534d;}</style></defs><title>kavya</title><g id="b278adfd-7957-4750-a77f-2e91238af913" data-name="Layer 2"><g id="bb5d9f42-989f-424e-baeb-3e3a6aae8630" data-name="Layer 1"><path class="f99d0366-50dd-4f35-b4c8-ea3d285342f2" d="M275,578.24l-54-4.86c-3.94,15-7.17,30.43-12.05,45.27-7.49,22.76-15.8,45.28-24.38,67.66C179,701,176,716,176.59,731.48c1.24,33.83-7.28,64.66-24.6,93.82-15.24,25.66-23.52,54.27-29,83.52-.85,4.57.69,9.77,1.89,14.49a51.56,51.56,0,0,1-5.24,39.61c-1.14,2-2.46,4.12-2.89,6.34-4.46,23.27-28.93,40.34-52.19,36.24-11.06-2-17.24-11.65-16-25.37.92-10.29,3-19.76,10.64-28,6.11-6.62,10.34-15.06,14.94-23,4.24-7.28,9.32-13,18-14.92a6.87,6.87,0,0,0,4.26-4.51c3.73-21.42,8.53-42.77,10.35-64.37,3.06-36.25,5.32-72.53,18.78-106.78a79.67,79.67,0,0,0,5.37-29.82c.05-10.45,3.67-20.83,5.05-31.34,1.58-12.08,2.46-24.26,3.58-36.41,2.2-23.86,4.2-47.75,6.64-71.59.51-5-.58-7.18-5.41-9.11-10.28-4.1-20.26-9-30.15-13.94A48.48,48.48,0,0,1,100,538.83c-6.92-6.3-7.61-11.36-3.56-19.82a118.27,118.27,0,0,1,32.09-40.85c2.49-2,4.78-4.3,8.51-7.68-7.56,1.1-13.35,2.54-19.16,2.67-11.92.29-24,1.16-35.74-.53-20-2.88-42-25.54-42.38-46.95-.22-11.27,2.87-22.79,5.67-33.89C47.7,382.64,52,374,54.94,365a29.62,29.62,0,0,0,1.4-10.29c-.25-6.58,7-17.3,13.5-19.31,1.57-.48,3.38-1.08,4.41-2.23,10.06-11.15,20-22.43,30.33-34.11C92,294.07,79.21,288.39,66,283.9c-8.54-2.89-10.59-1.23-12.19,7.44-1.75,9.55-2.9,19.21-4.32,28.82a6.35,6.35,0,0,1-.55,2.53c-3,4.46-6.19,8.84-9.73,13.86-1.49-1.31-3.15-2.84-4.88-4.28-1.31-1.1-2.84-3.14-4-3-7.73,1.12-12.4-4.77-18.18-7.75C.7,315.66-4.2,285.29,4.29,275.68c3.76-4.25,7.77-8.28,11.42-12.63,8.07-9.62,19-9.52,30-9.11,13.24.5,26.48,1.09,39.71,1.92s26.44,2.09,39.67,3c3.36.22,7.1.59,10.1-.58,24.29-9.45,47.76-20.44,67.41-38.15,12.45-11.22,26.08-16.17,43.3-11.22,6.38,1.83,14.44-.8,21.3-2.84,2.34-.7,3.35-5.84,5-8.95s3.59-6,4.66-9.29c.8-2.44,1.58-6.17.35-7.77-4.2-5.46-9.3-10.22-15.55-16.82v39.26c-9.44-9-15.43-30.4-18.13-58.95-1.22,4.22-2.44,8.44-4,13.72-1.3-2-2.47-3-2.72-4.21-2.36-11.88-5.84-23.72-6.5-35.71-.84-15.35-.79-31,1.53-46.17C234,57.34,238.74,43.71,244,30.65c5.81-14.53,15.87-26.41,32.39-28.4,9.18-1.11,18.82,1.69,28.27,2.5,2.81.23,6.05.46,8.47-.67,16.14-7.49,30.08-4.7,41.8,8.64,2.12,2.4,4.82,4.29,7.12,6.55,3.56,3.5,7.86,6.59,10.37,10.74,15.44,25.54,22.21,52.28,10.54,81.52-3.52,8.8-5.71,18.13-8.62,27.19-2.29,7.13-5.87,12.8-14,15.06-2,.56-3.16,5.29-4.16,8.28-3.9,11.7-7.21,23.61-11.53,35.14-1.88,5-5.67,9.36-9.42,13.43l6.42-34.1-2-.57c-6.18,3.49-12.5,6.76-18.42,10.65-1.22.79-1.48,4-1.21,5.91a95,95,0,0,0,2.87,12.77c.78,2.7,1.42,6.11,3.36,7.68,5.28,4.27,10.13,10.54,18.7,6.42,1.63-.78,4.51.93,6.78,1.62,2.48.75,4.93,2.39,7.38,2.35,6.48-.09,10.32,1.88,13.74,8.21,2.88,5.31,9.18,9.1,14.56,12.68,8.54,5.69,17.09,20.85,12.69,29.66-8.19,16.42-3.73,33-3.19,49.3.69,20.65,3.68,41.23,6.16,61.79.59,4.84,3,9.5,4.79,14.15,2.76,7.1,6,14,8.57,21.2,3.73,10.4,3.55,10.24,14.48,10,2.37-.06,5.2,1.64,7.06,3.35a9.91,9.91,0,0,1,3.14,6.3c.21,11.56,8.32,14.53,17.33,17.19,16.5,4.87,32.81,10.46,49.41,14.93a26.62,26.62,0,0,0,15.33-.74,23.14,23.14,0,0,1,16.41-.07c1.5.5,3.24.32,5.09.46a11.53,11.53,0,0,0-.26-2.35c-1-2.17-2.07-4.32-3.12-6.47,2.6.46,5.61.25,7.69,1.54,2.68,1.65,4.61,4.51,7.41,7.41,4.44-2.11,8.6,1.58,12.82,5.34,1.66,1.48,3.6,2.64,5.39,4,3.33,2.49,6.64,5,10,7.49a16.78,16.78,0,0,0,2.91,1.8c1.36.64,2.94.91,4.19,1.7,5.89,3.7,11.78,7.39,17.47,11.37,1.51,1.06,2.29,3.14,3.37,4.69-1.13.84-1.45,1.29-1.81,1.32-2.64.22-5.29.36-7.93.52,1.37,2.43,2.45,5.08,4.16,7.25,5.09,6.45,11.4,12.09,10.88,21.51-.38,6.74-3.19,12.1-9,14.89-14.57,7-30.3,3.6-38-12.31-2.17-4.48-5-6.67-9.19-6.69-9.78-.06-19.56.5-29.33.77-5,.14-10,.74-14.89.21C507,534.57,501.8,528,502.3,517.33c.62-13.3-2.79-17.69-15.8-20.84-9.4-2.27-18.74-4.78-27.92-7.13-6.34,13.35-8,13.74-24.24,6.24-4.59,5.73-9.76,6-15.21.71a3.24,3.24,0,0,0-2.8-.76c-8.63,4.08-13.71-1.31-18.17-7.13-3-3.93-5-8.66-7.51-13-.91-1.53-2-3.7-3.4-4.09-16.48-4.55-33-8.8-49.64-13.16-2.33,17.74,7.5,31.06,14.49,45,7.82,15.55,17.15,30.35,26.16,45.26,2.29,3.78,2.1,5.63-1.9,7.49-7.58,3.52-14.9,7.63-22.59,10.88-4.17,1.77-4.57,4.16-4.18,8.13q4.68,47.15,9,94.33c1.21,13.44.79,27.14,3.28,40.31C364,721,369.62,731.71,373,743c9.17,30.74,10.74,62.53,13.5,94.27,2.13,24.63,7.64,49,12,73.4.32,1.78,3.17,3.18,5,4.61,3.38,2.7,8.56,4.59,10,8.06,5.38,13,11.93,25,21.38,35.66,6.9,7.81,6.22,18.33,4,27.59-4.54,18.71-22,25.52-39.85,16.49-14.23-7.21-23.24-18.08-24.13-34.63a6.87,6.87,0,0,0-1.2-3.59c-7.05-9.25-6.09-20-5.79-30.6,0-1.51,0-3.26.71-4.48,7-11.94,3.29-24.07.2-35.85-6.84-26.15-15.42-51.59-29.51-75.06-15.06-25.05-21.57-52.8-20.9-82,.47-20.63-3-40-11.74-58.88-14-30.54-22.72-63-30.31-95.64C275.83,580.69,275.26,579.07,275,578.24Z"/></g></g></svg>