<svg xmlns="http://www.w3.org/2000/svg" viewBox="0 0 800.61 199.57"><defs><style>.b6851856-80af-4860-90b4-e88ad3221e97{fill:#ec5c63;}.f3ad1c53-5ebb-44d8-8c0f-9f46c5c17797{isolation:isolate;}</style></defs><title>mr-irritating</title><g id="f09cb496-ce87-4554-b1e5-fb9265db910f" data-name="Layer 2"><g id="f2c11d33-a978-4067-973b-1d8481eb5d7b" data-name="Layer 1"><path id="fae643d7-5719-491b-a7c5-079ca119a8d4" data-name="Path 1457" class="b6851856-80af-4860-90b4-e88ad3221e97" d="M0,19.79a41.68,41.68,0,0,0,4.75-4.55,80.7,80.7,0,0,1,6.93-6.53,40,40,0,0,1,4-3.17,16.59,16.59,0,0,1,3.57-2,10.05,10.05,0,0,1,2-.2h.4a2.52,2.52,0,0,1,1.79.79,52.06,52.06,0,0,1,1.58,7.72q1,5.15,2,11.48,1.18,9.3,2.17,18.4c.66,6.06,1,10,1,11.67q1.59-11.67,5.15-18.8,3.56-6.91,8.11-9.3,8.31-4.74,17.81,4.95t14,31.27a69.16,69.16,0,0,0,1.59-11.28q.8-7.51,2.37-15.24,1-4.35,2.18-8.31a43.53,43.53,0,0,1,3.17-7.12A21,21,0,0,1,90,13.06,12.61,12.61,0,0,1,98,10.49,21.55,21.55,0,0,1,110,13.85a32.25,32.25,0,0,1,9.1,9.3q6.13,9.5,9.3,23.55a211.36,211.36,0,0,1,4.36,29.09q1.38,14.44,1.58,27.7,0,13.24.2,21.57.19,4.35.4,6.92c.13,1.85.4,2.77.79,2.77q2.17.6,6.33-5.54,4-5.94,7.92-13.26,2.37-5,4.35-9.3t2.77-6.53a14.76,14.76,0,0,0,2.57.2,4.54,4.54,0,0,1,2.38.6q-1,3.17-4.55,11.67a83.79,83.79,0,0,1-8.71,15.83,45.21,45.21,0,0,1-7.12,8.31c-2.52,2.11-5,3.1-7.53,3q-9.89-.6-16.62-16.23a205.78,205.78,0,0,1-10.88-35.82q-2-8.5-3.37-17.21-1.58-8.72-3-16.63-2.37-14.64-4.15-24.73T92.8,19c-1,0-2.17,2.17-3.36,6.53S87.07,35,85.88,41.36q-1,5.14-1.78,10.68-1,5.74-1.78,11.28-1.59,10.89-2.77,20.39L77.77,98q-2.19,1.18-9.3,1.58Q61.15,99.74,58,95q-.19-2.17-1.58-10.29-1.2-8.11-3.17-17.61-2.17-11.67-4.95-21.77T43.14,35.22q-3-.19-5.54,8.12a96.56,96.56,0,0,0-4.16,19.39q-.8,6.13-1.19,12.46t-.2,12.27q.21,5.75.2,12.07.21,6.33,0,12.47-.2,11.48-.59,21.37a133.44,133.44,0,0,1-1.39,14.25,6.47,6.47,0,0,0-3.16-1.19,16.39,16.39,0,0,0-3.56.4,30.46,30.46,0,0,0-9.9,3.36,6.4,6.4,0,0,1-3,1c-1.31,0-2-.92-2.17-2.77q-.79-7.32-1.78-21.57Q5.94,112.39,5,95.77L3.76,78.36q-.4-8.7-1-17Q2,46.11,1.19,34.63.59,23.16,0,19.79ZM166.81,97.55q4-.58,10.88,1.39a5.32,5.32,0,0,1,2,2.77,10.43,10.43,0,0,1,1,3.76,36.9,36.9,0,0,1,.2,6.73l-.79,7.12q-1,6.93-1.58,12.27-.6,5.53,1.58,5.94,2.56.19,6.93-5.55a119.71,119.71,0,0,0,8.9-13.06q2.76-4.94,4.94-9.89a57.12,57.12,0,0,0,3.17-8.31,23.3,23.3,0,0,1,2.77-.2,3,3,0,0,1,2.37,1.19,159.29,159.29,0,0,1-6.72,16.82,63.39,63.39,0,0,1-10.89,16.22,29.55,29.55,0,0,1-7.32,5.74,16.23,16.23,0,0,1-8.5,2.38h-.2a19.68,19.68,0,0,1-9.1-1.78,11.35,11.35,0,0,1-5.34-4.55q-4-6.73-.6-17.22,3.36-10.29,7.72-16.23a41.85,41.85,0,0,0-6.53.2,18.35,18.35,0,0,1-9.3-1.18,10,10,0,0,1-6.14-8.51,43.51,43.51,0,0,1-.59-6.93q0-7.51,3-11.08a11.31,11.31,0,0,1,9.1-4,15.83,15.83,0,0,1,3.36.4,7.91,7.91,0,0,1,4,1.78,9.85,9.85,0,0,1,2.17,3.37q2,5.94-1.18,14.25a43.19,43.19,0,0,1-2.77,5.93A10.65,10.65,0,0,0,166.81,97.55Zm-5.34-7.71a41.07,41.07,0,0,0,1.78-8.71c.27-2.77-.2-4.35-1.39-4.75s-2.57,2.37-3.76,7.92-1.32,9,0,10.09a8,8,0,0,0,1.19,1,38.15,38.15,0,0,0,2.18-5.54Zm51.05,47.69a4.9,4.9,0,0,1-.59-2.18,3.88,3.88,0,0,1,2-3.17,8.07,8.07,0,0,1,4.36-1.38,5.76,5.76,0,0,1,2.17.4q3.38,1,4,5.74v1.38q0,3.36-2.17,4.16a5.33,5.33,0,0,1-2.38.59,5.46,5.46,0,0,1-3.36-1.19A12.42,12.42,0,0,1,212.52,137.53ZM310.86,9.3q-5.53.4-11.08.4,2.58,11.67,4.16,21.77,2,12.86,3,24.34a357.78,357.78,0,0,1,1.58,40.36q-.4,18.81,0,40.57a87.85,87.85,0,0,1,10.09-1.19c2.38,0,3.57.13,3.57.4s-.2.27-.6.4c-1.05.66-1.19,1.91-.4,3.76q-.4,1.38-6.33,2.57t-13.85,2l-3.56.4q-4,3-6.93,3.36h-1a3.83,3.83,0,0,1-2-.6,3.61,3.61,0,0,1-2-2h-7.72a27.5,27.5,0,0,1-6.14-.4v-.2a4.88,4.88,0,0,1,1.19-2.58,5.78,5.78,0,0,1,4-2q3.56-.19,7.52-.59-1-8.7-1.78-19.59-1.19-13.84-1.78-28.49-.8-17.82-1-34.83-.21-8.51-.2-15.63,0-7.32.2-13.26,0-6.33.4-10.68a37.22,37.22,0,0,1,.59-6.14c.53-.53,1.12-1.19,1.78-2q-8.7,0-14.05.2a7.68,7.68,0,0,1-1.58.2c-1.32,0-1.91-.19-1.78-.57s-.06-1.73-1-3.64q.6-1.54,9.1-1.92h5.15c2.77,0,5.6.06,8.5.2a9.79,9.79,0,0,1,5.55-4h.59a5.26,5.26,0,0,1,2.37.59,10.12,10.12,0,0,1,3,3.34l.2.62,8.12.79a71.09,71.09,0,0,1,8.7,1.32,12.63,12.63,0,0,1-2,1.51,9.23,9.23,0,0,1-2.57,1.13Zm31.66,88.25q4-.58,10.89,1.39a5.39,5.39,0,0,1,2,2.77,10.63,10.63,0,0,1,1,3.76,37.81,37.81,0,0,1,.2,6.73l-.8,7.12q-1,6.93-1.58,12.27-.6,5.53,1.58,5.93,2.58.21,6.93-5.54a118.3,118.3,0,0,0,8.9-13.06c1.85-3.29,3.49-6.59,4.95-9.89a57.51,57.51,0,0,0,3.16-8.31,21.5,21.5,0,0,1,2.77-.2,3,3,0,0,1,2.38,1.19,159.36,159.36,0,0,1-6.73,16.82,63.61,63.61,0,0,1-10.88,16.22,30,30,0,0,1-7.33,5.74,16.22,16.22,0,0,1-8.5,2.37h-.2a19.38,19.38,0,0,1-9.1-1.78,11.42,11.42,0,0,1-5.35-4.55q-4-6.72-.59-17.21,3.36-10.29,7.72-16.23a40.66,40.66,0,0,0-6.53.2,18.24,18.24,0,0,1-9.3-1.19,10,10,0,0,1-6.14-8.5,43.51,43.51,0,0,1-.59-6.93q0-7.51,3-11.08a11.34,11.34,0,0,1,9.11-4,15.2,15.2,0,0,1,3.36.4,7.91,7.91,0,0,1,4,1.78,9.84,9.84,0,0,1,2.18,3.36q2,5.94-1.19,14.25A42.16,42.16,0,0,1,339,97.36a10.71,10.71,0,0,0,3.57.19Zm-5.34-7.71A40.46,40.46,0,0,0,339,81.13q.41-4.16-1.38-4.75-2-.41-3.76,7.92-2,8.51,0,10.09a8.6,8.6,0,0,0,1.18,1,36,36,0,0,0,2.18-5.54Zm50.66,7.71q4-.58,10.88,1.39a5.33,5.33,0,0,1,2,2.77,10.43,10.43,0,0,1,1,3.76,36.9,36.9,0,0,1,.2,6.73l-.79,7.12q-1,6.93-1.59,12.27-.58,5.53,1.59,5.93,2.56.21,6.92-5.54a116.94,116.94,0,0,0,8.9-13.06q2.77-4.94,4.95-9.89a57.56,57.56,0,0,0,3.17-8.31,21.25,21.25,0,0,1,2.77-.2,3,3,0,0,1,2.37,1.19,159.36,159.36,0,0,1-6.73,16.82,63.61,63.61,0,0,1-10.88,16.22,30.16,30.16,0,0,1-7.32,5.74,16.26,16.26,0,0,1-8.51,2.37h-.2a19.43,19.43,0,0,1-9.1-1.78,11.45,11.45,0,0,1-5.34-4.55q-4-6.72-.6-17.21,3.38-10.29,7.72-16.23a40.7,40.7,0,0,0-6.53.2,18.26,18.26,0,0,1-9.3-1.19,9.81,9.81,0,0,1-4-3,9.65,9.65,0,0,1-2.17-5.54,44.71,44.71,0,0,1-.6-6.93q0-7.51,3-11.08a11.32,11.32,0,0,1,9.1-4,15.2,15.2,0,0,1,3.36.4,7.82,7.82,0,0,1,4,1.78,9.84,9.84,0,0,1,2.18,3.36q2,5.94-1.19,14.25a43.19,43.19,0,0,1-2.77,5.93,10.66,10.66,0,0,0,3.56.2Zm-5.34-7.71a41.71,41.71,0,0,0,1.78-8.71q.39-4.16-1.39-4.75-2-.41-3.76,7.92-2,8.51,0,10.09a8.12,8.12,0,0,0,1.19,1,38.15,38.15,0,0,0,2.18-5.54Zm39,8.11a12.82,12.82,0,0,1,3.36-5.34,11.87,11.87,0,0,1,4.55-3,13.54,13.54,0,0,1,5.35-1.19,13,13,0,0,1,3.16.4q4.16,1.19,4.36,3.56a36.94,36.94,0,0,1-.4,6.73q-.6,5.34-1,11.68-.4,7.52-.2,14.05t2.77,6.53q2.56,0,6.72-5.35a105.27,105.27,0,0,0,7.92-11.28q2.57-4.15,4.55-7.91a51.69,51.69,0,0,0,2.77-5.94,8.52,8.52,0,0,1,2.57,0,4.32,4.32,0,0,1,2.38.79q-1.59,3.57-5.74,11.48a87.82,87.82,0,0,1-9.1,14.25,38.88,38.88,0,0,1-7.12,6.92,10,10,0,0,1-5.35,1.79,7.05,7.05,0,0,1-1.58-.2q-19-4.56-22.16-14.25a26.91,26.91,0,0,1-1.19-8.11A44,44,0,0,1,421.48,98Zm8.31-24.34a.87.87,0,0,1,0-.8c0-2,1.39-3.43,4.16-4.35a16.23,16.23,0,0,1,4.74-.79,13.63,13.63,0,0,1,3.37.4q3.17,1.19,4.15,5.94a15.77,15.77,0,0,1,.2,2.17c0,1.59-.46,2.38-1.38,2.38a.56.56,0,0,1-.4-.2,85.8,85.8,0,0,0-9.7-1.39C431.77,76.84,430.05,75.72,429.79,73.61Zm64.9,2.57H486q.6,7.32,1.39,15.43.39,6.14,1.19,12.27.58,5.94,1.18,11.68,1.39,10.08,2.77,17,1.59,6.74,3.57,6.54,3.56-.21,8.11-6.93a110,110,0,0,0,7.92-14.64q2.37-5.15,4.15-9.7t2.57-6.73a17.24,17.24,0,0,1,2.38.2,3,3,0,0,1,2.18,1q-.6,3-4.36,12.46a111.72,111.72,0,0,1-8.9,17.81,54,54,0,0,1-7.12,9.1q-3.36,3.17-6.53,3.17h-1q-11.28-1.78-18.2-7.52A36.49,36.49,0,0,1,467,123.07a59.78,59.78,0,0,1-3.76-14.84,102.54,102.54,0,0,1-.59-11.08c0-1.71.06-3.36.2-5a149.29,149.29,0,0,1,1.77-17.4q-5.14-.21-10.69-.4c-1.58-.14-2.37-.33-2.37-.6s.26-.39,1.19-.79q3.36-1.38,4.55-2c.39-.66,1.91-1,4.55-1.18h3.76l1.58-6.34q3.57-13.65,6.14-19.59c.79-1.71,1.64-2.57,2.57-2.57s1.65.73,2.57,2.18A27.65,27.65,0,0,0,484,49.86q.4,3,1.19,15c.13,1.58.2,3.17.2,4.75,1.18.27,2.44.6,3.76,1a22.35,22.35,0,0,0,7.91,1.58,8.22,8.22,0,0,1,.2,2v.4c-.13,1.06-1,1.58-2.58,1.58Zm44.92,10.09a2.06,2.06,0,0,1,.2,2c-.14.92-.6,1.38-1.39,1.38a16.24,16.24,0,0,0-6.53-2.57,5.29,5.29,0,0,0-4.15,1.78,10,10,0,0,0-2.57,5.74,33.47,33.47,0,0,0-.6,8.11A51.87,51.87,0,0,0,526.35,115c1.06,3.83,2.11,5.81,3.17,6,1.32.39,2.77-1.32,4.35-5.15a117.34,117.34,0,0,0,4.36-12.07q1.57-5.34,2.77-9.89c.79-3,1.25-4.88,1.38-5.54q1.79-9.11,8.11-9.9a10,10,0,0,1,2.77-.4q3.76,0,4.36,2.18c.52,1.19.79,4.88.79,11.08s.2,12.53.59,19a94.75,94.75,0,0,0,1.59,13.85c.65,4.09,1.71,6.2,3.16,6.33q2.58.21,5.74-5.54a87.77,87.77,0,0,0,6.13-12.27q1.78-4.35,3.17-8.31,1.38-4.16,2-6.13a7.32,7.32,0,0,1,2.37-.4,5.33,5.33,0,0,1,2.38.59q-1,3.76-3.56,11.88a79.74,79.74,0,0,1-6.53,14.84,35.81,35.81,0,0,1-5.74,7.71,9.13,9.13,0,0,1-6.33,2.77H563a18.19,18.19,0,0,1-12.07-4.94,35.67,35.67,0,0,1-7.13-9.3,36.36,36.36,0,0,1-2.18-4.75c-.52-1.45-.92-2.64-1.18-3.56a23.84,23.84,0,0,1-3.36,7.72q-2.37,3.75-9.7,3.76a15.37,15.37,0,0,1-6.93-1.78,11.53,11.53,0,0,1-4.35-4.36,16.17,16.17,0,0,1-2.17-6.72,25.82,25.82,0,0,1-.2-3.17,23.47,23.47,0,0,1,.4-4.35A35.57,35.57,0,0,1,519,90.24q3.94-6.54,9.1-8.12a10,10,0,0,1,5.54,0,14.82,14.82,0,0,1,5.93,4.16Zm67.47-10.09h-8.7q.58,7.32,1.38,15.43.4,6.14,1.19,12.27.6,5.94,1.19,11.68,1.38,10.08,2.77,17c1.05,4.49,2.24,6.66,3.56,6.53q3.56-.19,8.11-6.92a110.06,110.06,0,0,0,7.92-14.65q2.37-5.15,4.15-9.7c1.19-3,2.05-5.28,2.57-6.72a15.81,15.81,0,0,1,2.38.2,3,3,0,0,1,2.18,1q-.6,3-4.36,12.47a111.72,111.72,0,0,1-8.9,17.81,54,54,0,0,1-7.12,9.1q-3.36,3.17-6.53,3.17h-1q-11.28-1.78-18.2-7.52a36.63,36.63,0,0,1-10.29-14.25,59.46,59.46,0,0,1-3.76-14.84,105.17,105.17,0,0,1-.6-11.08c0-1.72.07-3.37.2-5A149.49,149.49,0,0,1,577,74.79c-3.43-.14-7-.27-10.69-.4-1.58-.14-2.37-.33-2.37-.6s.26-.39,1.18-.79c2.25-.92,3.76-1.58,4.55-2,.4-.66,1.92-1,4.56-1.18H578l1.58-6.34q3.55-13.65,6.13-19.59c.79-1.71,1.65-2.57,2.57-2.57s1.65.73,2.58,2.18a27.65,27.65,0,0,0,5.54,6.33q.39,3,1.18,15c.14,1.58.2,3.17.2,4.75,1.19.26,2.44.59,3.76,1a22.4,22.4,0,0,0,7.92,1.58,8.76,8.76,0,0,1,.2,2v.4q-.21,1.59-2.58,1.59Zm22,21.77a12.77,12.77,0,0,1,3.37-5.34,11.72,11.72,0,0,1,4.55-3,13.49,13.49,0,0,1,5.34-1.19,13.05,13.05,0,0,1,3.17.4q4.15,1.19,4.35,3.56a36.06,36.06,0,0,1-.4,6.73q-.58,5.34-1,11.68-.39,7.52-.2,14.05T651,131.4q2.58,0,6.73-5.35a106.72,106.72,0,0,0,7.92-11.28q2.57-4.15,4.55-7.91a53.43,53.43,0,0,0,2.77-5.94,8.52,8.52,0,0,1,2.57,0,4.28,4.28,0,0,1,2.37.79q-1.57,3.57-5.73,11.48a88.51,88.51,0,0,1-9.1,14.25,38.94,38.94,0,0,1-7.13,6.92,10,10,0,0,1-5.34,1.79A7,7,0,0,1,649,136q-19-4.56-22.17-14.25a26.59,26.59,0,0,1-1.18-8.11A43.77,43.77,0,0,1,629.05,98Zm8.31-24.34a.87.87,0,0,1,0-.8c0-2,1.39-3.43,4.16-4.35a16.25,16.25,0,0,1,4.75-.79,13.61,13.61,0,0,1,3.36.4q3.17,1.19,4.16,5.94a17.5,17.5,0,0,1,.2,2.17c0,1.59-.47,2.38-1.39,2.38a.57.57,0,0,1-.4-.2A85.48,85.48,0,0,0,642.5,77Q637.76,76.78,637.36,73.61Zm51.45,36.21q.41-3.16,1.19-12.27t4.35-14.64a12,12,0,0,1,2.77-3,8.36,8.36,0,0,1,3.76-1.19h.2a12.89,12.89,0,0,1,7.52,2.18,18.53,18.53,0,0,1,5.34,5.74A28.33,28.33,0,0,1,717.11,94a78.43,78.43,0,0,1,2,8.31,174.12,174.12,0,0,1,2,18.8c.13,5.8.79,8.71,2,8.71s2.64-1.79,4.75-5.35A115.15,115.15,0,0,0,733.73,113c1.19-2.64,2.24-5.08,3.17-7.33a48.76,48.76,0,0,0,1.78-5.14c.66-.13,1.45-.27,2.37-.4a3.92,3.92,0,0,1,2.58.59,94.86,94.86,0,0,1-3.76,10.1,74,74,0,0,1-6.73,13.25,46.51,46.51,0,0,1-5.34,7.13c-2,1.84-3.9,2.77-5.74,2.77a14.85,14.85,0,0,1-7.92-2.38,16.57,16.57,0,0,1-5.14-5.74,32,32,0,0,1-3.17-7.51,54.75,54.75,0,0,1-1.78-8.32,119.42,119.42,0,0,1-1.58-18.6c-.14-5.8-.86-8.64-2.18-8.5q-3,.39-4.15,9.5t-1.59,19.39q-.39,8.51-.4,15.23-.2,6.93-.4,8.12a3.39,3.39,0,0,1-3.56,1.58,15.18,15.18,0,0,1-4-.59q-5.94-2-7.12-4.95c0-.79-.6-2.77-1.78-5.94s-2.31-6.92-3.76-10.88q-2.58-7.12-5-14.05c-1.58-4.62-2.51-7.52-2.77-8.71,1.06-1.18,3.69-2.44,7.91-3.76s7.72-.66,10.1,2q1.38,2.17,2.77,9.7,1.38,7.32,2.18,10.29Zm72-21.57a3.78,3.78,0,0,1,.2,2.18,1.55,1.55,0,0,1-1.59,1.18q-3.36-2.37-5.73-2.37a5.81,5.81,0,0,0-4,1.58A13.76,13.76,0,0,0,747,96.56a49.18,49.18,0,0,0-1.39,7.72,55,55,0,0,0,.8,11.67c.66,3.56,1.51,5.41,2.57,5.54s2.11-1,3.56-3.36a91.3,91.3,0,0,0,4.15-8.71q2.39-5.94,4.36-11.87l2.37-7.13q2.18-8.9,8.71-10.88a10.4,10.4,0,0,1,3.17-.59c2.37,0,3.76,1.32,4.15,4a286.05,286.05,0,0,1,1,31.26v1.39l3.36-3q4.37-3.77,7.72-6.93a22.67,22.67,0,0,0,4.35-5.54l2.38-.4a5.26,5.26,0,0,1,2.37.59,30.5,30.5,0,0,1-4.94,7.13q-3.37,3.75-7.52,7.72-4,3.75-8.11,7.51-.4,9.9-1.39,18.4-2.77,22.56-9.1,35.42Q763.42,189,755.5,189h-.2a11.41,11.41,0,0,1-7.12-2,9.09,9.09,0,0,1-3.56-4.95q-2.19-7.12,1.78-18.2t7.12-18.4a48.45,48.45,0,0,1,9.3-13.45v-3.76q0-13.65-.4-15.83a31.41,31.41,0,0,1-4.15,8.11q-3.18,4.56-10.1,4.75-5.34.19-8.51-2.37a12,12,0,0,1-4.35-6.14,22.28,22.28,0,0,1-.79-6.13V110a27.08,27.08,0,0,1,1-7.32,37.12,37.12,0,0,1,5.74-12.46q4.15-5.55,9.1-6.73a9.92,9.92,0,0,1,5.14.59,12.58,12.58,0,0,1,5.35,4.16ZM758.46,147a62.94,62.94,0,0,0-2.77,6.93,86.76,86.76,0,0,0-2.37,9.3,59.69,59.69,0,0,0-1.39,14c.14,4.36,1.46,6.73,4,7.13q2.37.59,3.76-8.11,1.38-8.52,2.18-20.19.39-7.91.59-15.83a45.48,45.48,0,0,0-4,6.73Z"/><g id="abd4c627-792e-4c03-b2e3-39d74360f24a" data-name="Every past keeps a story..." class="f3ad1c53-5ebb-44d8-8c0f-9f46c5c17797"><g class="f3ad1c53-5ebb-44d8-8c0f-9f46c5c17797"><path class="b6851856-80af-4860-90b4-e88ad3221e97" d="M116.16,187.21a1.43,1.43,0,0,1-1.55-1.55V153.74a1.43,1.43,0,0,1,1.55-1.54h17a1.42,1.42,0,0,1,1.54,1.54v1.55a1.42,1.42,0,0,1-1.54,1.54H120a.46.46,0,0,0-.52.52v9.26a.46.46,0,0,0,.52.52h12.1a1.54,1.54,0,0,1,1.13.41,1.51,1.51,0,0,1,.41,1.13v1.55a1.42,1.42,0,0,1-1.54,1.54H120a.46.46,0,0,0-.52.52v9.78a.47.47,0,0,0,.52.52h14.16a1.5,1.5,0,0,1,1.13.41,1.54,1.54,0,0,1,.41,1.13v1.54a1.56,1.56,0,0,1-.41,1.14,1.54,1.54,0,0,1-1.13.41Z"/><path class="b6851856-80af-4860-90b4-e88ad3221e97" d="M151.48,187.21a2.29,2.29,0,0,1-1.16-.26,1.91,1.91,0,0,1-.7-1.13l-7.05-20.34a1,1,0,0,1,.05-1,1.24,1.24,0,0,1,1-.39h1.91a1.63,1.63,0,0,1,1.75,1.24l4.89,15.29c.1.38.27.56.51.56s.42-.18.52-.56l4.89-15.29a1.63,1.63,0,0,1,1.75-1.24h1.91a1.21,1.21,0,0,1,1,.39,1,1,0,0,1,.06,1l-7.06,20.34a1.86,1.86,0,0,1-.69,1.13,2.29,2.29,0,0,1-1.16.26Z"/><path class="b6851856-80af-4860-90b4-e88ad3221e97" d="M187,182.16a1.34,1.34,0,0,1,.44,1,1.82,1.82,0,0,1-.44,1.08,9.74,9.74,0,0,1-3,2.37,9.93,9.93,0,0,1-4.78,1.08,10.37,10.37,0,0,1-3.89-.69,8.61,8.61,0,0,1-4.87-4.82,9.28,9.28,0,0,1-.67-3.5v-6.07a10.39,10.39,0,0,1,.6-3.53,8.12,8.12,0,0,1,1.75-2.91,8.31,8.31,0,0,1,2.83-1.95,9.58,9.58,0,0,1,3.83-.72,9.85,9.85,0,0,1,3.87.72,8.81,8.81,0,0,1,2.9,1.95,8.53,8.53,0,0,1,1.86,2.91,9.73,9.73,0,0,1,.64,3.53v3.09a1.54,1.54,0,0,1-.41,1.13,1.55,1.55,0,0,1-1.13.41H174.85a.45.45,0,0,0-.51.52v.92a4.82,4.82,0,0,0,1.16,3.3,4.55,4.55,0,0,0,3.63,1.34,5.52,5.52,0,0,0,3-.7,8.53,8.53,0,0,0,1.65-1.31,1.52,1.52,0,0,1,1.13-.54,1.54,1.54,0,0,1,1,.49Zm-3.6-9.52a5.3,5.3,0,0,0-1.08-3.35,4.23,4.23,0,0,0-3.56-1.39,3.84,3.84,0,0,0-3.39,1.39,5.62,5.62,0,0,0-1,3.35v.26a.45.45,0,0,0,.51.51h8a.45.45,0,0,0,.52-.51Z"/><path class="b6851856-80af-4860-90b4-e88ad3221e97" d="M198.33,187.21a1.54,1.54,0,0,1-1.13-.41,1.52,1.52,0,0,1-.41-1.14V172.54a8.74,8.74,0,0,1,2.16-6.13,7.74,7.74,0,0,1,6-2.37h1.86a1.57,1.57,0,0,1,1.13.41,1.55,1.55,0,0,1,.41,1.13v1.29a1.43,1.43,0,0,1-1.54,1.55h-1.55a3.48,3.48,0,0,0-2.91,1.21,5,5,0,0,0-1,3.16v12.87a1.56,1.56,0,0,1-.41,1.14,1.58,1.58,0,0,1-1.14.41Z"/><path class="b6851856-80af-4860-90b4-e88ad3221e97" d="M229,187.72a.46.46,0,0,0-.52-.51h-4.79a9.27,9.27,0,0,1-3.5-.64,8.28,8.28,0,0,1-2.73-1.78,8,8,0,0,1-1.75-2.7,9.34,9.34,0,0,1-.62-3.43V165.58a1.52,1.52,0,0,1,.42-1.13,1.54,1.54,0,0,1,1.13-.41h1.54a1.58,1.58,0,0,1,1.14.41,1.55,1.55,0,0,1,.41,1.13v13.08a3.83,3.83,0,0,0,4.17,4.17h4.58a.46.46,0,0,0,.52-.51V165.58a1.51,1.51,0,0,1,.41-1.13,1.54,1.54,0,0,1,1.13-.41h1.55a1.57,1.57,0,0,1,1.13.41,1.55,1.55,0,0,1,.41,1.13v24.36a10.16,10.16,0,0,1-.67,3.7,9.39,9.39,0,0,1-1.9,3.07,9.12,9.12,0,0,1-3,2.08,9.65,9.65,0,0,1-4,.78,15.07,15.07,0,0,1-4.38-.54,12.21,12.21,0,0,1-3.09-1.42,1.69,1.69,0,0,1-.75-.93,1.38,1.38,0,0,1,.13-1.13l.62-1.18a1.32,1.32,0,0,1,2-.62,12.74,12.74,0,0,0,2.37,1,10.28,10.28,0,0,0,3.09.41,4.5,4.5,0,0,0,3.75-1.42,5.93,5.93,0,0,0,1.14-3.83Z"/><path class="b6851856-80af-4860-90b4-e88ad3221e97" d="M262.07,199.05a1.54,1.54,0,0,1-1.13-.41,1.51,1.51,0,0,1-.41-1.13V165.58a1.51,1.51,0,0,1,.41-1.13,1.54,1.54,0,0,1,1.13-.41h8.5a9.79,9.79,0,0,1,3.68.67,8.57,8.57,0,0,1,2.85,1.83,7.92,7.92,0,0,1,1.83,2.78,9.31,9.31,0,0,1,.65,3.47v5.67a9.13,9.13,0,0,1-.67,3.47,8.25,8.25,0,0,1-4.61,4.61,9.1,9.1,0,0,1-3.53.67h-5.1a.45.45,0,0,0-.51.51v9.79a1.55,1.55,0,0,1-.41,1.13,1.58,1.58,0,0,1-1.14.41Zm12.87-26.26a4.12,4.12,0,0,0-1.29-3.16,4.3,4.3,0,0,0-3.08-1.21h-4.9a.45.45,0,0,0-.51.51v13.39a.45.45,0,0,0,.51.51h4.9a4.15,4.15,0,0,0,4.37-4.37Z"/><path class="b6851856-80af-4860-90b4-e88ad3221e97" d="M304.34,187.21a1.45,1.45,0,0,1-1.13-.46,1.5,1.5,0,0,1-.41-1,.36.36,0,0,0-.24-.39.38.38,0,0,0-.43.18,5.24,5.24,0,0,1-2.14,1.6,8.61,8.61,0,0,1-3.42.61,7.91,7.91,0,0,1-3.3-.67,7.3,7.3,0,0,1-2.57-1.9,9,9,0,0,1-1.7-3,11.2,11.2,0,0,1-.62-3.79v-4.58a10.16,10.16,0,0,1,.72-3.81,9.16,9.16,0,0,1,2-3.11,9.85,9.85,0,0,1,7.08-2.86h7.67a1.42,1.42,0,0,1,1.55,1.54v20.08a1.42,1.42,0,0,1-1.55,1.55Zm-1.54-18.28a.46.46,0,0,0-.52-.51h-3.86a5.05,5.05,0,0,0-4,1.59,5.54,5.54,0,0,0-1.42,3.81v5.1a4.49,4.49,0,0,0,1.16,3.19,4.18,4.18,0,0,0,3.22,1.24,5.48,5.48,0,0,0,2.39-.49,5.08,5.08,0,0,0,1.68-1.31,5.83,5.83,0,0,0,1-1.83,6.68,6.68,0,0,0,.34-2.09Z"/><path class="b6851856-80af-4860-90b4-e88ad3221e97" d="M317,182.06c.58-.69,1.28-.67,2.11.05a6.75,6.75,0,0,0,1.36.85,4.37,4.37,0,0,0,1.93.39,4.11,4.11,0,0,0,2.32-.62,1.88,1.88,0,0,0,.92-1.65,2.22,2.22,0,0,0-.79-1.7,14.72,14.72,0,0,0-3-1.8,21.72,21.72,0,0,1-2.48-1.39,8.85,8.85,0,0,1-1.82-1.57,6.09,6.09,0,0,1-1.57-4.3,6.76,6.76,0,0,1,.51-2.62,6.32,6.32,0,0,1,1.47-2.17,7,7,0,0,1,2.32-1.46,9,9,0,0,1,6.71.23,7.85,7.85,0,0,1,2.32,1.54,1.87,1.87,0,0,1,.44,1.11,1.34,1.34,0,0,1-.44,1.05l-.93,1a2,2,0,0,1-.95.59,1,1,0,0,1-1-.38,4.45,4.45,0,0,0-3.09-1.29,3.08,3.08,0,0,0-2.19.67,2.33,2.33,0,0,0-.69,1.75,2.11,2.11,0,0,0,1,1.75,13.36,13.36,0,0,0,2.48,1.39,19.72,19.72,0,0,1,2.6,1.34,10.3,10.3,0,0,1,2,1.57,6.22,6.22,0,0,1,1.28,1.91,6,6,0,0,1,.47,2.44,6.6,6.6,0,0,1-.67,3,6.8,6.8,0,0,1-1.78,2.22,7.45,7.45,0,0,1-2.52,1.34,9.68,9.68,0,0,1-2.86.43,10.21,10.21,0,0,1-3.91-.64,6.47,6.47,0,0,1-2.47-1.72,1.68,1.68,0,0,1-.44-1.09,1.38,1.38,0,0,1,.44-1.08Z"/><path class="b6851856-80af-4860-90b4-e88ad3221e97" d="M347.74,187.21q-3.86,0-5.69-2.11a8.68,8.68,0,0,1-1.82-5.87v-10.3a.46.46,0,0,0-.52-.51h-1.54a1.43,1.43,0,0,1-1.55-1.55v-1.29a1.55,1.55,0,0,1,.41-1.13,1.58,1.58,0,0,1,1.14-.41h1.54a.46.46,0,0,0,.52-.51v-3.61a1.42,1.42,0,0,1,1.54-1.54h1.55a1.51,1.51,0,0,1,1.13.41,1.54,1.54,0,0,1,.41,1.13v3.61a.45.45,0,0,0,.52.51h3.86a1.42,1.42,0,0,1,1.54,1.54v1.29a1.54,1.54,0,0,1-.41,1.13,1.52,1.52,0,0,1-1.13.42h-3.86a.45.45,0,0,0-.52.51v10a5,5,0,0,0,.69,2.83,3,3,0,0,0,2.66,1h1a1.55,1.55,0,0,1,1.13.41,1.58,1.58,0,0,1,.41,1.14v1.28a1.42,1.42,0,0,1-1.54,1.55Z"/><path class="b6851856-80af-4860-90b4-e88ad3221e97" d="M391.61,187.21a2,2,0,0,1-1.91-1.39l-4.78-10.14a.66.66,0,0,0-.49-.42.78.78,0,0,0-.65.26l-1.85,1.91a2.6,2.6,0,0,0-.49.64,1.78,1.78,0,0,0-.18.85v6.74a1.42,1.42,0,0,1-1.54,1.55h-1.55a1.54,1.54,0,0,1-1.13-.41,1.52,1.52,0,0,1-.41-1.14V153.74a1.42,1.42,0,0,1,1.54-1.54h1.55a1.51,1.51,0,0,1,1.13.41,1.54,1.54,0,0,1,.41,1.13v17.2a.58.58,0,0,0,.23.54q.24.14.54-.18l6.34-6.44a3,3,0,0,1,.82-.61,2.5,2.5,0,0,1,1.13-.21h2.73c.58,0,.94.19,1.06.57a1,1,0,0,1-.34,1.08l-4.94,4.89a1.55,1.55,0,0,0-.46,1.9l6.23,12.88a1.42,1.42,0,0,1,0,1.31,1.15,1.15,0,0,1-1.08.54Z"/><path class="b6851856-80af-4860-90b4-e88ad3221e97" d="M419,182.16a1.37,1.37,0,0,1,.44,1,1.88,1.88,0,0,1-.44,1.08,9.74,9.74,0,0,1-3,2.37,10,10,0,0,1-4.79,1.08,10.32,10.32,0,0,1-3.88-.69,8.61,8.61,0,0,1-4.87-4.82,9.09,9.09,0,0,1-.67-3.5v-6.07a10.63,10.63,0,0,1,.59-3.53,8.06,8.06,0,0,1,4.59-4.86,9.58,9.58,0,0,1,3.83-.72,9.8,9.8,0,0,1,3.86.72,8.86,8.86,0,0,1,2.91,1.95,8.36,8.36,0,0,1,1.85,2.91,9.74,9.74,0,0,1,.65,3.53v3.09a1.54,1.54,0,0,1-.41,1.13,1.58,1.58,0,0,1-1.14.41H406.85a.46.46,0,0,0-.52.52v.92a4.87,4.87,0,0,0,1.16,3.3,4.58,4.58,0,0,0,3.63,1.34,5.54,5.54,0,0,0,3-.7,8.53,8.53,0,0,0,1.65-1.31,1.5,1.5,0,0,1,1.13-.54,1.54,1.54,0,0,1,1,.49Zm-3.61-9.52a5.3,5.3,0,0,0-1.08-3.35,4.21,4.21,0,0,0-3.55-1.39,3.86,3.86,0,0,0-3.4,1.39,5.69,5.69,0,0,0-1,3.35v.26a.46.46,0,0,0,.52.51h8a.45.45,0,0,0,.51-.51Z"/><path class="b6851856-80af-4860-90b4-e88ad3221e97" d="M445.51,182.16a1.34,1.34,0,0,1,.44,1,1.76,1.76,0,0,1-.44,1.08,9.57,9.57,0,0,1-3,2.37,10,10,0,0,1-4.79,1.08,10.41,10.41,0,0,1-3.89-.69,8.83,8.83,0,0,1-3-1.93,8.65,8.65,0,0,1-1.9-2.89,9.09,9.09,0,0,1-.67-3.5v-6.07a10.38,10.38,0,0,1,.59-3.53,8.27,8.27,0,0,1,1.75-2.91,8.41,8.41,0,0,1,2.83-1.95,9.67,9.67,0,0,1,3.84-.72,9.8,9.8,0,0,1,3.86.72,9,9,0,0,1,2.91,1.95,8.66,8.66,0,0,1,1.85,2.91,9.73,9.73,0,0,1,.64,3.53v3.09a1.5,1.5,0,0,1-.41,1.13,1.54,1.54,0,0,1-1.13.41H433.42a.46.46,0,0,0-.52.52v.92a4.87,4.87,0,0,0,1.16,3.3,4.55,4.55,0,0,0,3.63,1.34,5.56,5.56,0,0,0,3-.7,8.12,8.12,0,0,0,1.64-1.31,1.52,1.52,0,0,1,1.14-.54,1.56,1.56,0,0,1,1,.49Zm-3.6-9.52a5.3,5.3,0,0,0-1.08-3.35,4.22,4.22,0,0,0-3.55-1.39,3.85,3.85,0,0,0-3.4,1.39,5.69,5.69,0,0,0-1,3.35v.26a.45.45,0,0,0,.52.51h8a.45.45,0,0,0,.51-.51Z"/><path class="b6851856-80af-4860-90b4-e88ad3221e97" d="M456.89,199.05a1.42,1.42,0,0,1-1.54-1.54V165.58a1.42,1.42,0,0,1,1.54-1.54h8.5a9.76,9.76,0,0,1,3.68.67,8.61,8.61,0,0,1,2.86,1.83,7.77,7.77,0,0,1,1.82,2.78,9.31,9.31,0,0,1,.65,3.47v5.67a9.13,9.13,0,0,1-.67,3.47,8.25,8.25,0,0,1-4.61,4.61,9.1,9.1,0,0,1-3.53.67H460.5a.45.45,0,0,0-.52.51v9.79a1.55,1.55,0,0,1-.41,1.13,1.54,1.54,0,0,1-1.13.41Zm12.87-26.26a4.12,4.12,0,0,0-1.28-3.16,4.34,4.34,0,0,0-3.09-1.21H460.5a.45.45,0,0,0-.52.51v13.39a.45.45,0,0,0,.52.51h4.89a4.15,4.15,0,0,0,4.37-4.37Z"/><path class="b6851856-80af-4860-90b4-e88ad3221e97" d="M483.41,182.06c.58-.69,1.29-.67,2.11.05a7,7,0,0,0,1.36.85,4.4,4.4,0,0,0,1.93.39,4.11,4.11,0,0,0,2.32-.62,1.89,1.89,0,0,0,.93-1.65,2.23,2.23,0,0,0-.8-1.7,14.43,14.43,0,0,0-3-1.8,20.72,20.72,0,0,1-2.47-1.39,9.19,9.19,0,0,1-1.83-1.57A6.74,6.74,0,0,1,483,167.7a6.44,6.44,0,0,1,1.46-2.17,7.11,7.11,0,0,1,2.32-1.46,9,9,0,0,1,6.72.23,8.13,8.13,0,0,1,2.32,1.54,1.86,1.86,0,0,1,.43,1.11,1.36,1.36,0,0,1-.43,1.05l-.93,1a2.1,2.1,0,0,1-.95.59,1,1,0,0,1-1-.38,4.42,4.42,0,0,0-3.09-1.29,3.12,3.12,0,0,0-2.19.67,2.33,2.33,0,0,0-.69,1.75,2.12,2.12,0,0,0,1,1.75,12.93,12.93,0,0,0,2.47,1.39,19.11,19.11,0,0,1,2.6,1.34,10.3,10.3,0,0,1,2,1.57,6.44,6.44,0,0,1,1.29,1.91,6,6,0,0,1,.46,2.44,6.48,6.48,0,0,1-.67,3,6.77,6.77,0,0,1-1.77,2.22,7.41,7.41,0,0,1-2.53,1.34,9.61,9.61,0,0,1-2.85.43,10.27,10.27,0,0,1-3.92-.64,6.47,6.47,0,0,1-2.47-1.72,1.74,1.74,0,0,1-.44-1.09,1.42,1.42,0,0,1,.44-1.08Z"/><path class="b6851856-80af-4860-90b4-e88ad3221e97" d="M538.4,187.21a1.49,1.49,0,0,1-1.14-.46,1.55,1.55,0,0,1-.41-1,.36.36,0,0,0-.23-.39.4.4,0,0,0-.44.18,5.21,5.21,0,0,1-2.13,1.6,8.62,8.62,0,0,1-3.43.61,7.87,7.87,0,0,1-3.29-.67,7.34,7.34,0,0,1-2.58-1.9,9,9,0,0,1-1.7-3,11.2,11.2,0,0,1-.61-3.79v-4.58a10,10,0,0,1,.72-3.81,9,9,0,0,1,2-3.11,9.89,9.89,0,0,1,3.11-2.09,10.11,10.11,0,0,1,4-.77h7.67a1.54,1.54,0,0,1,1.13.41,1.52,1.52,0,0,1,.42,1.13v20.08a1.43,1.43,0,0,1-1.55,1.55Zm-1.55-18.28a.45.45,0,0,0-.51-.51h-3.86a5.05,5.05,0,0,0-4,1.59,5.54,5.54,0,0,0-1.42,3.81v5.1a4.49,4.49,0,0,0,1.16,3.19,4.17,4.17,0,0,0,3.22,1.24,5.51,5.51,0,0,0,2.39-.49,4.94,4.94,0,0,0,1.67-1.31,5.86,5.86,0,0,0,1-1.83,6.67,6.67,0,0,0,.33-2.09Z"/><path class="b6851856-80af-4860-90b4-e88ad3221e97" d="M568.57,182.06c.58-.69,1.28-.67,2.11.05A6.75,6.75,0,0,0,572,183a4.37,4.37,0,0,0,1.93.39,4.11,4.11,0,0,0,2.32-.62,1.89,1.89,0,0,0,.93-1.65,2.23,2.23,0,0,0-.8-1.7,14.43,14.43,0,0,0-3-1.8,20.72,20.72,0,0,1-2.47-1.39,9.19,9.19,0,0,1-1.83-1.57,6.33,6.33,0,0,1-1.16-1.88,6.59,6.59,0,0,1-.41-2.42,6.76,6.76,0,0,1,.51-2.62,6.62,6.62,0,0,1,1.47-2.17,7.11,7.11,0,0,1,2.32-1.46,9,9,0,0,1,6.72.23,7.91,7.91,0,0,1,2.31,1.54,1.87,1.87,0,0,1,.44,1.11,1.34,1.34,0,0,1-.44,1.05l-.92,1a2.08,2.08,0,0,1-1,.59,1,1,0,0,1-1-.38A4.45,4.45,0,0,0,575,167.9a3.12,3.12,0,0,0-2.19.67,2.33,2.33,0,0,0-.69,1.75,2.1,2.1,0,0,0,1,1.75,12.93,12.93,0,0,0,2.47,1.39,19.11,19.11,0,0,1,2.6,1.34,10.3,10.3,0,0,1,2,1.57,6.44,6.44,0,0,1,1.29,1.91,6,6,0,0,1,.46,2.44,6.48,6.48,0,0,1-.67,3,6.9,6.9,0,0,1-1.77,2.22,7.41,7.41,0,0,1-2.53,1.34,9.63,9.63,0,0,1-2.86.43,10.25,10.25,0,0,1-3.91-.64,6.47,6.47,0,0,1-2.47-1.72,1.74,1.74,0,0,1-.44-1.09,1.38,1.38,0,0,1,.44-1.08Z"/><path class="b6851856-80af-4860-90b4-e88ad3221e97" d="M599.36,187.21q-3.87,0-5.69-2.11a8.69,8.69,0,0,1-1.83-5.87v-10.3a.45.45,0,0,0-.52-.51h-1.54a1.45,1.45,0,0,1-1.55-1.55v-1.29a1.52,1.52,0,0,1,.42-1.13,1.54,1.54,0,0,1,1.13-.41h1.54a.45.45,0,0,0,.52-.51v-3.61a1.42,1.42,0,0,1,1.54-1.54h1.55a1.5,1.5,0,0,1,1.13.41,1.54,1.54,0,0,1,.41,1.13v3.61a.45.45,0,0,0,.52.51h3.86a1.54,1.54,0,0,1,1.13.41,1.51,1.51,0,0,1,.41,1.13v1.29a1.43,1.43,0,0,1-1.54,1.55H597a.45.45,0,0,0-.52.51v10a4.94,4.94,0,0,0,.7,2.83,3,3,0,0,0,2.65,1h1a1.42,1.42,0,0,1,1.54,1.55v1.28a1.52,1.52,0,0,1-.41,1.14,1.54,1.54,0,0,1-1.13.41Z"/><path class="b6851856-80af-4860-90b4-e88ad3221e97" d="M621.24,187.72a11.53,11.53,0,0,1-4.71-.95,12.29,12.29,0,0,1-6.44-6.43,12.18,12.18,0,0,1,0-9.43,12.29,12.29,0,0,1,6.44-6.43,12.15,12.15,0,0,1,9.42,0,12.32,12.32,0,0,1,6.43,6.43,12.06,12.06,0,0,1,0,9.43,12.32,12.32,0,0,1-6.43,6.43A11.59,11.59,0,0,1,621.24,187.72Zm0-4.37a7.14,7.14,0,0,0,3-.62,7.64,7.64,0,0,0,2.37-1.65,7.37,7.37,0,0,0,1.57-2.44,8.4,8.4,0,0,0,0-6,7.37,7.37,0,0,0-1.57-2.44,7.64,7.64,0,0,0-2.37-1.65,7.38,7.38,0,0,0-5.92,0,7.64,7.64,0,0,0-2.37,1.65,7.21,7.21,0,0,0-1.57,2.44,8.26,8.26,0,0,0,0,6,7.21,7.21,0,0,0,1.57,2.44,7.64,7.64,0,0,0,2.37,1.65A7.1,7.1,0,0,0,621.24,183.35Z"/><path class="b6851856-80af-4860-90b4-e88ad3221e97" d="M643.17,187.21a1.54,1.54,0,0,1-1.13-.41,1.52,1.52,0,0,1-.41-1.14V172.54a8.74,8.74,0,0,1,2.16-6.13,7.74,7.74,0,0,1,6-2.37h1.86a1.57,1.57,0,0,1,1.13.41,1.55,1.55,0,0,1,.41,1.13v1.29a1.43,1.43,0,0,1-1.54,1.55h-1.55a3.48,3.48,0,0,0-2.91,1.21,5,5,0,0,0-1,3.16v12.87a1.56,1.56,0,0,1-.41,1.14,1.58,1.58,0,0,1-1.14.41Z"/><path class="b6851856-80af-4860-90b4-e88ad3221e97" d="M673.86,187.72a.46.46,0,0,0-.52-.51h-4.79a9.27,9.27,0,0,1-3.5-.64,8.28,8.28,0,0,1-2.73-1.78,8,8,0,0,1-1.75-2.7,9.34,9.34,0,0,1-.62-3.43V165.58a1.52,1.52,0,0,1,.42-1.13,1.54,1.54,0,0,1,1.13-.41H663a1.58,1.58,0,0,1,1.14.41,1.55,1.55,0,0,1,.41,1.13v13.08a3.83,3.83,0,0,0,4.17,4.17h4.58a.46.46,0,0,0,.52-.51V165.58a1.51,1.51,0,0,1,.41-1.13,1.54,1.54,0,0,1,1.13-.41H677a1.57,1.57,0,0,1,1.13.41,1.55,1.55,0,0,1,.41,1.13v24.36a10.16,10.16,0,0,1-.67,3.7,9.39,9.39,0,0,1-1.9,3.07,9.12,9.12,0,0,1-3,2.08,9.67,9.67,0,0,1-4,.78,15,15,0,0,1-4.37-.54,12.21,12.21,0,0,1-3.09-1.42,1.69,1.69,0,0,1-.75-.93,1.38,1.38,0,0,1,.13-1.13l.62-1.18a1.32,1.32,0,0,1,2-.62,12.74,12.74,0,0,0,2.37,1,10.26,10.26,0,0,0,3.08.41,4.52,4.52,0,0,0,3.76-1.42,5.93,5.93,0,0,0,1.14-3.83Z"/><path class="b6851856-80af-4860-90b4-e88ad3221e97" d="M689.87,187.21a1.43,1.43,0,0,1-1.55-1.55v-3.08a1.43,1.43,0,0,1,1.55-1.55h1.8a1.54,1.54,0,0,1,1.13.41,1.52,1.52,0,0,1,.41,1.14v3.08a1.52,1.52,0,0,1-.41,1.14,1.54,1.54,0,0,1-1.13.41Z"/><path class="b6851856-80af-4860-90b4-e88ad3221e97" d="M705.11,187.21a1.58,1.58,0,0,1-1.14-.41,1.56,1.56,0,0,1-.41-1.14v-3.08a1.56,1.56,0,0,1,.41-1.14,1.58,1.58,0,0,1,1.14-.41h1.8a1.54,1.54,0,0,1,1.13.41,1.52,1.52,0,0,1,.41,1.14v3.08a1.52,1.52,0,0,1-.41,1.14,1.54,1.54,0,0,1-1.13.41Z"/><path class="b6851856-80af-4860-90b4-e88ad3221e97" d="M720.35,187.21a1.58,1.58,0,0,1-1.14-.41,1.56,1.56,0,0,1-.41-1.14v-3.08a1.56,1.56,0,0,1,.41-1.14,1.58,1.58,0,0,1,1.14-.41h1.8a1.54,1.54,0,0,1,1.13.41,1.52,1.52,0,0,1,.41,1.14v3.08a1.52,1.52,0,0,1-.41,1.14,1.54,1.54,0,0,1-1.13.41Z"/></g></g></g></g></svg>