<svg xmlns="http://www.w3.org/2000/svg" width="38" height="38" viewBox="0 0 38 38"><g transform="translate(-7763 -2414)"><rect width="38" height="38" transform="translate(7763 2414)" fill="none"/><g transform="translate(7766 2417)"><path d="M25,15a1,1,0,0,0-1,1V28H8V16a1,1,0,0,0-2,0V29a1,1,0,0,0,1,1H25a1,1,0,0,0,1-1V16A1,1,0,0,0,25,15Z" fill="#fff"/><path d="M29.646,13.237l-13-11a1,1,0,0,0-1.292,0l-13,11a1,1,0,1,0,1.292,1.526L16,4.31,28.354,14.763a1,1,0,1,0,1.292-1.526Z" fill="#fff"/></g></g></svg>