<svg xmlns="http://www.w3.org/2000/svg" viewBox="0 0 133.01 51.4"><title>awesome-inc</title><g id="b077119d-6cb1-4bc1-b517-df005efad271" data-name="Layer 2"><g id="e2d46458-3284-4d12-9d45-de5707b18914" data-name="Layer 1"><path d="M0,18.62l.51-1.23a.29.29,0,0,1,.4-.22.33.33,0,0,1,.22.43L.65,18.87a.32.32,0,0,1-.3.24.22.22,0,0,1-.13,0A.41.41,0,0,1,0,18.62Zm1-2.5.49-1.29a.32.32,0,0,1,.43-.22.35.35,0,0,1,.16.46l-.46,1.29a.32.32,0,0,1-.32.19.34.34,0,0,1-.14,0A.29.29,0,0,1,1,16.12Zm1.29-2.07A.33.33,0,0,1,2,13.94a.36.36,0,0,1-.08-.38l.49-1.29a.36.36,0,0,1,.43-.21.4.4,0,0,1,.21.45l-.35.84h.92A.36.36,0,0,1,4,13.7a.33.33,0,0,1-.35.35Zm.81-2.58A.37.37,0,0,1,2.91,11l.46-1.29a.35.35,0,0,1,.46-.19A.33.33,0,0,1,4,10l-.46,1.29a.44.44,0,0,1-.35.22Zm1-2.56a.36.36,0,0,1-.22-.43l.49-1.32A.33.33,0,0,1,4.77,7,.31.31,0,0,1,5,7.4L4.5,8.69a.38.38,0,0,1-.35.22ZM5,14.05a.36.36,0,0,1-.35-.35A.4.4,0,0,1,5,13.35H6.38a.36.36,0,0,1,.33.35.33.33,0,0,1-.33.35Zm0-7.7a.36.36,0,0,1-.21-.43l.48-1.26a.35.35,0,1,1,.65.24L5.44,6.16a.29.29,0,0,1-.32.19Zm.75-3L6.22,2.1a.35.35,0,0,1,.46-.19.31.31,0,0,1,.19.43L6.41,3.61a.42.42,0,0,1-.32.24C6,3.85,6,3.79,6,3.79A.33.33,0,0,1,5.76,3.36Zm1-2.55.1-.27A.32.32,0,0,1,7.16.32a.41.41,0,0,1,.38.22l.08.27a.35.35,0,0,1-.19.45s-.08,0-.1,0a.34.34,0,0,1-.17,0s-.08,0-.1,0l-.14,0A.35.35,0,0,1,6.71.81Zm1,13.24a.36.36,0,0,1-.35-.35.4.4,0,0,1,.35-.35H9.1a.35.35,0,0,1,.32.35.32.32,0,0,1-.32.35ZM7.46,2.34a.31.31,0,0,1,.22-.43.32.32,0,0,1,.43.19l.48,1.26a.36.36,0,0,1-.21.43s-.06.06-.11.06a.39.39,0,0,1-.33-.24Zm1,2.56a.34.34,0,0,1,.16-.46c.21-.05.37,0,.43.19l.48,1.29a.3.3,0,0,1-.21.43H9.24a.33.33,0,0,1-.33-.19ZM9.4,7.4A.28.28,0,0,1,9.56,7a.36.36,0,0,1,.46.16l.45,1.32a.32.32,0,0,1-.16.43h-.13a.29.29,0,0,1-.3-.22Zm1,6.65a.34.34,0,0,1-.33-.35.38.38,0,0,1,.33-.35H11.6l-.29-.84a.36.36,0,0,1,.19-.45.38.38,0,0,1,.45.21l.46,1.29a.33.33,0,0,1-.19.44H12a.29.29,0,0,1-.19.05ZM10.34,10a.32.32,0,0,1,.22-.43.28.28,0,0,1,.4.19L11.47,11a.41.41,0,0,1-.21.46h-.14a.31.31,0,0,1-.3-.22Zm1.91,5.11a.38.38,0,0,1,.22-.46.35.35,0,0,1,.43.22l.48,1.29a.33.33,0,0,1-.21.4s-.06,0-.14,0a.28.28,0,0,1-.29-.19Zm1,2.53a.34.34,0,0,1,.19-.43.37.37,0,0,1,.46.22l.45,1.23a.34.34,0,0,1-.19.46.17.17,0,0,1-.1,0,.45.45,0,0,1-.35-.24Z" style="fill:#fff"/><path d="M15.4.78a.33.33,0,0,1,.19-.43.36.36,0,0,1,.46.16l.51,1.27a.33.33,0,0,1-.19.43.34.34,0,0,1-.14,0,.33.33,0,0,1-.29-.18Zm1,2.53a.39.39,0,0,1,.19-.48.34.34,0,0,1,.45.21l.52,1.24a.32.32,0,0,1-.19.46h-.14c-.13,0-.21-.08-.29-.22ZM17.5,5.79a.32.32,0,0,1,.21-.43.31.31,0,0,1,.43.16l.52,1.26a.3.3,0,0,1-.17.43.21.21,0,0,1-.13,0A.34.34,0,0,1,18,7.05Zm1.1,2.53a.33.33,0,1,1,.59-.27l.52,1.24a.32.32,0,0,1-.17.45s-.08,0-.13,0a.29.29,0,0,1-.3-.19Zm1,2.5a.3.3,0,0,1,.16-.43.33.33,0,0,1,.46.16l.54,1.27a.38.38,0,0,1-.22.45.4.4,0,0,1-.13,0,.36.36,0,0,1-.3-.22Zm1.05,2.5a.35.35,0,0,1,.16-.46.41.41,0,0,1,.46.22l.54,1.26c.08.17,0,.33-.22.44h-.13a.32.32,0,0,1-.3-.19Zm1.05,2.51a.35.35,0,0,1,.19-.44.32.32,0,0,1,.43.17l.54,1.26a.36.36,0,0,1-.19.46.21.21,0,0,1-.13,0,.44.44,0,0,1-.33-.22Zm1.48,3.28a.31.31,0,0,1-.21-.24l-.22-.51a.34.34,0,0,1,.19-.44.35.35,0,0,1,.35.06l0-.06a.32.32,0,0,1,.43-.18.35.35,0,0,1,.18.45l-.29.65a.49.49,0,0,1-.19.27h-.27Zm.65-2.45.54-1.27a.32.32,0,0,1,.43-.16.33.33,0,0,1,.18.43l-.51,1.27a.42.42,0,0,1-.35.21.13.13,0,0,1-.1-.05A.32.32,0,0,1,23.88,16.66Zm1.26-2.05a.37.37,0,0,1-.21-.48l.53-1.21a.36.36,0,0,1,.46-.22.32.32,0,0,1,.16.43l-.51,1.27a.42.42,0,0,1-.29.21Zm.84-3,.53-1.26a.34.34,0,0,1,.46-.16.32.32,0,0,1,.16.43l-.51,1.26a.4.4,0,0,1-.29.22c-.08,0-.11-.06-.14-.06A.33.33,0,0,1,26,11.65ZM27,9.12l.56-1.26A.32.32,0,0,1,28,7.7a.3.3,0,0,1,.16.43l-.51,1.26a.31.31,0,0,1-.29.22c-.06,0-.11,0-.14,0A.4.4,0,0,1,27,9.12Zm2-2.85-.24.62a.36.36,0,0,1-.32.19.22.22,0,0,1-.14,0,.36.36,0,0,1-.19-.46l.54-1.23a.3.3,0,0,1,.4-.19.33.33,0,0,1,.33.19l.54,1.23a.38.38,0,0,1-.22.46s-.05,0-.13,0a.3.3,0,0,1-.3-.19Zm.81,1.86A.3.3,0,0,1,30,7.7a.35.35,0,0,1,.46.16L31,9.12a.36.36,0,0,1-.22.46s0,0-.13,0a.31.31,0,0,1-.3-.22Zm1.05,2.53a.32.32,0,0,1,.19-.43.3.3,0,0,1,.43.16L32,11.65a.33.33,0,0,1-.19.43c-.06,0-.08.06-.14.06a.48.48,0,0,1-.32-.22Zm1,2.47a.33.33,0,0,1,.19-.43.33.33,0,0,1,.43.22l.53,1.21a.37.37,0,0,1-.18.48h-.14a.41.41,0,0,1-.32-.21ZM33,15.66a.32.32,0,0,1,.17-.43.32.32,0,0,1,.43.16l.56,1.27a.36.36,0,0,1-.21.43c0,.05-.06.05-.11.05a.34.34,0,0,1-.32-.21Zm1.54,3.45a.33.33,0,0,1-.22-.24L34,18.19a.34.34,0,0,1,.17-.45.35.35,0,0,1,.45.18V18a.4.4,0,0,1,.38-.06.33.33,0,0,1,.16.44l-.21.48a.49.49,0,0,1-.19.27Zm.56-2.29.54-1.26a.35.35,0,0,1,.46-.17.34.34,0,0,1,.16.44l-.51,1.26a.35.35,0,0,1-.3.22c-.08,0-.1,0-.13,0A.38.38,0,0,1,35.07,16.82Zm1.27-2a.41.41,0,0,1-.22-.44l.57-1.26a.37.37,0,0,1,.43-.22.33.33,0,0,1,.16.46l-.51,1.27a.3.3,0,0,1-.3.19Zm.86-3,.54-1.27a.3.3,0,0,1,.43-.16.31.31,0,0,1,.19.43l-.51,1.26a.46.46,0,0,1-.33.22c-.05,0-.08,0-.13,0A.36.36,0,0,1,37.2,11.82Zm1.08-2.53.51-1.24a.35.35,0,0,1,.45-.19.33.33,0,0,1,.17.46L38.9,9.58a.33.33,0,0,1-.3.19.26.26,0,0,1-.16,0A.32.32,0,0,1,38.28,9.29Zm1-2.51.51-1.26a.35.35,0,0,1,.45-.16.32.32,0,0,1,.19.43l-.54,1.26a.28.28,0,0,1-.29.19c-.08,0-.11,0-.14,0A.3.3,0,0,1,39.33,6.78Zm1.23-2a.33.33,0,0,1-.16-.46L40.91,3a.32.32,0,0,1,.43-.21.42.42,0,0,1,.22.48L41,4.52a.31.31,0,0,1-.29.22Zm.89-3L42,.51a.32.32,0,0,1,.43-.16.34.34,0,0,1,.22.43l-.54,1.27a.42.42,0,0,1-.32.18.34.34,0,0,1-.14,0A.32.32,0,0,1,41.45,1.78Z" style="fill:#fff"/><path d="M45.62.62A.34.34,0,0,1,46,.27H47.4a.33.33,0,0,1,.35.35.34.34,0,0,1-.35.32H46.3V2a.34.34,0,0,1-.33.35A.35.35,0,0,1,45.62,2Zm0,2.72A.35.35,0,0,1,46,3a.34.34,0,0,1,.33.35V4.71a.36.36,0,0,1-.33.35.38.38,0,0,1-.35-.35Zm0,2.74A.34.34,0,0,1,46,5.73a.33.33,0,0,1,.33.35V7.43a.34.34,0,0,1-.33.35.35.35,0,0,1-.35-.35Zm0,2.72A.34.34,0,0,1,46,8.45a.33.33,0,0,1,.33.35v.54h1.1a.36.36,0,0,1,.35.35.33.33,0,0,1-.35.35H46.3v.13a.34.34,0,0,1-.33.33.36.36,0,0,1-.35-.33Zm0,2.72A.33.33,0,0,1,46,11.2a.31.31,0,0,1,.33.32v1.37a.34.34,0,0,1-.33.35.35.35,0,0,1-.35-.35Zm0,2.74a.34.34,0,0,1,.35-.35.33.33,0,0,1,.33.35v1.38A.33.33,0,0,1,46,16a.35.35,0,0,1-.35-.32ZM46,19.11a.34.34,0,0,1-.33-.35.21.21,0,0,1,0-.14.34.34,0,0,1-.11-.26V17a.33.33,0,0,1,.35-.32.31.31,0,0,1,.33.32v1.38s0,.05,0,.08H47.4a.34.34,0,0,1,.35.32.33.33,0,0,1-.35.35ZM48.77.94a.35.35,0,0,1-.35-.32.34.34,0,0,1,.35-.35h1.35a.33.33,0,0,1,.35.35.34.34,0,0,1-.35.32Zm0,9.1a.34.34,0,0,1-.35-.35.38.38,0,0,1,.35-.35h1.35a.36.36,0,0,1,.35.35.33.33,0,0,1-.35.35Zm0,9.07a.34.34,0,0,1-.35-.35.35.35,0,0,1,.35-.32h1.35a.34.34,0,0,1,.35.32.33.33,0,0,1-.35.35ZM51.49.94a.37.37,0,0,1-.35-.32.35.35,0,0,1,.35-.35h1.37a.34.34,0,0,1,.35.35.35.35,0,0,1-.35.32Zm0,9.1a.36.36,0,0,1-.35-.35.4.4,0,0,1,.35-.35h1.37a.38.38,0,0,1,.35.35.34.34,0,0,1-.35.35Zm0,9.07a.36.36,0,0,1-.35-.35.37.37,0,0,1,.35-.32h1.37a.35.35,0,0,1,.35.32.34.34,0,0,1-.35.35ZM54.23.94a.36.36,0,0,1-.35-.32.34.34,0,0,1,.35-.35h1.35a.32.32,0,0,1,.35.35.33.33,0,0,1-.35.32Zm0,9.1a.35.35,0,0,1-.35-.35.38.38,0,0,1,.35-.35h.65a.35.35,0,0,1,.32.35.32.32,0,0,1-.32.35Zm0,9.07a.35.35,0,0,1-.35-.35.36.36,0,0,1,.35-.32h1.35a.33.33,0,0,1,.35.32.33.33,0,0,1-.35.35Z" style="fill:#fff"/><path d="M60.69,16.36a.3.3,0,1,1,.38-.45c.3.21.59.45.94.67a.3.3,0,0,1,.08.43.32.32,0,0,1-.27.13.37.37,0,0,1-.16-.05C61.31,16.85,61,16.61,60.69,16.36ZM61.2,5a.3.3,0,0,1,.6,0,2.77,2.77,0,0,0,.32,1.08.28.28,0,0,1-.14.4.24.24,0,0,1-.13,0,.39.39,0,0,1-.3-.17A3.41,3.41,0,0,1,61.2,5Zm.14-1.32a4.12,4.12,0,0,1,.56-1.18.31.31,0,0,1,.52.35,3,3,0,0,0-.49,1,.34.34,0,0,1-.29.24s-.09,0-.11,0A.29.29,0,0,1,61.34,3.71Zm1,3.66a.29.29,0,0,1,0-.43.3.3,0,0,1,.43,0,5.11,5.11,0,0,0,.94.67.31.31,0,0,1,.14.43.32.32,0,0,1-.27.16.49.49,0,0,1-.16,0A4.17,4.17,0,0,1,62.39,7.37Zm.35,10.37a.31.31,0,0,1-.11-.41.29.29,0,0,1,.4-.13c.35.19.7.37,1.08.54a.28.28,0,0,1,.16.4.31.31,0,0,1-.27.19s-.08,0-.13,0C63.49,18.11,63.09,18,62.74,17.74Zm0-16.18a8,8,0,0,1,1.08-.7A.31.31,0,0,1,64.3,1a.28.28,0,0,1-.14.4,5.78,5.78,0,0,0-1,.65.34.34,0,0,1-.19.08A.28.28,0,0,1,62.77,2,.32.32,0,0,1,62.79,1.56ZM64.6,8.67a.3.3,0,0,1-.19-.38.33.33,0,0,1,.4-.19,10.68,10.68,0,0,0,1.13.38.31.31,0,0,1,.22.37.32.32,0,0,1-.3.25.09.09,0,0,1-.08,0A9.09,9.09,0,0,1,64.6,8.67ZM65.05.38a6.17,6.17,0,0,1,1.27-.3.3.3,0,0,1,.35.27A.33.33,0,0,1,66.4.7a7.46,7.46,0,0,0-1.16.24.09.09,0,0,1-.08,0,.33.33,0,0,1-.3-.22A.29.29,0,0,1,65.05.38Zm0,18.33a.31.31,0,0,1-.22-.38.35.35,0,0,1,.38-.22,5.15,5.15,0,0,0,1.16.27.33.33,0,0,1,.27.35.32.32,0,0,1-.32.27h0A9,9,0,0,1,65.08,18.71Zm2.48-9.24H67.5a3.06,3.06,0,0,1-.51-.1A.3.3,0,0,1,66.75,9a.35.35,0,0,1,.38-.25,4.15,4.15,0,0,1,.48.11h0c.25.06.46.08.68.14a.29.29,0,0,1,.24.35.34.34,0,0,1-.32.27.1.1,0,0,0-.06,0A4.89,4.89,0,0,1,67.56,9.47Zm0-8.85A.37.37,0,0,1,67.26.3a.32.32,0,0,1,.32-.3,6.67,6.67,0,0,1,1.27.11.31.31,0,0,1,.27.35.33.33,0,0,1-.33.27.07.07,0,0,0-.05,0A8.68,8.68,0,0,0,67.58.62Zm-.32,18.17a.32.32,0,0,1,.32-.3h0a8.8,8.8,0,0,0,1.16-.08.33.33,0,0,1,.35.27.34.34,0,0,1-.27.35,10.06,10.06,0,0,1-1.24.08h0A.32.32,0,0,1,67.26,18.79ZM69.39,9.9a.3.3,0,0,1-.22-.37.31.31,0,0,1,.38-.22c.4.14.81.24,1.18.41a.32.32,0,0,1,.19.4.32.32,0,0,1-.3.19s-.08,0-.1,0C70.17,10.15,69.79,10,69.39,9.9ZM69.9,1a.3.3,0,0,1-.19-.38.29.29,0,0,1,.38-.19,10.12,10.12,0,0,1,1.18.49.33.33,0,0,1,.13.43.3.3,0,0,1-.26.16.34.34,0,0,1-.17,0A7.3,7.3,0,0,0,69.9,1Zm0,17.17A8.16,8.16,0,0,0,71,17.76a.29.29,0,0,1,.4.14.3.3,0,0,1-.13.4,6.05,6.05,0,0,1-1.21.46H70a.31.31,0,0,1-.3-.22A.3.3,0,0,1,69.92,18.17Zm1.67-7.4a.31.31,0,0,1-.1-.41.29.29,0,0,1,.4-.13A6.34,6.34,0,0,1,73,11a.3.3,0,0,1,0,.43.43.43,0,0,1-.24.11.22.22,0,0,1-.19-.08A10.88,10.88,0,0,0,71.59,10.77Zm.46-8.72a.28.28,0,0,1-.11-.41.29.29,0,0,1,.41-.11c.37.22.72.46,1.05.68a.27.27,0,0,1,.1.4.32.32,0,0,1-.27.16.37.37,0,0,1-.16,0C72.72,2.5,72.4,2.26,72.05,2.05Zm0,15.12a4.59,4.59,0,0,0,.86-.78.31.31,0,0,1,.43,0,.3.3,0,0,1,0,.43,6.11,6.11,0,0,1-1,.87.26.26,0,0,1-.19.08A.32.32,0,0,1,72,17.6.31.31,0,0,1,72.05,17.17Zm1.29-4.92a.34.34,0,0,1,.08-.43.31.31,0,0,1,.43.08,3.46,3.46,0,0,1,.54,1.21.27.27,0,0,1-.21.37H74.1a.3.3,0,0,1-.3-.21A2.77,2.77,0,0,0,73.34,12.25Zm.19,3.2a2.5,2.5,0,0,0,.32-1.08.34.34,0,0,1,.35-.27.32.32,0,0,1,.27.35,4.5,4.5,0,0,1-.37,1.27.31.31,0,0,1-.27.16c-.06,0-.11,0-.14,0A.31.31,0,0,1,73.53,15.45Z" style="fill:#fff"/><path d="M78.7,9.55a5,5,0,0,1,.08-1,.29.29,0,0,1,.32-.3.3.3,0,0,1,.32.35c0,.3,0,.62,0,.91V10a.29.29,0,0,1-.3.37h0A.35.35,0,0,1,78.7,10Zm.16,1.86a.4.4,0,0,1,.27-.4.4.4,0,0,1,.43.27,5.76,5.76,0,0,0,.35,1.34.33.33,0,0,1-.24.41l-.11,0a.35.35,0,0,1-.32-.24A9.54,9.54,0,0,1,78.86,11.41ZM79,7.19a9.1,9.1,0,0,1,.43-1.4.36.36,0,0,1,.46-.19.42.42,0,0,1,.22.46,7,7,0,0,0-.43,1.26.38.38,0,0,1-.35.27h-.08A.33.33,0,0,1,79,7.19Zm.84,6.94a.3.3,0,0,1,.13-.46.33.33,0,0,1,.46.14,10.37,10.37,0,0,0,.7,1.15.36.36,0,0,1-.11.49.25.25,0,0,1-.16.05.38.38,0,0,1-.32-.16A6,6,0,0,1,79.83,14.13Zm.27-9.61c.24-.4.51-.81.78-1.18a.34.34,0,0,1,.48-.06.36.36,0,0,1,.06.49,12.73,12.73,0,0,0-.76,1.1.36.36,0,0,1-.29.16.44.44,0,0,1-.17,0A.34.34,0,0,1,80.1,4.52Zm1.34,11.92a.34.34,0,0,1,0-.48A.38.38,0,0,1,82,16a7.88,7.88,0,0,0,1,.86.33.33,0,0,1,.08.49.36.36,0,0,1-.3.13.38.38,0,0,1-.18,0C82.17,17.09,81.82,16.79,81.44,16.44ZM81.9,2.31A4.46,4.46,0,0,1,83,1.43a.28.28,0,0,1,.43.1.28.28,0,0,1-.08.43,13.42,13.42,0,0,0-1,.87.62.62,0,0,1-.24,0,.39.39,0,0,1-.24-.11C81.68,2.64,81.77,2.45,81.9,2.31Zm1.88,15.88a.46.46,0,0,1-.18-.51.39.39,0,0,1,.51-.13,5.22,5.22,0,0,0,1.18.48.42.42,0,0,1,.24.46.41.41,0,0,1-.35.24H85.1C84.65,18.57,84.22,18.38,83.78,18.19ZM84.27.75A8.57,8.57,0,0,1,85.64.27a.35.35,0,0,1,.43.27.34.34,0,0,1-.27.4,10.27,10.27,0,0,0-1.26.41s-.06,0-.14,0a.31.31,0,0,1-.29-.22A.32.32,0,0,1,84.27.75Zm1.94,17.93a.34.34,0,0,1,.37-.32,5.57,5.57,0,0,0,1.16.08H88a.34.34,0,0,1,.32.32.32.32,0,0,1-.32.35h-.22A5.91,5.91,0,0,1,86.53,19C86.31,19,86.18,18.84,86.21,18.68ZM87.74.7a2.77,2.77,0,0,0-.65.05A.38.38,0,0,1,86.72.4.37.37,0,0,1,87.07,0a4.44,4.44,0,0,1,.67,0,6.27,6.27,0,0,1,.75,0,.33.33,0,0,1,.3.4.32.32,0,0,1-.32.32h-.06A2.77,2.77,0,0,0,87.74.7Zm1.51,17.6a8.88,8.88,0,0,0,1.24-.38.33.33,0,0,1,.45.17c.06.24,0,.4-.16.48a12.26,12.26,0,0,1-1.4.4H89.3a.31.31,0,0,1-.32-.26A.3.3,0,0,1,89.25,18.3ZM89.76.94a.3.3,0,0,1-.27-.4A.4.4,0,0,1,89.92.3a6.22,6.22,0,0,1,1.32.48.31.31,0,0,1,.19.43.35.35,0,0,1-.32.22s-.11,0-.14,0A8.67,8.67,0,0,0,89.76.94ZM91.7,17.33a3.74,3.74,0,0,0,1.07-.75.41.41,0,0,1,.51.08.36.36,0,0,1,0,.48,8.61,8.61,0,0,1-1.18.78C92,18,92,18,91.89,18a.42.42,0,0,1-.33-.16A.37.37,0,0,1,91.7,17.33Zm.45-15.28a.39.39,0,0,1-.1-.49.38.38,0,0,1,.48-.11,11.91,11.91,0,0,1,1.1.92.3.3,0,0,1,0,.48.31.31,0,0,1-.27.11.24.24,0,0,1-.21-.08C92.85,2.58,92.5,2.31,92.15,2.05Zm1.62,13.61a9.71,9.71,0,0,0,.81-1.05.33.33,0,0,1,.45-.1.34.34,0,0,1,.09.48,13.1,13.1,0,0,1-.84,1.16.7.7,0,0,1-.24.11.56.56,0,0,1-.24-.08A.35.35,0,0,1,93.77,15.66Zm.32-11.81a.35.35,0,0,1,.06-.49c.16-.1.37-.1.45.08a5.41,5.41,0,0,1,.84,1.19.39.39,0,0,1-.14.46c-.08,0-.1,0-.18,0a.39.39,0,0,1-.3-.19A11,11,0,0,0,94.09,3.85Zm1.11,9.58a10.36,10.36,0,0,0,.48-1.24.35.35,0,0,1,.43-.24.45.45,0,0,1,.24.46,11.94,11.94,0,0,1-.51,1.32.44.44,0,0,1-.35.21l-.13,0A.39.39,0,0,1,95.2,13.43Zm.18-7.24c0-.24,0-.4.22-.48a.38.38,0,0,1,.48.18,12,12,0,0,1,.41,1.38.39.39,0,0,1-.27.43h-.08a.38.38,0,0,1-.35-.3A6.64,6.64,0,0,0,95.38,6.19ZM96,10.9c0-.43,0-.91,0-1.35a7.22,7.22,0,0,0,0-.8.33.33,0,0,1,.3-.35.31.31,0,0,1,.38.29,5,5,0,0,1,0,.86A10.65,10.65,0,0,1,96.62,11a.33.33,0,0,1-.32.3h0A.33.33,0,0,1,96,10.9Z" style="fill:#fff"/><path d="M102,1.64v.41a.35.35,0,0,1-.35.35.36.36,0,0,1-.35-.35V.65a.33.33,0,0,1,.35-.35.22.22,0,0,1,.11,0,.52.52,0,0,1,.24.11l.81,1.16a.35.35,0,0,1-.08.46.26.26,0,0,1-.22.08.33.33,0,0,1-.27-.17Zm-.7,1.8a.32.32,0,0,1,.35-.34.32.32,0,0,1,.35.34v1.4a.33.33,0,0,1-.35.33.34.34,0,0,1-.35-.33Zm0,2.78a.33.33,0,0,1,.35-.35.32.32,0,0,1,.35.35v1.4a.35.35,0,0,1-.35.35.36.36,0,0,1-.35-.35Zm0,2.8a.33.33,0,0,1,.35-.35A.32.32,0,0,1,102,9v1.4a.33.33,0,0,1-.35.32.34.34,0,0,1-.35-.32Zm0,2.77a.34.34,0,0,1,.35-.35.34.34,0,0,1,.35.35v1.4a.34.34,0,0,1-.35.35.34.34,0,0,1-.35-.35Zm0,2.8a.33.33,0,0,1,.35-.35.32.32,0,0,1,.35.35V16a.33.33,0,0,1-.35.32.34.34,0,0,1-.35-.32Zm0,2.77a.34.34,0,0,1,.35-.35.34.34,0,0,1,.35.35v1.4a.34.34,0,0,1-.35.35.34.34,0,0,1-.35-.35Zm1.75-14.24a.36.36,0,0,1,0-.48c.19-.14.41-.11.49.08l.83,1.1a.35.35,0,0,1-.08.49c-.05.08-.11.08-.19.08a.45.45,0,0,1-.32-.14Zm1.64,2.26a.35.35,0,0,1,.06-.48.3.3,0,0,1,.48.08l.81,1.1a.31.31,0,0,1-.08.49.21.21,0,0,1-.19.08.44.44,0,0,1-.3-.14Zm1.62,2.24a.28.28,0,0,1,.08-.46.3.3,0,0,1,.48.08l.81,1.1a.37.37,0,0,1-.08.49.33.33,0,0,1-.22.08.34.34,0,0,1-.27-.14Zm3,3.28a.25.25,0,0,1-.11.19.37.37,0,0,1-.21.08.27.27,0,0,1-.27-.14L108,9.88a.35.35,0,1,1,.59-.38l.81,1.1a.54.54,0,0,1,0,.3.43.43,0,0,1,.05-.3l.86-1.1c.08-.19.3-.21.49-.11a.38.38,0,0,1,0,.49L110,11c0,.11-.16.14-.27.14a.26.26,0,0,1-.19-.08A.31.31,0,0,1,109.38,10.9Zm1.69-2.56.81-1.1a.31.31,0,0,1,.49-.08.31.31,0,0,1,.1.46l-.83,1.15a.3.3,0,0,1-.27.14.35.35,0,0,1-.22-.08A.39.39,0,0,1,111.07,8.34Zm1.65-2.26.8-1.1A.31.31,0,0,1,114,4.9a.32.32,0,0,1,.08.48l-.81,1.13a.44.44,0,0,1-.3.14.19.19,0,0,1-.18-.08A.36.36,0,0,1,112.72,6.08Zm1.64-2.26.8-1.1a.31.31,0,0,1,.49-.08.36.36,0,0,1,0,.48l-.78,1.13a.44.44,0,0,1-.29.14.2.2,0,0,1-.19-.08A.31.31,0,0,1,114.36,3.82Zm2.39-2.15-.21.29a.32.32,0,0,1-.3.17.19.19,0,0,1-.19-.08.34.34,0,0,1-.1-.46l.83-1.16A.33.33,0,0,1,117,.32s.08,0,.1,0a.32.32,0,0,1,.35.35v1.4a.35.35,0,0,1-.35.35.4.4,0,0,1-.35-.35Zm0,1.77a.35.35,0,0,1,.35-.34.32.32,0,0,1,.35.34v1.4a.33.33,0,0,1-.35.33.37.37,0,0,1-.35-.33Zm0,2.78a.35.35,0,0,1,.35-.35.32.32,0,0,1,.35.35v1.4a.35.35,0,0,1-.35.35.4.4,0,0,1-.35-.35Zm0,2.8a.35.35,0,0,1,.35-.35.32.32,0,0,1,.35.35v1.4a.33.33,0,0,1-.35.32.37.37,0,0,1-.35-.32Zm0,2.77a.38.38,0,0,1,.35-.35.34.34,0,0,1,.35.35v1.4a.34.34,0,0,1-.35.35.38.38,0,0,1-.35-.35Zm0,2.8a.35.35,0,0,1,.35-.35.32.32,0,0,1,.35.35V16a.33.33,0,0,1-.35.32.37.37,0,0,1-.35-.32Zm0,2.77a.38.38,0,0,1,.35-.35.34.34,0,0,1,.35.35v1.4a.34.34,0,0,1-.35.35.38.38,0,0,1-.35-.35Z" style="fill:#fff"/><path d="M122.7.62a.34.34,0,0,1,.35-.35h1.43a.33.33,0,0,1,.35.35.34.34,0,0,1-.35.32h-1.11V2a.33.33,0,0,1-.32.35A.35.35,0,0,1,122.7,2Zm0,2.72a.35.35,0,0,1,.35-.35.33.33,0,0,1,.32.35V4.71a.35.35,0,0,1-.32.35.38.38,0,0,1-.35-.35Zm0,2.74a.34.34,0,0,1,.35-.35.32.32,0,0,1,.32.35V7.43a.33.33,0,0,1-.32.35.35.35,0,0,1-.35-.35Zm0,2.72a.34.34,0,0,1,.35-.35.32.32,0,0,1,.32.35v.54h1.11a.36.36,0,0,1,.35.35.33.33,0,0,1-.35.35h-1.11v.13a.33.33,0,0,1-.32.33.36.36,0,0,1-.35-.33Zm0,2.72a.33.33,0,0,1,.35-.32.3.3,0,0,1,.32.32v1.37a.33.33,0,0,1-.32.35.35.35,0,0,1-.35-.35Zm0,2.74a.34.34,0,0,1,.35-.35.32.32,0,0,1,.32.35v1.38a.32.32,0,0,1-.32.32.35.35,0,0,1-.35-.32Zm.4,4.85a.34.34,0,0,1-.32-.35.21.21,0,0,1,0-.14.34.34,0,0,1-.11-.26V17a.33.33,0,0,1,.35-.32.3.3,0,0,1,.32.32v1.38s0,.05,0,.08h1.13a.34.34,0,0,1,.35.32.33.33,0,0,1-.35.35ZM125.85.94a.35.35,0,0,1-.35-.32.34.34,0,0,1,.35-.35h1.34a.32.32,0,0,1,.35.35.33.33,0,0,1-.35.32Zm0,9.1a.34.34,0,0,1-.35-.35.38.38,0,0,1,.35-.35h1.34a.35.35,0,0,1,.35.35.33.33,0,0,1-.35.35Zm0,9.07a.34.34,0,0,1-.35-.35.35.35,0,0,1,.35-.32h1.34a.33.33,0,0,1,.35.32.33.33,0,0,1-.35.35ZM128.57.94a.37.37,0,0,1-.35-.32.35.35,0,0,1,.35-.35h1.37a.34.34,0,0,1,.35.35.35.35,0,0,1-.35.32Zm0,9.1a.36.36,0,0,1-.35-.35.4.4,0,0,1,.35-.35h1.37a.38.38,0,0,1,.35.35.34.34,0,0,1-.35.35Zm0,9.07a.36.36,0,0,1-.35-.35.37.37,0,0,1,.35-.32h1.37a.35.35,0,0,1,.35.32.34.34,0,0,1-.35.35ZM131.31.94A.35.35,0,0,1,131,.62a.34.34,0,0,1,.35-.35h1.35a.33.33,0,0,1,.35.35.34.34,0,0,1-.35.32Zm0,9.1a.34.34,0,0,1-.35-.35.38.38,0,0,1,.35-.35H132a.35.35,0,0,1,.32.35A.32.32,0,0,1,132,10Zm0,9.07a.34.34,0,0,1-.35-.35.35.35,0,0,1,.35-.32h1.35a.34.34,0,0,1,.35.32.33.33,0,0,1-.35.35Z" style="fill:#fff"/><path d="M1.49,32.91a.33.33,0,0,1,.35-.35.36.36,0,0,1,.35.35v1.4a.39.39,0,0,1-.35.35.35.35,0,0,1-.35-.35Zm0,2.8a.33.33,0,0,1,.35-.35.36.36,0,0,1,.35.35v1.4a.38.38,0,0,1-.35.33.34.34,0,0,1-.35-.33Zm0,2.78a.34.34,0,0,1,.35-.35.38.38,0,0,1,.35.35v1.4a.38.38,0,0,1-.35.35.34.34,0,0,1-.35-.35Zm0,2.79a.33.33,0,0,1,.35-.35.36.36,0,0,1,.35.35v1.4a.39.39,0,0,1-.35.35.35.35,0,0,1-.35-.35Zm0,2.8a.33.33,0,0,1,.35-.35.36.36,0,0,1,.35.35v1.4a.4.4,0,0,1-.35.35.35.35,0,0,1-.35-.35Zm0,2.78a.32.32,0,0,1,.35-.33.36.36,0,0,1,.35.33v1.4a.38.38,0,0,1-.35.35.34.34,0,0,1-.35-.35Zm0,2.79a.33.33,0,0,1,.35-.35.36.36,0,0,1,.35.35v1.4a.38.38,0,0,1-.35.35.34.34,0,0,1-.35-.35Z" style="fill:#fff"/><path d="M10.2,34v.37a.33.33,0,0,1-.34.35.37.37,0,0,1-.35-.35V32.94a.37.37,0,0,1,.13-.27.35.35,0,0,1,.48.06l.81,1.13a.35.35,0,0,1-.08.48.44.44,0,0,1-.21,0,.27.27,0,0,1-.27-.14Zm-.69,1.75a.35.35,0,0,1,.35-.35.32.32,0,0,1,.34.35v1.37a.33.33,0,0,1-.34.32.37.37,0,0,1-.35-.32Zm0,2.72a.35.35,0,0,1,.35-.33.32.32,0,0,1,.34.33v1.37a.35.35,0,0,1-.34.35.39.39,0,0,1-.35-.35Zm0,2.74a.35.35,0,0,1,.35-.35.32.32,0,0,1,.34.35v1.35a.35.35,0,0,1-.34.35.39.39,0,0,1-.35-.35Zm0,2.72a.35.35,0,0,1,.35-.35.32.32,0,0,1,.34.35v1.34a.33.33,0,0,1-.34.35.37.37,0,0,1-.35-.35Zm0,2.72a.35.35,0,0,1,.35-.35.32.32,0,0,1,.34.35V48a.33.33,0,0,1-.34.32A.37.37,0,0,1,9.51,48Zm0,2.72a.35.35,0,0,1,.35-.33.32.32,0,0,1,.34.33v1.37a.35.35,0,0,1-.34.35.39.39,0,0,1-.35-.35Zm1.66-14a.38.38,0,0,1,.08-.48.39.39,0,0,1,.49.08l.78,1.1a.3.3,0,0,1-.08.46.29.29,0,0,1-.19,0,.35.35,0,0,1-.3-.13Zm1.59,2.21a.34.34,0,0,1,.08-.48.33.33,0,0,1,.49.08l.78,1.07a.37.37,0,0,1-.06.49.24.24,0,0,1-.21.08.33.33,0,0,1-.27-.14Zm1.59,2.21a.3.3,0,0,1,.11-.46.27.27,0,0,1,.43,0l.83,1.11a.34.34,0,0,1-.08.45.19.19,0,0,1-.19.09.34.34,0,0,1-.29-.14ZM16,42a.3.3,0,0,1,.06-.43.31.31,0,0,1,.48,0l.81,1.1a.33.33,0,0,1-.11.49s-.08,0-.19,0a.26.26,0,0,1-.26-.13Zm1.59,2.23a.35.35,0,0,1,.08-.48.31.31,0,0,1,.46.1l.78,1.08a.32.32,0,0,1-.05.49.87.87,0,0,1-.22,0,.3.3,0,0,1-.27-.14Zm1.59,2.21a.34.34,0,0,1,.08-.49.38.38,0,0,1,.49.11l.78,1.11a.34.34,0,0,1-.08.45.6.6,0,0,1-.19.08.43.43,0,0,1-.27-.13Zm1.59,2.21a.34.34,0,0,1,.11-.49.32.32,0,0,1,.43.11l.8,1.1a.38.38,0,0,1-.05.49.79.79,0,0,1-.22,0,.36.36,0,0,1-.26-.13Zm1.59,2.2a.34.34,0,0,1,.08-.46.33.33,0,0,1,.27-.05v-.91a.34.34,0,0,1,.35-.33.32.32,0,0,1,.32.33v1.37a.46.46,0,0,1-.08.24.41.41,0,0,1-.16.38.32.32,0,0,1-.16,0c-.14,0-.25,0-.3-.13Zm.35-17.76A.34.34,0,0,1,23,32.7a.32.32,0,0,1,.32.35v1.34a.34.34,0,0,1-.32.35.35.35,0,0,1-.35-.35Zm0,2.72a.34.34,0,0,1,.35-.35.32.32,0,0,1,.32.35v1.37a.33.33,0,0,1-.32.32.35.35,0,0,1-.35-.32Zm0,2.72a.34.34,0,0,1,.35-.33.32.32,0,0,1,.32.33v1.37a.36.36,0,0,1-.32.35.38.38,0,0,1-.35-.35Zm0,2.74a.34.34,0,0,1,.35-.35.32.32,0,0,1,.32.35v1.35a.36.36,0,0,1-.32.35.38.38,0,0,1-.35-.35Zm0,2.72A.34.34,0,0,1,23,43.6a.32.32,0,0,1,.32.35v1.34a.34.34,0,0,1-.32.35.35.35,0,0,1-.35-.35Zm0,2.72a.34.34,0,0,1,.35-.35.32.32,0,0,1,.32.35V48a.33.33,0,0,1-.32.32.35.35,0,0,1-.35-.32Z" style="fill:#fff"/><path d="M29.42,42.15a.39.39,0,0,1,.3-.38.4.4,0,0,1,.37.35,6.23,6.23,0,0,0,.14,1.26.32.32,0,0,1-.27.41H29.9a.32.32,0,0,1-.34-.27A10.25,10.25,0,0,1,29.42,42.15Zm.08-1.46a7.05,7.05,0,0,1,.27-1.4.33.33,0,0,1,.4-.24.35.35,0,0,1,.25.46,6.41,6.41,0,0,0-.25,1.29.35.35,0,0,1-.35.3s0,0-.05,0A.29.29,0,0,1,29.5,40.69Zm.43,4.23a.36.36,0,0,1,.22-.46.34.34,0,0,1,.4.22c.16.43.35.83.54,1.26a.3.3,0,0,1-.14.43.29.29,0,0,1-.16,0,.4.4,0,0,1-.32-.16A10.41,10.41,0,0,1,29.93,44.92Zm.3-7A9.37,9.37,0,0,1,31,36.68a.39.39,0,0,1,.52-.11.38.38,0,0,1,.05.49,6.1,6.1,0,0,0-.62,1.18.36.36,0,0,1-.32.19.29.29,0,0,1-.16,0A.32.32,0,0,1,30.23,38Zm1,9.48A.35.35,0,0,1,31.3,47a.37.37,0,0,1,.49,0c.32.35.59.7.91,1a.29.29,0,0,1,0,.48.36.36,0,0,1-.21.11.52.52,0,0,1-.3-.11C31.9,48.2,31.57,47.82,31.22,47.45Zm.65-11.9c.3-.32.65-.67,1-1a.39.39,0,0,1,.49.08.37.37,0,0,1-.06.51,11.17,11.17,0,0,0-.94.89.56.56,0,0,1-.24.08A.37.37,0,0,1,31.9,36,.31.31,0,0,1,31.87,35.55ZM33.3,49.49a.41.41,0,0,1-.08-.53.35.35,0,0,1,.48-.06,5.28,5.28,0,0,0,1.13.75.33.33,0,0,1,.13.46.25.25,0,0,1-.26.19.43.43,0,0,1-.19,0A6.85,6.85,0,0,1,33.3,49.49Zm.75-15.77c.43-.24.83-.46,1.29-.67a.34.34,0,0,1,.46.21.34.34,0,0,1-.19.46,10,10,0,0,0-1.18.59.39.39,0,0,1-.19.06.35.35,0,0,1-.32-.16A.38.38,0,0,1,34.05,33.72Zm1.8,17.09a.28.28,0,0,1-.21-.4.31.31,0,0,1,.43-.19c.43.13.86.22,1.29.32a.33.33,0,0,1,.22.43.32.32,0,0,1-.27.27s-.08,0-.08-.05A4.8,4.8,0,0,1,35.85,50.81Zm.86-18.22a11,11,0,0,1,1.38-.21.29.29,0,0,1,.37.29.41.41,0,0,1-.29.38,4.11,4.11,0,0,0-1.27.27h-.11a.43.43,0,0,1-.34-.3A.37.37,0,0,1,36.71,32.59ZM38.28,51a.35.35,0,0,1,.37-.3h.54a3.79,3.79,0,0,0,.78,0,.36.36,0,0,1,.38.35.32.32,0,0,1-.33.35c-.26,0-.53,0-.83,0H38.6A.34.34,0,0,1,38.28,51ZM39.49,33c-.19,0-.38-.16-.33-.32a.33.33,0,0,1,.35-.35,11.91,11.91,0,0,1,1.4.13.3.3,0,0,1,.27.4.29.29,0,0,1-.32.27H40.8A11.18,11.18,0,0,0,39.49,33Zm1.77,17.55a9.29,9.29,0,0,0,1.29-.41.34.34,0,0,1,.44.19.35.35,0,0,1-.17.46,10.48,10.48,0,0,1-1.37.4H41.4a.35.35,0,0,1-.38-.24A.34.34,0,0,1,41.26,50.52Zm.84-17.07a.34.34,0,0,1-.19-.43.29.29,0,0,1,.4-.24,7.59,7.59,0,0,1,1.35.57.31.31,0,0,1,.19.45.4.4,0,0,1-.38.19l-.13,0A8.3,8.3,0,0,0,42.1,33.45Zm1.69,16.12c.38-.24.76-.51,1.11-.78a.34.34,0,0,1,.48,0,.35.35,0,0,1-.08.51,5.76,5.76,0,0,1-1.16.81c-.08,0-.11.08-.16.08a.5.5,0,0,1-.35-.19A.36.36,0,0,1,43.79,49.57Zm.73-15a.34.34,0,0,1-.11-.48.37.37,0,0,1,.49-.06,2.55,2.55,0,0,1,.43.3.43.43,0,0,1,.08.51.29.29,0,0,1-.27.13c-.08,0-.19,0-.22-.08A2.24,2.24,0,0,1,44.52,34.61Z" style="fill:#fff"/><path d="M51.11,51.32a.71.71,0,0,1-.7-.67.69.69,0,0,1,.7-.67.66.66,0,0,1,.65.67A.68.68,0,0,1,51.11,51.32Z" style="fill:#fff"/></g></g></svg>