<svg xmlns="http://www.w3.org/2000/svg" viewBox="0 0 145.85 36.46"><title>dear-zindagi</title><g id="b16828eb-7e99-4973-8562-0c6002e4fcf4" data-name="Layer 2"><g id="f541b36c-6314-455c-b882-1b9de7a1432b" data-name="Layer 1"><g id="faa30c83-484f-4198-8fc5-9997085cec82" data-name="b742810a-31fd-46aa-9271-616d40a2cd32"><g id="b30dc6ed-f4c5-46e1-b491-cadeaa501c80" data-name="f1053cfe-4f73-4f31-ba84-c4c1d9017370"><g id="ad42b161-b46d-4ef1-bfb2-b2a066eea03b" data-name="b321d173-e01a-41f2-bfdf-85b6c3b46816"><g id="e2ed2ce4-c750-474b-8194-dfbb003175bb" data-name="bfaa62d0-6f7c-4402-8453-b2dce09e8714"><path d="M30.71,10.59a1.12,1.12,0,0,0-1-1.11,1.21,1.21,0,0,0-1,.28,4.75,4.75,0,0,0-.93,1c-.49.83-.91,1.71-1.36,2.57-.54,1-1.08,2.09-1.61,3.14-.08.16-.17.23-.34.18L24,16.53a.26.26,0,0,1-.17-.34c.21-.86.38-1.73.57-2.59q.84-3.93,1.7-7.83a1.64,1.64,0,0,0-.3-1.4,1.56,1.56,0,0,0-1.5-.62A1.57,1.57,0,0,0,23,4.89c-.38,1.21-.73,2.42-1.1,3.63L19.94,15a.24.24,0,0,1-.11.19.51.51,0,0,1-.64-.29.41.41,0,0,1,0-.16l.42-4.87c.23-2.66.46-5.3.69-7.94a1.81,1.81,0,0,0-1.6-2h-.05a1.82,1.82,0,0,0-1.83,1.63c-.21,1.4-.41,2.8-.61,4.21Q15.58,9.92,15,14a.56.56,0,0,1-.61.5h0c-.27,0-.38-.12-.39-.39V11.17c0-2.54,0-5.09,0-7.64a1.8,1.8,0,0,0-3.59,0h0c-.16,3.19-.31,6.37-.49,9.56,0,.88-.08,1.77-.21,2.64a7.87,7.87,0,0,1-.5,1.8,1.24,1.24,0,0,1-1.5.67.61.61,0,0,1-.29-.19c-.84-1-1.68-2.07-2.5-3.12A4.75,4.75,0,0,0,1.1,13,.92.92,0,0,0,0,13.77a.94.94,0,0,0,.15.71,12.34,12.34,0,0,0,.68,1.3c.87,1.39,1.83,2.74,2.61,4.19,1.29,2.41,2.5,4.85,3.71,7.31a15.63,15.63,0,0,0,2.19,3.49,1,1,0,0,1,.13.23,1.22,1.22,0,0,0,.56-1.1,19.77,19.77,0,0,0-.11-2.18,39.05,39.05,0,0,0-.7-4.95,15.45,15.45,0,0,1-.32-1.62c-.05-.45.3-.69.73-.5A2.38,2.38,0,0,1,11,22.07c.21.59.39,1.19.6,1.79a.57.57,0,0,0,.68.43.6.6,0,0,0,.32-.2,1.7,1.7,0,0,0,.33-.42c.34-.71.67-1.41,1-2.13.54-1.25,1.07-2.5,1.61-3.77a.91.91,0,0,1,1.14-.59.92.92,0,0,1,.59,1.15l0,.09-.35,1C16.44,20.7,16,22,15.54,23.25c-.08.22,0,.35.2.32a.47.47,0,0,0,.26-.2c.8-1.48,1.58-2.95,2.37-4.43A12,12,0,0,1,19,17.78a.87.87,0,0,1,1-.31.85.85,0,0,1,.53.86,1.61,1.61,0,0,1-.14.5c-.86,1.85-1.71,3.7-2.58,5.55-.12.26-.11.28.19.39l.1-.11c.7-.93,1.39-1.88,2.09-2.82.33-.45.66-.89,1-1.33a.82.82,0,0,1,1.47.61,1.75,1.75,0,0,1-.23.5q-1.29,2.07-2.6,4.13c-.21.33-.2.35.17.52.5-.55,1-1.12,1.57-1.66a3.17,3.17,0,0,1,.75-.57.65.65,0,0,1,.78.06.6.6,0,0,1,.14.73A11.11,11.11,0,0,1,22.64,26c-.15.23-.57.63-.77.87a76.65,76.65,0,0,1-8,9.45l-.17.19h3A20.31,20.31,0,0,0,24.52,35,12.32,12.32,0,0,1,24.46,33a23.15,23.15,0,0,1,.65-4.3,1.45,1.45,0,0,0,.06-.3,6.49,6.49,0,0,0,.45-1.5,1.81,1.81,0,0,1,.12-.56c.32-1.07.62-2.14,1-3.21,1.09-3.5,2.23-6.94,3.59-10.32A5.1,5.1,0,0,0,30.71,10.59Z" style="fill:#010101"/></g><path d="M24.45,28.37c-.12.08-.21.17-.25.16s-.16-.14-.16-.21Z" style="fill:#010101"/></g><path d="M46.63,19.59c0,3.06-2.24,5.14-5.56,5.14H36.74V14.48h4.43C44.42,14.48,46.63,16.54,46.63,19.59Zm-2.74,0a2.77,2.77,0,0,0-2.78-3H39.42v5.94h1.82A2.68,2.68,0,0,0,43.89,19.62Z" style="fill:#010101"/><path d="M56.07,14.48v2.14H50.65v1.92h4.89v2.12H50.65V22.6h5.56v2.13H48V14.48Z" style="fill:#010101"/><path d="M64.7,22.91H60.26l-.72,1.82H56.79L61.2,14.48H64l4.31,10.27H65.42Zm-.79-2.05-1.4-3.66-1.44,3.66Z" style="fill:#010101"/><path d="M75.35,24.73l-1.5-2.84h-2v2.84H69.18V14.48h4.61c2.72,0,4.28,1.32,4.28,3.6a3.47,3.47,0,0,1-1.83,3.31l2.14,3.36Zm-3.49-5H73.8a1.5,1.5,0,0,0,1.72-1.6c0-1-.63-1.55-1.72-1.55H71.86Z" style="fill:#010101"/><path d="M92.6,14.48v1.76l-5.42,6.34h5.49v2.15H83.59V23L89,16.59H83.78V14.48Z" style="fill:#010101"/><path d="M96.78,14.48V24.73H94.09V14.48Z" style="fill:#010101"/><path d="M101.13,14.48l4.66,6.18V14.48h2.49V24.73h-2.34l-4.66-6.15v6.15h-2.5V14.48Z" style="fill:#010101"/><path d="M120.18,19.59c0,3.06-2.24,5.14-5.57,5.14h-4.32V14.48h4.43C118,14.48,120.18,16.54,120.18,19.59Zm-2.74,0a2.77,2.77,0,0,0-2.78-3H113v5.94h1.81A2.68,2.68,0,0,0,117.44,19.62Z" style="fill:#010101"/><path d="M128.08,22.91h-4.44l-.72,1.82h-2.75l4.41-10.25h2.75l4.31,10.27h-2.86Zm-.79-2.05-1.41-3.66-1.44,3.66Z" style="fill:#010101"/><path d="M139.08,19.47h2.32v4a8.16,8.16,0,0,1-4.28,1.32,5.24,5.24,0,0,1-5.49-5.24c0-3,2.41-5.22,5.66-5.22a6.57,6.57,0,0,1,4.22,1.53L140,17.77a4.16,4.16,0,0,0-2.71-1.13,3,3,0,0,0,0,5.91,4.1,4.1,0,0,0,1.77-.5Z" style="fill:#010101"/><path d="M145.85,14.48V24.73h-2.68V14.48Z" style="fill:#010101"/></g></g></g></g></svg>