<svg xmlns="http://www.w3.org/2000/svg" viewBox="0 0 176.04 28.55"><title>elevito</title><g id="eaeec6e6-8419-4ef1-9e44-6481830befd7" data-name="Layer 2"><g id="ae8eade0-1add-49a9-b611-1be4eb929bbe" data-name="Layer 1"><path d="M9.14,7.21V10.6H22.06v6.93H9.14V21H23.72V27.9H0V.28H23.36V7.21Z" style="fill:#fff"/><path d="M47.83,20.29V27.9H27.18V.28h9.15v20Z" style="fill:#fff"/><path d="M59.34,21V17.53H72.26V10.6H59.34V7.21H73.56L69.76.27H50.19V27.9H73.91V21Z" style="fill:#fff"/><path d="M109.66.54,106,7.75V28.16h9.14V.54Z" style="fill:#fff"/><path d="M136.23,7.75V28.16h-9.14V7.75h-7.84V.54h24.86V7.75Z" style="fill:#fff"/><path d="M176,14.33c0,8.19-6.38,14.22-15.17,14.22s-15.17-6-15.17-14.22S152.08.26,160.87.26,176,6.17,176,14.33Zm-21,0c0,3.78,2.76,6.58,5.91,6.58s5.67-2.8,5.67-6.58-2.52-6.5-5.67-6.5S155.08,10.59,155.08,14.37Z" style="fill:#fff"/><polygon points="74.66 0 105.16 0 89.93 27.62 74.66 0" style="fill:#fff"/></g></g></svg>