<svg xmlns="http://www.w3.org/2000/svg" viewBox="0 0 154.24 17.86"><defs><style>.fcd26457-004f-4561-8251-bc501e129ddf{fill:#fff;}.\35 e32ff1e-5df8-4b5b-92db-6c578b5d8301{fill:#ce234b;}</style></defs><title>Filming Eye Logo2</title><g id="bede1857-e660-4046-97d7-4584e23c39f1" data-name="Layer 2"><g id="41d338ff-244b-46b8-813d-6481fa38e200" data-name="Layer 1"><path class="fcd26457-004f-4561-8251-bc501e129ddf" d="M7.15,8v2.93h7.12v4.34H7.15v5.46H1.39V3.67H15.27V8Z" transform="translate(-1.39 -3.27)"/><path class="fcd26457-004f-4561-8251-bc501e129ddf" d="M17.11,3.67h5.76V20.74H17.11Z" transform="translate(-1.39 -3.27)"/><path class="fcd26457-004f-4561-8251-bc501e129ddf" d="M25.65,3.67h5.76V16.28h7.71v4.46H25.65Z" transform="translate(-1.39 -3.27)"/><path class="fcd26457-004f-4561-8251-bc501e129ddf" d="M56,20.74,55.91,13,52.2,19.21H49.66l-3.71-6v7.51H40.71V3.67h4.73L51,12.77l5.42-9.1h4.73l.05,17.07Z" transform="translate(-1.39 -3.27)"/><path class="fcd26457-004f-4561-8251-bc501e129ddf" d="M64,3.67h5.76V20.74H64Z" transform="translate(-1.39 -3.27)"/><path class="fcd26457-004f-4561-8251-bc501e129ddf" d="M89.37,3.67V20.74H84.63L78.14,13v7.75H72.53V3.67h4.74l6.49,7.75V3.67Z" transform="translate(-1.39 -3.27)"/><path class="fcd26457-004f-4561-8251-bc501e129ddf" d="M103.45,11.74h5V19A13.75,13.75,0,0,1,101,21.13c-5.51,0-9.54-3.68-9.54-8.93s4-8.93,9.66-8.93a9.7,9.7,0,0,1,7.81,3.3l-3.68,3.24a4.9,4.9,0,0,0-3.83-1.88,3.92,3.92,0,0,0-4.15,4.27,3.93,3.93,0,0,0,4.07,4.27,5.41,5.41,0,0,0,2.1-.41Z" transform="translate(-1.39 -3.27)"/><path class="5e32ff1e-5df8-4b5b-92db-6c578b5d8301" d="M124.39,19.18v1.56H112.31V3.67H124V5.23h-9.9V11.3H123v1.54h-8.83v6.34Z" transform="translate(-1.39 -3.27)"/><path class="5e32ff1e-5df8-4b5b-92db-6c578b5d8301" d="M134.27,14.84v5.9h-1.78v-5.9L125.66,3.67h1.93l5.86,9.58,5.85-9.58h1.81Z" transform="translate(-1.39 -3.27)"/><path class="5e32ff1e-5df8-4b5b-92db-6c578b5d8301" d="M155.63,19.18v1.56H143.55V3.67h11.71V5.23h-9.9V11.3h8.83v1.54h-8.83v6.34Z" transform="translate(-1.39 -3.27)"/></g></g></svg>