<svg xmlns="http://www.w3.org/2000/svg" viewBox="0 0 142.71 33.7"><title>mr-irritating</title><g id="b3beaa06-b735-40ed-b1f6-ad10e6f2f20c" data-name="Layer 2"><g id="e7992784-a9a6-4f3c-a808-fde75dfd0ef9" data-name="Layer 1"><g id="bc322b74-02d7-474c-98ff-5217c08901e1" data-name="bd275337-98a1-47cd-a057-7ffe8b3e0919"><g id="a88fbc4d-7e86-4012-a843-3714caae2557" data-name="e871d744-a450-4de6-b794-0ce417a41a42"><g id="aeb92575-540e-4a53-b194-e679f994f3c8" data-name="c4cf66c5-e4f6-4352-be92-a42f789a5185"><path d="M.84,2.72c.39-.41.81-.8,1.24-1.17.23-.2.46-.39.7-.56A3.38,3.38,0,0,1,3.42.63l.35,0h.07a.43.43,0,0,1,.32.14,8,8,0,0,1,.28,1.38q.18.92.36,2c.14,1.11.27,2.2.38,3.28s.18,1.79.18,2.08a11.2,11.2,0,0,1,.92-3.35A3.69,3.69,0,0,1,7.72,4.51q1.49-.84,3.18.9A11.22,11.22,0,0,1,13.41,11a12.46,12.46,0,0,0,.28-2c.09-.9.24-1.79.42-2.72.12-.51.25-1,.39-1.48a8.45,8.45,0,0,1,.56-1.27,3.82,3.82,0,0,1,1-1.16,2.24,2.24,0,0,1,1.41-.45,3.8,3.8,0,0,1,2.15.6,5.69,5.69,0,0,1,1.62,1.66,12.73,12.73,0,0,1,1.66,4.2,37.54,37.54,0,0,1,.8,5.17c.16,1.72.26,3.36.28,4.92s0,2.84,0,3.85c0,.51,0,.92.07,1.23s.07.49.14.49c.26.07.64-.26,1.13-1a26.76,26.76,0,0,0,1.41-2.36L27.54,19c.23-.52.39-.9.49-1.17a2.27,2.27,0,0,0,.45,0,.91.91,0,0,1,.42.11c-.12.38-.39,1.07-.81,2.08a16.21,16.21,0,0,1-1.55,2.83,8.49,8.49,0,0,1-1.27,1.47,2,2,0,0,1-1.34.54c-1.18-.07-2.17-1-3-2.9A36.72,36.72,0,0,1,19,15.64c-.23-1-.43-2-.6-3.07s-.36-2-.53-3c-.28-1.74-.52-3.21-.74-4.41s-.41-1.79-.6-1.79-.39.39-.6,1.17a28.18,28.18,0,0,0-.63,2.82c-.12.61-.23,1.24-.32,1.91s-.22,1.34-.32,2c-.18,1.3-.35,2.51-.49,3.64l-.32,2.51a4.75,4.75,0,0,1-1.66.28,2,2,0,0,1-1.88-.81c0-.26-.11-.89-.28-1.83s-.32-2-.56-3.13c-.26-1.39-.56-2.68-.89-3.88S8,6.3,7.67,6.3s-.68.45-1,1.45A18.09,18.09,0,0,0,6,11.17c-.09.73-.16,1.47-.21,2.24s-.06,1.48,0,2.18,0,1.4,0,2.16,0,1.49,0,2.23c0,1.37-.06,2.63-.1,3.81a21.64,21.64,0,0,1-.26,2.54,1.13,1.13,0,0,0-.56-.21,2.7,2.7,0,0,0-.63.07,5.36,5.36,0,0,0-1.76.58A1.28,1.28,0,0,1,1.9,27c-.23,0-.36-.17-.38-.49-.1-.88-.2-2.15-.32-3.85S1,19,.88,17.07L.67,14c-.05-1-.11-2-.18-3C.4,9.11.3,7.53.21,6.17S.05,3.93,0,3.53A7.16,7.16,0,0,0,.84,2.72Z"/><path d="M31.68,17.64a1,1,0,0,1,.35.49,2,2,0,0,1,.18.67,6,6,0,0,1,0,1.2l-.14,1.27c-.12.82-.21,1.55-.28,2.19s0,1,.28,1.06.72-.31,1.23-1a19.17,19.17,0,0,0,1.59-2.33,18.62,18.62,0,0,0,.89-1.79,9.83,9.83,0,0,0,.57-1.48,3.91,3.91,0,0,1,.49,0,.54.54,0,0,1,.45.21q-.52,1.53-1.2,3A11.71,11.71,0,0,1,34.18,24a5.38,5.38,0,0,1-1.34,1,2.9,2.9,0,0,1-1.52.42h0a3.52,3.52,0,0,1-1.63-.31,2.1,2.1,0,0,1-.95-.82,3.66,3.66,0,0,1-.1-3.06A10.23,10.23,0,0,1,30,18.37a6.43,6.43,0,0,0-1.16,0,3.37,3.37,0,0,1-1.66-.21,1.79,1.79,0,0,1-1.09-1.52A8.52,8.52,0,0,1,26,15.44a3.09,3.09,0,0,1,.53-2,2,2,0,0,1,1.62-.7,2.35,2.35,0,0,1,.6.07,1.28,1.28,0,0,1,.71.32,1.69,1.69,0,0,1,.39.59,3.82,3.82,0,0,1-.21,2.54,7.9,7.9,0,0,1-.5,1.06,2,2,0,0,0,.64,0A4.78,4.78,0,0,1,31.68,17.64ZM29.1,14.46c0-.49,0-.77-.24-.85s-.45.43-.67,1.42-.24,1.61,0,1.78a.91.91,0,0,0,.21.18,6.42,6.42,0,0,0,.38-1A6.89,6.89,0,0,0,29.1,14.46Z"/><path d="M37.78,24.14a.73.73,0,0,1,.35-.57,1.43,1.43,0,0,1,.78-.24A1.07,1.07,0,0,1,40,24.39v.27c0,.41-.13.65-.39.75a.95.95,0,0,1-1-.11,2.31,2.31,0,0,1-.71-.78A1,1,0,0,1,37.78,24.14Z"/><path d="M53.44,1.73c.3,1.39.55,2.68.74,3.88.24,1.53.42,3,.53,4.33a64.2,64.2,0,0,1,.28,7.2q-.08,3.36,0,7.23a17.83,17.83,0,0,1,1.79-.21c.43,0,.64,0,.64.07s0,.05-.11.08-.21.34-.07.66c0,.17-.45.32-1.13.45a22.94,22.94,0,0,1-2.47.35l-.63.07a2.78,2.78,0,0,1-1.23.6H51.6a.66.66,0,0,1-.36-.11.63.63,0,0,1-.35-.35H49.52a4.49,4.49,0,0,1-1.1-.07v0a.94.94,0,0,1,.21-.45,1.08,1.08,0,0,1,.71-.35c.43,0,.87-.06,1.34-.11-.12-1-.22-2.19-.32-3.49-.14-1.64-.24-3.34-.31-5.08-.1-2.12-.15-4.18-.18-6.2,0-1,0-1.94,0-2.79s0-1.66,0-2.36,0-1.39.07-1.91a6.61,6.61,0,0,1,.12-1.09l.32-.36c-1,0-1.87,0-2.51,0l-.28,0c-.24,0-.34,0-.32-.11A1.15,1.15,0,0,0,47.1,1q.1-.28,1.62-.36h.89c.5,0,1,0,1.52,0a1.75,1.75,0,0,1,1-.67h.1a.88.88,0,0,1,.45.11,1.92,1.92,0,0,1,.5.56l0,.11,1.45.14a13.49,13.49,0,0,1,1.55.24,1.93,1.93,0,0,1-.35.29,1.85,1.85,0,0,1-.45.21C54.76,1.7,54.08,1.73,53.44,1.73Z"/><path d="M63,17.64a.91.91,0,0,1,.35.49,2,2,0,0,1,.18.67,6,6,0,0,1,0,1.2l-.14,1.27c-.12.82-.21,1.55-.28,2.19s0,1,.28,1.06.72-.31,1.23-1a20.46,20.46,0,0,0,1.6-2.33c.32-.59.62-1.18.89-1.79a8.82,8.82,0,0,0,.56-1.48,4.19,4.19,0,0,1,.5,0,.54.54,0,0,1,.42.21,27.58,27.58,0,0,1-1.2,3A11.44,11.44,0,0,1,65.5,24a5.52,5.52,0,0,1-1.33,1,2.84,2.84,0,0,1-1.52.42h0A3.5,3.5,0,0,1,61,25.14a2,2,0,0,1-1-.82,3.66,3.66,0,0,1-.11-3.06,10.26,10.26,0,0,1,1.38-2.89,6.54,6.54,0,0,0-1.17,0,3.37,3.37,0,0,1-1.66-.21,1.92,1.92,0,0,1-.7-.53,1.72,1.72,0,0,1-.39-1,8.5,8.5,0,0,1-.1-1.23,3.09,3.09,0,0,1,.52-2,2,2,0,0,1,1.64-.69,2.46,2.46,0,0,1,.6.07,1.41,1.41,0,0,1,.7.32,1.73,1.73,0,0,1,.39.6,3.77,3.77,0,0,1-.21,2.54,7.3,7.3,0,0,1-.5,1.06,2.29,2.29,0,0,0,.64,0A4.79,4.79,0,0,1,63,17.64Zm-2.58-3.18c.05-.49,0-.77-.24-.85s-.45.43-.67,1.42-.24,1.61,0,1.78a.91.91,0,0,0,.21.18,7.34,7.34,0,0,0,.38-1,6.85,6.85,0,0,0,.3-1.55Z"/><path d="M71.07,17.64a1,1,0,0,1,.35.49,1.75,1.75,0,0,1,.17.67,6.88,6.88,0,0,1,0,1.2l-.12,1.27c-.12.82-.21,1.55-.28,2.19s0,1,.28,1.06.72-.31,1.24-1a20.29,20.29,0,0,0,1.58-2.33c.33-.59.62-1.18.9-1.79a11,11,0,0,0,.56-1.48,4.07,4.07,0,0,1,.5,0,.51.51,0,0,1,.44.21,27.58,27.58,0,0,1-1.2,3A11.44,11.44,0,0,1,73.59,24a5.43,5.43,0,0,1-1.35,1,2.78,2.78,0,0,1-1.51.42h0a3.47,3.47,0,0,1-1.62-.31,2,2,0,0,1-.95-.82A3.66,3.66,0,0,1,68,21.26a10,10,0,0,1,1.38-2.89,6.54,6.54,0,0,0-1.17,0,3.31,3.31,0,0,1-1.65-.21,1.79,1.79,0,0,1-1.1-1.52,8.52,8.52,0,0,1-.11-1.23,3.09,3.09,0,0,1,.53-2,2,2,0,0,1,1.63-.7,2.46,2.46,0,0,1,.6.07,1.25,1.25,0,0,1,.7.32,1.56,1.56,0,0,1,.39.59A3.82,3.82,0,0,1,69,16.28a6.84,6.84,0,0,1-.5,1.06,2,2,0,0,0,.64,0A4.71,4.71,0,0,1,71.07,17.64Zm-2.58-3.18c.05-.49,0-.77-.24-.85S67.8,14,67.58,15s-.24,1.61,0,1.78a.91.91,0,0,0,.21.18,7.68,7.68,0,0,0,.7-2.54Z"/><path d="M75.74,16.51a2,2,0,0,1,.81-.53,2.29,2.29,0,0,1,1.52-.14c.49.14.75.35.77.63a6.85,6.85,0,0,1-.07,1.2c-.07.64-.13,1.34-.18,2.08,0,.9-.06,1.73,0,2.51s.18,1.16.49,1.16.7-.32,1.2-1a18.6,18.6,0,0,0,1.41-2q.47-.74.81-1.41A8.53,8.53,0,0,0,83,18a1.69,1.69,0,0,1,.45,0,.71.71,0,0,1,.42.14c-.19.42-.53,1.11-1,2.05a15.36,15.36,0,0,1-1.63,2.53A6.22,6.22,0,0,1,79.92,24a1.72,1.72,0,0,1-1,.32.9.9,0,0,1-.28,0c-2.26-.54-3.57-1.38-4-2.53a4.47,4.47,0,0,1-.21-1.45,7.63,7.63,0,0,1,.6-2.79A2.23,2.23,0,0,1,75.74,16.51ZM76.63,13c0-.35.25-.61.74-.77a2.75,2.75,0,0,1,.85-.14,2.46,2.46,0,0,1,.6.07,1.3,1.3,0,0,1,.74,1,2.56,2.56,0,0,1,0,.39q0,.42-.24.42a.08.08,0,0,1-.07,0,14.42,14.42,0,0,0-1.73-.25c-.57,0-.87-.22-.92-.6a.15.15,0,0,1,0-.16Z"/><path d="M86.63,13.58c.08.87.16,1.79.25,2.75q.08,1.09.21,2.19c.1.73.15,1.4.21,2.08.17,1.19.33,2.2.5,3s.4,1.18.63,1.16c.43,0,.9-.45,1.45-1.24A19.28,19.28,0,0,0,91.29,21c.28-.61.53-1.19.74-1.73s.36-.93.45-1.19a3,3,0,0,1,.42,0,.53.53,0,0,1,.39.18,16.33,16.33,0,0,1-.77,2.23,20.52,20.52,0,0,1-1.59,3.18,10,10,0,0,1-1.27,1.62,1.73,1.73,0,0,1-1.16.56h-.18a6.63,6.63,0,0,1-3.25-1.34A6.55,6.55,0,0,1,83.24,22a10.34,10.34,0,0,1-.67-2.64,18.77,18.77,0,0,1-.11-2,6.48,6.48,0,0,1,0-.89,25.34,25.34,0,0,1,.32-3.13l-1.91-.07c-.28,0-.44-.06-.44-.1s0-.08.21-.15c.4-.16.67-.28.81-.35s.34-.19.81-.21H83l.28-1.13a26.66,26.66,0,0,1,1.1-3.49c.14-.31.29-.45.44-.45s.3.13.45.39a5.27,5.27,0,0,0,1,1.14c0,.35.12,1.25.22,2.68,0,.29,0,.57,0,.85.21.05.45.11.67.18a4.26,4.26,0,0,0,1.41.28,1.34,1.34,0,0,1,0,.35v.07c0,.19-.18.28-.45.28Z"/><path d="M96.23,15.73c0,.17-.11.25-.25.25a2.9,2.9,0,0,0-1.16-.45,1,1,0,0,0-.74.32,1.83,1.83,0,0,0-.45,1,5.9,5.9,0,0,0-.1,1.45,9.56,9.56,0,0,0,.31,2.19c.19.68.38,1,.57,1.06s.49-.24.77-.9A20.42,20.42,0,0,0,96,18.52c.19-.64.35-1.22.49-1.76s.23-.88.25-1c.21-1.08.7-1.68,1.45-1.79a2.07,2.07,0,0,1,.49-.07q.67,0,.78.39a7.67,7.67,0,0,1,.14,2c0,1.11,0,2.24.11,3.39a15.83,15.83,0,0,0,.28,2.47c.11.73.3,1.1.56,1.13s.65-.31,1-1a17.18,17.18,0,0,0,1.09-2.19c.21-.51.4-1,.56-1.48s.28-.86.36-1.09a1.16,1.16,0,0,1,.42-.07,1,1,0,0,1,.42.1c-.12.45-.33,1.16-.63,2.12a14.24,14.24,0,0,1-1.17,2.65,6.62,6.62,0,0,1-1,1.38,1.63,1.63,0,0,1-1.13.49h-.07a3.23,3.23,0,0,1-2.15-.89,6.22,6.22,0,0,1-1.27-1.66,6,6,0,0,1-.39-.85,4.19,4.19,0,0,1-.21-.63,4.35,4.35,0,0,1-.6,1.38A2,2,0,0,1,94,22.2a2.82,2.82,0,0,1-1.24-.32A2,2,0,0,1,92,21.1a2.83,2.83,0,0,1-.39-1.2,4.19,4.19,0,0,1,0-1.34,6.42,6.42,0,0,1,.88-2.47,3,3,0,0,1,1.62-1.45,1.85,1.85,0,0,1,1,0,2.72,2.72,0,0,1,1.06.74A.37.37,0,0,1,96.23,15.73Z"/><path d="M106.67,13.58c.07.87.15,1.79.25,2.75,0,.73.12,1.46.21,2.19s.14,1.4.21,2.08c.17,1.19.33,2.2.5,3s.39,1.18.63,1.16c.42,0,.9-.45,1.45-1.24A20.45,20.45,0,0,0,111.33,21c.28-.61.53-1.19.74-1.73s.36-.93.45-1.19a3.15,3.15,0,0,1,.44,0,.57.57,0,0,1,.39.18,17.86,17.86,0,0,1-.78,2.23A19.62,19.62,0,0,1,111,23.65a10,10,0,0,1-1.27,1.62,1.74,1.74,0,0,1-1.17.56h-.17a6.59,6.59,0,0,1-3.25-1.34A6.45,6.45,0,0,1,103.3,22a10.34,10.34,0,0,1-.67-2.64,18.77,18.77,0,0,1-.11-2,6.48,6.48,0,0,1,0-.89,25.34,25.34,0,0,1,.32-3.13L101,13.24c-.28,0-.42-.06-.42-.1s0-.08.21-.15c.4-.16.67-.28.81-.35s.34-.19.81-.21h.67l.28-1.13a26.66,26.66,0,0,1,1.1-3.49c.14-.31.29-.45.44-.45s.29.13.45.39a4.85,4.85,0,0,0,1,1.13c0,.35.12,1.25.21,2.68a8.14,8.14,0,0,1,0,.85c.22.05.45.11.67.18a4,4,0,0,0,1.42.28,2,2,0,0,1,0,.35v.07c0,.19-.17.28-.44.28Z"/><path d="M112.74,16.51a2,2,0,0,1,.81-.53,2.29,2.29,0,0,1,1.52-.14c.49.14.75.35.77.63a6,6,0,0,1-.07,1.2c-.07.64-.13,1.34-.17,2.08,0,.9-.06,1.73,0,2.51s.19,1.16.49,1.16.71-.32,1.2-1a18.69,18.69,0,0,0,1.42-2q.45-.74.81-1.41A10.18,10.18,0,0,0,120,18a1.69,1.69,0,0,1,.45,0,.71.71,0,0,1,.42.14c-.18.42-.53,1.11-1,2.05a16,16,0,0,1-1.62,2.53A6.77,6.77,0,0,1,116.93,24a1.72,1.72,0,0,1-1,.32,1,1,0,0,1-.29,0c-2.26-.54-3.57-1.38-4-2.53a4.76,4.76,0,0,1-.21-1.45,7.84,7.84,0,0,1,.6-2.79A2.23,2.23,0,0,1,112.74,16.51Zm.89-3.53c0-.35.25-.61.75-.77a2.65,2.65,0,0,1,.84-.15,3.07,3.07,0,0,1,.6.07,1.3,1.3,0,0,1,.74,1.06c0,.13,0,.26,0,.39s-.09.42-.25.42a.09.09,0,0,1-.07,0,14.42,14.42,0,0,0-1.73-.25c-.56,0-.87-.22-.89-.6a.16.16,0,0,1,0-.16Z"/><path d="M123,17.39a5.74,5.74,0,0,1,.78-2.61,2.24,2.24,0,0,1,.49-.53,1.64,1.64,0,0,1,.67-.21h0a2.31,2.31,0,0,1,1.34.39,3.43,3.43,0,0,1,1,1,4.89,4.89,0,0,1,.56,1.31,12.25,12.25,0,0,1,.35,1.48,31.46,31.46,0,0,1,.36,3.35c0,1,.14,1.55.35,1.55s.47-.32.85-.95a19.79,19.79,0,0,0,1-2.05c.22-.47.41-.89.57-1.31a9,9,0,0,0,.32-.89l.42-.07a.64.64,0,0,1,.44.11,14.13,14.13,0,0,1-.67,1.78,13.14,13.14,0,0,1-1.19,2.37,8.47,8.47,0,0,1-1,1.27,1.51,1.51,0,0,1-1,.48,2.56,2.56,0,0,1-1.41-.45,3,3,0,0,1-.92-1,5.84,5.84,0,0,1-.56-1.34,9.29,9.29,0,0,1-.32-1.48,21.77,21.77,0,0,1-.28-3.32c0-1-.15-1.54-.39-1.51s-.6.61-.74,1.69-.24,2.23-.28,3.46c0,1-.07,1.91-.07,2.72s0,1.3-.07,1.44a.61.61,0,0,1-.64.28,2.75,2.75,0,0,1-.7-.1c-.71-.24-1.13-.53-1.27-.9a4.39,4.39,0,0,0-.32-1.05c-.19-.6-.41-1.25-.67-1.95l-.89-2.5c-.29-.82-.45-1.34-.5-1.55a3.68,3.68,0,0,1,1.41-.67,1.58,1.58,0,0,1,1.79.35,5.8,5.8,0,0,1,.49,1.73c.17.87.3,1.48.39,1.84C122.84,19.22,122.91,18.47,123,17.39Z"/><path d="M135.67,16.12a.27.27,0,0,1-.29.21,1.82,1.82,0,0,0-1-.42,1,1,0,0,0-.7.28,2.38,2.38,0,0,0-.5,1,9,9,0,0,0-.24,1.38,9.66,9.66,0,0,0,.14,2.08c.12.64.27,1,.45,1s.37-.18.63-.6a15.68,15.68,0,0,0,.74-1.55c.28-.71.54-1.41.78-2.12l.42-1.27a2.4,2.4,0,0,1,1.56-1.94,1.8,1.8,0,0,1,.56-.11c.42,0,.67.24.74.71a51.74,51.74,0,0,1,.18,5.57v.25l.59-.53c.52-.45,1-.86,1.38-1.24a4.11,4.11,0,0,0,.78-1l.42-.07a.87.87,0,0,1,.42.1,5.1,5.1,0,0,1-.89,1.27c-.4.45-.85.91-1.34,1.38s-1,.92-1.45,1.34c0,1.18-.13,2.27-.25,3.28a20.35,20.35,0,0,1-1.62,6.32c-.73,1.49-1.56,2.23-2.5,2.23h0a2.06,2.06,0,0,1-1.27-.35,1.61,1.61,0,0,1-.63-.9,5.18,5.18,0,0,1,.32-3.24c.47-1.32.89-2.41,1.27-3.28a8.63,8.63,0,0,1,1.65-2.4v-.67a27.57,27.57,0,0,0-.07-2.82,5.37,5.37,0,0,1-.74,1.45,2.12,2.12,0,0,1-1.79.84,2.2,2.2,0,0,1-1.52-.44,2.1,2.1,0,0,1-.77-1.1,3.63,3.63,0,0,1-.14-1.09v-.11a4.74,4.74,0,0,1,.18-1.3,6.66,6.66,0,0,1,1-2.24,3,3,0,0,1,1.63-1.2,1.92,1.92,0,0,1,.92.11,2.24,2.24,0,0,1,1,.74A.68.68,0,0,1,135.67,16.12Zm-.95,11.32a16.3,16.3,0,0,0-.45,1.66,11,11,0,0,0-.25,2.5c0,.78.26,1.2.71,1.27.28.08.51-.41.67-1.44s.29-2.21.39-3.58c0-.94.08-1.88.1-2.82a8,8,0,0,0-.7,1.2A11.19,11.19,0,0,0,134.72,27.44Z"/></g></g></g></g></g></svg>