<svg xmlns="http://www.w3.org/2000/svg" viewBox="0 0 144.03 36.5"><title>projects-academia</title><g id="bde636eb-1ab2-4b99-8d80-eaf57708a880" data-name="Layer 2"><g id="b5acc337-7d9c-4cec-a8c3-f3be41625d97" data-name="Layer 1"><path d="M20.39,8.78c0,5.71-3.56,9-9.74,9H6.33v6.71H0V.28H10.65C16.83.28,20.39,3.39,20.39,8.78Z"/><path d="M32.67,24.51,29.14,17.8H24.41v6.71h-6.3V.28H29c6.44,0,10.1,3.11,10.1,8.5,0,3.67-1.52,6.36-4.32,7.81l5,7.92Z"/><path d="M61.5,12.38c0,7.08-5.6,12.4-13.1,12.4s-13.13-5.32-13.13-12.4S40.9.11,48.4.11,61.5,5.36,61.5,12.38Z"/><path d="M62.54,31.5A13.43,13.43,0,0,1,52,26.58l3.64-5.41c2.21,2.29,4.59,3.42,6.37,3.42,1.95,0,3.15-1.21,3.15-3.5V7.31H54.74V.77H73.12V21.24C73.11,27.75,69,31.5,62.54,31.5Z"/><path d="M90.78.28v5H78V9.85H89.55v5L78,14.9v4.56H91.12v5.05H71.67V.28Z"/><path d="M101.12,5.46a6.56,6.56,0,0,0-6.56,6.83,6.6,6.6,0,0,0,6.56,6.87,9,9,0,0,0,6-2.83l3.67,4a14.47,14.47,0,0,1-10,4.49C93.46,24.8,88,19.48,88,12.35,88,5.37,93.6.12,101,.12a14,14,0,0,1,9.79,4.13l-3.68,4.39A8.15,8.15,0,0,0,101.12,5.46Z"/><path d="M129.5.28V5.5h-7.26v19h-6.3V5.5h-7.21V.28Z"/><path d="M132.84,5.15c-1.52,0-2.53.53-2.53,1.66,0,4,12.76,1.73,12.76,10.44,0,4.94-4.36,7.46-9.75,7.46a18.15,18.15,0,0,1-11.14-3.87l2.45-4.94a15.45,15.45,0,0,0,8.78,3.67c1.87,0,3.05-.68,3.05-2,0-4.11-12.76-1.62-12.76-10.19,0-4.54,3.83-7.41,9.66-7.41A18.56,18.56,0,0,1,143,2.73l-2.38,5C138.11,6.3,134.86,5.15,132.84,5.15Z"/><path d="M83.57,34.18H78.89l-1,2.24H77L80.8,28h.88l3.84,8.4h-.94Zm-.32-.72-2-4.51-2,4.51Z"/><path d="M86,32.22A4.2,4.2,0,0,1,90.17,28h.28a4.06,4.06,0,0,1,3.06,1.23l-.58.56a3.33,3.33,0,0,0-2.48-1,3.48,3.48,0,1,0-.27,7h.27a3.25,3.25,0,0,0,2.48-1l.57.56a4.12,4.12,0,0,1-3.09,1.24,4.22,4.22,0,0,1-4.37-4Z"/><path d="M100.46,34.18H95.78l-1,2.24h-.92L97.69,28h.87l3.84,8.4h-.93Zm-.33-.72-2-4.51-2,4.51Z"/><path d="M103.79,28h3.42c2.69,0,4.5,1.72,4.5,4.2s-1.81,4.2-4.5,4.2h-3.42Zm3.37,7.63a3.44,3.44,0,1,0,0-6.87h-2.48v6.87Z"/><path d="M119.64,35.66v.76H113.7V28h5.78v.77h-4.87v3H119v.77h-4.34v3.12Z"/><path d="M130.44,28v8.4h-.85V29.71l-3.29,5.65h-.42l-3.31-5.62v6.68h-.85V28h.74l3.64,6.23L129.71,28Z"/><path d="M133.18,28h.89v8.4h-.89Z"/><path d="M142.06,34.18h-4.67l-1,2.24h-.92L139.3,28h.89l3.84,8.4h-.94Zm-.3-.72-2-4.51-2,4.51Z"/></g></g></svg>