<svg xmlns="http://www.w3.org/2000/svg" width="270.708" height="339.093" viewBox="0 0 270.708 339.093"><g transform="translate(-836.36 -3501.622)"><path d="M191.529,0h101.4L233.779-86.913c33.8-17.3,53.113-47.882,53.113-88.522,0-65.184-49.894-106.226-128.357-106.226H22.935V0H117.9V-70.818h25.752Zm-.4-175.435c0,20.521-12.474,32.995-38.628,32.995H117.9v-65.989h34.6C178.654-208.429,191.127-195.956,191.127-175.435Z" transform="translate(814.142 3783.283)" fill="#fff"/><path d="M18.563,0,13.685-6.829a5.987,5.987,0,0,0,4.571-6.1c0-4.125-2.954-6.578-7.86-6.578h-7V0H4.822V-6.383H10.4a13.773,13.773,0,0,0,1.9-.139L16.946,0ZM4.822-7.637V-18.229H10.4c4.181,0,6.411,1.923,6.411,5.3,0,3.345-2.23,5.3-6.411,5.3Zm30.52.307c0-4.32-2.954-7.33-6.94-7.33s-6.968,3.066-6.968,7.386a7.142,7.142,0,0,0,7.5,7.386,6.964,6.964,0,0,0,5.491-2.369l-.808-.92a5.867,5.867,0,0,1-4.655,2.035,5.861,5.861,0,0,1-6.16-5.8H35.314C35.314-7.08,35.342-7.219,35.342-7.33Zm-6.94-6.1a5.5,5.5,0,0,1,5.574,5.407H22.827A5.5,5.5,0,0,1,28.4-13.434ZM44.15-14.661A8.874,8.874,0,0,0,38.325-12.6l.7,1a7.552,7.552,0,0,1,5.017-1.84c2.843,0,4.32,1.449,4.32,4.153v1.171H43.369c-4.041,0-5.435,1.867-5.435,4.069,0,2.481,1.979,4.153,5.24,4.153a5.588,5.588,0,0,0,5.24-2.7V0h1.338V-9.226C49.752-12.821,47.745-14.661,44.15-14.661Zm-.78,13.63c-2.564,0-4.041-1.171-4.041-3.066,0-1.672,1.059-2.927,4.069-2.927h4.961v2.731A4.987,4.987,0,0,1,43.369-1.031Zm23.692-19.65v9.5a6.522,6.522,0,0,0-5.937-3.484,7.036,7.036,0,0,0-7.191,7.386A7.052,7.052,0,0,0,61.124.111a6.454,6.454,0,0,0,5.965-3.54V0h1.366V-20.681ZM61.208-1.143a5.772,5.772,0,0,1-5.853-6.132,5.772,5.772,0,0,1,5.853-6.132,5.772,5.772,0,0,1,5.853,6.132A5.772,5.772,0,0,1,61.208-1.143Z" transform="translate(832.96 3835.308)" fill="#fff"/><path d="M18.563,0,13.685-6.829a5.987,5.987,0,0,0,4.571-6.1c0-4.125-2.954-6.578-7.86-6.578h-7V0H4.822V-6.383H10.4a13.773,13.773,0,0,0,1.9-.139L16.946,0ZM4.822-7.637V-18.229H10.4c4.181,0,6.411,1.923,6.411,5.3,0,3.345-2.23,5.3-6.411,5.3Zm30.52.307c0-4.32-2.954-7.33-6.94-7.33s-6.968,3.066-6.968,7.386a7.142,7.142,0,0,0,7.5,7.386,6.964,6.964,0,0,0,5.491-2.369l-.808-.92a5.867,5.867,0,0,1-4.655,2.035,5.861,5.861,0,0,1-6.16-5.8H35.314C35.314-7.08,35.342-7.219,35.342-7.33Zm-6.94-6.1a5.5,5.5,0,0,1,5.574,5.407H22.827A5.5,5.5,0,0,1,28.4-13.434ZM45.432.111a6.451,6.451,0,0,0,5.519-2.676l-1.031-.753a5.311,5.311,0,0,1-4.487,2.174A5.775,5.775,0,0,1,39.5-7.275a5.775,5.775,0,0,1,5.937-6.132,5.311,5.311,0,0,1,4.487,2.174l1.031-.753a6.383,6.383,0,0,0-5.519-2.676,7.092,7.092,0,0,0-7.358,7.386A7.107,7.107,0,0,0,45.432.111Zm10.4-18.2a1.13,1.13,0,0,0,1.143-1.143,1.124,1.124,0,0,0-1.143-1.115A1.148,1.148,0,0,0,54.686-19.2,1.124,1.124,0,0,0,55.828-18.089ZM55.132,0h1.394V-14.549H55.132ZM69.04-1.9a3.344,3.344,0,0,1-2.258.808c-1.784,0-2.7-1.031-2.7-2.9v-9.365h4.627v-1.2H64.079v-3.177H62.685v3.177H60.009v1.2h2.676v9.5A3.609,3.609,0,0,0,66.643.111,4.415,4.415,0,0,0,69.625-.92ZM85.29-7.33c0-4.32-2.954-7.33-6.94-7.33s-6.968,3.066-6.968,7.386a7.142,7.142,0,0,0,7.5,7.386A6.964,6.964,0,0,0,84.37-2.258l-.808-.92a5.867,5.867,0,0,1-4.655,2.035,5.861,5.861,0,0,1-6.16-5.8H85.262C85.262-7.08,85.29-7.219,85.29-7.33Zm-6.94-6.1a5.5,5.5,0,0,1,5.574,5.407H72.775A5.5,5.5,0,0,1,78.349-13.434Z" transform="translate(911.927 3835.308)" fill="#fff"/><path d="M18.563,0,13.685-6.829a5.987,5.987,0,0,0,4.571-6.1c0-4.125-2.954-6.578-7.86-6.578h-7V0H4.822V-6.383H10.4a13.773,13.773,0,0,0,1.9-.139L16.946,0ZM4.822-7.637V-18.229H10.4c4.181,0,6.411,1.923,6.411,5.3,0,3.345-2.23,5.3-6.411,5.3Zm30.52.307c0-4.32-2.954-7.33-6.94-7.33s-6.968,3.066-6.968,7.386a7.142,7.142,0,0,0,7.5,7.386,6.964,6.964,0,0,0,5.491-2.369l-.808-.92a5.867,5.867,0,0,1-4.655,2.035,5.861,5.861,0,0,1-6.16-5.8H35.314C35.314-7.08,35.342-7.219,35.342-7.33Zm-6.94-6.1a5.5,5.5,0,0,1,5.574,5.407H22.827A5.5,5.5,0,0,1,28.4-13.434Zm18.563-1.226A6.5,6.5,0,0,0,41-11.121v-3.428H39.662V5.407h1.394V-3.317A6.513,6.513,0,0,0,46.965.111a7.036,7.036,0,0,0,7.191-7.386A7.052,7.052,0,0,0,46.965-14.661ZM46.881-1.143a5.772,5.772,0,0,1-5.853-6.132,5.772,5.772,0,0,1,5.853-6.132,5.794,5.794,0,0,1,5.881,6.132A5.794,5.794,0,0,1,46.881-1.143ZM70.8-7.33c0-4.32-2.954-7.33-6.94-7.33s-6.968,3.066-6.968,7.386a7.142,7.142,0,0,0,7.5,7.386,6.964,6.964,0,0,0,5.491-2.369l-.808-.92a5.867,5.867,0,0,1-4.655,2.035,5.861,5.861,0,0,1-6.16-5.8H70.768C70.768-7.08,70.8-7.219,70.8-7.33Zm-6.94-6.1A5.5,5.5,0,0,1,69.43-8.027H58.281A5.5,5.5,0,0,1,63.856-13.434ZM79.6-14.661A8.874,8.874,0,0,0,73.778-12.6l.7,1a7.552,7.552,0,0,1,5.017-1.84c2.843,0,4.32,1.449,4.32,4.153v1.171H78.823c-4.041,0-5.435,1.867-5.435,4.069,0,2.481,1.979,4.153,5.24,4.153a5.588,5.588,0,0,0,5.24-2.7V0h1.338V-9.226C85.206-12.821,83.2-14.661,79.6-14.661Zm-.78,13.63c-2.564,0-4.041-1.171-4.041-3.066,0-1.672,1.059-2.927,4.069-2.927h4.961v2.731A4.987,4.987,0,0,1,78.823-1.031ZM97.581-1.9a3.344,3.344,0,0,1-2.258.808c-1.784,0-2.7-1.031-2.7-2.9v-9.365h4.627v-1.2H92.62v-3.177H91.226v3.177H88.551v1.2h2.676v9.5A3.609,3.609,0,0,0,95.184.111,4.415,4.415,0,0,0,98.167-.92Z" transform="translate(1007.152 3835.308)" fill="#fff"/><path d="M1.395,0A1.395,1.395,0,1,1,0,1.395,1.395,1.395,0,0,1,1.395,0Z" transform="translate(907.332 3824.583)" fill="#fff"/><path d="M1.395,0A1.395,1.395,0,1,1,0,1.395,1.395,1.395,0,0,1,1.395,0Z" transform="translate(1001.791 3824.583)" fill="#fff"/></g></svg>