<svg xmlns="http://www.w3.org/2000/svg" viewBox="0 0 128.25 119.99"><title>suncheetah</title><g id="fe6ac5cb-1d53-4c31-8cb1-10e8d9d8fc55" data-name="Layer 2"><g id="a3725a68-c81d-4a3d-8f72-2e2c03b7daea" data-name="Layer 1"><path d="M55.5,103.51a4.17,4.17,0,0,1-.54.21" style="fill:#00a79d"/><path d="M50.67,89.78l.16.76.27.62.37.67.32.34.37.09.57-.15.26-.38.29-.63.12-.43L53,90.43l-.15.39-.16.2-.47,0-.05-.15,0-.11.06-.15,0-.14a.56.56,0,0,0,0-.07s0-.14,0-.14Z" style="fill:#7bb7e4"/><path d="M117.54,65.81c-.63-.73-1.28-1.47-1.94-2.2-.5-.57-1-1.13-1.51-1.69l.31-.24c.65.73,1.31,1.54,2,2.44C116.79,64.69,117.18,65.25,117.54,65.81Z" style="fill:#ad2b26"/><path d="M126,58.61c.7,3.28.56,4.12.55,4.12a4.48,4.48,0,0,1-1.24,2.56c-.06,0,0-.33.08-.68a4.13,4.13,0,0,0-.71-2.74A8.12,8.12,0,0,1,122,67.2a8.53,8.53,0,0,1-5.77,1.9c-2.27-.09-3.82-1.08-5.56-2.18a18.91,18.91,0,0,1-3.27-2.62,12.77,12.77,0,0,1-11,1.09,11.3,11.3,0,0,1-1.12-.51h0a23.05,23.05,0,0,0-9.1,7.48,24.93,24.93,0,0,0-1.38,2.08,6,6,0,0,0-2.85.07c-3,.72-5.14-.34-6.7-3.06.39,1.48.74,2.91,1.1,4.3-1.53-.53-3-1-4.47-1.58,0,0,0,0,0,0C56.48,68.57,45.18,63,37.74,59.77a19.48,19.48,0,0,1-.09-2.17,21,21,0,0,1,3.42-11,76.86,76.86,0,0,1,11-6.65A62.15,62.15,0,0,1,71,34a55.6,55.6,0,0,1,11.82-.34c-.66-1.42-1.36-2.9-2-4.21a22.62,22.62,0,0,1,17.42,5.25c7.49,1.68,13.1,3.08,15.56,3.81a5.16,5.16,0,0,1,2.29,1.3c1.29,1.29,1.52,3.53,1.54,4.64a42.8,42.8,0,0,0,6.51,4.5,8,8,0,0,1,1.72,1.19c.69.64,2.39,2.18,2.31,4.42A5.28,5.28,0,0,1,126,58.61Z" style="fill:#1d1110"/><path d="M92.58,39.7c-12.72-5.93-44,2.17-53.81,13.6C55.18,43.61,72.66,38.1,92.58,39.7Zm23.21,5.93c.3-1.81-1-2.93-2.69-3.41C108.73,41,104.29,40,99.92,38.8a20.73,20.73,0,0,1-3.76-1.6c-1.73-.88-3.4-1.86-5.1-2.8,1.21,1.68,2.8,2.77,4.09,4.15a6.7,6.7,0,0,0,4.2,2,106.05,106.05,0,0,1,11.17,2.36C112.35,43.39,114,44.65,115.79,45.63Zm1.68,2.9c2.23,3.64,6.37,6.49,7.5,5.57ZM113,48.4a18.21,18.21,0,0,1-1.92-.46c.3-2.1-1.47-1.12-2.5-1.39l2.66,4.09Z"/><path d="M92.58,39.7c-19.92-1.6-37.4,3.91-53.81,13.6C48.53,41.87,79.86,33.77,92.58,39.7Z" style="fill:#fff"/><path d="M115.79,45.63c-1.83-1-3.44-2.24-5.27-2.75a106.05,106.05,0,0,0-11.17-2.36,6.7,6.7,0,0,1-4.2-2c-1.29-1.38-2.88-2.47-4.09-4.15,1.7.94,3.37,1.92,5.1,2.8a20.73,20.73,0,0,0,3.76,1.6c4.37,1.19,8.81,2.19,13.18,3.42C114.82,42.7,116.09,43.82,115.79,45.63Z" style="fill:#fff"/><path d="M117.47,48.53,125,54.1C123.84,55,119.7,52.17,117.47,48.53Z" style="fill:#fff"/><g style="opacity:0.59"><path d="M91.05,35.07a10.83,10.83,0,0,1-1.55-1.59A9.84,9.84,0,0,1,91.05,35.07Z" style="fill:#fff"/><path d="M39.11,53.25l-.35.21.07-.08Z" style="fill:#fff"/><path d="M77.15,37.88c-.67,0-1.34.12-2,.19l-.53.07c-.24,0-.49,0-.73.09-2.2.28-4.46.68-6.71,1.18A69.72,69.72,0,0,1,77.15,37.88Z" style="fill:#fff"/><path d="M91.05,35.07a10.83,10.83,0,0,1-1.55-1.59A9.84,9.84,0,0,1,91.05,35.07Z" style="fill:#fff"/><path d="M39.11,53.25l-.35.21.07-.08Z" style="fill:#fff"/><path d="M76.64,44.35l-.83.2.64-.19Z" style="fill:#fff"/><path d="M63.87,50.82l-.38.19,0,0,0,0,.15-.11Z" style="fill:#fff"/><path d="M76.64,44.35l-.83.2.64-.19Z" style="fill:#fff"/><path d="M63.87,50.82l-.38.19h0l-.44.07.59-.18Z" style="fill:#fff"/><path d="M94.41,50.18l.19,1.66c-.12-.26-.23-.5-.33-.74S94.36,50.44,94.41,50.18Z" style="fill:#fff"/><path d="M94.41,50.18l.19,1.66c-.12-.26-.23-.5-.33-.74S94.36,50.44,94.41,50.18Z" style="fill:#c02026"/><path d="M103.61,57.53a6,6,0,0,1-1,.15h-.09Z" style="fill:#fff"/><path d="M113.52,47l-.24,0a1.45,1.45,0,0,1-.22-.21Z" style="fill:#fff"/><path d="M113.52,47l-.24,0a1.45,1.45,0,0,1-.22-.21Z" style="fill:#fff"/><path d="M103.61,57.53a6,6,0,0,1-1,.15h-.09Z" style="fill:#fff"/><path d="M121.27,57.88l-1-1,.24,0C120.75,57.2,121,57.54,121.27,57.88Z" style="fill:#fff"/><path d="M122.51,60.88c-1.39,2-4.55,2.73-7.62,1.46a12.69,12.69,0,0,0,3.46-.47,5.58,5.58,0,0,0,3.15-1.62,4.73,4.73,0,0,0,.87-3.49l.81,0A5.43,5.43,0,0,1,122.51,60.88Z" style="fill:#ad2b26"/><path d="M114.43,50.9l-.54-.24v0l.07-.09Z" style="fill:#ad2b26"/><path d="M122.37,56.76a4.73,4.73,0,0,1-.87,3.49,5.58,5.58,0,0,1-3.15,1.62,12.69,12.69,0,0,1-3.46.47l-.66-.3-.44,0-6.91.45,10.28-3.25-13.11,1.66,10.77-3-11.22.92,4.05-1.36.11,0h-.11v-.19a11.23,11.23,0,0,1-5.5-.57,13,13,0,0,1-5.36-4.19,19.1,19.1,0,0,1-3.49-5.63A5.07,5.07,0,0,0,93.08,48c-.09,1.07.2,1.77.06,1.82s-1.06-1.51-1.67-3.19a18.8,18.8,0,0,1-.81-2.92l-.5,1.14s0-.11,0-.16l-.13.5h0l-.52,1.95h-.35c-1.49,0-3.06,0-4.72.1-.8,0-1.62.09-2.46.16-1.62.13-3.31.3-5,.54a86.65,86.65,0,0,0-13,2.83l-.25.08a36,36,0,0,1,5.65-3.67,36.35,36.35,0,0,1,6.54-2.68l.83-.2h-.19c-3.19.24-6.72.56-10.49,1.13h0c-1,.15-2,.31-3,.5s-1.78.33-2.69.53c-.63.13-1.27.28-1.92.43l-1.09.27a117.64,117.64,0,0,0-18.19,6l-.28.13a20.18,20.18,0,0,1,1.9-1.92l.13-.12c5.64-5,15.35-9.33,25.23-11.69l.49-.11.57-.13c2.25-.5,4.51-.9,6.71-1.18.24,0,.49-.07.73-.09l.53-.07c.69-.07,1.36-.14,2-.19l.6,0H78l.19,0h.36l.41,0,.5,0h2.7a27.18,27.18,0,0,1,10.4,2l.16.07-3.2-6.29a10.83,10.83,0,0,0,1.55,1.59,9.84,9.84,0,0,0-1.55-1.59c1.45.79,4,2.29,5.85,3.26l.17.1.18.09.52.27A19.59,19.59,0,0,0,100,38.8c4.37,1.19,8.79,2.19,13.15,3.42,1.72.48,3,1.59,2.68,3.39l-.11.86a1.74,1.74,0,0,1-1,.81,1.69,1.69,0,0,1-1.37-.36l.24,0-.46-.24a25,25,0,0,0-7.71-2.33,24.53,24.53,0,0,0-6.88.08c.74.21,1.53.46,2.36.78.59.23,1.21.49,1.84.79a31.67,31.67,0,0,1,4.06,2.82,32.23,32.23,0,0,1,4.79,4.86c.08.1.15.2.23.29l2.43-2.81h0l1.8,1.37c.78.6,1.56,1.2,2.32,1.8l0,0c.81.84,1.52,1.67,2.14,2.45l-.24,0,1,1c-.09-.12-.18-.23-.26-.35l-.54-.69.8,0Z" style="fill:#a7a9ac"/><path d="M118.3,54.36c-.76-.6-1.54-1.2-2.32-1.8l-1.8-1.37.26-.29c.77.59,1.57,1.27,2.39,2Q117.61,53.64,118.3,54.36Z" style="fill:#ad2b26"/><path d="M121.27,57.88l-1-1,.24,0C120.75,57.2,121,57.54,121.27,57.88Z" style="fill:#fff"/><path d="M107.65,57.26v.19l-5,.23a6,6,0,0,0,1-.15l-1.08.16a6.18,6.18,0,0,1-1,0,7.54,7.54,0,0,1-4.51-2.45,11.7,11.7,0,0,1-2.46-3.39l-.19-1.66c0,.26-.1.57-.14.92a9.41,9.41,0,0,0,0,1.31,5.84,5.84,0,0,0,.12.88,6.81,6.81,0,0,0,.23.94,15.24,15.24,0,0,1-3.67-5.77,14.91,14.91,0,0,1-.78-3.57l.5-1.14a18.8,18.8,0,0,0,.81,2.92c.61,1.68,1.46,3.27,1.67,3.19S93,49.11,93.08,48a5.07,5.07,0,0,1,.22-1.17,19.1,19.1,0,0,0,3.49,5.63,13,13,0,0,0,5.36,4.19A11.23,11.23,0,0,0,107.65,57.26Z" style="fill:#fff"/></g><path d="M66,45.49h0c-1,.15-2,.31-3,.5a1.19,1.19,0,0,1-.6-.65c-.27-.77.46-1.73,1.63-2.14s2.34-.1,2.61.68A1.52,1.52,0,0,1,66,45.49Z" style="fill:#1d1110"/><path d="M60.31,46.52c-.63.13-1.27.28-1.92.43l-1.09.27a1.55,1.55,0,0,1,3-.7Z" style="fill:#1d1110"/><ellipse cx="80.24" cy="42.84" rx="2.1" ry="1.21" transform="translate(-5.03 11.17) rotate(-7.72)" style="fill:#1d1110"/><ellipse cx="86.09" cy="42.28" rx="2.8" ry="1.63" transform="translate(-0.94 1.98) rotate(-1.31)" style="fill:#1d1110"/><path d="M85.16,46.2a1.31,1.31,0,0,1-.74,1.09c-.8,0-1.62.09-2.46.16a1.46,1.46,0,0,1-1.08-1.27c0-.8,1-1.45,2.15-1.44S85.17,45.4,85.16,46.2Z" style="fill:#1d1110"/><path d="M107.26,64.55s-.31.19-.87.47c-.28.14-.63.31-1,.47a11.69,11.69,0,0,1-1.41.46,12,12,0,0,1-1.74.33,11.65,11.65,0,0,1-2,.07,12,12,0,0,1-4.2-1,10.62,10.62,0,0,1-1.94-1A11.33,11.33,0,0,1,92.4,63a11.21,11.21,0,0,1-1.23-1.6,10.22,10.22,0,0,1-.84-1.59,11.07,11.07,0,0,1-.73-2.56,7,7,0,0,1-.1-1v-.05l.08,0,0,0s.1.35.33.93c.11.29.26.64.43,1s.41.82.66,1.27a14.66,14.66,0,0,0,.92,1.41,12.69,12.69,0,0,0,1.19,1.43,12.41,12.41,0,0,0,1.46,1.32c.3.22.55.42.85.6s.59.34.9.51a11.72,11.72,0,0,0,3.92,1.11,13,13,0,0,0,3.6-.18,10.69,10.69,0,0,0,1.41-.36c.42-.12.76-.27,1-.38.58-.25.9-.41.9-.41l0,0,0,.08Z" style="fill:#fff"/><polygon points="116.31 47.82 116.43 50.21 121.09 55.54 123.13 54.87 124.88 54.08 116.31 47.82" style="fill:#6d6e71"/><path d="M117.4,48.56l7.48,5.55C123.76,55,119.62,52.19,117.4,48.56Z" style="fill:#fff"/><circle cx="114.62" cy="56.18" r="0.38" style="fill:#231f20"/><circle cx="116.39" cy="55.43" r="0.4" style="fill:#231f20"/><circle cx="116.53" cy="58.27" r="0.4" style="fill:#231f20"/><circle cx="118.32" cy="56.84" r="0.38" style="fill:#231f20"/><circle cx="118.42" cy="58.95" r="0.31" style="fill:#231f20"/><circle cx="120.77" cy="58.68" r="0.32" style="fill:#231f20"/><circle cx="118.99" cy="60.71" r="0.44" style="fill:#231f20"/><circle cx="116.98" cy="61.11" r="0.3" style="fill:#231f20"/><path d="M121.35,63.75a3.88,3.88,0,0,1-.86,2.19,4,4,0,0,1-2.32,1.33,4.88,4.88,0,0,1-2.44-.14A9,9,0,0,1,111.27,64a8.81,8.81,0,0,0,5.63,1.37A10.76,10.76,0,0,0,121.35,63.75Z" style="fill:#fff"/><path d="M114.44,50.9,111.75,54c-.08-.09-.15-.19-.23-.29a32.23,32.23,0,0,0-4.79-4.86A31.67,31.67,0,0,0,102.67,46a25.93,25.93,0,0,1,4.06,2.37,26.68,26.68,0,0,1,5.17,4.82l2-2.56.54.24Z" style="fill:#ad2b26"/><path d="M118.82,54.77l-.49-.38-4.15-3.2-.24-.18.24.18,1.8,1.37c.78.6,1.56,1.2,2.32,1.8Z" style="fill:#f7941d"/><path d="M108.71,46.43l.2.73.1.34.08.21.08.21.07.12.06.11s.37.58.37.58l.09.11,0,.11.11.18.15.17.1.15.12.16.15.11.24.17.19.11.25.08.29,0,.35-.08.19-.1.22-.17.13-.2.19-.22.12-.29,0-.17.08-.26.07-.22.06-.15L113,48l.09-.17,0-.18-.09-.22-.16-.06-.17,0h-.13s-.1,0-.11.08l-.06.12-.06.12-.12.19-.06.1L112,48,112,48l-.11,0-.1,0-.16,0h-.19l-.13,0-.05-.06-.06-.17v-.13l0-.07.2-.14,0,0,0-.08,0-.11a2.23,2.23,0,0,1-.08-.24l-.07-.17,0-.07-.24-.08-.22,0-.1,0-.12-.06-.16,0-.12,0-.2,0-.2,0h-.69l-.19,0-.16,0Z" style="fill:#27aae1"/><path d="M107.65,57.25v.19l-5,.24a6,6,0,0,0,1-.16l-1.08.16a6.18,6.18,0,0,1-1,0,7.54,7.54,0,0,1-4.51-2.44,11.6,11.6,0,0,1-2.46-3.4l-.19-1.66c0,.27-.1.58-.14.93a9.27,9.27,0,0,0,0,1.3,6,6,0,0,0,.12.89,7,7,0,0,0,.23.93,15.07,15.07,0,0,1-3.67-5.77,14.84,14.84,0,0,1-.78-3.56l.5-1.14a18.8,18.8,0,0,0,.81,2.92c.61,1.68,1.46,3.26,1.67,3.18S93,49.11,93.08,48a4.88,4.88,0,0,1,.22-1.16,19.22,19.22,0,0,0,3.49,5.63,13.08,13.08,0,0,0,5.36,4.19A11.21,11.21,0,0,0,107.65,57.25Z" style="fill:#fff"/><path d="M122.51,60.88c-1.39,2-4.55,2.73-7.62,1.46a12.69,12.69,0,0,0,3.46-.47,5.58,5.58,0,0,0,3.15-1.62,4.73,4.73,0,0,0,.87-3.49l.81,0A5.43,5.43,0,0,1,122.51,60.88Z" style="fill:#fff"/><path d="M92.35,39.61C72.44,38,55,43.51,38.54,53.2,48.31,41.77,79.63,33.68,92.35,39.61Z" style="fill:#fff"/><path d="M115.79,45.63c-1.83-1-3.44-2.24-5.27-2.75a106.05,106.05,0,0,0-11.17-2.36,6.7,6.7,0,0,1-4.2-2c-1.29-1.38-2.88-2.47-4.09-4.15,1.7.94,3.37,1.92,5.1,2.8a20.73,20.73,0,0,0,3.76,1.6c4.37,1.19,8.81,2.19,13.18,3.42C114.82,42.7,116.09,43.82,115.79,45.63Z" style="fill:#fff"/><path d="M75.43,70a17,17,0,0,1-7.07,6.71,21.59,21.59,0,0,1-17.13,1.28A21.27,21.27,0,0,1,37.53,56.1,20.24,20.24,0,0,1,37.84,54a21.17,21.17,0,0,1,5.44-10.19c3.6-3.8,8.48-6.31,13.44-6.34-.44.64-.89,1.26-1.33,1.88s-1,1.46-1.47,2.22c-3,5-4.43,10.27-3.43,16.1A16.29,16.29,0,0,0,67,71.11,74.71,74.71,0,0,0,75.43,70Z" style="fill:#fec00f"/><path d="M58.24,80A21.32,21.32,0,0,1,51,78.69,22.21,22.21,0,0,1,36.73,56a21.22,21.22,0,0,1,.33-2.24A22.08,22.08,0,0,1,42.7,43.21a19.94,19.94,0,0,1,14-6.58h1.54l-.87,1.26-1,1.34-.39.55c-.48.67-1,1.41-1.43,2.15-3.14,5.27-4.23,10.36-3.34,15.57A15.58,15.58,0,0,0,67,70.31a38.81,38.81,0,0,0,5.65-.72c.89-.15,1.77-.31,2.66-.43l1.58-.23-.77,1.4a17.74,17.74,0,0,1-7.4,7A22.49,22.49,0,0,1,58.24,80ZM55.11,38.32a18.89,18.89,0,0,0-11.25,6,20.27,20.27,0,0,0-5.23,9.8A20.16,20.16,0,0,0,68,76,16.59,16.59,0,0,0,73.81,71l-.87.16a42.52,42.52,0,0,1-5.89.74A17.18,17.18,0,0,1,49.7,57.76c-1-5.6.2-11,3.53-16.65.48-.8,1-1.56,1.51-2.27Z" style="fill:#fff"/><path d="M93.76,107.64l-.41.17a8.76,8.76,0,0,1-.69-1.62,16,16,0,0,0-6.89-9.88c-2-1.44-4.38-2.48-6.56-3.73-3.66-2.1-6.44-5-7.67-9.11-.27-.92-.63-1.83-1-2.91-.88,2-1.79,3.76-2.44,5.6-.83,2.32.52,5.13,3,6.74.56.37,1.14.72,1.9,1.2a6.65,6.65,0,0,1-7.67-3.79c-.68-1.7-.64-3.7-.88-5.57a15.28,15.28,0,0,0-.39-2.65c.11,5.86-2.51,10.64-5.67,15.25-1.86,2.72-3.63,5.48-4.21,8.86A13.62,13.62,0,0,0,57,116.88a4.08,4.08,0,0,1,.72,1.48,15.51,15.51,0,0,1-6.36-7.9c-1.7-4.16-.54-7.86,1.28-11.54a52,52,0,0,1,2.65-4.56,16.62,16.62,0,0,0,2.43-12.51c5.33-.24,10.15-1.34,14.18-4.24a19.39,19.39,0,0,0,3.31-3,0,0,0,0,1,0,0,2.68,2.68,0,0,1,.07.27c.39,1.48.74,2.91,1.1,4.3.27,1,.55,2,.86,3a14.27,14.27,0,0,0,6.62,7.93c2.74,1.66,5.46,3.34,7.29,6.07C93.46,99.71,93.81,103.63,93.76,107.64Z" style="fill:#fec00f"/><path d="M58.85,120,57.27,119a16.15,16.15,0,0,1-6.69-8.27c-1.89-4.62-.49-8.59,1.31-12.2.87-1.74,1.89-3.39,2.68-4.64A15.86,15.86,0,0,0,56.9,82l-.17-.91.92,0a35.84,35.84,0,0,0,5.61-.66l-.08-4,1.15,3.74A20.28,20.28,0,0,0,71.39,77a18.43,18.43,0,0,0,3.18-2.89l1.11-1.26L76,74.69c.21.77.4,1.53.58,2.27s.35,1.37.52,2c.31,1.16.58,2.11.85,3a13.42,13.42,0,0,0,6.27,7.5c2.62,1.58,5.58,3.37,7.54,6.31,2.53,3.77,2.83,7.93,2.78,11.87v.52l-1.62.67-.31-.71c-.07-.16-.15-.31-.22-.47a5,5,0,0,1-.52-1.3A15.31,15.31,0,0,0,85.32,97a40.74,40.74,0,0,0-4.15-2.41c-.79-.42-1.59-.83-2.36-1.28-4.23-2.43-6.85-5.56-8-9.57-.1-.34-.21-.67-.33-1l0,0c-.59,1.27-1.14,2.47-1.58,3.7-.68,1.92.46,4.36,2.71,5.8.4.26.81.52,1.29.81L75,94.37l-1.72.5a7.45,7.45,0,0,1-8.64-4.26A11,11,0,0,1,64,88.22a34.74,34.74,0,0,1-4.94,9.57c-1.84,2.68-3.53,5.35-4.09,8.54-.61,3.53.22,6.74,2.62,10.09a4.79,4.79,0,0,1,.85,1.77ZM58.61,82.6a17.27,17.27,0,0,1-2.69,12.19,50.09,50.09,0,0,0-2.6,4.49c-1.63,3.27-2.91,6.86-1.26,10.88a17.52,17.52,0,0,0,2.72,4.68,13.7,13.7,0,0,1-1.36-8.78c.61-3.51,2.4-6.34,4.34-9.17,2.93-4.29,5.64-9,5.53-14.78V82A37.87,37.87,0,0,1,58.61,82.6ZM70.9,79.19l.39,1.11c.12.35.24.68.36,1,.24.68.47,1.31.66,2,1.06,3.6,3.44,6.42,7.29,8.64.76.43,1.54.84,2.31,1.25a39.08,39.08,0,0,1,4.32,2.51A17.26,17.26,0,0,1,92.85,104a15.29,15.29,0,0,0-2.39-7.29c-1.77-2.65-4.45-4.27-7-5.84a14.91,14.91,0,0,1-7-8.37c-.29-.9-.56-1.87-.87-3.06-.18-.67-.35-1.36-.53-2.05-.09-.38-.19-.77-.29-1.15a21.53,21.53,0,0,1-2.43,2.06C71.87,78.59,71.39,78.9,70.9,79.19Zm-6.1,2.49,0,.18a10.45,10.45,0,0,1,.35,2.06c0,.24,0,.48.07.72.07.53.11,1.08.16,1.62A13,13,0,0,0,66.1,90a5.87,5.87,0,0,0,4.37,3.4c-2.71-1.86-4-5-3.12-7.52.46-1.3,1-2.53,1.63-3.84.27-.59.55-1.19.83-1.82l.25-.56A23,23,0,0,1,64.8,81.68Z" style="fill:#fff"/><path d="M17,100.28c.88-.18,1.77-.31,2.63-.55,4.16-1.13,8-2.8,10.43-6.65a39.68,39.68,0,0,0,2.16-4.62c.93-2.06,1.85-4.11,2.76-6.18a9.28,9.28,0,0,1,4.27-4.64,17.46,17.46,0,0,0,2.06-1.49c-2.85-.71-5.4-1.72-8.2-.71s-4.07,3.3-5.11,6c-1.73-3.94,3-10,6.61-10.31,1.09-.1,2.17-.27,3.27-.32a1.37,1.37,0,0,1,.93.43c1.48,1.63,2.79,3.43,4.41,4.89a52.19,52.19,0,0,0,5.17,3.72,25.77,25.77,0,0,0-3.67,1,11.17,11.17,0,0,0-6.44,6.46,20.92,20.92,0,0,1-5.7,8.59c-2.63,2.17-5.52,4-9.11,4.26-1.53.12-3,.55-4.54.76a9.58,9.58,0,0,1-1.92-.09Z" style="fill:#fec00f"/><path d="M18.45,101.73c-.33,0-.66,0-1-.07l-.57,0-.73,0,0-1.92.65-.16.84-.16c.61-.11,1.18-.21,1.74-.37,3.6-1,7.6-2.5,10-6.3a22.4,22.4,0,0,0,1.52-3.15c.19-.46.39-.93.59-1.38Q32.83,85.06,34.2,82a10,10,0,0,1,4.63-5,7.37,7.37,0,0,0,.66-.43c-2.19-.59-4.11-1.06-6.16-.32-2.42.87-3.6,2.86-4.64,5.56L28,83.58l-.78-1.79c-.81-1.83-.48-4.22.9-6.55,1.6-2.72,4.16-4.67,6.36-4.88.39,0,.78-.08,1.16-.12.7-.08,1.42-.16,2.15-.2a2.21,2.21,0,0,1,1.56.69c.52.58,1,1.18,1.53,1.77a29.85,29.85,0,0,0,2.82,3.07,29.75,29.75,0,0,0,3.46,2.55c.55.36,1.1.73,1.64,1.11l1.43,1-1.69.42-1.14.25a14,14,0,0,0-2.43.66,10.37,10.37,0,0,0-6,6c-1,2.57-2.76,6.28-5.93,8.91-2.29,1.9-5.44,4.12-9.56,4.44a21.94,21.94,0,0,0-2.54.41c-.65.13-1.3.26-2,.35A3.35,3.35,0,0,1,18.45,101.73ZM42.26,76.41l-.52.38c-.27.2-.51.39-.73.57a10.26,10.26,0,0,1-1.44,1,8.45,8.45,0,0,0-3.91,4.25q-1.36,3.11-2.76,6.19c-.2.44-.39.89-.58,1.34a25.45,25.45,0,0,1-1.63,3.37,14.67,14.67,0,0,1-7.36,5.84h0C27,99.05,29.92,97,32,95.26s3.91-4.4,5.47-8.27a12.14,12.14,0,0,1,8.87-7.49l-.08,0a30.33,30.33,0,0,1-3.65-2.69Zm-4.41-4.77c-.66,0-1.32.11-2,.19-.39,0-.79.09-1.19.12-1.67.16-3.83,1.88-5.14,4.1a8.61,8.61,0,0,0-.95,2.26,8,8,0,0,1,4.25-3.62c2.61-1,5-.29,7.39.35l1,.27c-.53-.59-1-1.19-1.53-1.78s-1-1.16-1.49-1.72A.59.59,0,0,0,37.85,71.64Z" style="fill:#fff"/><path d="M49.8,36.13c1.42-5.27-1.1-9.46-3.61-13.64-3.49-5.84-3.56-11.75-.48-17.76A18.29,18.29,0,0,1,46.6,3a8.12,8.12,0,0,1,1.22-1.2c0,.66.15.92.06,1.07-2.13,3.5-1.25,7.23-.81,10.92.58,4.78,3.27,8.31,6.49,11.68,2.28,2.38,3,5.59,3.11,8.85,0,.29-.53.8-.88.87C53.92,35.51,52,35.78,49.8,36.13Z" style="fill:#fec00f"/><path d="M48.7,37.11,49,35.92c1.33-4.92-1-8.83-3.48-13A18.1,18.1,0,0,1,45,4.36c.1-.2.19-.4.29-.61a10.11,10.11,0,0,1,.63-1.22,4.29,4.29,0,0,1,.83-.88c.15-.13.32-.28.51-.47L48.5,0l.11,1.7c0,.24,0,.42.06.56a1.36,1.36,0,0,1-.11,1c-1.71,2.82-1.31,5.83-.88,9,.07.47.13.94.19,1.41.56,4.68,3.34,8.16,6.27,11.22,2.09,2.19,3.18,5.25,3.33,9.37A2,2,0,0,1,56,35.93c-1.4.27-2.82.49-4.33.72ZM45.83,6.33a16.17,16.17,0,0,0,1.05,15.75c2.38,4,4.82,8.05,3.95,13.08l.55-.08c1.49-.23,2.9-.45,4.26-.72a1.19,1.19,0,0,0,.23-.2C55.71,30.48,54.79,27.88,53,26c-3.11-3.26-6.08-7-6.7-12.13-.05-.46-.12-.93-.18-1.39A22.89,22.89,0,0,1,45.83,6.33Z" style="fill:#fff"/><path d="M2.05,73.6c2.63-6.2,7.12-10.2,13.71-10.86,3.49-.34,7.13.27,10.64.8,3,.46,5.91,1.31,9,.41.76,1.94,1.48,3.76,2.39,6.09-2.57-.33-4.89-.51-7.16-1-4-.79-8-1.9-12.07-2.61-6.27-1.09-11.25,1.35-15.27,6.06A10.58,10.58,0,0,1,2.05,73.6Z" style="fill:#fec00f"/><path d="M0,76.38l1.31-3.09C4.19,66.52,9.15,62.6,15.68,62a41.31,41.31,0,0,1,10.16.7l.68.11c.57.08,1.13.18,1.7.28,2.38.42,4.62.82,7,.14l.7-.2L39,71l-1.34-.18-2.37-.28c-1.68-.19-3.27-.37-4.84-.68-1.78-.35-3.58-.77-5.31-1.17-2.21-.52-4.49-1-6.75-1.44-5.61-1-10.37.91-14.52,5.79a7,7,0,0,1-1,.86l-.38.3ZM17.9,63.44a20,20,0,0,0-2.06.1A14.43,14.43,0,0,0,5.46,69.25a15.7,15.7,0,0,1,13.23-3.57c2.31.4,4.61.94,6.84,1.46,1.72.4,3.5.81,5.25,1.16,1.52.3,3.07.48,4.72.66l1.06.12-1.64-4.19a17.53,17.53,0,0,1-7-.28l-1.66-.28-.68-.1A51.68,51.68,0,0,0,17.9,63.44Z" style="fill:#fff"/><path d="M40.2,43.29,36.63,49.1c-1.19-1-2.3-1.92-3.49-2.78-2.3-1.65-5-1.46-7.63-1.49-3.18,0-6.25-.42-9-2.12a16.1,16.1,0,0,1-6.81-9,3.48,3.48,0,0,1,.05-1c.38.34.71.49.78.72,1,3.2,3.59,4.58,6.31,5.83,3.9,1.81,8,1.73,12.11,1A13.22,13.22,0,0,1,40.2,43.29Z" style="fill:#fec00f"/><path d="M36.84,50.29l-.71-.56L35,48.82c-.79-.65-1.55-1.28-2.35-1.85-1.84-1.33-4-1.33-6.31-1.34H25.5a18,18,0,0,1-9.43-2.24A16.77,16.77,0,0,1,8.92,34a1.84,1.84,0,0,1,0-.9c0-.11,0-.25,0-.42L9,31l1.23,1.09.33.26a1.59,1.59,0,0,1,.69.83c.83,2.8,3.16,4.08,5.89,5.34,3.21,1.49,6.8,1.79,11.64,1a14.06,14.06,0,0,1,11.91,3.14l.54.45ZM12.39,37.61A14.09,14.09,0,0,0,16.9,42a16.52,16.52,0,0,0,8.62,2h.85c2.45,0,5,0,7.24,1.64.84.61,1.65,1.28,2.43,1.92l.39.32,2.72-4.44a12.32,12.32,0,0,0-10.08-2.36c-3.22.54-8,1-12.58-1.11A18.76,18.76,0,0,1,12.39,37.61Z" style="fill:#fff"/><path d="M57,82.22a5,5,0,0,0-.76.31,5.88,5.88,0,0,0-2.9,5.37,8.55,8.55,0,0,1-5.83,7.59,3.67,3.67,0,0,1-1.2-.11c.85-1,1.57-1.74,2.24-2.55,1.45-1.76,1.57-3.62,1-5.85-.41-1.6,0-3.43.21-5.14.13-1,.85-1.38,2-1.08,1.64.45,3.32.74,5,1.1Z" style="fill:#fec00f"/><path d="M47.29,96.32a3.19,3.19,0,0,1-.63-.08c-.13,0-.27,0-.43-.06L44.69,96,46.51,94c.51-.57,1-1.1,1.42-1.64,1.17-1.41,1.41-2.9.84-5.15a11.81,11.81,0,0,1,.07-4.47c0-.32.09-.64.13-1a2.08,2.08,0,0,1,.87-1.56A2.46,2.46,0,0,1,51.92,80c1.12.31,2.3.55,3.44.78l1.5.31.25.06,1.24,1.39L57.3,83l-.28.1a2.18,2.18,0,0,0-.36.15,5.09,5.09,0,0,0-2.52,4.7,9.31,9.31,0,0,1-6.4,8.34A1.41,1.41,0,0,1,47.29,96.32ZM51,81.45a.54.54,0,0,0-.27.06c-.12.08-.16.3-.18.43,0,.32-.08.66-.13,1a10.48,10.48,0,0,0-.1,3.85c.7,2.73.34,4.75-1.16,6.56-.26.32-.53.64-.82,1a7.8,7.8,0,0,0,4.2-6.41,6.67,6.67,0,0,1,2.56-5.54l-.06,0c-1.16-.23-2.37-.48-3.54-.8A1.81,1.81,0,0,0,51,81.45Z" style="fill:#fff"/><path d="M88.79,79.73c0,.14-.14.28-.28.53a5.41,5.41,0,0,1-.91-.64,5.4,5.4,0,0,0-2.8-1.73A6,6,0,0,0,82,78c-3,.72-5.14-.34-6.7-3.06l-.11-.21,0-.06L77.77,71c1.16,2,3,2.62,5,3a6.72,6.72,0,0,1,3.42,1.79,14.61,14.61,0,0,1,2.47,3.29A1.15,1.15,0,0,1,88.79,79.73Z" style="fill:#fec00f"/><path d="M88.79,81.42l-.73-.5-.28-.18a3.28,3.28,0,0,1-.76-.57,4.65,4.65,0,0,0-2.4-1.5,5.13,5.13,0,0,0-2.48.07c-3.27.79-5.82-.37-7.58-3.45l-.36-.64.35-.51,3.29-4.62.62,1.08c1,1.65,2.41,2.23,4.46,2.63a7.51,7.51,0,0,1,3.81,2,15.73,15.73,0,0,1,2.61,3.46,1.91,1.91,0,0,1,.25,1.06,1.36,1.36,0,0,1-.27.72l-.11.18ZM83.6,77a5.81,5.81,0,0,1,1.39.16,5.69,5.69,0,0,1,2.05.94,11.18,11.18,0,0,0-1.4-1.66,6.11,6.11,0,0,0-3-1.59,8,8,0,0,1-4.84-2.42l-1.68,2.36c1.4,2.3,3.16,3.05,5.68,2.45A7.61,7.61,0,0,1,83.6,77Z" style="fill:#fff"/><path d="M34.92,56.05l-.06,4.53a45.39,45.39,0,0,0-4.74-.25c-4.22.19-7.25-3.78-7.77-7.17,0-.17.14-.36.3-.77C23.9,54.72,25.24,57,27.87,57,30.15,57.11,32.45,56.43,34.92,56.05Z" style="fill:#fec00f"/><path d="M35.65,61.42l-.83-.05-1.55-.11a23.75,23.75,0,0,0-3.12-.13c-4.53.2-8-3.92-8.59-7.85a1.41,1.41,0,0,1,.21-.87c0-.09.09-.19.14-.32l.65-1.57.8,1.5c1.21,2.27,2.39,4.15,4.54,4.22a21,21,0,0,0,4.61-.56c.75-.15,1.51-.3,2.29-.41l.93-.15Zm-4.92-1.9c.9,0,1.8.07,2.67.15l.68,0,0-2.72-1.3.25a22.39,22.39,0,0,1-5,.59,5.09,5.09,0,0,1-3.22-1.28,6.44,6.44,0,0,0,5.45,3Z" style="fill:#fff"/><path d="M41.93,41.53c-.56-5-3-8-8.21-8.2l.09-.43a22.61,22.61,0,0,1,2.73,0c3.42.38,6.4,1.49,8.09,4.84.46.93.42,1.48-.46,2.05C43.45,40.24,42.8,40.84,41.93,41.53Z" style="fill:#fec00f"/><path d="M41.3,43.05l-.16-1.43c-.55-4.92-2.92-7.3-7.45-7.5l-.93,0,.4-2h.64l.84,0a12.06,12.06,0,0,1,2,0c3,.33,6.67,1.23,8.71,5.28a2.1,2.1,0,0,1-.74,3.07,15.34,15.34,0,0,0-1.38,1c-.24.21-.51.43-.79.65ZM39.12,34.2A9,9,0,0,1,42.51,40a12,12,0,0,1,1.23-.93c.44-.28.52-.33.17-1A7.26,7.26,0,0,0,39.12,34.2Z" style="fill:#fff"/><path d="M118.3,54.36c-.76-.6-1.54-1.2-2.32-1.8l-1.8-1.37.26-.29c.77.59,1.57,1.27,2.39,2Q117.61,53.64,118.3,54.36Z" style="fill:#ad2b26"/></g></g></svg>