<svg xmlns="http://www.w3.org/2000/svg" viewBox="0 0 83.4 72.05"><title>tbt</title><g id="f2adec99-50b4-431d-a579-776d60f50e1e" data-name="Layer 2"><g id="f81bbb75-e610-4ad9-978e-678e2cae4bf3" data-name="Layer 1"><g id="a2b36e31-f7ad-4dbd-85b5-3dfa1d12e52b" data-name="f8c16dd5-aee5-4975-b4f1-89fd56921c81"><path d="M16.39,0V6h-5.2V22.93h-6V6H0V0Z" style="fill:#fff"/><path d="M23.84,0V8.9h5.63V0h6V22.93h-6V14.66H23.84v8.27h-6V0Z" style="fill:#fff"/><path d="M53.49,0V5.73H44.12V8.6h8.51v5.73H44.12V17.2h9.62v5.73H38.09V0Z" style="fill:#fff"/><path d="M17.61,30.23a5.11,5.11,0,0,1-3.07,4.88c2.18.62,3.58,2.92,3.58,5.8,0,3.92-2.87,6.45-7.32,6.45H1.17V24.43h9.22C14.77,24.44,17.61,26.73,17.61,30.23Zm-6.15,1.38A1.43,1.43,0,0,0,10.21,30h-3v3.28H10A1.48,1.48,0,0,0,11.46,31.61ZM11.89,40a1.65,1.65,0,0,0-1.64-1.68H7.17v3.51H10a1.73,1.73,0,0,0,1.86-1.58A1.13,1.13,0,0,0,11.89,40Z" style="fill:#fff"/><path d="M36.41,30.23a5.11,5.11,0,0,1-3.07,4.88c2.15.62,3.58,2.92,3.58,5.8,0,3.92-2.86,6.45-7.32,6.45H20V24.43h9.21C33.58,24.44,36.41,26.73,36.41,30.23Zm-6.19,1.38c0-1-.54-1.61-1.37-1.61H26v3.28h2.87C29.68,33.28,30.22,32.62,30.22,31.61ZM30.69,40a1.67,1.67,0,0,0-1.63-1.68H26v3.51h2.87a1.73,1.73,0,0,0,1.84-1.59Z" style="fill:#fff"/><path d="M56.78,35.9c0,7-4,11.46-10.12,11.46H38.78V24.43h8.11C52.89,24.44,56.78,28.93,56.78,35.9ZM50.63,36c0-3.4-1.53-5.63-3.87-5.63h-2V41.49h2.26C49.23,41.49,50.63,39.33,50.63,36Z" style="fill:#fff"/><path d="M16.39,48.88v6h-5.2V71.82h-6V54.87H0v-6Z" style="fill:#fff"/><path d="M23.84,48.88V71.81h-6V48.88Z" style="fill:#fff"/><path d="M32.8,48.88l4,12,4-12H47.1V71.81H41.85V59.26L38.74,69.6h-4L31.68,59.26V71.82H26.43V48.9Z" style="fill:#fff"/><path d="M65.1,48.88v5.73H55.72v2.82h8.52v5.73H55.72V66h9.61v5.73H49.7V48.83Z" style="fill:#fff"/><path d="M75,54.35c-.67,0-1.11.26-1.11.94,0,2.87,9.43,1.09,9.43,9.4,0,5.1-3.59,7.36-7.66,7.36a13.67,13.67,0,0,1-9.12-3.66l2.23-5.74c1.87,2,5.1,3.59,6.94,3.59.88,0,1.43-.36,1.43-1.18,0-3-9.43-1-9.43-9.06,0-4.59,3.07-7.47,7.8-7.47a13.17,13.17,0,0,1,7.91,2.72L81.25,57C79.4,55.75,76.57,54.35,75,54.35Z" style="fill:#fff"/></g></g></g></svg>